<?xml version="1.0" encoding="utf-8"?>
<!-- Generator: Adobe Illustrator 14.0.0, SVG Export Plug-In . SVG Version: 6.00 Build 43363)  -->
<!DOCTYPE svg PUBLIC "-//W3C//DTD SVG 1.1//EN" "http://www.w3.org/Graphics/SVG/1.1/DTD/svg11.dtd">
<svg version="1.1" id="Warstwa_1" xmlns="http://www.w3.org/2000/svg" xmlns:xlink="http://www.w3.org/1999/xlink" x="0px" y="0px"
	 width="595.276px" height="841.891px" viewBox="0 0 595.276 841.891" enable-background="new 0 0 595.276 841.891"
	 xml:space="preserve">
<polygon points="47.672,729.17 171.149,729.531 299.783,742.677 428.433,741.297 551.571,728.815 554.551,605.691 556.091,477.054 
	553.375,348.402 559.277,217.561 428.448,219.948 299.814,210.055 171.161,215.7 46.583,223.82 46.086,348.388 37.243,477.024 
	36,605.81 "/>
<polygon fill="#CFD1D2" points="61.845,714.429 185.322,714.792 313.957,727.937 442.607,726.556 565.744,714.075 568.724,590.951 
	570.264,462.314 567.548,333.662 573.449,202.82 442.622,205.208 313.987,195.314 185.334,200.959 60.756,209.08 60.259,333.647 
	51.416,462.284 50.173,591.07 "/>
<g>
	<g>
		<defs>
			<rect id="SVGID_1_" x="0" y="0" width="595.276" height="841.891"/>
		</defs>
		<clipPath id="SVGID_2_">
			<use xlink:href="#SVGID_1_"  overflow="visible"/>
		</clipPath>
		<path clip-path="url(#SVGID_2_)" d="M264.535,456.972c-1.608,1.383-2.66,0.517-4.341-0.512c-1.681-1.03-5.123,0.725-6.08,0.816
			c-0.96,0.093-9.299,0.583-13.308,0.813c-4.01,0.229-1.475-0.566,4.977-3.551c6.45-2.981,19.42-0.312,19.42-0.312
			C265.481,456.152,266.142,455.591,264.535,456.972 M316.573,432.581c-1.517-0.657-9.367,4.171-9.263,7.902
			c0.105,3.731-1.953,7.093-2.797,9.691c-0.844,2.598-1.799,8.689-3.221,9.988c-1.421,1.302-5.264,5.9-6.86,7.057
			c-1.597,1.154-6.997,3.004-7.327,2.263c-0.331-0.742-3.197-2.688-5.29-2.646c-2.093,0.044-0.321-3.969,1.151-5.401
			c1.473-1.435,0.174-2.761-0.127-4.472c-0.301-1.712,0.745-0.593,1.341-2.038c0.595-1.447,0.375-3.889-0.268-5.071
			c-0.643-1.184-3.347-4.795-5.282-4.74c-1.937,0.055-4.128-0.69-6.828-0.267s-6.108,7.497-6.108,7.497s-8.978-0.447-14.357-0.053
			c-5.381,0.396-14.852,3.834-14.623,5.845c0.228,2.01,7.164,0.365,11.627,0.156s3.989,0.225-1.091,3.042
			c-5.08,2.816-11.591,7.16-17.134,12.185c-5.542,5.023-3.829,8.373-3.59,12.156c0.239,3.78,3.787,5.759,9.314,9.188
			s3.249,3.554,1.561,7.75c-1.687,4.197-2.087,8.042-8.237,11.447c-6.152,3.406-17.744,9.565-23.165,11.87
			c-5.42,2.302-6.557-0.749-10.484-2.333c-3.928-1.585-8.339-0.511-15.091,0.051c-6.751,0.562-8.175-2.139-12.351-2.281
			c-4.175-0.141-7.151,2.407-12.056,5.368c-4.905,2.962-3.989,0.776-17.004,6.237c-13.015,5.462-11.261,7.903-9.96,11.325
			c1.301,3.421,0.548,3.978,5.529,7.428c4.98,3.45,5.559,3.749,13.07,0.404c7.513-3.347,14.309-14.038,19.367-18.402
			c5.059-4.363,8.1-4.273,15.614-2.618c7.516,1.655,17.445,6.235,23.837,7.612c6.391,1.377,24.362-8.18,28.34-9.729
			c3.979-1.549,1.931,3.586,2.58,5.296c0.651,1.711-0.625,4.836-2.002,12.229c-1.376,7.391-1.229,10.216-2.301,11.804
			s-3.434-0.472-10.803-0.303c-7.37,0.17-13.873,2.288-17.026,3.69c-3.153,1.403-4.032-3.315-5.415-4.924
			c-1.382-1.605-2.575,2.702-6.274,4.127c-3.699,1.426-12.522,1.575-21.12-0.264c-8.599-1.84-14.18-8.134-15.117-8.494
			c-0.938-0.36,0.227,1.011,0.136,3.052s4.538,4.201,13.499,9.104c8.961,4.899,28.216,5.218,35.152,3.574
			c6.936-1.645,8.473,0.562,17.833,0.616c9.358,0.057,15.738-1.341,17.53-3.805c1.792-2.465,6.241-8.446,8.495-13.117
			s4.724-13.104,7.912-22.666c3.188-9.56,5.973-8.298,8.603-8.135c2.628,0.164,6.144,0.821,10.036-3.913
			c3.894-4.732,4.339-17.712,7.006-22.455c2.666-4.742,2.552-6.248,2.552-6.248s0.547,0.979,0.879,3.722
			c0.331,2.741,1.616,13.615,0.373,19.059c-1.244,5.444,4.342,3.512,5.36,2.059c1.021-1.454-0.857-4.175-1.418-8.926
			c-0.559-4.752-1.566-16.749-1.384-19.831c0.185-3.083,1.379-3.393,6.006-6.229c4.626-2.838,10.949-12.1,12.699-15.656
			c1.75-3.556,3.166-13.855,3.494-16.113s4.232-5.219,5.427-7.526C318.719,436.404,318.088,433.24,316.573,432.581"/>
	</g>
</g>
<g>
	<path d="M112.366,256.507h-2.021l-0.806-5.098h-4.557l-0.806,5.098h-1.963v-0.059l4.087-22.925h2.007L112.366,256.507z
		 M109.275,249.607l-2.007-12.422l-2.021,12.422H109.275z"/>
	<path d="M122.444,256.507h-7.323v-22.925h2.036v21.123h5.287V256.507z"/>
	<path d="M134.412,254.881c0,0.479-0.151,0.869-0.454,1.173c-0.304,0.303-0.693,0.453-1.172,0.453h-7.56v-22.925h7.5
		c0.479,0,0.869,0.151,1.172,0.454c0.304,0.303,0.454,0.693,0.454,1.172v6.813c0,0.604-0.272,1.112-0.819,1.522
		c-0.537,0.322-1.074,0.646-1.611,0.967l1.729,1.113c0.509,0.313,0.763,0.801,0.763,1.465L134.412,254.881L134.412,254.881z
		 M132.302,242.283v-6.899h-5.039v8.276h3.003L132.302,242.283z M132.361,254.705v-7.925l-2.064-1.348h-3.032v9.271L132.361,254.705
		L132.361,254.705z"/>
	<path d="M147.654,254.881c0,0.479-0.153,0.869-0.461,1.173c-0.307,0.303-0.7,0.453-1.179,0.453h-6.416
		c-0.479,0-0.869-0.15-1.172-0.453c-0.303-0.304-0.454-0.693-0.454-1.173v-19.673c0-0.479,0.151-0.869,0.454-1.172
		s0.693-0.454,1.172-0.454h6.416c0.479,0,0.872,0.151,1.179,0.454c0.308,0.303,0.461,0.693,0.461,1.172V254.881z M145.618,254.705
		v-19.321h-5.61v19.321H145.618z"/>
	<path d="M164.866,256.507h-8.789v-1.084l6.444-20.039h-5.814v-1.802h8.159v1.056l-6.445,20.067h6.445V256.507z"/>
	<path d="M182.898,254.881c0,0.479-0.153,0.869-0.461,1.173c-0.307,0.303-0.701,0.453-1.179,0.453h-6.24
		c-0.479,0-0.869-0.15-1.172-0.453c-0.303-0.304-0.454-0.693-0.454-1.173v-21.299h2.036v21.123h5.435v-21.123h2.036L182.898,254.881
		L182.898,254.881z"/>
	<path d="M191.936,245.711l-6.665,4.922v-2.079l6.665-4.907V245.711z M193.884,256.507h-7.324v-22.925h2.036v21.123h5.288V256.507
		L193.884,256.507z"/>
	<path d="M205.911,256.507h-2.021l-0.806-5.098h-4.557l-0.806,5.098h-1.963v-0.059l4.087-22.925h2.007L205.911,256.507z
		 M202.82,249.607l-2.007-12.422l-2.021,12.422H202.82z"/>
	<path d="M218.113,256.507h-1.405l-6.123-16.859v16.859h-1.919v-22.925h1.522l6.006,16.567v-16.567h1.919V256.507L218.113,256.507z"
		/>
	<path d="M230.71,254.881c0,0.479-0.149,0.869-0.447,1.173c-0.298,0.303-0.686,0.453-1.165,0.453h-5.771
		c-0.479,0-0.872-0.15-1.18-0.453c-0.307-0.304-0.461-0.693-0.461-1.173v-5.814h2.036v5.64h4.951v-5.464l-6.328-7.646
		c-0.438-0.527-0.659-1.108-0.659-1.743v-4.645c0-0.479,0.154-0.869,0.461-1.172c0.308-0.303,0.701-0.454,1.18-0.454h5.771
		c0.479,0,0.867,0.151,1.165,0.454s0.447,0.693,0.447,1.172v5.332h-2.036v-5.155h-4.951v4.834l6.357,7.646
		c0.42,0.508,0.63,1.079,0.63,1.714V254.881z"/>
	<path d="M243.879,256.507h-2.241l-5.288-11.016v11.016h-2.036v-22.925h2.036v10.298l4.805-10.298h2.213v0.132l-5.187,10.913
		L243.879,256.507z"/>
	<path d="M255.1,256.507h-2.021l-0.807-5.098h-4.556l-0.806,5.098h-1.963v-0.059l4.087-22.925h2.007L255.1,256.507z
		 M252.009,249.607l-2.007-12.422l-2.021,12.422H252.009z"/>
	<path d="M271.111,235.384h-5.347v8.701h4.922v1.831h-4.922v10.591h-2.036v-22.925h7.383V235.384L271.111,235.384z"/>
	<path d="M283.167,256.507h-2.021l-0.806-5.098h-4.556l-0.807,5.098h-1.963v-0.059l4.087-22.925h2.007L283.167,256.507z
		 M280.076,249.607l-2.008-12.422l-2.021,12.422H280.076z"/>
	<path d="M295.369,256.507h-1.406l-6.123-16.859v16.859h-1.919v-22.925h1.522l6.007,16.567v-16.567h1.919V256.507L295.369,256.507z"
		/>
	<path d="M306.926,235.384h-3.545v21.123h-2.036v-21.123h-3.574v-1.802h9.155V235.384L306.926,235.384z"/>
	<path d="M318.557,256.507h-2.021l-0.807-5.098h-4.556l-0.806,5.098h-1.964v-0.059l4.088-22.925h2.007L318.557,256.507z
		 M315.466,249.607l-2.007-12.422l-2.021,12.422H315.466z"/>
	<path d="M328.987,256.507h-8.788v-1.084l6.444-20.039h-5.814v-1.802h8.158v1.056l-6.444,20.067h6.444V256.507z"/>
	<path d="M339.709,254.881c0,0.479-0.151,0.869-0.454,1.173c-0.303,0.303-0.693,0.453-1.172,0.453h-5.332
		c-0.479,0-0.869-0.15-1.172-0.453c-0.304-0.304-0.454-0.693-0.454-1.173v-5.814h2.036v5.64h4.512v-21.123h2.036V254.881z"/>
	<path d="M352.615,256.507h-2.021l-0.806-5.098h-4.557l-0.806,5.098h-1.963v-0.059l4.087-22.925h2.007L352.615,256.507z
		 M349.524,249.607l-2.007-12.422l-2.021,12.422H349.524z"/>
</g>
<g>
	<path d="M112.205,275.77c0,0.479-0.154,0.872-0.461,1.179c-0.308,0.307-0.701,0.461-1.18,0.461h-5.404v9.097h-2.036v-22.925h7.44
		c0.479,0,0.872,0.151,1.18,0.454c0.307,0.303,0.461,0.693,0.461,1.172V275.77z M110.168,275.594v-10.211h-5.01v10.211H110.168z"/>
	<path d="M125.11,284.881c0,0.479-0.153,0.869-0.461,1.173c-0.307,0.303-0.7,0.453-1.179,0.453h-6.416
		c-0.479,0-0.869-0.15-1.172-0.453c-0.303-0.304-0.454-0.693-0.454-1.173v-19.673c0-0.479,0.151-0.869,0.454-1.172
		s0.693-0.454,1.172-0.454h6.416c0.479,0,0.872,0.151,1.179,0.454c0.308,0.303,0.461,0.693,0.461,1.172V284.881z M123.074,284.705
		v-19.321h-5.61v19.321H123.074L123.074,284.705z"/>
</g>
<g>
	<path d="M142.483,263.582l-3.12,22.983h-1.654l-2.49-17.285c-0.01-0.303-0.029-0.752-0.059-1.348c0,0.313-0.021,0.762-0.06,1.348
		l-2.49,17.285h-1.654l-3.12-22.983h2.021l1.948,16.538c0.01,0.371,0.029,0.918,0.059,1.642c-0.01-0.371,0.011-0.919,0.06-1.642
		l2.373-16.538h1.743l2.357,16.538c0.021,0.371,0.039,0.918,0.06,1.642c0-0.371,0.023-0.919,0.072-1.642l1.948-16.538H142.483z"/>
	<path d="M154.144,284.881c0,0.479-0.148,0.869-0.447,1.173c-0.298,0.303-0.686,0.453-1.164,0.453h-5.771
		c-0.479,0-0.872-0.15-1.179-0.453c-0.308-0.304-0.461-0.693-0.461-1.173v-5.814h2.036v5.64h4.95v-5.464l-6.328-7.646
		c-0.438-0.527-0.658-1.108-0.658-1.743v-4.645c0-0.479,0.153-0.869,0.461-1.172c0.307-0.303,0.701-0.454,1.179-0.454h5.771
		c0.479,0,0.866,0.151,1.164,0.454c0.299,0.303,0.447,0.693,0.447,1.172v5.332h-2.036v-5.155h-4.95v4.834l6.356,7.646
		c0.42,0.508,0.63,1.079,0.63,1.714V284.881z"/>
	<path d="M166.829,275.77c0,0.479-0.154,0.872-0.461,1.179c-0.308,0.307-0.701,0.461-1.18,0.461h-5.404v9.097h-2.036v-22.925h7.44
		c0.479,0,0.872,0.151,1.18,0.454c0.307,0.303,0.461,0.693,0.461,1.172V275.77z M164.793,275.594v-10.211h-5.01v10.211H164.793z"/>
	<path d="M172.205,286.507h-2.036v-22.925h2.036V286.507z"/>
	<path d="M185.477,286.507h-1.406l-6.122-16.859v16.859h-1.92v-22.925h1.523l6.006,16.567v-16.567h1.919V286.507L185.477,286.507z"
		/>
	<path d="M198.382,286.507h-2.021l-0.806-5.098h-4.556l-0.807,5.098h-1.963v-0.059l4.087-22.925h2.008L198.382,286.507z
		 M195.291,279.607l-2.007-12.422l-2.021,12.422H195.291z"/>
	<path d="M210.32,284.881c0,0.479-0.155,0.869-0.469,1.173c-0.313,0.303-0.708,0.453-1.187,0.453h-5.903
		c-0.479,0-0.869-0.15-1.172-0.453c-0.303-0.304-0.454-0.693-0.454-1.173v-19.673c0-0.479,0.151-0.869,0.454-1.172
		s0.693-0.454,1.172-0.454h5.903c0.479,0,0.874,0.151,1.187,0.454c0.313,0.303,0.469,0.693,0.469,1.172v5.332h-2.051v-5.156h-5.098
		v19.321h5.098v-5.64h2.051V284.881z"/>
	<path d="M228.689,284.881c0,0.479-0.148,0.869-0.446,1.173c-0.299,0.303-0.687,0.453-1.165,0.453h-5.771
		c-0.479,0-0.872-0.15-1.179-0.453c-0.308-0.304-0.461-0.693-0.461-1.173v-5.814h2.036v5.64h4.95v-5.464l-6.327-7.646
		c-0.439-0.527-0.659-1.108-0.659-1.743v-4.645c0-0.479,0.153-0.869,0.461-1.172c0.307-0.303,0.701-0.454,1.179-0.454h5.771
		c0.479,0,0.866,0.151,1.165,0.454c0.298,0.303,0.446,0.693,0.446,1.172v5.332h-2.036v-5.155h-4.95v4.834l6.356,7.646
		c0.42,0.508,0.63,1.079,0.63,1.714V284.881z"/>
	<path d="M234.446,286.507h-2.035v-22.925h2.035V286.507z"/>
	<path d="M245.799,286.507h-7.529v-22.925h7.441v1.802h-5.405v8.556h4.922v1.831h-4.922v8.936h5.493V286.507L245.799,286.507z"/>
	<path d="M263.934,275.77c0,0.479-0.154,0.872-0.461,1.179s-0.701,0.461-1.179,0.461h-5.405v9.097h-2.036v-22.925h7.441
		c0.479,0,0.872,0.151,1.179,0.454s0.461,0.693,0.461,1.172V275.77z M261.897,275.594v-10.211h-5.01v10.211H261.897z"/>
	<path d="M276.839,284.881c0,0.479-0.154,0.869-0.461,1.173c-0.308,0.303-0.701,0.453-1.179,0.453h-6.416
		c-0.479,0-0.869-0.15-1.173-0.453c-0.303-0.304-0.453-0.693-0.453-1.173v-19.673c0-0.479,0.15-0.869,0.453-1.172
		c0.304-0.303,0.693-0.454,1.173-0.454h6.416c0.479,0,0.871,0.151,1.179,0.454c0.307,0.303,0.461,0.693,0.461,1.172V284.881z
		 M274.803,284.705v-19.321h-5.61v19.321H274.803L274.803,284.705z"/>
	<path d="M295.311,284.881c0,0.479-0.148,0.869-0.446,1.173c-0.299,0.303-0.687,0.453-1.165,0.453h-5.771
		c-0.479,0-0.872-0.15-1.179-0.453c-0.308-0.304-0.461-0.693-0.461-1.173v-5.814h2.036v5.64h4.95v-5.464l-6.327-7.646
		c-0.439-0.527-0.659-1.108-0.659-1.743v-4.645c0-0.479,0.153-0.869,0.461-1.172c0.307-0.303,0.701-0.454,1.179-0.454h5.771
		c0.479,0,0.866,0.151,1.165,0.454c0.298,0.303,0.446,0.693,0.446,1.172v5.332h-2.036v-5.155h-4.95v4.834l6.356,7.646
		c0.42,0.508,0.63,1.079,0.63,1.714V284.881z"/>
	<path d="M308.48,286.507h-2.242l-5.286-11.016v11.016h-2.037v-22.925h2.037v10.298l4.805-10.298h2.211v0.132l-5.186,10.913
		L308.48,286.507z"/>
	<path d="M319.701,286.507h-2.021l-0.806-5.098h-4.557l-0.806,5.098h-1.963v-0.059l4.087-22.925h2.007L319.701,286.507z
		 M316.61,279.607l-2.007-12.422l-2.021,12.422H316.61z"/>
	<path d="M327.83,275.711l-6.665,4.922v-2.079l6.665-4.907V275.711z M329.778,286.507h-7.323v-22.925h2.036v21.123h5.287V286.507z"
		/>
	<path d="M341.804,286.507h-2.021l-0.807-5.098h-4.556l-0.806,5.098h-1.964v-0.059l4.087-22.925h2.008L341.804,286.507z
		 M338.713,279.607l-2.007-12.422l-2.021,12.422H338.713z"/>
	<path d="M353.744,284.881c0,0.479-0.156,0.869-0.47,1.173c-0.313,0.303-0.708,0.453-1.187,0.453h-5.903
		c-0.479,0-0.869-0.15-1.172-0.453c-0.303-0.304-0.454-0.693-0.454-1.173v-19.673c0-0.479,0.151-0.869,0.454-1.172
		s0.693-0.454,1.172-0.454h5.903c0.479,0,0.874,0.151,1.187,0.454c0.313,0.303,0.47,0.693,0.47,1.172v5.332h-2.052v-5.156h-5.098
		v19.321h5.098v-5.64h2.052V284.881L353.744,284.881z"/>
	<path d="M366.898,286.507h-2.036v-11.016h-5.521v11.016h-2.036v-22.925h2.036v10.078h5.521v-10.078h2.036V286.507z"/>
</g>
<g>
	<path d="M112.571,316.508h-1.405l-6.123-16.86v16.86h-1.919v-22.926h1.522l6.006,16.567v-16.567h1.919V316.508z"/>
	<path d="M125.476,316.508h-2.021l-0.807-5.099h-4.556l-0.806,5.099h-1.963v-0.06l4.087-22.925h2.007L125.476,316.508z
		 M122.385,309.607l-2.007-12.422l-2.021,12.422H122.385z"/>
	<path d="M143.259,314.882c0,0.479-0.151,0.869-0.454,1.172s-0.693,0.454-1.172,0.454h-5.903c-0.479,0-0.869-0.151-1.172-0.454
		s-0.454-0.693-0.454-1.172v-5.815h2.036v5.64h5.068v-7.017l-4.043-3.032v-0.454l4.014-2.987v-5.83h-5.01v5.156h-2.036v-5.333
		c0-0.479,0.151-0.869,0.454-1.172s0.692-0.454,1.172-0.454h5.845c0.479,0,0.869,0.151,1.172,0.454
		c0.304,0.303,0.454,0.693,0.454,1.172v5.581c0,0.732-0.293,1.305-0.879,1.715l-2.725,1.919l2.754,1.919
		c0.586,0.399,0.879,0.98,0.879,1.743V314.882z"/>
	<path d="M149.045,316.508h-2.051v-15.895H146.1v-0.073l1.289-6.958h1.655L149.045,316.508L149.045,316.508z"/>
	<path d="M170.066,316.508h-1.919V301.99c0-0.205,0.068-0.806,0.205-1.802l-3.75,14.165h-0.41l-3.75-14.165
		c0.138,1.006,0.205,1.606,0.205,1.802v14.518h-1.919v-22.926h1.891l3.721,14.912c0.02,0.078,0.039,0.298,0.059,0.659
		c0-0.146,0.021-0.366,0.06-0.659l3.721-14.912h1.89v22.926H170.066z"/>
	<path d="M181.257,316.508h-7.529v-22.926h7.441v1.802h-5.405v8.556h4.922v1.831h-4.922v8.936h5.493V316.508L181.257,316.508z"/>
	<path d="M192.332,295.384h-3.545v21.124h-2.036v-21.124h-3.574v-1.802h9.155V295.384z"/>
	<path d="M204.475,316.508h-2.139l-4.263-12.275l0.277-0.41h3.633v-8.438h-5.229v21.124h-2.036v-22.926h7.676
		c0.479,0,0.869,0.151,1.172,0.454c0.304,0.303,0.454,0.693,0.454,1.172v8.701c0,1.104-0.742,1.655-2.227,1.655
		c-0.146,0-0.361-0.007-0.646-0.022c-0.284-0.015-0.487-0.021-0.614-0.021C201.853,309.174,203.167,312.836,204.475,316.508z"/>
	<path d="M216.765,316.508h-2.021l-0.807-5.099h-4.556l-0.806,5.099h-1.964v-0.06l4.088-22.925h2.007L216.765,316.508z
		 M213.674,309.607l-2.007-12.422l-2.021,12.422H213.674z"/>
	<path d="M228.704,314.882c0,0.479-0.156,0.869-0.47,1.172c-0.313,0.303-0.708,0.454-1.187,0.454h-5.903
		c-0.479,0-0.869-0.151-1.172-0.454s-0.454-0.693-0.454-1.172v-19.674c0-0.479,0.151-0.869,0.454-1.172s0.693-0.454,1.172-0.454
		h5.903c0.479,0,0.874,0.151,1.187,0.454c0.313,0.303,0.47,0.693,0.47,1.172v5.332h-2.052v-5.156h-5.098v19.321h5.098v-5.64h2.052
		V314.882z"/>
	<path d="M241.858,316.508h-2.036v-11.017H234.3v11.017h-2.036v-22.926h2.036v10.078h5.521v-10.078h2.036V316.508z"/>
</g>
<g>
	<g>
		<defs>
			<rect id="SVGID_3_" x="0" y="0" width="595.276" height="841.891"/>
		</defs>
		<clipPath id="SVGID_4_">
			<use xlink:href="#SVGID_3_"  overflow="visible"/>
		</clipPath>
		<path clip-path="url(#SVGID_4_)" d="M538.442,136.732c-14.99,0.256-27.685-0.146-42.365,2.911
			c0.248,25.41-10.906,47.247-12.121,72.694c-0.688,14.433,0.805,28.992-0.19,43.368c-1.146,16.552-8.454,23.262-23.836,23.141
			c-0.151,1.028-0.349,2.048-0.587,3.058c-7.564,14.4-6.027,35.126-7.368,51.32c-0.695,8.407,0.679,17.162-7.573,21.357
			c-11.311,5.75-28.453,0.903-40.529,1.186c-18.521,0.431-32.363,9.303-33.802,29.831c-0.628,8.966-1.51,18.947,0.061,27.827
			c1.602,9.058,8.511,17.427,8.194,26.766c-0.427,12.567-13.333,20.305-20.141,29.001c-7.257,9.272-9.658,20.248-12.012,31.796
			c11.313,4.854,6.241,17.04,5.403,27.067c-0.95,11.361-3.919,19.34-9.073,29.372c-4.983,9.695-12.468,15.429-19.169,23.657
			c-6.137,7.535-19.468,21.056-17.922,31.879c1.43,10.02,6.547,14.935,4.664,26.083c-1.921,11.373-5.571,21.944-5.354,33.654
			c0.331,17.933-5.334,34.306-4.053,52.513c-1.904,3.604,16.709,4.739,25.688,5.272c9.917,0.59,19.683,0.856,29.615,0.987
			c24.378,0.32,48.571,0.878,73.037,0.261c24.215-0.61,49.398-2.55,73.563-0.901c11.062,0.755,21.39,1.08,32.493,0.865
			c10.164-0.194,20.934,1.772,30.569-2.528c-0.501-31.122,9.03-59.841,9.453-90.673c0.547-39.859,4.398-80.521,0.924-120.247
			c-1.938-22.146-3.47-43.739-1.509-65.952c1.946-22.043,4.499-43.752,3.406-65.956c-2.438-49.525,6.238-98.41,3.727-147.905
			c-1.053-20.701-3.288-42.02-6.329-62.498c-3.192-21.508-9.605-38.438-32.014-39.204"/>
	</g>
</g>
<polygon points="183.354,628.609 181.889,626.373 180.053,626.373 180.053,626.412 182.456,628.667 183.354,628.667 "/>
<polygon points="208.142,648.677 206.677,646.442 204.841,646.442 204.841,646.481 207.244,648.737 208.142,648.737 "/>
<polygon points="207.732,261.591 205.535,258.237 202.781,258.237 202.781,258.295 206.384,261.679 207.732,261.679 "/>
<polygon points="214.951,231.544 212.754,228.19 210,228.19 210,228.248 213.603,231.632 214.951,231.632 "/>
<g>
	<g>
		<defs>
			<rect id="SVGID_5_" x="0" y="0" width="595.276" height="841.891"/>
		</defs>
		<clipPath id="SVGID_6_">
			<use xlink:href="#SVGID_5_"  overflow="visible"/>
		</clipPath>
		<path clip-path="url(#SVGID_6_)" d="M256.771,259.313c0-0.508-0.205-0.903-0.614-1.188c-0.45-0.224-0.895-0.449-1.333-0.673
			v-1.011h-1.568v0.98c0,0.498,0.215,0.89,0.645,1.173c0.431,0.225,0.864,0.444,1.305,0.658v1.568h-2.242v-1.509h-1.538v1.654
			c0,0.781,0.391,1.173,1.172,1.173h3.003c0.781,0,1.172-0.392,1.172-1.173V259.313L256.771,259.313z"/>
	</g>
	<g>
		<defs>
			<rect id="SVGID_7_" x="0" y="0" width="595.276" height="841.891"/>
		</defs>
		<clipPath id="SVGID_8_">
			<use xlink:href="#SVGID_7_"  overflow="visible"/>
		</clipPath>
		<path clip-path="url(#SVGID_8_)" d="M247.01,289.341c0-0.508-0.205-0.902-0.615-1.187c-0.45-0.224-0.894-0.449-1.333-0.673v-1.011
			h-1.567v0.98c0,0.498,0.215,0.889,0.645,1.172c0.43,0.226,0.864,0.445,1.304,0.659v1.568h-2.241v-1.51h-1.538v1.655
			c0,0.781,0.391,1.172,1.172,1.172h3.003c0.781,0,1.172-0.391,1.172-1.172V289.341L247.01,289.341z"/>
	</g>
	<g>
		<defs>
			<rect id="SVGID_9_" x="0" y="0" width="595.276" height="841.891"/>
		</defs>
		<clipPath id="SVGID_10_">
			<use xlink:href="#SVGID_9_"  overflow="visible"/>
		</clipPath>
		<path clip-path="url(#SVGID_10_)" d="M354.338,259.313c0-0.508-0.204-0.903-0.614-1.188c-0.45-0.224-0.895-0.449-1.333-0.673
			v-1.011h-1.567v0.98c0,0.498,0.215,0.89,0.646,1.173c0.43,0.225,0.863,0.444,1.304,0.658v1.568h-2.242v-1.509h-1.537v1.654
			c0,0.781,0.391,1.173,1.172,1.173h3.003c0.781,0,1.172-0.392,1.172-1.173v-1.654H354.338z"/>
	</g>
</g>
<g>
	<path d="M99.732,638.126c0,0.318-0.103,0.58-0.308,0.785s-0.467,0.309-0.786,0.309h-3.604v6.063h-1.357v-15.282h4.961
		c0.319,0,0.581,0.101,0.786,0.303s0.308,0.462,0.308,0.781V638.126z M98.375,638.009v-6.808h-3.34v6.808H98.375z"/>
	<path d="M108.042,645.284h-1.349l-0.536-3.397h-3.037l-0.537,3.397h-1.31v-0.039L104,629.962h1.338L108.042,645.284z
		 M105.982,640.684l-1.338-8.281l-1.348,8.281H105.982z"/>
	<path d="M119.019,630.001l-2.08,15.321h-1.104l-1.66-11.522c-0.006-0.202-0.021-0.501-0.039-0.898c0,0.208-0.013,0.508-0.039,0.898
		l-1.66,11.522h-1.104l-2.08-15.321h1.348l1.299,11.024c0.007,0.247,0.021,0.612,0.039,1.094c-0.006-0.247,0.006-0.611,0.039-1.094
		l1.582-11.024h1.162l1.572,11.024c0.013,0.247,0.025,0.612,0.039,1.094c0-0.247,0.016-0.611,0.049-1.094l1.299-11.024H119.019z"/>
	<path d="M125.855,645.284h-5.02v-15.283h4.961v1.2h-3.604v5.703h3.281v1.222h-3.281v5.956h3.662L125.855,645.284L125.855,645.284z"
		/>
	<path d="M131.558,638.087l-4.442,3.28v-1.387l4.442-3.271V638.087z M132.857,645.284h-4.883v-15.283h1.357v14.081h3.524
		L132.857,645.284L132.857,645.284z"/>
	<path d="M144.683,638.126c0,0.318-0.103,0.58-0.308,0.785s-0.467,0.309-0.786,0.309h-3.604v6.063h-1.356v-15.282h4.961
		c0.319,0,0.581,0.101,0.786,0.303s0.308,0.462,0.308,0.781V638.126z M143.326,638.009v-6.808h-3.341v6.808H143.326z"/>
	<path d="M148.013,645.284h-1.484v-1.719h1.484V645.284z"/>
	<path d="M155.503,645.284h-1.357v-15.283h1.357V645.284z"/>
	<path d="M168.023,638.126c0,0.318-0.103,0.58-0.308,0.785s-0.467,0.309-0.786,0.309h-3.604v6.063h-1.357v-15.282h4.961
		c0.319,0,0.581,0.101,0.786,0.303s0.308,0.462,0.308,0.781V638.126z M166.666,638.009v-6.808h-3.34v6.808H166.666z"/>
	<path d="M176.675,645.284h-1.426l-2.842-8.184l0.186-0.273h2.422v-5.625h-3.486v14.082h-1.356v-15.283h5.117
		c0.318,0,0.58,0.101,0.78,0.303c0.201,0.202,0.304,0.462,0.304,0.781v5.801c0,0.734-0.495,1.104-1.484,1.104
		c-0.098,0-0.241-0.005-0.43-0.015c-0.189-0.01-0.326-0.015-0.41-0.015C174.927,640.394,175.803,642.836,176.675,645.284z"/>
	<path d="M185.162,644.2c0,0.319-0.104,0.579-0.309,0.781s-0.467,0.303-0.786,0.303h-4.276c-0.319,0-0.58-0.101-0.781-0.303
		s-0.303-0.462-0.303-0.781v-13.114c0-0.319,0.101-0.579,0.303-0.781s0.462-0.303,0.781-0.303h4.276
		c0.319,0,0.581,0.101,0.786,0.303s0.309,0.462,0.309,0.781V644.2z M183.804,644.083v-12.881h-3.74v12.881H183.804z"/>
	<path d="M193.726,644.2c0,0.319-0.101,0.579-0.303,0.781s-0.462,0.303-0.781,0.303h-5.039v-15.283h5
		c0.319,0,0.58,0.101,0.781,0.303s0.303,0.462,0.303,0.781v4.541c0,0.402-0.182,0.741-0.547,1.016
		c-0.357,0.215-0.716,0.43-1.074,0.645l1.152,0.742c0.338,0.208,0.508,0.534,0.508,0.978V644.2L193.726,644.2z M192.32,635.802
		v-4.601h-3.358v5.519h2.002L192.32,635.802z M192.359,644.083v-5.282l-1.377-0.898h-2.021v6.183h3.397V644.083z"/>
	<path d="M202.261,645.284h-1.348l-0.537-3.397h-3.037l-0.537,3.397h-1.309v-0.039l2.725-15.282h1.338L202.261,645.284z
		 M200.201,640.684l-1.339-8.281l-1.348,8.281H200.201z"/>
	<path d="M214.136,644.2c0,0.319-0.101,0.579-0.303,0.781s-0.462,0.303-0.781,0.303h-5.039v-15.283h5
		c0.319,0,0.58,0.101,0.781,0.303s0.303,0.462,0.303,0.781v4.541c0,0.402-0.182,0.741-0.547,1.016
		c-0.358,0.215-0.716,0.43-1.074,0.645l1.152,0.742c0.338,0.208,0.508,0.534,0.508,0.978V644.2L214.136,644.2z M212.73,635.802
		v-4.601h-3.358v5.519h2.002L212.73,635.802z M212.769,644.083v-5.282l-1.377-0.898h-2.021v6.183h3.397V644.083z"/>
	<path d="M217.945,645.284h-1.356v-15.283h1.356V645.284z"/>
	<path d="M226.617,644.2c0,0.319-0.104,0.579-0.313,0.781s-0.472,0.303-0.791,0.303h-3.936c-0.319,0-0.58-0.101-0.781-0.303
		s-0.303-0.462-0.303-0.781v-13.114c0-0.319,0.101-0.579,0.303-0.781s0.462-0.303,0.781-0.303h3.936
		c0.319,0,0.583,0.101,0.791,0.303s0.313,0.462,0.313,0.781v3.555h-1.367v-3.438h-3.398v12.881h3.398v-3.76h1.367V644.2z"/>
	<path d="M230.425,645.284h-1.357v-15.283h1.357V645.284z"/>
	<path d="M239.136,645.284h-1.348l-0.537-3.397h-3.037l-0.537,3.397h-1.309v-0.039l2.725-15.282h1.338L239.136,645.284z
		 M237.076,640.684l-1.339-8.281l-1.348,8.281H237.076z"/>
</g>
<g>
	<path d="M100.181,665.284h-1.426l-2.842-8.184l0.186-0.273h2.422v-5.625h-3.485v14.082h-1.357v-15.283h5.117
		c0.318,0,0.58,0.101,0.781,0.303c0.2,0.202,0.303,0.462,0.303,0.781v5.801c0,0.734-0.495,1.104-1.484,1.104
		c-0.098,0-0.241-0.005-0.43-0.015c-0.189-0.01-0.326-0.015-0.41-0.015C98.433,660.394,99.309,662.836,100.181,665.284z"/>
	<path d="M107.232,665.284h-5.02v-15.283h4.961v1.2h-3.604v5.703h3.281v1.222h-3.281v5.956h3.662L107.232,665.284L107.232,665.284z"
		/>
	<path d="M115.728,665.284h-1.494l-3.524-7.344v7.344h-1.357v-15.283h1.357v6.864l3.203-6.864h1.475v0.088l-3.457,7.274
		L115.728,665.284z"/>
	<path d="M123.501,664.2c0,0.319-0.104,0.579-0.309,0.781s-0.467,0.303-0.785,0.303h-4.277c-0.319,0-0.58-0.101-0.781-0.303
		s-0.303-0.462-0.303-0.781v-13.114c0-0.319,0.101-0.579,0.303-0.781s0.463-0.304,0.781-0.304h4.277c0.318,0,0.58,0.101,0.785,0.303
		s0.309,0.462,0.309,0.781V664.2z M122.144,664.083v-12.881h-3.74v12.881H122.144z"/>
	<path d="M132.447,665.284h-1.426l-2.842-8.184l0.187-0.273h2.422v-5.625H127.3v14.082h-1.357v-15.283h5.117
		c0.319,0,0.58,0.101,0.781,0.303s0.303,0.462,0.303,0.781v5.801c0,0.734-0.495,1.104-1.483,1.104c-0.099,0-0.241-0.005-0.431-0.015
		c-0.188-0.01-0.326-0.015-0.41-0.015C130.699,660.394,131.574,662.836,132.447,665.284z"/>
	<path d="M140.777,662.52c0,0.808-0.265,1.47-0.796,1.987c-0.53,0.517-1.2,0.775-2.007,0.775h-3.496v-15.282h3.496
		c0.814,0,1.484,0.259,2.012,0.775c0.528,0.518,0.791,1.18,0.791,1.987V662.52L140.777,662.52z M139.419,662.384v-9.502
		c0-0.501-0.158-0.906-0.475-1.217c-0.315-0.31-0.724-0.464-1.226-0.464h-1.885v12.881h1.807c0.527,0,0.956-0.15,1.284-0.453
		C139.253,663.325,139.419,662.911,139.419,662.384z"/>
	<path d="M149.498,664.2c0,0.319-0.104,0.579-0.309,0.781s-0.467,0.303-0.786,0.303h-4.159c-0.319,0-0.58-0.101-0.781-0.303
		s-0.303-0.462-0.303-0.781v-14.199h1.356v14.081h3.623v-14.081h1.357L149.498,664.2L149.498,664.2z"/>
	<path d="M161.812,664.2c0,0.319-0.099,0.579-0.298,0.781s-0.458,0.303-0.776,0.303h-3.848c-0.319,0-0.581-0.101-0.786-0.303
		s-0.308-0.462-0.308-0.781v-3.877h1.356v3.76h3.302v-3.643l-4.22-5.098c-0.293-0.353-0.438-0.739-0.438-1.162v-3.096
		c0-0.319,0.103-0.579,0.308-0.781s0.467-0.303,0.786-0.303h3.848c0.319,0,0.578,0.101,0.776,0.303s0.298,0.462,0.298,0.781v3.555
		h-1.356v-3.438h-3.302v3.224l4.238,5.098c0.28,0.339,0.42,0.72,0.42,1.143V664.2L161.812,664.2z"/>
	<path d="M169.332,665.284h-5.859v-0.723l4.297-13.359h-3.877v-1.201h5.439v0.702l-4.297,13.38h4.297V665.284z"/>
	<path d="M177.242,650.089l-1.855,6.182c-0.234,0.618-0.543,1.65-0.928,3.096v5.918h-1.357v-5.918
		c-0.091-0.495-0.23-1.016-0.42-1.563c-0.313-0.938-0.481-1.448-0.508-1.533l-1.855-6.182c0-0.008,0-0.036,0-0.088h1.377
		l2.101,7.646l2.08-7.646h1.367C177.242,650.047,177.242,650.076,177.242,650.089z"/>
	<path d="M185.025,664.2c0,0.319-0.101,0.579-0.303,0.781s-0.462,0.303-0.781,0.303h-5.039v-15.283h5
		c0.319,0,0.58,0.101,0.781,0.303s0.303,0.462,0.303,0.781v4.541c0,0.402-0.182,0.741-0.547,1.016
		c-0.357,0.215-0.716,0.43-1.073,0.645l1.151,0.742c0.338,0.208,0.508,0.534,0.508,0.978V664.2L185.025,664.2z M183.619,655.802
		v-4.601h-3.359v5.519h2.002L183.619,655.802z M183.658,664.083v-5.282l-1.377-0.898h-2.021v6.183h3.398V664.083z"/>
	<path d="M193.775,665.284h-1.494l-3.524-7.344v7.344h-1.357v-15.283h1.357v6.864l3.203-6.864h1.475v0.088l-3.457,7.274
		L193.775,665.284z"/>
	<path d="M201.548,664.2c0,0.319-0.104,0.579-0.308,0.781c-0.205,0.202-0.468,0.303-0.786,0.303h-4.277
		c-0.319,0-0.58-0.101-0.781-0.303s-0.303-0.462-0.303-0.781v-13.114c0-0.319,0.101-0.579,0.303-0.781s0.462-0.303,0.781-0.303
		h4.277c0.318,0,0.581,0.101,0.786,0.303c0.204,0.202,0.308,0.462,0.308,0.781V664.2z M200.191,664.083v-12.881h-3.739v12.881
		H200.191z"/>
	<path d="M209.947,664.2c0,0.319-0.099,0.579-0.298,0.781c-0.198,0.202-0.458,0.303-0.775,0.303h-3.849
		c-0.318,0-0.581-0.101-0.786-0.303c-0.204-0.202-0.308-0.462-0.308-0.781v-3.877h1.357v3.76h3.301v-3.643l-4.219-5.098
		c-0.293-0.353-0.439-0.739-0.439-1.162v-3.096c0-0.319,0.104-0.579,0.308-0.781c0.205-0.202,0.468-0.303,0.786-0.303h3.849
		c0.318,0,0.578,0.101,0.775,0.303c0.198,0.202,0.298,0.462,0.298,0.781v3.555h-1.356v-3.438h-3.301v3.224l4.237,5.098
		c0.28,0.339,0.421,0.72,0.421,1.143L209.947,664.2L209.947,664.2z"/>
	<path d="M218.472,664.2c0,0.319-0.104,0.579-0.313,0.781s-0.473,0.303-0.791,0.303h-3.937c-0.319,0-0.58-0.101-0.781-0.303
		c-0.2-0.202-0.303-0.462-0.303-0.781v-13.114c0-0.319,0.102-0.579,0.303-0.781c0.202-0.202,0.462-0.303,0.781-0.303h3.937
		c0.318,0,0.583,0.101,0.791,0.303s0.313,0.462,0.313,0.781v3.555h-1.367v-3.438h-3.397v12.881h3.397v-3.76h1.367V664.2z"/>
	<path d="M222.281,665.284h-1.357v-15.283h1.357V665.284z"/>
</g>
<g>
	<path d="M102.818,670.001l-2.08,15.321h-1.104l-1.66-11.522c-0.006-0.202-0.02-0.501-0.039-0.898c0,0.208-0.013,0.508-0.039,0.898
		l-1.66,11.522h-1.104l-2.08-15.321H94.4l1.3,11.024c0.006,0.247,0.02,0.612,0.038,1.094c-0.006-0.247,0.007-0.611,0.039-1.094
		l1.582-11.024h1.162l1.572,11.024c0.013,0.247,0.026,0.612,0.039,1.094c0-0.247,0.016-0.611,0.049-1.094l1.299-11.024H102.818z"/>
	<path d="M114.605,678.126c0,0.318-0.103,0.58-0.308,0.785s-0.467,0.309-0.786,0.309h-3.604v6.063h-1.357v-15.282h4.961
		c0.319,0,0.581,0.101,0.786,0.303s0.308,0.462,0.308,0.781V678.126L114.605,678.126z M113.248,678.009v-6.808h-3.34v6.808H113.248z
		"/>
	<path d="M123.208,684.2c0,0.319-0.104,0.579-0.309,0.781s-0.467,0.303-0.786,0.303h-4.276c-0.319,0-0.58-0.101-0.781-0.303
		s-0.303-0.462-0.303-0.781v-13.114c0-0.319,0.101-0.579,0.303-0.781s0.462-0.303,0.781-0.303h4.276
		c0.319,0,0.581,0.101,0.786,0.303s0.309,0.462,0.309,0.781V684.2z M121.851,684.083v-12.881h-3.74v12.881H121.851z"/>
	<path d="M131.949,682.52c0,0.808-0.266,1.47-0.797,1.987c-0.53,0.517-1.199,0.775-2.007,0.775h-3.496v-15.282h3.496
		c0.814,0,1.484,0.259,2.013,0.775c0.527,0.518,0.791,1.18,0.791,1.987V682.52L131.949,682.52z M130.591,682.384v-9.502
		c0-0.501-0.158-0.906-0.474-1.217c-0.316-0.31-0.725-0.464-1.227-0.464h-1.885v12.881h1.807c0.527,0,0.956-0.15,1.284-0.453
		C130.425,683.325,130.591,682.911,130.591,682.384z"/>
	<path d="M143.472,670.001l-2.08,15.321h-1.104l-1.66-11.522c-0.006-0.202-0.021-0.501-0.039-0.898c0,0.208-0.013,0.508-0.039,0.898
		l-1.66,11.522h-1.104l-2.079-15.321h1.348l1.299,11.024c0.006,0.247,0.021,0.612,0.039,1.094c-0.006-0.247,0.006-0.611,0.039-1.094
		l1.581-11.024h1.162l1.572,11.024c0.013,0.247,0.025,0.612,0.039,1.094c0-0.247,0.016-0.611,0.049-1.094l1.299-11.024H143.472z"/>
	<path d="M151.744,684.2c0,0.319-0.104,0.579-0.309,0.781s-0.467,0.303-0.786,0.303h-4.276c-0.319,0-0.58-0.101-0.781-0.303
		s-0.303-0.462-0.303-0.781v-13.114c0-0.319,0.101-0.579,0.303-0.781s0.462-0.303,0.781-0.303h4.276
		c0.319,0,0.581,0.101,0.786,0.303s0.309,0.462,0.309,0.781V684.2z M150.386,684.083v-12.881h-3.74v12.881H150.386z"/>
	<path d="M160.484,682.52c0,0.808-0.265,1.47-0.796,1.987c-0.53,0.517-1.2,0.775-2.007,0.775h-3.496v-15.282h3.496
		c0.814,0,1.484,0.259,2.012,0.775c0.528,0.518,0.791,1.18,0.791,1.987V682.52L160.484,682.52z M159.126,682.384v-9.502
		c0-0.501-0.158-0.906-0.475-1.217c-0.315-0.31-0.724-0.464-1.226-0.464h-1.885v12.881h1.807c0.527,0,0.956-0.15,1.284-0.453
		C158.96,683.325,159.126,682.911,159.126,682.384z"/>
	<path d="M169.166,685.284h-0.938l-4.082-11.239v11.239h-1.278v-15.283h1.016l4.004,11.045v-11.045h1.279V685.284z"/>
	<path d="M176.626,685.284h-5.021v-15.283h4.961v1.2h-3.604v5.703h3.281v1.222h-3.281v5.956h3.662L176.626,685.284L176.626,685.284z
		"/>
	<path d="M184.126,684.2c0,0.319-0.102,0.579-0.303,0.781c-0.202,0.202-0.463,0.303-0.781,0.303h-3.556
		c-0.318,0-0.579-0.101-0.78-0.303s-0.304-0.462-0.304-0.781v-3.877h1.357v3.76h3.008v-14.082h1.357L184.126,684.2L184.126,684.2z"
		/>
	<path d="M199.625,670.001l-2.08,15.321h-1.104l-1.66-11.522c-0.006-0.202-0.02-0.501-0.038-0.898c0,0.208-0.014,0.508-0.039,0.898
		l-1.66,11.522h-1.104l-2.08-15.321h1.349l1.299,11.024c0.006,0.247,0.02,0.612,0.039,1.094c-0.006-0.247,0.006-0.611,0.039-1.094
		l1.582-11.024h1.162l1.571,11.024c0.014,0.247,0.026,0.612,0.039,1.094c0-0.247,0.017-0.611,0.049-1.094l1.3-11.024H199.625z"/>
	<path d="M207.398,684.2c0,0.319-0.099,0.579-0.298,0.781s-0.458,0.303-0.775,0.303h-3.849c-0.318,0-0.581-0.101-0.786-0.303
		s-0.308-0.462-0.308-0.781v-3.877h1.356v3.76h3.302v-3.643l-4.22-5.098c-0.293-0.353-0.438-0.739-0.438-1.162v-3.096
		c0-0.319,0.103-0.579,0.308-0.781s0.468-0.303,0.786-0.303h3.849c0.318,0,0.577,0.101,0.775,0.303s0.298,0.462,0.298,0.781v3.555
		h-1.356v-3.438h-3.301v3.224l4.237,5.098c0.28,0.339,0.42,0.72,0.42,1.143V684.2L207.398,684.2z"/>
	<path d="M215.855,678.126c0,0.318-0.103,0.58-0.308,0.785s-0.467,0.309-0.786,0.309h-3.604v6.063H209.8v-15.282h4.961
		c0.319,0,0.581,0.101,0.786,0.303s0.308,0.462,0.308,0.781V678.126z M214.498,678.009v-6.808h-3.34v6.808H214.498z"/>
	<path d="M219.439,685.284h-1.356v-15.283h1.356V685.284z"/>
	<path d="M228.287,685.284h-0.938l-4.082-11.239v11.239h-1.279v-15.283h1.017l4.004,11.045v-11.045h1.279V685.284z"/>
	<path d="M236.89,685.284h-1.348l-0.537-3.397h-3.037l-0.537,3.397h-1.309v-0.039l2.725-15.282h1.338L236.89,685.284z
		 M234.83,680.684l-1.338-8.281l-1.349,8.281H234.83z"/>
	<path d="M244.849,684.2c0,0.319-0.104,0.579-0.313,0.781s-0.473,0.303-0.791,0.303h-3.937c-0.318,0-0.58-0.101-0.781-0.303
		c-0.2-0.202-0.303-0.462-0.303-0.781v-13.114c0-0.319,0.102-0.579,0.303-0.781c0.202-0.202,0.464-0.304,0.782-0.304h3.937
		c0.318,0,0.583,0.101,0.791,0.303s0.313,0.462,0.313,0.781v3.555h-1.367v-3.438h-3.397v12.881h3.397v-3.76h1.367L244.849,684.2
		L244.849,684.2z"/>
	<path d="M252.339,685.284h-5.859v-0.723l4.297-13.359H246.9v-1.201h5.439v0.702l-4.297,13.38h4.297V685.284L252.339,685.284z"/>
	<path d="M260.23,684.2c0,0.319-0.104,0.579-0.313,0.781s-0.473,0.303-0.791,0.303h-3.937c-0.318,0-0.58-0.101-0.78-0.303
		c-0.201-0.202-0.304-0.462-0.304-0.781v-13.114c0-0.319,0.102-0.579,0.304-0.781c0.201-0.202,0.462-0.303,0.78-0.303h3.937
		c0.318,0,0.583,0.101,0.791,0.303s0.313,0.462,0.313,0.781v3.555h-1.367v-3.438h-3.397v12.881h3.397v-3.76h1.367V684.2z"/>
	<path d="M267.623,685.284h-5.021v-15.283h4.961v1.2h-3.604v5.703h3.281v1.222h-3.281v5.956h3.662L267.623,685.284L267.623,685.284z
		"/>
</g>
</svg>
