<?xml version="1.0" encoding="utf-8"?>
<!-- Generator: Adobe Illustrator 14.0.0, SVG Export Plug-In . SVG Version: 6.00 Build 43363)  -->
<!DOCTYPE svg PUBLIC "-//W3C//DTD SVG 1.1//EN" "http://www.w3.org/Graphics/SVG/1.1/DTD/svg11.dtd">
<svg version="1.1" id="Warstwa_1" xmlns="http://www.w3.org/2000/svg" xmlns:xlink="http://www.w3.org/1999/xlink" x="0px" y="0px"
	 width="595.276px" height="841.891px" viewBox="0 0 595.276 841.891" enable-background="new 0 0 595.276 841.891"
	 xml:space="preserve">
<polygon points="42.484,738.433 172.008,742.24 298.098,738.461 424.206,726.563 552.073,736.765 544.545,608.911 558.282,482.821 
	559.277,356.716 547.792,233.131 424.221,229.74 298.131,239.016 172.023,234.701 40.458,225.15 50.139,356.702 46.867,482.791 
	36,608.764 "/>
<polygon fill="#CFD1D2" points="56.657,727.3 186.181,731.106 312.271,727.327 438.379,715.429 566.246,725.632 558.719,597.777 
	572.455,471.687 573.449,345.581 561.965,221.997 438.394,218.606 312.304,227.882 186.196,223.567 54.631,214.016 64.312,345.568 
	61.04,471.657 50.173,597.631 "/>
<g>
	<path d="M324.861,585.218h-8.789v-1.084l6.445-20.039h-5.814v-1.803h8.158v1.056l-6.444,20.067h6.444V585.218z"/>
	<path d="M341.223,562.292l-3.12,22.983h-1.654l-2.49-17.285c-0.01-0.303-0.029-0.752-0.06-1.348c0,0.313-0.02,0.762-0.059,1.348
		l-2.49,17.285h-1.655l-3.119-22.983h2.021l1.948,16.538c0.01,0.371,0.029,0.919,0.059,1.642c-0.01-0.371,0.011-0.918,0.06-1.642
		l2.373-16.538h1.742l2.358,16.538c0.021,0.371,0.039,0.919,0.059,1.642c0-0.371,0.024-0.918,0.073-1.642l1.948-16.538H341.223z"/>
	<path d="M349.324,574.422l-6.665,4.922v-2.08l6.665-4.907V574.422z M351.272,585.218h-7.323v-22.926h2.035v21.123h5.288V585.218z"
		/>
	<path d="M363.298,585.218h-2.021l-0.806-5.099h-4.556l-0.807,5.099h-1.963v-0.06l4.087-22.925h2.008L363.298,585.218z
		 M360.208,578.318l-2.007-12.422l-2.021,12.422H360.208z"/>
	<path d="M374.988,583.592c0,0.479-0.148,0.869-0.446,1.172s-0.687,0.454-1.164,0.454h-5.771c-0.479,0-0.871-0.151-1.18-0.454
		c-0.307-0.303-0.461-0.693-0.461-1.172v-5.815H368v5.641h4.951v-5.465l-6.328-7.646c-0.439-0.527-0.659-1.108-0.659-1.743v-4.644
		c0-0.479,0.154-0.869,0.461-1.173c0.309-0.303,0.701-0.453,1.18-0.453h5.771c0.479,0,0.866,0.15,1.164,0.453
		c0.298,0.304,0.446,0.693,0.446,1.173v5.332h-2.035v-5.156H368v4.834l6.356,7.646c0.42,0.508,0.63,1.079,0.63,1.714
		L374.988,583.592L374.988,583.592z"/>
	<path d="M386.267,585.218h-8.789v-1.084l6.445-20.039h-5.815v-1.803h8.159v1.056l-6.445,20.067h6.445V585.218z"/>
	<path d="M398.103,583.592c0,0.479-0.156,0.869-0.469,1.172c-0.313,0.303-0.708,0.454-1.188,0.454h-5.902
		c-0.479,0-0.869-0.151-1.172-0.454c-0.304-0.303-0.454-0.693-0.454-1.172v-19.673c0-0.479,0.15-0.869,0.454-1.173
		c0.303-0.303,0.692-0.453,1.172-0.453h5.903c0.479,0,0.873,0.15,1.187,0.453c0.313,0.304,0.469,0.693,0.469,1.173v5.332h-2.051
		v-5.156h-5.098v19.32h5.098v-5.64h2.051V583.592L398.103,583.592z"/>
	<path d="M409.338,585.218h-8.789v-1.084l6.445-20.039h-5.815v-1.803h8.159v1.056l-6.445,20.067h6.445V585.218z"/>
	<path d="M421.233,585.218h-2.021l-0.806-5.099h-4.557l-0.806,5.099h-1.963v-0.06l4.087-22.925h2.007L421.233,585.218z
		 M418.142,578.318l-2.007-12.422l-2.021,12.422H418.142z"/>
	<path d="M439.133,583.592c0,0.479-0.15,0.869-0.454,1.172c-0.303,0.303-0.692,0.454-1.172,0.454h-6.021
		c-0.479,0-0.869-0.151-1.172-0.454c-0.304-0.303-0.454-0.693-0.454-1.172v-19.673c0-0.479,0.15-0.869,0.454-1.173
		c0.303-0.303,0.692-0.453,1.172-0.453h6.021c0.479,0,0.869,0.15,1.172,0.453c0.304,0.304,0.454,0.693,0.454,1.173v5.332h-2.051
		v-5.156h-5.186v19.32h5.186v-7.925h-2.446v-1.758h4.497V583.592z"/>
	<path d="M452.214,581.072c0,1.211-0.397,2.205-1.192,2.98c-0.798,0.776-1.801,1.165-3.012,1.165h-5.244v-22.926h5.244
		c1.222,0,2.228,0.39,3.019,1.164c0.791,0.777,1.187,1.771,1.187,2.981L452.214,581.072L452.214,581.072z M450.178,580.867v-14.253
		c0-0.752-0.236-1.358-0.71-1.822c-0.475-0.465-1.087-0.696-1.839-0.696h-2.827v19.321h2.71c0.791,0,1.434-0.228,1.928-0.683
		C449.931,582.281,450.178,581.658,450.178,580.867z"/>
	<path d="M465.002,562.425l-2.783,9.271c-0.352,0.928-0.814,2.477-1.392,4.645v8.877h-2.036v-8.877
		c-0.137-0.742-0.347-1.523-0.63-2.345c-0.469-1.405-0.723-2.173-0.762-2.3l-2.783-9.271c0-0.011,0-0.055,0-0.133h2.064
		l3.149,11.471l3.12-11.471h2.051C465.002,562.361,465.002,562.405,465.002,562.425z"/>
	<path d="M475.52,585.218h-2.035v-22.926h2.035V585.218z"/>
	<path d="M488.792,585.218h-1.406l-6.123-16.86v16.86h-1.919v-22.926h1.523l6.006,16.567v-16.567h1.919V585.218L488.792,585.218z"/>
	<path d="M501.903,585.218h-1.406l-6.123-16.86v16.86h-1.919v-22.926h1.522l6.007,16.567v-16.567h1.919V585.218L501.903,585.218z"/>
	<path d="M514.779,562.425l-2.783,9.271c-0.353,0.928-0.815,2.477-1.392,4.645v8.877h-2.036v-8.877
		c-0.138-0.742-0.348-1.523-0.63-2.345c-0.47-1.405-0.724-2.173-0.763-2.3l-2.783-9.271c0-0.011,0-0.055,0-0.133h2.065l3.149,11.471
		l3.119-11.471h2.052C514.779,562.361,514.779,562.405,514.779,562.425z"/>
</g>
<g>
	<path d="M326.633,615.218h-1.406l-6.123-16.86v16.86h-1.919v-22.926h1.523l6.006,16.567v-16.567h1.919V615.218L326.633,615.218z"/>
	<path d="M339.802,613.592c0,0.479-0.154,0.869-0.461,1.172c-0.309,0.303-0.701,0.454-1.18,0.454h-6.24
		c-0.479,0-0.869-0.151-1.172-0.454c-0.304-0.303-0.454-0.693-0.454-1.172v-21.3h2.036v21.123h5.435v-21.123h2.036V613.592
		L339.802,613.592z"/>
	<path d="M353.22,615.218h-2.139l-4.264-12.275l0.278-0.41h3.633v-8.438H345.5v21.123h-2.036v-22.926h7.676
		c0.479,0,0.869,0.151,1.172,0.454c0.304,0.304,0.454,0.693,0.454,1.173v8.7c0,1.104-0.742,1.655-2.227,1.655
		c-0.146,0-0.361-0.008-0.646-0.021c-0.283-0.017-0.487-0.022-0.615-0.022C350.598,607.884,351.912,611.546,353.22,615.218z"/>
	<path d="M363.796,615.218h-7.529v-22.926h7.441v1.803h-5.405v8.555h4.922v1.831h-4.922v8.936h5.493V615.218L363.796,615.218z"/>
	<path d="M376.541,615.218H374.3l-5.288-11.017v11.017h-2.036v-22.926h2.036v10.299l4.805-10.299h2.212v0.133l-5.186,10.913
		L376.541,615.218z"/>
	<path d="M393.899,613.592c0,0.479-0.152,0.869-0.462,1.172c-0.307,0.303-0.7,0.454-1.179,0.454h-6.24
		c-0.479,0-0.869-0.151-1.172-0.454s-0.454-0.693-0.454-1.172v-21.3h2.036v21.123h5.435v-21.123h2.036V613.592L393.899,613.592z"/>
	<path d="M407.009,611.072c0,1.211-0.398,2.205-1.193,2.98c-0.797,0.776-1.8,1.165-3.011,1.165h-5.244v-22.926h5.244
		c1.221,0,2.228,0.39,3.019,1.164c0.791,0.777,1.187,1.771,1.187,2.981L407.009,611.072L407.009,611.072z M404.973,610.867v-14.253
		c0-0.752-0.237-1.358-0.71-1.822c-0.475-0.465-1.087-0.696-1.839-0.696h-2.827v19.321h2.71c0.791,0,1.434-0.228,1.927-0.683
		C404.726,612.281,404.973,611.658,404.973,610.867z"/>
	<path d="M419.827,615.218h-2.021L417,610.12h-4.557l-0.806,5.099h-1.963v-0.06l4.087-22.925h2.007L419.827,615.218z
		 M416.736,608.318l-2.007-12.422l-2.021,12.422H416.736z"/>
	<path d="M430.653,613.592c0,0.479-0.151,0.869-0.454,1.172c-0.304,0.303-0.693,0.454-1.172,0.454h-5.332
		c-0.479,0-0.869-0.151-1.172-0.454c-0.304-0.303-0.454-0.693-0.454-1.172v-5.815h2.035v5.641h4.513v-21.123h2.036V613.592z"/>
	<path d="M441.843,615.218h-7.528v-22.926h7.44v1.803h-5.405v8.555h4.923v1.831h-4.923v8.936h5.493V615.218L441.843,615.218z"/>
	<path d="M458.967,613.592c0,0.479-0.15,0.869-0.454,1.172c-0.303,0.303-0.692,0.454-1.172,0.454h-5.332
		c-0.479,0-0.869-0.151-1.172-0.454s-0.454-0.693-0.454-1.172v-5.815h2.036v5.641h4.512v-21.123h2.036V613.592z"/>
	<path d="M472.136,613.592c0,0.479-0.153,0.869-0.461,1.172c-0.309,0.303-0.701,0.454-1.18,0.454h-6.24
		c-0.479,0-0.869-0.151-1.172-0.454s-0.454-0.693-0.454-1.172v-21.3h2.036v21.123h5.435v-21.123h2.036V613.592L472.136,613.592z"/>
	<path d="M483.474,615.218h-8.789v-1.084l6.445-20.039h-5.814v-1.803h8.158v1.056l-6.444,20.067h6.444V615.218z"/>
</g>
<g>
	<path d="M324.861,645.218h-8.789v-1.084l6.445-20.039h-5.814v-1.803h8.158v1.056l-6.444,20.067h6.444V645.218z"/>
	<path d="M336.755,645.218h-2.021l-0.806-5.099h-4.556l-0.807,5.099h-1.963v-0.06l4.087-22.925h2.007L336.755,645.218z
		 M333.665,638.318l-2.007-12.422l-2.021,12.422H333.665z"/>
	<path d="M349.265,645.218h-2.139l-4.264-12.275l0.278-0.41h3.633v-8.438h-5.229v21.123h-2.036v-22.926h7.676
		c0.479,0,0.869,0.151,1.172,0.454c0.304,0.304,0.454,0.693,0.454,1.173v8.7c0,1.104-0.742,1.655-2.227,1.655
		c-0.146,0-0.361-0.008-0.646-0.021c-0.282-0.017-0.487-0.022-0.614-0.022C346.643,637.884,347.957,641.546,349.265,645.218z"/>
	<path d="M357.688,634.422l-6.665,4.922v-2.08l6.665-4.907V634.422z M359.636,645.218h-7.324v-22.926h2.036v21.123h5.288V645.218z"
		/>
	<path d="M372.102,643.592c0,0.479-0.152,0.869-0.462,1.172c-0.307,0.303-0.7,0.454-1.179,0.454h-6.416
		c-0.479,0-0.869-0.151-1.172-0.454c-0.304-0.303-0.454-0.693-0.454-1.172v-19.673c0-0.479,0.15-0.869,0.454-1.173
		c0.303-0.303,0.692-0.453,1.172-0.453h6.416c0.479,0,0.872,0.15,1.179,0.453c0.31,0.304,0.462,0.693,0.462,1.173V643.592z
		 M370.066,643.417v-19.321h-5.609v19.321H370.066z"/>
	<path d="M384.949,643.592c0,0.479-0.156,0.869-0.47,1.172c-0.313,0.303-0.708,0.454-1.187,0.454h-5.903
		c-0.479,0-0.869-0.151-1.172-0.454s-0.454-0.693-0.454-1.172v-19.673c0-0.479,0.151-0.869,0.454-1.173
		c0.303-0.303,0.693-0.453,1.172-0.453h5.903c0.479,0,0.874,0.15,1.187,0.453c0.313,0.304,0.47,0.693,0.47,1.173v5.332h-2.052
		v-5.156H377.8v19.32h5.098v-5.64h2.052V643.592L384.949,643.592z"/>
	<path d="M396.184,645.218h-8.789v-1.084l6.445-20.039h-5.815v-1.803h8.159v1.056l-6.445,20.067h6.445V645.218z"/>
	<path d="M408.284,645.218h-1.406l-6.123-16.86v16.86h-1.919v-22.926h1.522l6.007,16.567v-16.567h1.919V645.218L408.284,645.218z"/>
	<path d="M419.475,645.218h-7.529v-22.926h7.441v1.803h-5.405v8.555h4.922v1.831h-4.922v8.936h5.493V645.218L419.475,645.218z"/>
	<path d="M431.926,643.592c0,0.479-0.15,0.869-0.454,1.172c-0.303,0.303-0.692,0.454-1.172,0.454h-6.021
		c-0.479,0-0.869-0.151-1.172-0.454c-0.304-0.303-0.454-0.693-0.454-1.172v-19.673c0-0.479,0.15-0.869,0.454-1.173
		c0.303-0.303,0.692-0.453,1.172-0.453h6.021c0.479,0,0.869,0.15,1.172,0.453c0.304,0.304,0.454,0.693,0.454,1.173v5.332h-2.051
		v-5.156h-5.186v19.32h5.186v-7.925h-2.446v-1.758h4.497V643.592z"/>
	<path d="M445.242,643.592c0,0.479-0.154,0.869-0.461,1.172c-0.31,0.303-0.701,0.454-1.181,0.454h-6.416
		c-0.479,0-0.868-0.151-1.172-0.454c-0.303-0.303-0.454-0.693-0.454-1.172v-19.673c0-0.479,0.151-0.869,0.454-1.173
		c0.304-0.303,0.693-0.453,1.172-0.453h6.416c0.479,0,0.871,0.15,1.181,0.453c0.307,0.304,0.461,0.693,0.461,1.173V643.592z
		 M443.206,643.417v-19.321h-5.61v19.321H443.206z"/>
	<path d="M464.534,645.218h-2.14l-4.263-12.275l0.278-0.41h3.633v-8.438h-5.229v21.123h-2.036v-22.926h7.676
		c0.479,0,0.869,0.151,1.172,0.454c0.303,0.304,0.454,0.693,0.454,1.173v8.7c0,1.104-0.742,1.655-2.228,1.655
		c-0.146,0-0.36-0.008-0.645-0.021c-0.283-0.017-0.488-0.022-0.615-0.022C461.912,637.884,463.225,641.546,464.534,645.218z"/>
	<path d="M475.111,645.218h-7.529v-22.926h7.441v1.803h-5.405v8.555h4.922v1.831h-4.922v8.936h5.493V645.218L475.111,645.218z"/>
	<path d="M487.854,645.218h-2.24l-5.288-11.017v11.017h-2.036v-22.926h2.036v10.299l4.805-10.299h2.212v0.133l-5.186,10.913
		L487.854,645.218z"/>
	<path d="M491.986,645.218h-2.036v-22.926h2.036V645.218z"/>
	<path d="M505.256,645.218h-1.406l-6.123-16.86v16.86h-1.919v-22.926h1.523l6.006,16.567v-16.567h1.919V645.218L505.256,645.218z"/>
	<path d="M518.162,645.218h-2.021l-0.806-5.099h-4.556l-0.807,5.099h-1.963v-0.06l4.087-22.925h2.007L518.162,645.218z
		 M515.072,638.318l-2.007-12.422l-2.021,12.422H515.072z"/>
</g>
<g>
	<path d="M92.363,418.421c0,0.318-0.101,0.58-0.303,0.78c-0.202,0.201-0.462,0.304-0.781,0.304h-4.014
		c-0.319,0-0.58-0.102-0.781-0.304c-0.2-0.202-0.303-0.462-0.303-0.78v-13.115c0-0.319,0.102-0.58,0.303-0.781
		c0.202-0.201,0.462-0.303,0.781-0.303h4.014c0.319,0,0.58,0.101,0.781,0.303s0.303,0.462,0.303,0.781v3.555h-1.366v-3.438h-3.457
		v12.881h3.457v-5.283h-1.631v-1.172h2.997V418.421z"/>
	<path d="M101.24,418.421c0,0.318-0.104,0.58-0.309,0.78c-0.205,0.201-0.467,0.304-0.786,0.304h-4.276
		c-0.319,0-0.58-0.102-0.781-0.304s-0.303-0.462-0.303-0.78v-13.115c0-0.319,0.101-0.58,0.303-0.781s0.462-0.303,0.781-0.303h4.276
		c0.319,0,0.581,0.101,0.786,0.303s0.309,0.462,0.309,0.781V418.421z M99.882,418.303v-12.881h-3.74v12.881H99.882z"/>
	<path d="M109.638,418.421c0,0.318-0.099,0.58-0.298,0.78c-0.199,0.201-0.458,0.304-0.776,0.304h-3.848
		c-0.319,0-0.581-0.102-0.786-0.304s-0.308-0.462-0.308-0.78v-3.877h1.356v3.76h3.301v-3.644l-4.219-5.098
		c-0.293-0.352-0.438-0.739-0.438-1.162v-3.096c0-0.319,0.103-0.58,0.308-0.781s0.467-0.303,0.786-0.303h3.848
		c0.319,0,0.578,0.101,0.776,0.303s0.298,0.462,0.298,0.781v3.555h-1.356v-3.438h-3.302v3.223l4.238,5.098
		c0.28,0.338,0.42,0.72,0.42,1.144V418.421z"/>
	<path d="M118.164,418.421c0,0.318-0.104,0.58-0.313,0.78c-0.209,0.201-0.472,0.304-0.791,0.304h-3.936
		c-0.319,0-0.58-0.102-0.781-0.304s-0.303-0.462-0.303-0.78v-13.115c0-0.319,0.101-0.58,0.303-0.781s0.462-0.303,0.781-0.303h3.936
		c0.319,0,0.583,0.101,0.791,0.303s0.313,0.462,0.313,0.781v3.555h-1.367v-3.438h-3.398v12.881h3.398v-3.76h1.367V418.421z"/>
	<path d="M121.972,419.505h-1.356v-15.283h1.356V419.505z"/>
	<path d="M130.82,419.505h-0.938l-4.082-11.24v11.24h-1.279v-15.283h1.017l4.004,11.045v-11.045h1.278V419.505z"/>
	<path d="M139.56,419.505h-0.938l-4.082-11.24v11.24h-1.279v-15.283h1.016l4.004,11.045v-11.045h1.279V419.505z"/>
	<path d="M143.437,419.505h-1.356v-15.283h1.356V419.505z"/>
	<path d="M151.005,419.505h-5.021v-15.283h4.961v1.201h-3.604v5.703h3.281v1.221h-3.281v5.957h3.662L151.005,419.505
		L151.005,419.505z"/>
	<path d="M154.306,412.903h-1.484v-1.719h1.484V412.903z M154.306,419.505h-1.484v-1.72h1.484V419.505z"/>
</g>
<g>
	<path d="M92.685,439.505h-1.426l-2.842-8.185l0.186-0.272h2.422v-5.625h-3.485v14.082h-1.357v-15.283h5.117
		c0.319,0,0.58,0.101,0.781,0.303c0.2,0.202,0.303,0.462,0.303,0.781v5.801c0,0.735-0.495,1.104-1.484,1.104
		c-0.098,0-0.24-0.006-0.43-0.016s-0.326-0.015-0.41-0.015C90.937,434.615,91.813,437.056,92.685,439.505z"/>
	<path d="M100.878,439.505H99.53l-0.536-3.398h-3.037l-0.537,3.398h-1.31v-0.039l2.726-15.283h1.338L100.878,439.505z
		 M98.818,434.905l-1.338-8.281l-1.348,8.281H98.818z"/>
	<path d="M109.013,436.741c0,0.809-0.265,1.471-0.796,1.987s-1.2,0.776-2.007,0.776h-3.496v-15.283h3.496
		c0.813,0,1.483,0.259,2.012,0.775c0.528,0.518,0.791,1.181,0.791,1.987V436.741z M107.656,436.604v-9.502
		c0-0.501-0.158-0.906-0.475-1.216c-0.315-0.311-0.724-0.464-1.226-0.464h-1.886v12.881h1.808c0.526,0,0.956-0.151,1.284-0.454
		S107.656,437.132,107.656,436.604z"/>
	<path d="M116.513,439.505h-5.859v-0.724l4.298-13.358h-3.877v-1.201h5.438v0.703l-4.297,13.379h4.297V439.505z"/>
	<path d="M119.716,439.505h-1.357v-15.283h1.357V439.505z"/>
	<path d="M128.72,438.421c0,0.318-0.103,0.578-0.308,0.78s-0.468,0.304-0.786,0.304h-4.277c-0.319,0-0.58-0.102-0.781-0.304
		c-0.2-0.202-0.303-0.462-0.303-0.78v-13.115c0-0.319,0.102-0.579,0.303-0.781c0.202-0.202,0.462-0.303,0.781-0.303h4.277
		c0.318,0,0.581,0.101,0.786,0.303s0.308,0.462,0.308,0.781V438.421z M127.363,438.303v-12.881h-3.739v12.881H127.363z"/>
	<path d="M140.458,438.421c0,0.318-0.102,0.578-0.304,0.78c-0.201,0.202-0.462,0.304-0.78,0.304h-3.556
		c-0.318,0-0.58-0.102-0.78-0.304c-0.201-0.202-0.304-0.462-0.304-0.78v-3.877h1.357v3.76h3.008v-14.082h1.357L140.458,438.421
		L140.458,438.421z"/>
	<path d="M144.082,439.505h-1.484v-1.72h1.484V439.505z"/>
	<path d="M147.597,437.786l-0.859,2.804H145.8l0.283-2.804H147.597z"/>
</g>
<g>
	<path d="M92.363,458.421c0,0.318-0.101,0.578-0.303,0.78s-0.462,0.304-0.781,0.304h-4.014c-0.319,0-0.58-0.102-0.781-0.304
		c-0.2-0.202-0.303-0.462-0.303-0.78v-13.115c0-0.319,0.102-0.579,0.303-0.781c0.202-0.202,0.462-0.303,0.781-0.303h4.014
		c0.319,0,0.58,0.101,0.781,0.303s0.303,0.462,0.303,0.781v3.555h-1.366v-3.438h-3.457v12.881h3.457v-5.283h-1.631v-1.172h2.997
		V458.421z"/>
	<path d="M103.925,444.221l-2.08,15.322h-1.104l-1.66-11.523c-0.006-0.202-0.021-0.501-0.039-0.898c0,0.208-0.014,0.509-0.039,0.898
		l-1.66,11.523H96.24l-2.08-15.322h1.348l1.299,11.024c0.006,0.247,0.021,0.612,0.039,1.095c-0.006-0.247,0.006-0.612,0.039-1.095
		l1.582-11.024h1.162l1.572,11.024c0.013,0.247,0.025,0.612,0.039,1.095c0-0.247,0.016-0.612,0.049-1.095l1.299-11.024H103.925z"/>
	<path d="M107.177,459.505h-1.357v-15.283h1.357V459.505z"/>
	<path d="M115.888,459.505h-1.348l-0.537-3.398h-3.037l-0.537,3.398h-1.309v-0.039l2.725-15.283h1.338L115.888,459.505z
		 M113.828,454.905l-1.338-8.281l-1.349,8.281H113.828z"/>
	<path d="M122.841,459.505h-5.859v-0.724l4.297-13.358h-3.877v-1.201h5.439v0.703l-4.297,13.379h4.297V459.505z"/>
	<path d="M130.908,456.741c0,0.809-0.266,1.471-0.797,1.987c-0.53,0.517-1.199,0.776-2.007,0.776h-3.496v-15.283h3.496
		c0.814,0,1.484,0.259,2.013,0.775c0.527,0.518,0.791,1.181,0.791,1.987V456.741L130.908,456.741z M129.55,456.604v-9.502
		c0-0.501-0.158-0.906-0.474-1.216c-0.316-0.311-0.725-0.464-1.227-0.464h-1.885v12.881h1.807c0.527,0,0.956-0.151,1.284-0.454
		S129.55,457.132,129.55,456.604z"/>
	<path d="M139.453,459.505h-1.349l-0.537-3.398h-3.037l-0.536,3.398h-1.31v-0.039l2.726-15.283h1.338L139.453,459.505z
		 M137.392,454.905l-1.338-8.281l-1.348,8.281H137.392z"/>
</g>
<g>
	<path d="M92.48,479.505h-0.938l-4.082-11.24v11.24h-1.279v-15.283h1.016l4.005,11.045v-11.045h1.278V479.505L92.48,479.505z"/>
	<path d="M101.259,478.421c0,0.318-0.103,0.578-0.308,0.78s-0.468,0.304-0.786,0.304h-4.16c-0.319,0-0.58-0.102-0.781-0.304
		s-0.303-0.462-0.303-0.78v-14.199h1.356v14.082h3.623v-14.082h1.357L101.259,478.421L101.259,478.421z"/>
	<path d="M110.205,479.505h-1.427l-2.842-8.185l0.187-0.272h2.422v-5.625h-3.486v14.082h-1.356v-15.283h5.116
		c0.319,0,0.58,0.101,0.781,0.303s0.303,0.462,0.303,0.781v5.801c0,0.735-0.494,1.104-1.483,1.104c-0.099,0-0.241-0.006-0.431-0.016
		c-0.188-0.01-0.325-0.015-0.409-0.015C108.457,474.615,109.332,477.056,110.205,479.505z"/>
	<path d="M118.613,479.505h-1.493l-3.525-7.345v7.345h-1.357v-15.283h1.357v6.865l3.203-6.865h1.475v0.088l-3.457,7.275
		L118.613,479.505z"/>
	<path d="M126.386,478.421c0,0.318-0.103,0.578-0.308,0.78s-0.468,0.304-0.786,0.304h-4.277c-0.319,0-0.58-0.102-0.781-0.304
		c-0.2-0.202-0.303-0.462-0.303-0.78v-13.115c0-0.319,0.102-0.579,0.303-0.781c0.202-0.202,0.462-0.303,0.781-0.303h4.277
		c0.318,0,0.581,0.101,0.786,0.303s0.308,0.462,0.308,0.781V478.421z M125.029,478.303v-12.881h-3.739v12.881H125.029z"/>
	<path d="M137.968,464.221l-2.08,15.322h-1.104l-1.66-11.523c-0.006-0.202-0.021-0.501-0.039-0.898c0,0.208-0.014,0.509-0.039,0.898
		l-1.66,11.523h-1.104l-2.08-15.322h1.348l1.299,11.024c0.006,0.247,0.021,0.612,0.039,1.095c-0.006-0.247,0.006-0.612,0.039-1.095
		l1.582-11.024h1.162l1.572,11.024c0.013,0.247,0.025,0.612,0.039,1.095c0-0.247,0.016-0.612,0.049-1.095l1.299-11.024H137.968z"/>
	<path d="M144.804,479.505h-5.02v-15.283h4.961v1.201h-3.604v5.703h3.281v1.221h-3.281v5.957h3.662L144.804,479.505L144.804,479.505
		z"/>
	<path d="M152.304,478.421c0,0.318-0.101,0.578-0.303,0.78s-0.462,0.304-0.781,0.304h-3.555c-0.319,0-0.58-0.102-0.781-0.304
		s-0.303-0.462-0.303-0.78v-3.877h1.356v3.76h3.008v-14.082h1.357L152.304,478.421L152.304,478.421z"/>
</g>
<g>
	<path d="M91.201,499.505h-5.021v-15.283h4.961v1.201h-3.604v5.703h3.28v1.221h-3.28v5.957H91.2L91.201,499.505L91.201,499.505z"/>
	<path d="M99.277,498.421c0,0.318-0.099,0.578-0.298,0.78s-0.458,0.304-0.775,0.304h-3.849c-0.318,0-0.581-0.102-0.786-0.304
		s-0.308-0.462-0.308-0.78v-3.877h1.357v3.76h3.301v-3.644l-4.219-5.098c-0.293-0.352-0.439-0.739-0.439-1.162v-3.096
		c0-0.319,0.103-0.579,0.308-0.781s0.468-0.303,0.786-0.303h3.849c0.318,0,0.578,0.101,0.775,0.303
		c0.198,0.202,0.298,0.462,0.298,0.781v3.555H97.92v-3.438h-3.301v3.223l4.237,5.098c0.28,0.339,0.42,0.721,0.42,1.144V498.421
		L99.277,498.421z"/>
	<path d="M106.943,485.423h-2.362v14.082h-1.357v-14.082h-2.383v-1.201h6.104L106.943,485.423L106.943,485.423z"/>
	<path d="M115.039,499.505h-1.427l-2.842-8.185l0.187-0.272h2.422v-5.625h-3.486v14.082h-1.356v-15.283h5.116
		c0.319,0,0.58,0.101,0.781,0.303s0.303,0.462,0.303,0.781v5.801c0,0.735-0.494,1.104-1.483,1.104c-0.099,0-0.241-0.006-0.431-0.016
		c-0.188-0.01-0.325-0.015-0.409-0.015C113.291,494.615,114.166,497.056,115.039,499.505z"/>
	<path d="M123.232,499.505h-1.348l-0.537-3.398h-3.037l-0.537,3.398h-1.309v-0.039l2.725-15.283h1.338L123.232,499.505z
		 M121.171,494.905l-1.338-8.281l-1.349,8.281H121.171z"/>
	<path d="M131.367,496.741c0,0.809-0.266,1.471-0.797,1.987c-0.53,0.517-1.199,0.776-2.007,0.776h-3.496v-15.283h3.496
		c0.814,0,1.484,0.259,2.013,0.775c0.527,0.518,0.791,1.181,0.791,1.987V496.741L131.367,496.741z M130.009,496.604v-9.502
		c0-0.501-0.158-0.906-0.474-1.216c-0.316-0.311-0.725-0.464-1.227-0.464h-1.885v12.881h1.807c0.527,0,0.956-0.151,1.284-0.454
		S130.009,497.132,130.009,496.604z"/>
	<path d="M139.892,484.309l-1.854,6.182c-0.234,0.618-0.543,1.65-0.929,3.097v5.918h-1.356v-5.918
		c-0.091-0.495-0.231-1.017-0.42-1.563c-0.313-0.938-0.482-1.448-0.508-1.533l-1.855-6.182c0-0.007,0-0.036,0-0.088h1.377l2.1,7.646
		l2.08-7.646h1.367C139.892,484.267,139.892,484.297,139.892,484.309z"/>
</g>
<polygon points="108.306,402.298 106.841,400.061 105.005,400.061 105.005,400.1 107.408,402.356 108.306,402.356 "/>
<g>
	<g>
		<defs>
			<rect id="SVGID_1_" x="0" y="0" width="595.276" height="841.891"/>
		</defs>
		<clipPath id="SVGID_2_">
			<use xlink:href="#SVGID_1_"  overflow="visible"/>
		</clipPath>
		<path clip-path="url(#SVGID_2_)" d="M151.97,253.229c-0.62,1.77-1.809,1.571-3.552,1.526c-1.743-0.046-3.604,2.821-4.297,3.317
			c-0.693,0.495-6.866,4.56-9.836,6.509c-2.972,1.949-1.381,0.219,2.242-4.921c3.622-5.139,14.741-8.829,14.741-8.829
			C152.333,252.181,152.59,251.459,151.97,253.229 M175.762,215.378c-3.763,3.945-6.692,4.601-0.643,7.565
			c2.966,1.453,3.973,5.028,4.476,7.391c0.503,2.364,2.466,7.455,1.952,9.079c-0.514,1.625-1.423,6.85-2.136,8.441
			c-0.712,1.591-4.032,5.396-4.613,4.974c-0.581-0.422-3.639-0.645-5.223,0.313c-1.586,0.958-2.004-2.898-1.509-4.648
			c0.494-1.75-1.088-2.192-2.074-3.37c-0.988-1.178,0.309-0.783,0.125-2.154c-0.185-1.372-1.433-3.145-2.448-3.768
			c-1.017-0.623-4.686-2.193-6.145-1.295s-3.469,1.296-5.35,2.816c-1.881,1.519-1.363,8.445-1.363,8.445s-7.077,3.629-11.023,6.313
			c-3.948,2.683-9.684,9.507-8.619,10.946c1.063,1.438,5.65-2.89,8.978-5.023c3.327-2.135,3.156-1.593,0.51,2.813
			c-2.646,4.406-5.714,10.614-7.737,16.915c-2.024,6.302,0.77,8.109,2.627,10.901c1.856,2.792,5.449,2.738,11.201,2.92
			c5.751,0.183,4.061,1.286,4.625,5.248c0.563,3.961,1.958,7.084-1.249,12.415c-3.207,5.33-9.363,15.18-12.498,19.341
			s-5.354,2.327-9.065,2.851s-6.615,3.298-11.54,6.715c-4.924,3.416-7.21,1.978-10.471,3.716s-4.415,5.007-6.863,9.446
			c-2.448,4.438-2.713,2.359-10.269,12.301c-7.558,9.942-5.133,11.037-2.622,13.082c2.51,2.046,2.18,2.806,7.522,3.246
			s5.917,0.413,10.193-5.473c4.276-5.887,4.753-17.085,6.698-22.666s4.315-6.857,10.806-8.913c6.49-2.058,16.124-2.94,21.631-4.712
			c5.506-1.773,15.047-17.045,17.41-19.991s3.065,1.894,4.32,2.917c1.255,1.022,1.659,3.98,3.875,10.253
			c2.215,6.271,3.576,8.372,3.458,10.062c-0.118,1.691-2.839,1.157-8.411,4.548c-5.571,3.391-9.617,7.89-11.412,10.359
			c-1.795,2.472-4.557-0.757-6.327-1.377c-1.77-0.62-0.778,3.21-2.981,5.938c-2.204,2.728-8.898,6.746-16.3,9.14
			c-7.401,2.395-14.462,0.04-15.34,0.179c-0.879,0.141,0.621,0.675,1.454,2.278c0.832,1.604,5.336,1.212,14.369,1.003
			c9.034-0.209,23.927-8.483,28.515-12.811c4.587-4.327,6.74-3.318,13.937-7.415c7.196-4.099,11.466-7.99,11.749-10.671
			c0.283-2.682,1.046-9.232,0.707-13.809s-2.18-12.13-3.965-20.865c-1.786-8.735,0.905-9.001,2.991-10.039
			c2.088-1.036,5.071-2.089,5.96-7.438c0.89-5.35-4.511-15.49-4.565-20.305c-0.056-4.813-0.81-5.916-0.81-5.916
			s0.853,0.509,2.319,2.463c1.467,1.953,7.262,9.717,8.717,14.438c1.455,4.72,4.88,0.77,5.019-0.795
			c0.138-1.565-2.504-2.819-5.035-6.212c-2.53-3.394-8.61-12.14-9.832-14.582c-1.223-2.443-0.444-3.209,1.845-7.43
			c2.289-4.222,3.037-14.113,2.806-17.613c-0.233-3.499-3.704-12.017-4.451-13.892s0.166-6.033-0.22-8.302
			C180.698,199.505,177.869,213.169,175.762,215.378"/>
	</g>
	<g>
		<defs>
			<rect id="SVGID_3_" x="0" y="0" width="595.276" height="841.891"/>
		</defs>
		<clipPath id="SVGID_4_">
			<use xlink:href="#SVGID_3_"  overflow="visible"/>
		</clipPath>
		<path clip-path="url(#SVGID_4_)" d="M183.69,224.552l-33.104-3.479c0,0,34.407-8.916,20.032-31.364
			C187.169,191.448,183.69,224.552,183.69,224.552"/>
	</g>
	<g>
		<defs>
			<rect id="SVGID_5_" x="0" y="0" width="595.276" height="841.891"/>
		</defs>
		<clipPath id="SVGID_6_">
			<use xlink:href="#SVGID_5_"  overflow="visible"/>
		</clipPath>
		<path clip-path="url(#SVGID_6_)" d="M421.566,37.649c0.028-0.164,0.06-0.327,0.091-0.491c7.479,0.884,14.797,2.332,21.3,6.574
			C435.826,41.705,428.697,39.678,421.566,37.649 M445.219,45.373c6.117,2.281,11.404,16.399,9.303,25.555
			c-2.259-2.229-2.203-5.44-3.23-8.194c-1.063-2.852-2.032-5.737-3.035-8.61C447.25,51.237,446.252,48.349,445.219,45.373
			 M454.943,72.277c-1.031,8.049-3.356,15.546-5.447,23.1c-0.237,0.007-0.473,0.016-0.71,0.022c-0.171-0.624-0.52-1.26-0.482-1.872
			C448.516,90.031,453.696,73.06,454.943,72.277 M447.853,96.184c0.24,0.024,0.481,0.05,0.724,0.074
			c0,0.718,0.172,1.486-0.028,2.143c-1.243,4.064-2.56,8.107-3.886,12.146c-0.13,0.397-0.535,1.053-0.732,1.024
			c-1.98-0.283-1.815,1.496-2.305,2.469c-0.588,1.171-1.313,2.626-1.075,3.772c0.321,1.551-0.089,2.523-0.715,3.848
			c-0.703,1.486-1.725,2.344-3.018,3.047c-0.537,0.291-1.207,0.339-1.816,0.498c-0.179-0.159-0.357-0.317-0.537-0.477
			c2.715-0.492,3.109-2.056,2.678-4.183c-0.13-0.637,0.322-1.435,0.619-2.109c3.044-6.92,6.107-13.832,9.183-20.738
			C447.179,97.165,447.546,96.688,447.853,96.184 M442.81,120.828c0.567,0.5,0.98,0.862,1.538,1.353
			c-2.031,1.23-2.456,2.856-1.146,5.296C440.423,124.978,442.365,123.055,442.81,120.828 M282.732,455.245
			c-0.202,0.99,0.032,1.894,0.432,1.841c0.045-0.181,133.015-402.518,134.507-417.077c0.142-0.645,0.376-1.27,0.627-2.106
			c4.476,1.275,8.818,2.509,13.158,3.751c3.513,1.005,7.054,1.929,10.515,3.09c0.951,0.319,2.115,1.21,2.407,2.095
			c2.713,8.212,5.286,16.472,7.806,24.745c0.276,0.91,0.146,2.047-0.104,2.998c-1.701,6.478-3.138,13.056-5.333,19.365
			c-2.485,7.142-5.67,14.039-8.56,21.039c-0.771,1.866-1.57,3.719-2.412,5.708c-1.849-1.211-3.409-1.32-4.048,0.836
			c-0.757-0.511-1.271-1.03-1.88-1.192c-0.263-0.069-1.085,0.711-1.022,0.914c0.184,0.605,0.754,1.079,1.034,1.671
			c0.289,0.609,0.439,1.29,0.604,1.952c0.257,1.03,0.303,2.166,0.801,3.056c0.174,0.309,1.462,0.16,2.162-0.044
			c0.594-0.175,1.072-0.733,1.994-1.408c-0.273,1.071-0.245,1.846-0.616,2.264c-1.657,1.87-1.085,3.868-0.641,5.944
			c0.188,0.874,0.19,1.896-0.078,2.738c-0.803,2.511-1.783,4.966-2.692,7.441c-0.211,0.571-0.643,1.172-0.57,1.706
			c0.094,0.706,0.583,1.358,0.9,2.034c0.603-0.31,1.374-0.48,1.761-0.961c0.483-0.606,0.691-1.453,0.948-2.219
			c0.731-2.172,1.428-4.354,2.063-6.308c3.773,1.767,7.454,3.489,11.416,5.344c-1.469,5.292-2.972,10.945-4.623,16.555
			c-0.893,3.031-2.091,5.972-3.011,8.995c-0.114,0.373,0.543,1.323,1.008,1.466c1.144,0.349,2.384,0.384,4.032,0.605
			c-0.47,1.331-0.777,2.604-1.345,3.751c-2.664,5.394-5.655,10.642-8.005,16.166c-1.229,2.893-1.51,6.23-1.915,9.405
			c-0.106,0.846,0.71,2.057,1.449,2.709c1.158,1.022,1.305,2.383,0.677,3.266c-1.993,2.804-0.011,4.65,1.191,6.767
			c0.469,0.826,0.923,1.73,1.078,2.65c0.662,3.938,1.207,7.894,1.802,11.843c0.679,4.519-1.155,7.089-5.68,7.934
			c-1.132,0.211-2.283,0.34-3.396,0.619c-1.807,0.453-2.715,1.745-2.832,3.537c-0.122,1.88,1.236,2.695,2.739,3.019
			c4.211,0.903,8.403,1.283,12.502-0.713c1.577-0.768,2.962-1.584,5.218-0.616c1.593,0.685,4.208-0.786,6.243-1.603
			c0.336-0.135,0.318-1.971-0.021-2.827c-1.325-3.33-1.664-6.771-1.828-10.308c-0.21-4.519-1.104-9.033-0.977-13.529
			c0.092-3.239-0.66-6.147-1.333-9.188c-0.231-1.055-0.826-1.768-1.111-2.521c-0.543-1.437-0.185-3.379,0.288-4.968
			c0.257-0.868,1.511-1.44,2.447-2.264c1.732,2.396,3.322,4.74,5.082,6.949c0.558,0.698,1.547,1.07,2.377,1.521
			c0.458,0.249,1.245,0.199,1.456,0.546c0.9,1.479,2.414,2.31,3.499,3.497c2.355,2.58,4.229,5.602,6.666,8.951
			c-1.593,0-2.865,0.003-4.139-0.001c-1.633-0.006-2.746,0.661-3.025,2.368c-0.26,1.595-0.021,2.864,1.979,2.997
			c0.536,0.036,1.06,0.293,1.592,0.304c3.95,0.075,7.926-0.439,11.804,0.921c0.876,0.307,2.041,0.058,3-0.202
			c1.587-0.428,2.205-1.802,1.46-3.146c-3.249-5.856-6.373-11.793-9.883-17.489c-2.22-3.603-5.281-6.589-8.845-8.985
			c-0.448-0.301-0.811-0.827-1.046-1.327c-0.574-1.207-1.349-2.425-1.497-3.703c-0.224-1.891,0.059-3.838,0.064-5.761
			c0.014-3.143,2.276-4.987,4.076-7.084c0.245-0.285,0.854-0.29,1.305-0.36c1.953-0.303,3.775-0.682,3.912-3.252
			c0.033-0.612,0.579-1.202,0.903-1.795c1.673-3.068,2.212-6.253,1.802-9.795c-0.217-1.876,0.641-3.912,1.177-5.83
			c0.453-1.62,1.314-3.139,0.052-4.802c-0.22-0.286,0.032-1.01,0.191-1.49c0.6-1.787,1.248-3.557,1.825-5.184
			c1.118-0.107,2.305-0.221,3.417-0.326c-0.076,0.603-0.196,1.578-0.342,2.749c0.563-0.138,0.883-0.15,0.902-0.232
			c0.454-1.938,2.347-3.425,1.485-5.84c-0.351-0.983,0.192-2.366,0.541-3.501c0.496-1.611,1.33-3.124,1.767-4.747
			c0.561-2.094,0.051-2.703-2.056-2.969c-0.869-0.11-1.743-0.189-2.259-0.244c-1.271-1.894-2.383-3.553-3.549-5.29
			c0.896-0.622,0.959-2.619,2.942-2.156c0.105,0.025,0.388-0.355,0.461-0.588c1.313-4.123,0.254-7.606-3.126-10.335
			c-3.359-2.713-7.63-3.186-11.145-0.833c-1.833,1.228-3.61,1.592-5.707,1.43c-1.015-0.078-2.062,0.244-3.094,0.386
			c-0.153,0.277-0.308,0.556-0.46,0.834c1.274,1.038,2.549,2.076,3.342,2.722c-0.101,1.81-0.085,3.179-0.27,4.521
			c-0.522,3.819-0.556,3.815,2.819,5.72c-1.066,0.216-1.851,0.269-2.549,0.541c-1.097,0.428-2.115,1.052-3.204,1.505
			c-1.138,0.474-2.318,0.844-3.625,1.31c-1.027-1.703-1.948-3.339-2.979-4.898c-0.624-0.945-1.507-1.72-2.112-2.674
			c-0.438-0.689-0.83-1.538-0.861-2.33c-0.074-1.946-0.401-3.665-1.744-5.247c-0.545-0.642-0.627-2.046-0.364-2.942
			c2.615-8.96,5.51-17.842,7.993-26.837c1.888-6.831,2.576-13.838,1.531-20.939c-1.648-11.22-7.947-18.574-18.549-22.29
			c-5.722-2.006-11.647-3.046-17.723-3.178c-1.934-0.042-3.147,0.45-3.626,2.759C408.71,75.127,284.357,448.094,282.732,455.245"/>
	</g>
	<g>
		<defs>
			<rect id="SVGID_7_" x="0" y="0" width="595.276" height="841.891"/>
		</defs>
		<clipPath id="SVGID_8_">
			<use xlink:href="#SVGID_7_"  overflow="visible"/>
		</clipPath>
		<path clip-path="url(#SVGID_8_)" d="M268.496,448.175c0,0-6.897-1.803-9.983,0.183c-3.09,1.987-6.793,6.853-4.47,10.025
			l2.324,3.176c0,0-6.504-1.8-6.768-1.258c-0.265,0.54-0.435,3.431-0.754,3.369s-1.142-1.68-1.519-1.066
			c-0.375,0.612,0.021,1.137-0.671,1.053c-0.691-0.083-2.435-1.594-2.574-0.228c-0.141,1.363,0.357,1.341-0.335,1.774
			c-0.697,0.435-1.636,1.152-1.537,1.764c0.096,0.604-0.422,0.481-0.584,1.584c-0.162,1.102-0.111,1.584-0.111,1.584
			s-2.438,0.55-4.755,2.211c-2.319,1.658-3.881,6.056-4.805,13.425c-0.924,7.37-3.888,26.521-2.129,28.693
			c1.757,2.173,8.51,3.121,11.018,3.193c2.51,0.074,4.405-0.463,4.648-1.5c0.243-1.04,0.883-1.555,1.309-1.805
			c0.423-0.25,0.194,0.461-0.233,2.337c-0.424,1.876-0.14,3.982,0.394,6.396c0.534,2.412,1.877,5.659,2.018,6.911
			c0.142,1.255-1.257,22.273-3.067,23.51c-1.814,1.234-7.921,1.878-10.99,3.351c-3.067,1.476-7.755,3.93-10.423,5.993
			c-2.668,2.067-3.081,1.729-5.247,1.725c-2.164-0.006-2.403-1.262-3.705-1.362c-1.306-0.1-2.565-1.399-4.722,0.316
			c-2.165,1.72-6.48,5.714-13.531,8.235c-7.048,2.519-19.302-1.783-22.226-2.445c-2.924-0.663-7.249-1.667-8.567-0.524
			c-1.318,1.149-4.558,4.098-3.911,6.13c0.643,2.028,0.403,3.487,1.194,4.556c0.786,1.069,13.827,6.073,19.068,5.154
			c5.238-0.916,7.354-1.805,12.696-3.841c5.342-2.032,11.987-3.969,13.836-4.245c1.853-0.271,2.423,0.388,4.27-0.438
			c1.846-0.826,4.425-1.845,5.273-1.867c0.849-0.02,1.274,2.776,1.997,3.023c0.725,0.248,2.275-3.277,4.958-5.046
			c2.684-1.771,4.15-0.979,6.163-1.918c2.014-0.939,2.844-1.261,2.844-1.261s-2.255,4.935-3.477,7.126
			c-1.224,2.19-2.028,3.729-2.318,4.297c-0.291,0.566-1.95,0.218-4.173,1.485c-2.225,1.27-4.84,4.039-2.929,6.938
			c1.909,2.896,19.104,30.565,21.511,33.186c2.4,2.62,5.621,5.801,6.055,4.27c0.438-1.536,1-3.337-0.825-5.923
			c-1.821-2.583-11.402-13.834-12.336-16.286c-0.928-2.452-4.557-14.118-1.132-19.414c3.428-5.303,9.934-16.404,12.56-18.441
			c2.622-2.037,5.514-1.599,7.66-3.617c2.145-2.016,7.377-14.72,9.837-23.065c2.463-8.346,2.281-9.333,4.602-12.271
			c2.318-2.938,7.838-12.32,7.919-12.747c0.081-0.425,0.978,1.436,3.049,4.836c2.074,3.404,5.141,8.538,5.484,9.043
			c0.346,0.509-0.104,2.109,0.718,3.771c0.825,1.661,3.752,4.236,4.671,5.584s2.572,3.681,4.037,3.114
			c1.465-0.568,2.771-2.999,1.77-4.106c-1.002-1.106-1.888-1.862-2.862-3.115c-0.977-1.248-3.688-6.131-4.733-6.218
			c-1.047-0.088-2.066,0.05-2.066,0.05s-5.636-8.63-7.36-11.345c-1.727-2.711-1.263-3.028-0.848-2.509
			c0.416,0.52,2.392,2.691,2.879,2.051c0.488-0.642,0.414-3.924-0.019-4.74c-0.434-0.815-1.483-1.089-1.654-1.156
			c-0.171-0.068,0.908-1.113,2.063-1.592c1.156-0.479,4.537,2.4,6.056,1.365s2.667-2.248,3.58-2.81
			c0.914-0.563,1.927,0.106,2.902-1.179c0.979-1.28,2.902-3.891,1.562-6.312c-1.34-2.42-7.047-9.705-8.074-11.845
			c-1.024-2.143-1.896-4.688-2.803-7.193c-0.904-2.506-2.631-5.219-1.898-5.594c0.732-0.374,2.468,2.896,3.586,4.444
			c1.118,1.551,2.489,2.838,0.543-0.651c-1.946-3.491-7.177-11.347-7.293-11.516c-0.114-0.168,0.051,0.892-0.67,0.829
			c-0.722-0.064-2.998-3.945-3.582-4.351c-0.584-0.402-0.404-0.776,0.145-1.146c0.547-0.375,0.617-0.361,1.624-0.429
			c1.002-0.066,2.541-0.436,2.902-0.992c0.363-0.557,2.006-0.316,2.138-1.212c0.133-0.892-0.148-3.662-1.008-4.376
			c-0.853-0.711-1.644-0.419-1.825-0.051c-0.179,0.369-0.873,0.163-1.649,0.385c-0.777,0.221-2.29-1.095-2.45-1.419
			c-0.159-0.323,0.827-0.871,0.201-1.246c-0.627-0.376-2.064-1.126-2.49-1.39c-0.427-0.265,0.095-0.313,0.019-0.877
			c-0.076-0.566-2.224-4.166-2.637-4.502c-0.414-0.334-0.665,0.02-1.632,1.049C269.25,448.258,269.412,448.381,268.496,448.175"/>
	</g>
	<g>
		<defs>
			<rect id="SVGID_9_" x="0" y="0" width="595.276" height="841.891"/>
		</defs>
		<clipPath id="SVGID_10_">
			<use xlink:href="#SVGID_9_"  overflow="visible"/>
		</clipPath>
		<path clip-path="url(#SVGID_10_)" fill="#FDC400" d="M267.693,448.016c0,0-6.158-1.644-9.244,0.341
			c-3.09,1.987-6.792,6.853-4.47,10.025l2.324,3.176c0,0-6.504-1.8-6.768-1.258c-0.266,0.54-0.436,3.431-0.754,3.369
			s-1.143-1.68-1.52-1.066c-0.375,0.612,0.021,1.137-0.67,1.052c-0.691-0.083-2.435-1.593-2.574-0.227
			c-0.141,1.362,0.357,1.341-0.336,1.775c-0.697,0.434-1.635,1.151-1.537,1.763c0.097,0.603-0.422,0.481-0.584,1.584
			c-0.161,1.101-0.11,1.584-0.11,1.584s-2.438,0.55-4.756,2.211c-2.317,1.658-3.88,6.056-4.804,13.425
			c-0.924,7.37-3.887,26.521-2.129,28.693c1.756,2.173,8.51,3.121,11.017,3.193c2.511,0.074,4.405-0.464,4.649-1.5
			c0.244-1.039,0.883-1.555,1.308-1.805c0.424-0.25,0.194,0.461-0.231,2.337c-0.425,1.876-0.142,3.982,0.393,6.396
			c0.533,2.413,1.877,5.66,2.018,6.912c0.141,1.254-1.257,22.272-3.068,23.509c-1.813,1.234-7.92,1.878-10.989,3.351
			c-3.067,1.477-7.755,3.931-10.423,5.993c-2.668,2.067-3.082,1.73-5.248,1.725c-2.163-0.006-2.402-1.262-3.704-1.361
			c-1.306-0.102-2.565-1.4-4.722,0.314c-2.166,1.722-6.481,5.715-13.531,8.236c-7.049,2.518-19.303-1.783-22.225-2.445
			c-2.925-0.664-7.25-1.667-8.568-0.523c-1.318,1.148-4.557,4.097-3.911,6.129c0.643,2.029,0.403,3.488,1.194,4.556
			c0.787,1.069,13.828,6.073,19.068,5.154c5.238-0.916,7.354-1.803,12.696-3.84c5.342-2.033,11.987-3.97,13.835-4.246
			c1.854-0.271,2.424,0.388,4.271-0.438c1.844-0.826,4.424-1.845,5.271-1.867c0.85-0.02,1.275,2.776,1.998,3.023
			c0.725,0.248,2.275-3.278,4.958-5.046c2.685-1.771,4.149-0.979,6.163-1.918c2.014-0.94,2.844-1.26,2.844-1.26
			s-2.256,4.934-3.477,7.125c-1.224,2.19-2.029,3.729-2.319,4.297c-0.291,0.565-1.949,0.218-4.172,1.485
			c-2.224,1.27-4.841,4.038-2.929,6.938c1.91,2.895,19.104,30.566,21.51,33.185c2.402,2.621,5.621,5.803,6.056,4.271
			c0.438-1.536,1-3.337-0.825-5.922c-1.822-2.583-11.402-13.834-12.336-16.287c-0.929-2.452-4.557-14.118-1.132-19.414
			c3.429-5.302,9.933-16.404,12.56-18.441c2.623-2.038,5.514-1.599,7.66-3.617c2.145-2.016,7.377-14.72,9.838-23.065
			c2.461-8.344,2.28-9.333,4.601-12.272c2.317-2.938,7.838-12.319,7.918-12.745c0.082-0.426,0.979,1.435,3.05,4.836
			c2.074,3.403,5.141,8.536,5.484,9.044c0.346,0.507-0.104,2.107,0.717,3.77c0.826,1.661,3.753,4.236,4.672,5.584
			c0.919,1.347,2.572,3.68,4.036,3.114c1.466-0.568,2.772-2.999,1.771-4.106c-1.002-1.106-1.888-1.86-2.863-3.114
			c-0.976-1.247-3.687-6.133-4.732-6.219c-1.048-0.088-2.066,0.049-2.066,0.049s-5.635-8.63-7.36-11.344
			c-1.726-2.711-1.263-3.027-0.849-2.509c0.416,0.519,2.392,2.693,2.879,2.051c0.49-0.642,0.414-3.924-0.018-4.74
			c-0.434-0.815-1.484-1.089-1.654-1.156c-0.17-0.068,0.908-1.113,2.063-1.591c1.156-0.479,4.538,2.399,6.057,1.364
			c1.518-1.036,2.668-2.248,3.58-2.81c0.914-0.563,1.926,0.105,2.901-1.177c0.979-1.282,2.903-3.893,1.563-6.313
			c-1.341-2.42-7.048-9.705-8.076-11.845c-1.023-2.144-1.896-4.688-2.801-7.193c-0.906-2.506-2.631-5.219-1.9-5.594
			c0.734-0.374,2.468,2.896,3.587,4.446c1.118,1.549,2.489,2.836,0.543-0.653c-1.946-3.491-7.177-11.345-7.293-11.514
			c-0.114-0.168,0.051,0.89-0.671,0.828c-0.721-0.065-2.92-4.093-3.582-4.352c-11.61-4.536-8.698-15.26-9.498-15.439"/>
	</g>
</g>
<rect x="478.519" y="588.088" width="2.153" height="2.212"/>
<rect x="319.926" y="617.969" width="2.152" height="2.212"/>
<g>
	<path d="M322.629,681.138c0,0.318-0.104,0.581-0.309,0.786c-0.204,0.205-0.467,0.308-0.785,0.308h-3.604v6.064h-1.356v-15.283
		h4.961c0.318,0,0.581,0.101,0.785,0.303c0.205,0.202,0.309,0.462,0.309,0.781V681.138z M321.272,681.021v-6.807h-3.34v6.807
		H321.272z"/>
	<path d="M330.94,688.297h-1.348l-0.537-3.398h-3.037l-0.537,3.398h-1.309v-0.039l2.725-15.283h1.338L330.94,688.297z
		 M328.879,683.697l-1.338-8.28l-1.349,8.28H328.879z"/>
	<path d="M341.917,673.013l-2.08,15.322h-1.104l-1.659-11.523c-0.008-0.202-0.021-0.501-0.039-0.898
		c0,0.208-0.014,0.509-0.039,0.898l-1.66,11.523h-1.104l-2.08-15.322h1.349l1.299,11.024c0.007,0.247,0.02,0.612,0.039,1.095
		c-0.007-0.247,0.007-0.612,0.039-1.095l1.582-11.024h1.162l1.571,11.024c0.014,0.247,0.026,0.612,0.039,1.095
		c0-0.247,0.018-0.612,0.049-1.095l1.3-11.024H341.917z"/>
	<path d="M348.752,688.297h-5.021v-15.283h4.961v1.201h-3.604v5.702h3.281v1.222h-3.281v5.957h3.662L348.752,688.297
		L348.752,688.297z"/>
	<path d="M354.456,681.099l-4.443,3.281v-1.388l4.443-3.271V681.099z M355.754,688.297h-4.883v-15.283h1.356v14.082h3.525
		L355.754,688.297L355.754,688.297z"/>
	<path d="M367.581,681.138c0,0.318-0.104,0.581-0.309,0.786s-0.467,0.308-0.786,0.308h-3.604v6.064h-1.357v-15.283h4.961
		c0.319,0,0.581,0.101,0.786,0.303s0.309,0.462,0.309,0.781V681.138z M366.223,681.021v-6.807h-3.34v6.807H366.223z"/>
	<path d="M370.911,688.297h-1.484v-1.72h1.484V688.297z"/>
	<path d="M378.401,688.297h-1.356v-15.283h1.356V688.297z"/>
	<path d="M391.165,688.297h-0.938l-4.082-11.24v11.24h-1.278v-15.283h1.016l4.004,11.045v-11.045h1.279V688.297z"/>
	<path d="M400.061,687.213c0,0.318-0.103,0.578-0.308,0.78s-0.467,0.304-0.786,0.304h-4.277c-0.318,0-0.579-0.102-0.78-0.304
		c-0.202-0.201-0.304-0.462-0.304-0.78v-13.115c0-0.319,0.102-0.579,0.304-0.781c0.201-0.202,0.462-0.303,0.78-0.303h4.277
		c0.319,0,0.581,0.101,0.786,0.303s0.308,0.462,0.308,0.781V687.213z M398.704,687.095v-12.881h-3.74v12.881H398.704z"/>
	<path d="M408.625,687.213c0,0.318-0.104,0.578-0.313,0.78s-0.472,0.304-0.791,0.304h-3.936c-0.319,0-0.579-0.102-0.781-0.304
		c-0.202-0.201-0.303-0.462-0.303-0.78v-13.115c0-0.319,0.101-0.579,0.303-0.781s0.462-0.303,0.781-0.303h3.936
		c0.319,0,0.583,0.101,0.791,0.303s0.313,0.462,0.313,0.781v3.555h-1.367v-3.438h-3.398v12.881h3.398v-3.761h1.367V687.213z"/>
	<path d="M416.262,674.215h-2.363v14.082h-1.356v-14.082h-2.383v-1.201h6.104L416.262,674.215L416.262,674.215z"/>
	<path d="M424.193,687.213c0,0.318-0.104,0.578-0.309,0.78s-0.467,0.304-0.786,0.304h-4.16c-0.318,0-0.579-0.102-0.781-0.304
		c-0.201-0.201-0.303-0.462-0.303-0.78v-14.199h1.357v14.082h3.623v-14.082h1.357L424.193,687.213L424.193,687.213z"/>
	<path d="M433.137,688.297h-1.426l-2.842-8.185l0.186-0.272h2.422v-5.625h-3.485v14.082h-1.357v-15.283h5.117
		c0.319,0,0.579,0.101,0.781,0.303s0.303,0.462,0.303,0.781v5.801c0,0.735-0.495,1.104-1.484,1.104c-0.098,0-0.24-0.006-0.43-0.016
		c-0.188-0.01-0.325-0.015-0.41-0.015C431.389,683.407,432.265,685.848,433.137,688.297z"/>
	<path d="M441.467,688.297h-0.938l-4.082-11.24v11.24h-1.279v-15.283h1.016l4.005,11.045v-11.045h1.278V688.297z"/>
	<path d="M450.072,688.297h-1.349l-0.537-3.398h-3.036l-0.537,3.398h-1.31v-0.039l2.726-15.283h1.338L450.072,688.297z
		 M448.01,683.697l-1.338-8.28l-1.348,8.28H448.01z"/>
	<path d="M456.79,688.297h-4.883v-15.283h1.356v14.082h3.525L456.79,688.297L456.79,688.297z"/>
	<path d="M460.081,688.297h-1.357v-15.283h1.357V688.297z"/>
	<path d="M468.792,688.297h-1.348l-0.537-3.398h-3.037l-0.537,3.398h-1.309v-0.039l2.725-15.283h1.338L468.792,688.297z
		 M466.732,683.697l-1.339-8.28l-1.348,8.28H466.732z"/>
	<path d="M477.943,690.26h-1.183c-1.614-2.624-2.422-5.498-2.422-8.623s0.809-5.999,2.422-8.623h1.183v0.106
		c-0.794,1.438-1.364,2.807-1.709,4.103c-0.353,1.328-0.527,2.8-0.527,4.414s0.176,3.086,0.527,4.414
		c0.345,1.296,0.915,2.663,1.709,4.102V690.26z"/>
	<path d="M485.863,681.138c0,0.318-0.104,0.581-0.309,0.786s-0.467,0.308-0.786,0.308h-3.604v6.064h-1.357v-15.283h4.961
		c0.319,0,0.581,0.101,0.786,0.303s0.309,0.462,0.309,0.781V681.138z M484.504,681.021v-6.807h-3.34v6.807H484.504z"/>
	<path d="M494.172,688.297h-1.348l-0.537-3.398h-3.037l-0.537,3.398h-1.309v-0.039l2.725-15.283h1.338L494.172,688.297z
		 M492.113,683.697l-1.338-8.28l-1.349,8.28H492.113z"/>
	<path d="M502.512,688.297h-1.426l-2.842-8.185l0.186-0.272h2.422v-5.625h-3.485v14.082h-1.357v-15.283h5.117
		c0.319,0,0.579,0.101,0.781,0.303s0.303,0.462,0.303,0.781v5.801c0,0.735-0.495,1.104-1.484,1.104c-0.098,0-0.24-0.006-0.43-0.016
		c-0.188-0.01-0.325-0.015-0.41-0.015C500.764,683.407,501.64,685.848,502.512,688.297z"/>
	<path d="M509.807,674.215h-2.362v14.082h-1.357v-14.082h-2.383v-1.201h6.104L509.807,674.215L509.807,674.215z"/>
	<path d="M520.999,688.297h-6.064v-0.724l4.679-9.717v-3.643h-3.115v3.438h-1.367v-3.555c0-0.319,0.102-0.579,0.303-0.781
		c0.202-0.202,0.462-0.303,0.781-0.303h3.682c0.319,0,0.579,0.101,0.781,0.303s0.303,0.462,0.303,0.781v3.242
		c0,0.391-0.119,0.837-0.36,1.338l-4.043,8.418h4.424v1.202H520.999z"/>
	<path d="M526.135,681.636c0,3.125-0.808,5.999-2.422,8.623h-1.152v-0.107c0.795-1.438,1.36-2.806,1.699-4.102
		c0.358-1.328,0.537-2.8,0.537-4.414s-0.179-3.086-0.537-4.414c-0.339-1.296-0.904-2.663-1.699-4.103v-0.106h1.152
		C525.328,675.637,526.135,678.511,526.135,681.636z"/>
</g>
</svg>
