<?xml version="1.0" encoding="utf-8"?>
<!-- Generator: Adobe Illustrator 14.0.0, SVG Export Plug-In . SVG Version: 6.00 Build 43363)  -->
<!DOCTYPE svg PUBLIC "-//W3C//DTD SVG 1.1//EN" "http://www.w3.org/Graphics/SVG/1.1/DTD/svg11.dtd">
<svg version="1.1" id="Warstwa_1" xmlns="http://www.w3.org/2000/svg" xmlns:xlink="http://www.w3.org/1999/xlink" x="0px" y="0px"
	 width="595.276px" height="841.891px" viewBox="0 0 595.276 841.891" enable-background="new 0 0 595.276 841.891"
	 xml:space="preserve">
<polygon points="43.406,729.217 166.329,724.633 294.096,728.42 421.878,743.386 547.987,732.385 539.858,606.292 541.227,478.527 
	559.277,350.745 551.589,221.036 421.894,231.963 294.127,231.091 166.345,224.439 42.441,226.843 47.469,350.732 36.054,478.498 
	36,606.329 "/>
<g>
	<g>
		<defs>
			<rect id="SVGID_1_" x="0" y="0" width="595.276" height="841.891"/>
		</defs>
		<clipPath id="SVGID_2_">
			<use xlink:href="#SVGID_1_"  overflow="visible"/>
		</clipPath>
		<path clip-path="url(#SVGID_2_)" fill="#CFD1D2" d="M313.717,458.552c-0.072-38.159-8.887-74.872-20.463-111.001
			c-9.156-28.571-19.343-56.93-23.92-86.701c-1.656-10.77-2.484-21.56-2.796-32.364l-95.698-14.622l-111.809,1.671l2.363,131.904
			l-11.17,125.02L50.173,597.54l7.247,120.244L177.7,713.3l49.55,1.468c19.06-34.118,36.843-68.908,51.841-104.961
			C299.032,561.868,313.816,510.853,313.717,458.552"/>
	</g>
	<g>
		<defs>
			<rect id="SVGID_3_" x="0" y="0" width="595.276" height="841.891"/>
		</defs>
		<clipPath id="SVGID_4_">
			<use xlink:href="#SVGID_3_"  overflow="visible"/>
		</clipPath>
		<path clip-path="url(#SVGID_4_)" fill="#CFD1D2" d="M557.869,472.578l17.659-125.034l-7.521-126.921l-120.983-11.672
			l-94.488,13.465h-66.898c0.313,10.806-4.628,27.756-2.972,38.526c4.577,29.771,14.764,58.129,23.92,86.701
			c11.576,36.128,20.392,72.841,20.463,111c0.1,52.302-14.685,103.317-34.625,151.255c-14.998,36.053-32.781,70.842-51.841,104.961
			l75.473,2.237l125.028,14.646l123.401-10.765l-7.959-123.381L557.869,472.578z"/>
	</g>
	<g>
		<defs>
			<rect id="SVGID_5_" x="0" y="0" width="595.276" height="841.891"/>
		</defs>
		<clipPath id="SVGID_6_">
			<use xlink:href="#SVGID_5_"  overflow="visible"/>
		</clipPath>
		<path clip-path="url(#SVGID_6_)" d="M238.621,592.426c0,0-1.792-0.57-5.116-0.05c-3.324,0.521-3.58,2.446-7.199,3.14
			c-3.619,0.692-12.471-0.485-16.477,1.302c-4.004,1.787-5.436,3.253-3.409,9.761c2.025,6.51,4.686,9.848,3.679,11.973
			c-1.007,2.126-4.604,1.979-9.312-0.006c-4.707-1.98-4.472-4.212-7.306-5.554c-2.836-1.342-6.696-0.861-8.42-0.367
			c-1.724,0.492-3.479-3.056-8.983-7.888c-5.504-4.831-8.458-7.997-6.584-7.355c1.873,0.642,3.63-1.687,1.667-3.695
			s-5.175-2.105-8.303-4.42c-3.126-2.315-4.065-3.857-10.905-9.288c-6.842-5.433-10.375-7.61-11.689-5.786
			c-1.313,1.824-4.295,2.935-3.823,5.498c0.474,2.563-0.757,4.781-0.11,6.494c0.645,1.714,4.158,4.08,8.765,5.688
			c4.607,1.608,6.585,0.335,7.595,1.795c1.013,1.46,2.388,3.814,5.58,8.337c3.194,4.524,6.32,7.984,5.837,12.289
			c-0.482,4.307-0.12,6.488-9.845,8.844c-9.728,2.354-15.688,4.57-18.971,4.557c-3.284-0.014-3.029-0.795-7.708-1.177
			c-4.682-0.383-6.25-1.044-11.496-1.924c-5.248-0.88-7.762,0.353-9.412-0.38c-1.651-0.731-2.541-1.515-5.066-0.436
			c-2.524,1.081-14.97-3.679-22.688-3.864c-7.72-0.185-15.497-2.426-15.797,1.182c-0.299,3.604-2.472,5.428-1.473,7.88
			c0.999,2.454,3.063,3.692,4.935,6.625c1.869,2.93,4.154,5.225,15.669,2.72c11.514-2.505,17.741-6.497,20.517-6.065
			c2.776,0.43,5.96-1.077,8.352-1.843c2.393-0.766,2.158,0.316,3.284,0.018c1.124-0.305,17.022,4.768,21.349,4.409
			c4.328-0.357,6.038,0.142,13.117,2.198c7.08,2.058,12.633,0.629,18.173,2.479c5.54,1.854,6.397,3.324,3.491,3.208
			c-2.907-0.116-10.311-2.457-3.312,4.26c7.001,6.72,10.435,7.871,15.353,6.022c4.915-1.846,6.296-2.928,6.62-2.645
			c0.322,0.284-0.637,4.316,2.149,4.896c2.785,0.582,8.743-0.328,10.159,1.979c1.414,2.309,3.563,1.328,2.108,11.801
			c-1.455,10.477-2.175,11.134,2.706,18.142c4.884,7.01,9.269,8.708,11.497,14.82c2.229,6.111,3.372,13.138,4.467,13.523
			c1.095,0.385,1.936-0.735,1.936-0.735s0.077,2.36,0.818,2.006c0.739-0.354,1.066-1.215,1.066-1.215s0.828,1.016,1.346,0.751
			c0.517-0.262,1.723-0.492,0.865-1.964c-0.859-1.469,0.08,0.071,0.892-0.361c0.81-0.435-0.686-9.344-1.089-9.697
			c-0.405-0.355,0.878,1.774,1.608,1.268c0.73-0.504,1.51-1.396-0.603-3.395c-2.114-1.999-4.938-4.333-7.669-7.592
			c-2.729-3.257-7.319-9.29-8.782-13.014c-1.464-3.719-0.04-13.504,1.061-17.697s0.617-5.765,0.617-5.765s2.244,0.218,3.17-0.673
			c0.925-0.89,1.121-2.581,1.599-3.451c0.477-0.872,1.318-0.85,1.732-0.344c0.415,0.509,0.737,1.937,1.842,1.331
			c1.105-0.606,1.248-0.77,3.039,0.946c1.79,1.717,6.481,1.105,8.634-1.02c2.15-2.124,5.007-7.5,0.321-11.47
			c-4.685-3.969-9.264-3.976-9.271-5.272c-0.008-1.296,1.067-2.356,0.107-4.206c-0.96-1.844-2.356-2.211-2.882-3.244
			c-0.525-1.034-2.197-2.07-1.777-3.854c0.418-1.783,0.655-5.155-2.463-12.05c-3.119-6.896-5.066-12.188-1.742-12.709
			c3.322-0.521,7.521-2.855,10.084-2.184c2.562,0.673,6.212-0.709,8.261-2.063c2.049-1.355,0.823-1.429,3.711-1.615
			c2.887-0.188,4.905-0.854,3.062-2.184C239.936,592.72,238.621,592.426,238.621,592.426"/>
	</g>
	<g>
		<defs>
			<rect id="SVGID_7_" x="0" y="0" width="595.276" height="841.891"/>
		</defs>
		<clipPath id="SVGID_8_">
			<use xlink:href="#SVGID_7_"  overflow="visible"/>
		</clipPath>
		<path clip-path="url(#SVGID_8_)" d="M234.852,281.753c-0.537,2.473,10.041,5.454,14.872,6.935
			c5.999,1.837,16.313,3.762,22.528,3.174c14.459-1.368,27.165-4.698,38.797-13.44c5.22-3.921,17.087-15.261,11.913-17.391
			c-1.631-0.671-30.445-0.375-45.564,1.606c-11.357,1.487-24.876,3.531-34.177,10.834
			C240.208,275.836,235.439,279.052,234.852,281.753"/>
	</g>
	<g>
		<defs>
			<rect id="SVGID_9_" x="0" y="0" width="595.276" height="841.891"/>
		</defs>
		<clipPath id="SVGID_10_">
			<use xlink:href="#SVGID_9_"  overflow="visible"/>
		</clipPath>
		<path clip-path="url(#SVGID_10_)" d="M308.901,256.973c8.091-2.756,14.681-8.566,20.378-14.758
			c9.848-10.702,17.918-23.103,25.322-35.571c7.438-12.524,14.494-25.575,19.485-39.293c2.802-7.702,4.435-15.191,3.31-23.352
			c-8.714,4.063-17.336,8.29-25.087,14.038c-8.867,6.574-16.378,14.761-22.864,23.66c-12.868,17.656-22.002,37.695-30.961,57.519
			c-3.019,6.679-6.074,13.337-9.206,19.963C290.475,259.052,303.353,258.863,308.901,256.973"/>
	</g>
	<g>
		<defs>
			<rect id="SVGID_11_" x="0" y="0" width="595.276" height="841.891"/>
		</defs>
		<clipPath id="SVGID_12_">
			<use xlink:href="#SVGID_11_"  overflow="visible"/>
		</clipPath>
		<path clip-path="url(#SVGID_12_)" d="M267.752,261.668c12.859-2.433,17.711-0.579,21.053-7.672
			c3.925-8.333,19.577-40.29,22.659-48.885c3.664-10.22-3.47-47.822-13.738-55.666c-12.846-9.813-29.535,10.918-36.218,20.161
			c-7.771,10.746-16.153,29.095-16.058,42.105c0.126,17.185,12.257,28.438,19.365,43.707
			C265.788,257.505,266.771,259.586,267.752,261.668"/>
	</g>
	<g>
		<defs>
			<rect id="SVGID_13_" x="0" y="0" width="595.276" height="841.891"/>
		</defs>
		<clipPath id="SVGID_14_">
			<use xlink:href="#SVGID_13_"  overflow="visible"/>
		</clipPath>
		<path clip-path="url(#SVGID_14_)" d="M262.832,261.607c-15.337-18.718-9.72-27.656-27.999-43.649
			c-6.182-5.408-62.243-37.129-71.156-29.557c-7.656,6.503,9.213,30.509,14.091,37.118c9.189,12.447,21.665,22.642,34.281,28.641
			c14.011,6.663,29.763,7.404,45.015,7.452C259.006,261.618,260.891,261.612,262.832,261.607"/>
	</g>
	<g>
		<defs>
			<rect id="SVGID_15_" x="0" y="0" width="595.276" height="841.891"/>
		</defs>
		<clipPath id="SVGID_16_">
			<use xlink:href="#SVGID_15_"  overflow="visible"/>
		</clipPath>
		<path clip-path="url(#SVGID_16_)" d="M261.417,263.34c0,0-33.931,6.765-58.239-10.465c-24.31-17.228-33.084-31.92-43.231-53.06
			c-10.146-21.14-9.09-17.968-14.691-24.733c-5.602-6.764-23.464-28.854-25.578-23.569s18.708,52.954,34.246,70.816
			c15.537,17.863,44.709,39.85,64.792,43.971C238.798,270.422,258.563,263.763,261.417,263.34"/>
	</g>
	<g>
		<defs>
			<rect id="SVGID_17_" x="0" y="0" width="595.276" height="841.891"/>
		</defs>
		<clipPath id="SVGID_18_">
			<use xlink:href="#SVGID_17_"  overflow="visible"/>
		</clipPath>
		<path clip-path="url(#SVGID_18_)" d="M243.915,220.414c0,0-3.865-12.771,5.21-33.946c9.074-21.173,13.494-20.165,12.293-22.77
			c-1.202-2.605-19.94-27.392-30.779-26.3c-10.838,1.093-19.662,19.41-21.426,34.366c-1.684,14.271-3.277,25.711,2.101,28.651
			c5.377,2.942,21.428,11.428,24.955,14.537C239.797,218.062,242.066,221.254,243.915,220.414"/>
	</g>
	<g>
		<defs>
			<rect id="SVGID_19_" x="0" y="0" width="595.276" height="841.891"/>
		</defs>
		<clipPath id="SVGID_20_">
			<use xlink:href="#SVGID_19_"  overflow="visible"/>
		</clipPath>
		<path clip-path="url(#SVGID_20_)" d="M320.953,188.818c0,0,10.776-15.492,19.87-25.258c9.093-9.767,10.775-6.568,10.944-11.956
			c0.168-5.389,2.693-54.895-7.241-61.967c-9.936-7.072-12.638,13.805-15.995,25.09c-2.985,10.033-4.886,19.027-3.705,24.753
			c1.179,5.726,2.693,19.364,1.853,26.1C325.836,172.316,318.578,186.955,320.953,188.818"/>
	</g>
	<g>
		<defs>
			<rect id="SVGID_21_" x="0" y="0" width="595.276" height="841.891"/>
		</defs>
		<clipPath id="SVGID_22_">
			<use xlink:href="#SVGID_21_"  overflow="visible"/>
		</clipPath>
		<path clip-path="url(#SVGID_22_)" d="M314.554,199.932c0,0,2.525-4.715,3.367-6.398c0.843-1.684-0.505-7.579,1.179-12.462
			c1.686-4.883,4.715-10.103,4.715-17.007c0-14.064-1.552-29.592-5.917-42.994c-0.795-2.44-5.104-16.054-8.733-16.278
			c-2.528-0.156-11.111,21.22-12.963,28.963c-1.854,7.745-3.874,8.702-2.021,10.245c1.852,1.542,5.39-0.143,10.44,10.466
			c5.051,10.609,8.419,23.07,9.43,31.32C315.059,194.038,313.712,199.089,314.554,199.932"/>
	</g>
	<g>
		<defs>
			<rect id="SVGID_23_" x="0" y="0" width="595.276" height="841.891"/>
		</defs>
		<clipPath id="SVGID_24_">
			<use xlink:href="#SVGID_23_"  overflow="visible"/>
		</clipPath>
		<path clip-path="url(#SVGID_24_)" d="M223.629,136.664c0,0-14.366-19.536-19.249-21.402c-4.884-1.868-12.066-0.433-10.917,20.397
			c1.148,20.829,5.889,49.127,8.044,54.586s1.005,5.746,3.448,7.326c2.441,1.581-0.72-3.446,0.718-15.657
			c1.437-12.211,0.989-16.728,6.599-29.552C217.883,139.537,219.895,139.393,223.629,136.664"/>
	</g>
	<g>
		<defs>
			<rect id="SVGID_25_" x="0" y="0" width="595.276" height="841.891"/>
		</defs>
		<clipPath id="SVGID_26_">
			<use xlink:href="#SVGID_25_"  overflow="visible"/>
		</clipPath>
		<path clip-path="url(#SVGID_26_)" d="M203.469,110.744c0,0-7.82-12.191-11.961-7.821c-4.14,4.371-12.65,25.991-8.97,50.373
			c3.68,24.383,6.899,31.085,7.13,33.944c0.229,2.859,1.429,4.502,5.471,6.304c4.043,1.803,6.773,4.916,5.681,1.42
			c-1.092-3.496-4.971-18.135-6.608-29.004c-1.638-10.87-5.363-38.021-0.87-46.562c4.492-8.539,7.08-7.591,8.891-7.332
			C204.044,112.325,203.584,112.01,203.469,110.744"/>
	</g>
	<g>
		<defs>
			<rect id="SVGID_27_" x="0" y="0" width="595.276" height="841.891"/>
		</defs>
		<clipPath id="SVGID_28_">
			<use xlink:href="#SVGID_27_"  overflow="visible"/>
		</clipPath>
		<path clip-path="url(#SVGID_28_)" d="M223,108.715c0,0-13.961-19.342-22.978-23.268s-11.924-5.017-15.924,7.78
			c-3.999,12.797-4.363,21.596-4.217,27.193c0.145,5.6,2.108-3.053,3.853-7.998c1.746-4.944,3.885-12.144,8.887-13.016
			s7.691,2.479,10.019,5.384c2.327,2.906,11.489,14.327,13.525,17.451s2.763,4.796,3.344,3.196c0.582-1.6,2.109-8.943,2.909-11.706
			S223.728,110.969,223,108.715"/>
	</g>
	<g>
		<defs>
			<rect id="SVGID_29_" x="0" y="0" width="595.276" height="841.891"/>
		</defs>
		<clipPath id="SVGID_30_">
			<use xlink:href="#SVGID_29_"  overflow="visible"/>
		</clipPath>
		<path clip-path="url(#SVGID_30_)" d="M220.864,129.489c0,0,5.09-21.391,7.85-28.464s8.107-14.578,14.06-9.92
			s9.574,9.401,10.006,10.006c0.432,0.604-16.73,26.158-18.977,29.844c-2.147,3.525-2.587,3.709-4.744,4.054
			C226.902,135.354,220.333,131.688,220.864,129.489"/>
	</g>
	<g>
		<defs>
			<rect id="SVGID_31_" x="0" y="0" width="595.276" height="841.891"/>
		</defs>
		<clipPath id="SVGID_32_">
			<use xlink:href="#SVGID_31_"  overflow="visible"/>
		</clipPath>
		<path clip-path="url(#SVGID_32_)" d="M281.444,100.048c0,0,9.052,10.352,12.001,17.826c2.95,7.476,2.605,7.591,0.881,13.916
			c-1.726,6.325-0.921,9.085-3.565,10.926s-6.096,1.15-7.361,2.07c-1.265,0.92,0.114-9.891-0.689-25.072
			C281.904,104.533,280.869,102.004,281.444,100.048"/>
	</g>
	<g>
		<defs>
			<rect id="SVGID_33_" x="0" y="0" width="595.276" height="841.891"/>
		</defs>
		<clipPath id="SVGID_34_">
			<use xlink:href="#SVGID_33_"  overflow="visible"/>
		</clipPath>
		<path clip-path="url(#SVGID_34_)" d="M252.002,146.869c0,0,5.98-15.769,13.341-16.229c7.36-0.46,12.421,3.349,14.376,8.114
			c1.955,4.767,1.611,6.864,0.805,8.115c-0.805,1.251-8.279,5.451-12.19,9.389c-3.91,3.938-4.678,7.274-5.501,5.895
			c-0.824-1.38-4.39-6.672-6.459-9.201C254.303,150.421,251.499,148.097,252.002,146.869"/>
	</g>
	<g>
		<defs>
			<rect id="SVGID_35_" x="0" y="0" width="595.276" height="841.891"/>
		</defs>
		<clipPath id="SVGID_36_">
			<use xlink:href="#SVGID_35_"  overflow="visible"/>
		</clipPath>
		<path clip-path="url(#SVGID_36_)" d="M235.671,134.09c0,0,15.918-26.147,19.781-31.281c3.71-4.932,5.521-10.695,8.855-7.016
			c3.335,3.681,10.005,12.179,13.226,16.556c3.221,4.376,2.761,3.341,2.99,9.551c0.23,6.21,0.23,9.775,0,11.501
			c-0.23,1.725-5.061-5.062-11.961-5.291s-11.614,2.576-13.916,6.924c-2.3,4.348-2.989,10.092-4.83,9.807
			c-1.84-0.283-5.405-4.895-8.051-6.326C239.122,137.08,235.327,136.275,235.671,134.09"/>
	</g>
	<g>
		<defs>
			<rect id="SVGID_37_" x="0" y="0" width="595.276" height="841.891"/>
		</defs>
		<clipPath id="SVGID_38_">
			<use xlink:href="#SVGID_37_"  overflow="visible"/>
		</clipPath>
		<path clip-path="url(#SVGID_38_)" d="M265.229,92.803c0,0,3.565,4.547,7.245,9.174s5.926,8.421,6.471,7.156
			c0.546-1.265-0.774-4.469,0-8.042c0.775-3.573,1.812-6.219,4.341-3.113s6.98,7.692,10.16,14.37c3.181,6.677,3.87,9.321,3.87,9.321
			s4.254-9.2,5.061-13.226c0.805-4.026,1.036-4.601-1.494-9.661c-2.531-5.06-11.616-23.922-17.942-23.462
			c-6.324,0.461-10.58,4.831-13.109,8.971C267.298,88.432,264.295,91.614,265.229,92.803"/>
	</g>
	<g>
		<defs>
			<rect id="SVGID_39_" x="0" y="0" width="595.276" height="841.891"/>
		</defs>
		<clipPath id="SVGID_40_">
			<use xlink:href="#SVGID_39_"  overflow="visible"/>
		</clipPath>
		<path clip-path="url(#SVGID_40_)" d="M235.649,87.627c0,0,7.958-11.5,13.019-10.695c5.06,0.805,10.388,3.232,14.165,5.872
			c3.775,2.639,4.003,2.179,2.222,4.823c-1.781,2.646-7.313,8.269-8.59,9.833c-1.211,1.483-1.759,2.774-4.522-0.172
			c-3.588-3.827-5.918-7.137-9.256-9.661C240.305,85.826,236.547,88.777,235.649,87.627"/>
	</g>
	<g>
		<defs>
			<rect id="SVGID_41_" x="0" y="0" width="595.276" height="841.891"/>
		</defs>
		<clipPath id="SVGID_42_">
			<use xlink:href="#SVGID_41_"  overflow="visible"/>
		</clipPath>
		<path clip-path="url(#SVGID_42_)" d="M179.856,94.625c0,0-6.346,31.96-1.171,57.736s6.9,32.939,7.073,34.878
			c0.172,1.939-4.658,0.214-9.488-1.166c-4.831-1.38-13.931-30.316-14.556-51.041c-0.625-20.724,16.897-56.434,18.142-52.983
			C181.1,85.5,181.372,91.503,179.856,94.625"/>
	</g>
	<g>
		<defs>
			<rect id="SVGID_43_" x="0" y="0" width="595.276" height="841.891"/>
		</defs>
		<clipPath id="SVGID_44_">
			<use xlink:href="#SVGID_43_"  overflow="visible"/>
		</clipPath>
		<path clip-path="url(#SVGID_44_)" fill="none" stroke="#000000" stroke-width="10" d="M451.748,431.811
			c0.988,44.89-1.417,80.314-23.386,118.819c-26.144,45.821-64.739,78.516-104.138,106.69
			c-27.742,19.84-56.792,37.248-85.745,54.712"/>
	</g>
</g>
<g>
	<path d="M101.067,394.548h-2.139l-4.263-12.275l0.277-0.41h3.634v-8.438h-5.229v21.123h-2.036v-22.926h7.676
		c0.479,0,0.869,0.151,1.173,0.454c0.303,0.304,0.453,0.693,0.453,1.172v8.701c0,1.104-0.741,1.655-2.227,1.655
		c-0.146,0-0.361-0.007-0.645-0.022c-0.284-0.015-0.488-0.021-0.615-0.021C98.445,387.214,99.759,390.876,101.067,394.548z"/>
	<path d="M113.357,394.548h-2.021l-0.807-5.099h-4.556l-0.806,5.099h-1.963v-0.06l4.087-22.925h2.007L113.357,394.548z
		 M110.267,387.648l-2.007-12.422l-2.021,12.422H110.267z"/>
	<path d="M124.007,373.425h-3.545v21.123h-2.036v-21.123h-3.574v-1.803h9.155V373.425z"/>
	<path d="M136.077,392.922c0,0.479-0.154,0.868-0.461,1.172c-0.308,0.303-0.701,0.454-1.18,0.454h-6.416
		c-0.479,0-0.869-0.151-1.172-0.454c-0.303-0.304-0.454-0.693-0.454-1.172v-19.674c0-0.479,0.151-0.868,0.454-1.172
		c0.303-0.303,0.693-0.454,1.172-0.454h6.416c0.479,0,0.872,0.151,1.18,0.454c0.307,0.304,0.461,0.693,0.461,1.172V392.922z
		 M134.041,392.746v-19.32h-5.61v19.32H134.041L134.041,392.746z"/>
	<path d="M153.45,371.623l-3.12,22.983h-1.655l-2.49-17.285c-0.01-0.303-0.029-0.752-0.059-1.348c0,0.313-0.021,0.762-0.06,1.348
		l-2.489,17.285h-1.655l-3.12-22.983h2.021l1.948,16.538c0.01,0.371,0.029,0.918,0.06,1.642c-0.011-0.371,0.01-0.918,0.059-1.642
		l2.373-16.538h1.743l2.357,16.538c0.021,0.371,0.039,0.918,0.06,1.642c0-0.371,0.023-0.918,0.073-1.642l1.947-16.538H153.45z"/>
	<path d="M165.418,394.548h-2.021l-0.806-5.099h-4.556l-0.807,5.099h-1.963v-0.06l4.087-22.925h2.007L165.418,394.548z
		 M162.327,387.648l-2.008-12.422l-2.021,12.422H162.327z"/>
	<path d="M177.356,392.922c0,0.479-0.155,0.868-0.469,1.172c-0.313,0.303-0.708,0.454-1.187,0.454h-5.903
		c-0.479,0-0.869-0.151-1.172-0.454c-0.303-0.304-0.454-0.693-0.454-1.172v-19.674c0-0.479,0.151-0.868,0.454-1.172
		c0.303-0.303,0.692-0.454,1.172-0.454h5.903c0.479,0,0.874,0.151,1.187,0.454c0.313,0.304,0.469,0.693,0.469,1.172v5.332h-2.051
		v-5.155h-5.098v19.32h5.098v-5.64h2.051V392.922z"/>
</g>
<g>
	<path d="M98.987,424.548h-8.788v-1.084l6.444-20.039h-5.814v-1.803h8.158v1.056l-6.444,20.067h6.444V424.548z"/>
	<path d="M110.882,424.548h-2.021l-0.806-5.099h-4.556l-0.807,5.099h-1.963v-0.06l4.087-22.925h2.008L110.882,424.548z
		 M107.791,417.648l-2.007-12.422l-2.021,12.422H107.791z"/>
	<path d="M122.908,422.922c0,0.479-0.151,0.868-0.454,1.172c-0.304,0.303-0.693,0.454-1.172,0.454h-6.021
		c-0.479,0-0.869-0.151-1.172-0.454c-0.303-0.304-0.454-0.693-0.454-1.172v-19.674c0-0.479,0.151-0.868,0.454-1.172
		c0.303-0.303,0.693-0.454,1.172-0.454h6.021c0.479,0,0.868,0.151,1.172,0.454c0.303,0.304,0.454,0.693,0.454,1.172v5.332h-2.052
		v-5.155h-5.186v19.32h5.186v-7.925h-2.445v-1.758h4.497V422.922z"/>
	<path d="M136.297,424.548h-2.139l-4.264-12.275l0.278-0.41h3.633v-8.438h-5.229v21.123h-2.036v-22.926h7.676
		c0.479,0,0.869,0.151,1.172,0.454c0.303,0.304,0.454,0.693,0.454,1.172v8.701c0,1.104-0.742,1.655-2.227,1.655
		c-0.146,0-0.361-0.007-0.646-0.022c-0.284-0.015-0.488-0.021-0.615-0.021C133.675,417.214,134.988,420.876,136.297,424.548z"/>
	<path d="M149.026,422.922c0,0.479-0.153,0.868-0.461,1.172c-0.307,0.303-0.701,0.454-1.179,0.454h-6.416
		c-0.479,0-0.869-0.151-1.172-0.454c-0.303-0.304-0.454-0.693-0.454-1.172v-19.674c0-0.479,0.151-0.868,0.454-1.172
		c0.303-0.303,0.693-0.454,1.172-0.454h6.416c0.479,0,0.872,0.151,1.179,0.454c0.308,0.304,0.461,0.693,0.461,1.172V422.922z
		 M146.99,422.746v-19.32h-5.61v19.32H146.99L146.99,422.746z"/>
	<path d="M160.364,424.548h-8.788v-1.084l6.444-20.039h-5.814v-1.803h8.158v1.056l-6.444,20.067h6.444V424.548z"/>
	<path d="M172.698,422.922c0,0.479-0.154,0.868-0.462,1.172c-0.307,0.303-0.7,0.454-1.179,0.454h-6.416
		c-0.479,0-0.869-0.151-1.172-0.454c-0.303-0.304-0.454-0.693-0.454-1.172v-19.674c0-0.479,0.151-0.868,0.454-1.172
		c0.303-0.303,0.693-0.454,1.172-0.454h6.416c0.479,0,0.872,0.151,1.179,0.454c0.308,0.304,0.462,0.693,0.462,1.172V422.922z
		 M170.662,422.746v-19.32h-5.61v19.32H170.662L170.662,422.746z"/>
	<path d="M185.809,424.548h-1.406l-6.123-16.86v16.86h-1.919v-22.926h1.523l6.006,16.567v-16.567h1.919V424.548L185.809,424.548z"/>
	<path d="M198.685,401.755l-2.783,9.271c-0.352,0.928-0.814,2.477-1.392,4.645v8.877h-2.036v-8.877
		c-0.137-0.742-0.347-1.523-0.63-2.345c-0.469-1.405-0.723-2.173-0.762-2.3l-2.783-9.271c0-0.011,0-0.055,0-0.133h2.064
		l3.149,11.471l3.12-11.471h2.051C198.685,401.691,198.685,401.735,198.685,401.755z"/>
</g>
<g>
	<path d="M100.394,443.81c0,0.479-0.153,0.871-0.461,1.18c-0.308,0.308-0.701,0.461-1.179,0.461h-5.405v9.098h-2.036v-22.926h7.441
		c0.479,0,0.872,0.151,1.179,0.454c0.308,0.304,0.461,0.693,0.461,1.172V443.81z M98.357,443.635v-10.21h-5.01v10.21H98.357z"/>
	<path d="M113.299,452.922c0,0.479-0.154,0.868-0.461,1.172c-0.307,0.303-0.701,0.454-1.179,0.454h-6.416
		c-0.479,0-0.869-0.151-1.173-0.454c-0.303-0.304-0.453-0.693-0.453-1.172v-19.674c0-0.479,0.15-0.868,0.453-1.172
		c0.304-0.303,0.693-0.454,1.173-0.454h6.416c0.479,0,0.872,0.151,1.179,0.454c0.307,0.304,0.461,0.693,0.461,1.172V452.922z
		 M111.263,452.746v-19.32h-5.61v19.32H111.263L111.263,452.746z"/>
	<path d="M126.409,450.402c0,1.211-0.398,2.205-1.194,2.98c-0.796,0.776-1.799,1.165-3.01,1.165h-5.244v-22.926h5.244
		c1.221,0,2.227,0.39,3.018,1.164c0.791,0.777,1.188,1.771,1.188,2.981L126.409,450.402L126.409,450.402z M124.373,450.197v-14.253
		c0-0.752-0.237-1.358-0.71-1.823c-0.474-0.464-1.086-0.695-1.838-0.695h-2.827v19.32h2.71c0.791,0,1.433-0.227,1.926-0.682
		C124.126,451.611,124.373,450.988,124.373,450.197z"/>
	<path d="M143.694,431.623l-3.119,22.983h-1.655l-2.49-17.285c-0.01-0.303-0.029-0.752-0.059-1.348c0,0.313-0.021,0.762-0.06,1.348
		l-2.49,17.285h-1.654l-3.12-22.983h2.021l1.948,16.538c0.01,0.371,0.029,0.918,0.06,1.642c-0.011-0.371,0.01-0.918,0.059-1.642
		l2.373-16.538h1.743l2.357,16.538c0.021,0.371,0.039,0.918,0.06,1.642c0-0.371,0.023-0.918,0.072-1.642l1.948-16.538H143.694z"/>
	<path d="M156.102,452.922c0,0.479-0.153,0.868-0.461,1.172c-0.307,0.303-0.701,0.454-1.179,0.454h-6.416
		c-0.479,0-0.869-0.151-1.172-0.454c-0.304-0.304-0.454-0.693-0.454-1.172v-19.674c0-0.479,0.15-0.868,0.454-1.172
		c0.303-0.303,0.692-0.454,1.172-0.454h6.416c0.479,0,0.872,0.151,1.179,0.454c0.308,0.304,0.461,0.693,0.461,1.172V452.922z
		 M154.065,452.746v-19.32h-5.609v19.32H154.065L154.065,452.746z"/>
	<path d="M169.212,450.402c0,1.211-0.398,2.205-1.194,2.98c-0.796,0.776-1.799,1.165-3.01,1.165h-5.244v-22.926h5.244
		c1.221,0,2.227,0.39,3.018,1.164c0.791,0.777,1.188,1.771,1.188,2.981L169.212,450.402L169.212,450.402z M167.176,450.197v-14.253
		c0-0.752-0.237-1.358-0.71-1.823c-0.473-0.464-1.086-0.695-1.838-0.695H161.8v19.32h2.71c0.791,0,1.433-0.227,1.926-0.682
		C166.929,451.611,167.176,450.988,167.176,450.197z"/>
	<path d="M182.234,454.548h-1.405l-6.123-16.86v16.86h-1.919v-22.926h1.522l6.006,16.567v-16.567h1.919V454.548L182.234,454.548z"/>
	<path d="M195.11,431.755l-2.782,9.271c-0.353,0.928-0.815,2.477-1.393,4.645v8.877h-2.036v-8.877
		c-0.137-0.742-0.347-1.523-0.63-2.345c-0.469-1.405-0.723-2.173-0.762-2.3l-2.783-9.271c0-0.011,0-0.055,0-0.133h2.065
		l3.148,11.471l3.12-11.471h2.051C195.11,431.691,195.11,431.735,195.11,431.755z"/>
	<path d="M212.41,452.922c0,0.479-0.149,0.868-0.447,1.172c-0.298,0.303-0.687,0.454-1.165,0.454h-5.771
		c-0.479,0-0.872-0.151-1.179-0.454c-0.307-0.304-0.461-0.693-0.461-1.172v-5.815h2.036v5.64h4.951v-5.464l-6.328-7.646
		c-0.439-0.527-0.659-1.108-0.659-1.743v-4.645c0-0.479,0.154-0.868,0.461-1.172c0.307-0.303,0.701-0.454,1.179-0.454h5.771
		c0.479,0,0.867,0.151,1.165,0.454c0.298,0.304,0.447,0.693,0.447,1.172v5.332h-2.036v-5.155h-4.951v4.834l6.356,7.646
		c0.421,0.508,0.631,1.079,0.631,1.714V452.922z"/>
	<path d="M229.725,431.623l-3.12,22.983h-1.654l-2.49-17.285c-0.01-0.303-0.029-0.752-0.06-1.348c0,0.313-0.02,0.762-0.059,1.348
		l-2.49,17.285h-1.655l-3.119-22.983h2.021l1.948,16.538c0.01,0.371,0.029,0.918,0.059,1.642c-0.01-0.371,0.011-0.918,0.06-1.642
		l2.373-16.538h1.742l2.358,16.538c0.021,0.371,0.039,0.918,0.059,1.642c0-0.371,0.024-0.918,0.073-1.642l1.948-16.538H229.725z"/>
	<path d="M234.603,454.548h-2.036v-22.926h2.036V454.548z"/>
	<path d="M247.669,454.548h-2.021l-0.806-5.099h-4.556l-0.807,5.099h-1.963v-0.06l4.087-22.925h2.007L247.669,454.548z
		 M244.578,447.648l-2.008-12.422l-2.021,12.422H244.578z"/>
	<path d="M258.318,433.425h-3.545v21.123h-2.036v-21.123h-3.573v-1.803h9.154V433.425z"/>
</g>
<g>
	<g>
		<defs>
			<rect id="SVGID_45_" x="0" y="0" width="595.276" height="841.891"/>
		</defs>
		<clipPath id="SVGID_46_">
			<use xlink:href="#SVGID_45_"  overflow="visible"/>
		</clipPath>
		<path clip-path="url(#SVGID_46_)" fill="#FFFFFF" d="M451.729,464.965c13.685,0.176,42.334-9.084,37.334-44.064
			c-5-34.979-21.001-54-30.334-54c-9.332,0-33,33.766-35,57.333C421.783,447.167,435.401,464.755,451.729,464.965"/>
	</g>
	<g>
		<defs>
			<rect id="SVGID_47_" x="0" y="0" width="595.276" height="841.891"/>
		</defs>
		<clipPath id="SVGID_48_">
			<use xlink:href="#SVGID_47_"  overflow="visible"/>
		</clipPath>
		<path clip-path="url(#SVGID_48_)" fill="#FFFFFF" d="M488.188,445.621c0,0,40.573-30.625,48.571-60.274
			c7.998-29.65,5.657-31.991,4.292-35.893c-1.366-3.9-16.972,26.528-28.091,42.524c-11.117,15.996-13.85,15.8-15.604,22.432
			C495.601,421.044,493.844,438.208,488.188,445.621"/>
	</g>
	<g>
		<defs>
			<rect id="SVGID_49_" x="0" y="0" width="595.276" height="841.891"/>
		</defs>
		<clipPath id="SVGID_50_">
			<use xlink:href="#SVGID_49_"  overflow="visible"/>
		</clipPath>
		<path clip-path="url(#SVGID_50_)" fill="#FFFFFF" d="M380.123,346.137c0,0-6.633,47.985,15.02,75.88s34.333,35.112,38.233,37.647
			c3.9,2.536-8.975-6.242-10.73-21.262c-1.755-15.021-5.069-16.775-14.434-31.796C398.847,391.588,380.123,357.257,380.123,346.137"
			/>
	</g>
	<g>
		<defs>
			<rect id="SVGID_51_" x="0" y="0" width="595.276" height="841.891"/>
		</defs>
		<clipPath id="SVGID_52_">
			<use xlink:href="#SVGID_51_"  overflow="visible"/>
		</clipPath>
		<path clip-path="url(#SVGID_52_)" fill="#FFFFFF" d="M489.642,334.238c10.627-1.611,11.029,20.091,10.835,36.087
			c-0.193,15.996-3.785,35.501-5.403,42.72c-1.618,7.218-4.153,19.507-4.153,11.509s-0.587-23.798-8.974-37.842
			c-8.389-14.046-14.436-15.217-11.119-23.604C474.144,354.72,481.928,335.409,489.642,334.238"/>
	</g>
	<g>
		<defs>
			<rect id="SVGID_53_" x="0" y="0" width="595.276" height="841.891"/>
		</defs>
		<clipPath id="SVGID_54_">
			<use xlink:href="#SVGID_53_"  overflow="visible"/>
		</clipPath>
		<path clip-path="url(#SVGID_54_)" fill="#FFFFFF" d="M467.511,362.913c0,0,5.268-6.632,5.268-10.729
			c0-4.096-8.389-21.457-17.557-22.432c-9.168-0.977-20.871,5.438-29.648,37.147c-8.778,31.71-10.534,45.949-7.607,51.216
			c2.926,5.268,1.208,9.559,5.577-5.071c4.37-14.631,12.621-31.601,21.176-40.184s13.626-11.119,17.138-9.363
			C465.366,365.255,466.345,364.498,467.511,362.913"/>
	</g>
	<g>
		<defs>
			<rect id="SVGID_55_" x="0" y="0" width="595.276" height="841.891"/>
		</defs>
		<clipPath id="SVGID_56_">
			<use xlink:href="#SVGID_55_"  overflow="visible"/>
		</clipPath>
		<path clip-path="url(#SVGID_56_)" fill="#FFFFFF" d="M469.04,325.701c3.969,1.958,8.716,9.382,9.743,12.069
			c1.026,2.687,0.475,3.952-1.106,6.48s-2.846,3.873-3.397,4.86c-0.554,0.988-1.579-7.548-6.719-13.949
			c-5.137-6.4-10.271-5.295-6.32-8.061C465.19,324.336,466.628,324.511,469.04,325.701"/>
	</g>
	<g>
		<defs>
			<rect id="SVGID_57_" x="0" y="0" width="595.276" height="841.891"/>
		</defs>
		<clipPath id="SVGID_58_">
			<use xlink:href="#SVGID_57_"  overflow="visible"/>
		</clipPath>
		<path clip-path="url(#SVGID_58_)" fill="#FFFFFF" d="M451.163,328.534c0,0-11.344,1.461-17.602,13.331
			c-6.255,11.869-9.792,22.993-12.229,34.056c-2.438,11.063-3.938,18.625-3.938,18.625s0.188-15,2.563-26.25
			s8.625-27.938,16.812-35.313c8.188-7.375,11.563-5.813,13.625-5.5C452.458,327.796,452.591,328.237,451.163,328.534"/>
	</g>
</g>
<polygon points="174.652,369.835 172.455,366.48 169.701,366.48 169.701,366.538 173.304,369.923 174.652,369.923 "/>
<polygon points="209.022,429.26 206.825,425.907 204.071,425.907 204.071,425.965 207.674,429.348 209.022,429.348 "/>
<rect x="155.528" y="397.473" width="2.153" height="2.212"/>
<g>
	<path d="M96.756,498.925c0,0.318-0.104,0.581-0.308,0.786c-0.205,0.204-0.468,0.308-0.786,0.308h-3.604v6.064h-1.356V490.8h4.961
		c0.318,0,0.581,0.101,0.786,0.303c0.204,0.202,0.308,0.462,0.308,0.781V498.925z M95.398,498.807v-6.807h-3.34v6.807H95.398z"/>
	<path d="M105.066,506.083h-1.348l-0.537-3.397h-3.037l-0.537,3.397h-1.309v-0.038l2.725-15.283h1.338L105.066,506.083z
		 M103.006,501.483l-1.338-8.281l-1.349,8.281H103.006z"/>
	<path d="M116.043,490.8l-2.08,15.321h-1.104l-1.659-11.522c-0.007-0.202-0.021-0.501-0.039-0.898c0,0.208-0.014,0.508-0.039,0.898
		l-1.66,11.522h-1.104l-2.08-15.321h1.349l1.299,11.024c0.006,0.247,0.02,0.612,0.039,1.095c-0.006-0.247,0.006-0.612,0.039-1.095
		l1.582-11.024h1.162l1.571,11.024c0.014,0.247,0.026,0.612,0.039,1.095c0-0.247,0.017-0.612,0.05-1.095l1.299-11.024H116.043z"/>
	<path d="M122.879,506.083h-5.021v-15.282h4.961v1.2h-3.604v5.702h3.281v1.222h-3.281v5.957h3.662L122.879,506.083L122.879,506.083z
		"/>
	<path d="M128.582,498.885l-4.443,3.281v-1.388l4.443-3.271V498.885z M129.881,506.083h-4.883v-15.282h1.356v14.082h3.525
		L129.881,506.083L129.881,506.083z"/>
	<path d="M141.707,498.925c0,0.318-0.104,0.581-0.309,0.786c-0.205,0.204-0.467,0.308-0.786,0.308h-3.604v6.064h-1.357V490.8h4.961
		c0.319,0,0.581,0.101,0.786,0.303s0.309,0.462,0.309,0.781V498.925z M140.35,498.807v-6.807h-3.34v6.807H140.35z"/>
	<path d="M145.037,506.083h-1.484v-1.719h1.484V506.083z"/>
</g>
<g>
	<path d="M92.137,526.083H90.78v-15.282h1.357V526.083z"/>
	<path d="M104.9,526.083h-0.938l-4.082-11.239v11.239h-1.279v-15.282h1.017l4.004,11.045v-11.045h1.278V526.083z"/>
	<path d="M113.484,510.887l-1.854,6.182c-0.234,0.618-0.543,1.65-0.928,3.096v5.918h-1.357v-5.918
		c-0.091-0.494-0.231-1.016-0.42-1.563c-0.313-0.938-0.482-1.448-0.508-1.533l-1.855-6.182c0-0.007,0-0.036,0-0.088h1.377
		l2.101,7.646l2.08-7.646h1.366C113.484,510.845,113.484,510.876,113.484,510.887z"/>
	<path d="M122.703,526.083h-1.279v-9.678c0-0.137,0.045-0.537,0.137-1.201l-2.5,9.443h-0.272l-2.5-9.443
		c0.091,0.672,0.137,1.071,0.137,1.201v9.678h-1.279v-15.282h1.261l2.479,9.94c0.013,0.053,0.026,0.198,0.039,0.439
		c0-0.098,0.013-0.244,0.039-0.439l2.479-9.94h1.261L122.703,526.083L122.703,526.083z"/>
	<path d="M131.199,518.925c0,0.318-0.104,0.581-0.309,0.786c-0.205,0.204-0.467,0.308-0.786,0.308h-3.604v6.064h-1.357V510.8h4.961
		c0.319,0,0.581,0.101,0.786,0.303s0.309,0.462,0.309,0.781V518.925z M129.842,518.807v-6.807h-3.34v6.807H129.842z"/>
	<path d="M139.744,526.083h-1.357v-7.344h-3.682v7.344h-1.357v-15.282h1.357v6.719h3.682v-6.719h1.357V526.083z"/>
	<path d="M148.348,526.083H147l-0.537-3.397h-3.037l-0.537,3.397h-1.309v-0.038l2.725-15.283h1.338L148.348,526.083z
		 M146.287,521.483l-1.338-8.281l-1.349,8.281H146.287z"/>
	<path d="M155.203,526.083h-5.021v-15.282h4.961v1.2h-3.604v5.702h3.28v1.222h-3.28v5.957h3.662L155.203,526.083L155.203,526.083z"
		/>
	<path d="M163.484,526.083h-1.348l-0.537-3.397h-3.037l-0.537,3.397h-1.309v-0.038l2.725-15.283h1.338L163.484,526.083z
		 M161.424,521.483l-1.338-8.281l-1.349,8.281H161.424z"/>
	<path d="M175.398,526.083h-1.348l-0.537-3.397h-3.037l-0.537,3.397h-1.309v-0.038l2.725-15.283h1.338L175.398,526.083z
		 M173.338,521.483L172,513.202l-1.349,8.281H173.338L173.338,521.483z"/>
	<path d="M182.117,526.083h-4.884v-15.282h1.357v14.082h3.525L182.117,526.083L182.117,526.083z"/>
	<path d="M190.096,524.999c0,0.319-0.101,0.579-0.303,0.781s-0.462,0.303-0.781,0.303h-5.039v-15.282h5
		c0.319,0,0.58,0.101,0.781,0.303s0.303,0.462,0.303,0.781v4.541c0,0.402-0.182,0.742-0.547,1.016
		c-0.358,0.215-0.716,0.43-1.074,0.646l1.152,0.741c0.338,0.208,0.508,0.534,0.508,0.978V524.999L190.096,524.999z M188.689,516.6
		v-4.6h-3.358v5.518h2.002L188.689,516.6z M188.729,524.882v-5.283l-1.377-0.898h-2.021v6.183L188.729,524.882L188.729,524.882z"/>
	<path d="M198.631,526.083h-1.348l-0.537-3.397h-3.037l-0.537,3.397h-1.31v-0.038l2.726-15.283h1.338L198.631,526.083z
		 M196.57,521.483l-1.338-8.281l-1.348,8.281H196.57z"/>
</g>
</svg>
