<?xml version="1.0" encoding="utf-8"?>
<!-- Generator: Adobe Illustrator 14.0.0, SVG Export Plug-In . SVG Version: 6.00 Build 43363)  -->
<!DOCTYPE svg PUBLIC "-//W3C//DTD SVG 1.1//EN" "http://www.w3.org/Graphics/SVG/1.1/DTD/svg11.dtd">
<svg version="1.1" id="Warstwa_1" xmlns="http://www.w3.org/2000/svg" xmlns:xlink="http://www.w3.org/1999/xlink" x="0px" y="0px"
	 width="595.276px" height="841.891px" viewBox="0 0 595.276 841.891" enable-background="new 0 0 595.276 841.891"
	 xml:space="preserve">
<polygon points="45.725,727.804 167.917,742.677 295.625,728.577 423.351,741.501 552.839,735.087 559.277,605.611 545.659,477.902 
	557.177,350.176 546.137,227.387 423.366,231.447 295.657,229.936 167.931,219.163 43.3,225.545 36,350.162 48.733,477.871 
	45.099,605.489 "/>
<polygon fill="#CFD1D2" points="59.898,715.899 182.09,730.772 309.798,716.672 437.526,729.594 567.013,723.181 573.449,593.705 
	559.832,465.996 571.351,338.27 560.311,215.482 437.539,219.542 309.83,218.03 182.104,207.257 57.474,213.64 50.173,338.257 
	62.907,465.966 59.272,593.583 "/>
<g>
	<g>
		<defs>
			<rect id="SVGID_1_" x="0" y="0" width="595.276" height="841.891"/>
		</defs>
		<clipPath id="SVGID_2_">
			<use xlink:href="#SVGID_1_"  overflow="visible"/>
		</clipPath>
		<path clip-path="url(#SVGID_2_)" d="M259.979,389.676c0,0-0.951,1.961-0.903,5.86c0.047,3.899,2.212,4.513,2.407,8.777
			c0.196,4.265-2.625,14.225-1.238,19.115c1.386,4.89,2.831,6.772,10.632,5.527s12.068-3.742,14.341-2.234
			c2.271,1.507,1.507,5.606-1.548,10.68c-3.057,5.071-5.573,4.43-7.582,7.459c-2.009,3.03-2.1,7.538-1.818,9.596
			c0.281,2.061-4.082,3.486-10.536,8.999c-6.454,5.514-10.573,8.374-9.527,6.332s-1.333-4.44-3.963-2.523
			c-2.631,1.918-3.273,5.586-6.447,8.789c-3.173,3.202-5.098,4.023-12.461,10.971c-7.364,6.947-10.448,10.639-8.574,12.449
			c1.874,1.81,2.653,5.412,5.672,5.296c3.021-0.117,5.359,1.661,7.431,1.204c2.072-0.456,5.369-4.094,7.978-9.111
			c2.607-5.018,1.475-7.497,3.318-8.415c1.843-0.917,4.769-2.103,10.487-5.018c5.719-2.914,10.205-5.926,15.063-4.657
			c4.857,1.267,7.422,1.212,8.51,12.759c1.087,11.546,2.645,18.751,2.083,22.515c-0.563,3.764-1.414,3.343-2.628,8.646
			c-1.214,5.305-2.233,6.995-4.111,12.868c-1.879,5.873-0.884,8.961-1.997,10.73c-1.112,1.772-2.155,2.663-1.336,5.738
			c0.82,3.075-6.704,16.561-8.195,25.385s-5.352,17.373-1.265,18.315c4.087,0.94,5.815,3.733,8.795,2.994
			c2.98-0.739,4.744-2.902,8.416-4.563c3.671-1.659,6.682-3.898,5.717-17.521s-4.511-21.428-3.558-24.539
			c0.953-3.112-0.245-7.014-0.728-9.884c-0.482-2.871,0.722-2.423,0.562-3.765c-0.16-1.341,8.292-18.734,8.599-23.759
			c0.307-5.021,1.163-6.903,4.697-14.681c3.533-7.779,2.814-14.387,5.857-20.435c3.043-6.047,4.873-6.787,4.258-3.472
			c-0.616,3.316-4.529,11.419,4.337,4.503c8.867-6.917,10.756-10.664,9.453-16.608c-1.303-5.945-2.315-7.708-1.938-8.031
			c0.382-0.324,4.846,1.441,5.976-1.655c1.129-3.098,1.072-10.084,3.952-11.325c2.88-1.239,2.11-3.868,13.885-0.462
			c11.771,3.405,12.408,4.34,21.256-0.098c8.849-4.439,11.525-9.188,18.906-10.73s15.626-1.69,16.251-2.882
			c0.626-1.19-0.523-2.343-0.523-2.343s2.722,0.303,2.438-0.605c-0.282-0.907-1.216-1.424-1.216-1.424s1.302-0.783,1.086-1.42
			c-0.217-0.636-0.28-2.058-2.109-1.316c-1.83,0.741,0.095-0.081-0.269-1.083c-0.364-1.004-10.83-0.765-11.307-0.359
			c-0.474,0.405,2.183-0.714,1.725-1.635c-0.459-0.922-1.353-1.965-3.995,0.129c-2.645,2.093-5.79,4.944-9.979,7.538
			c-4.188,2.591-11.871,6.854-16.382,7.918c-4.511,1.061-15.499-2.194-20.125-4.152c-4.627-1.957-6.509-1.663-6.509-1.663
			s0.621-2.539-0.247-3.748s-2.776-1.713-3.695-2.405c-0.92-0.69-0.756-1.652-0.104-2.044c0.648-0.392,2.343-0.523,1.831-1.893
			c-0.514-1.368-0.674-1.558,1.59-3.328c2.264-1.769,2.341-7.252,0.261-10.072c-2.08-2.818-7.771-6.985-13.101-2.27
			c-5.329,4.715-6.098,9.967-7.585,9.761c-1.489-0.206-2.53-1.615-4.807-0.821c-2.274,0.796-2.929,2.339-4.202,2.769
			c-1.272,0.431-2.737,2.175-4.713,1.399c-1.975-0.774-5.806-1.606-14.23,0.828c-8.425,2.436-14.818,3.792-14.865-0.107
			s-2.028-9.102-0.832-11.93c1.196-2.826,0.216-7.241-0.998-9.816s-1.501-1.181-1.238-4.524c0.265-3.344-0.166-5.768-1.997-3.876
			C260.536,388.216,259.979,389.676,259.979,389.676"/>
	</g>
</g>
<g>
	<path d="M123.722,665.063h-7.324v-22.925h2.036v21.123h5.288V665.063L123.722,665.063z"/>
	<path d="M128.659,665.063h-2.036v-22.925h2.036V665.063z"/>
	<path d="M141.667,663.437c0,0.479-0.156,0.869-0.469,1.172c-0.313,0.303-0.708,0.454-1.188,0.454h-5.903
		c-0.479,0-0.868-0.151-1.172-0.454c-0.303-0.303-0.454-0.692-0.454-1.172v-19.673c0-0.479,0.151-0.869,0.454-1.172
		c0.304-0.303,0.693-0.454,1.172-0.454h5.903c0.479,0,0.874,0.151,1.188,0.454c0.313,0.303,0.469,0.692,0.469,1.172v5.332h-2.051
		v-5.156h-5.099v19.321h5.099v-5.641h2.051V663.437z"/>
	<path d="M152.902,665.063h-8.789v-1.084l6.445-20.039h-5.814v-1.802h8.158v1.055l-6.444,20.068h6.444V665.063z"/>
	<path d="M164.767,642.27l-2.783,9.271c-0.352,0.929-0.814,2.477-1.392,4.645v8.877h-2.036v-8.877
		c-0.137-0.742-0.347-1.523-0.63-2.344c-0.469-1.406-0.723-2.173-0.762-2.301l-2.783-9.271c0-0.01,0-0.054,0-0.132h2.064
		l3.149,11.47l3.12-11.47h2.051C164.767,642.207,164.767,642.251,164.767,642.27z"/>
	<path d="M176.442,663.437c0,0.479-0.155,0.869-0.469,1.172c-0.313,0.303-0.708,0.454-1.187,0.454h-5.903
		c-0.479,0-0.869-0.151-1.172-0.454s-0.454-0.692-0.454-1.172v-19.673c0-0.479,0.151-0.869,0.454-1.172s0.692-0.454,1.172-0.454
		h5.903c0.479,0,0.874,0.151,1.187,0.454c0.313,0.303,0.469,0.692,0.469,1.172v5.332h-2.051v-5.156h-5.098v19.321h5.098v-5.641
		h2.051V663.437z"/>
	<path d="M195.324,665.063h-1.406l-6.123-16.86v16.86h-1.919v-22.925h1.522l6.006,16.566v-16.566h1.92V665.063L195.324,665.063z"/>
	<path d="M208.229,665.063h-2.021l-0.807-5.098h-4.556l-0.806,5.098h-1.963v-0.059l4.087-22.926h2.007L208.229,665.063z
		 M205.138,658.164l-2.007-12.422l-2.021,12.422H205.138z"/>
	<path d="M226.305,665.063h-1.406l-6.123-16.86v16.86h-1.919v-22.925h1.523l6.006,16.566v-16.566h1.919V665.063L226.305,665.063z"/>
	<path d="M239.21,665.063h-2.021l-0.806-5.098h-4.556l-0.807,5.098h-1.963v-0.059l4.087-22.926h2.007L239.21,665.063z
		 M236.12,658.164l-2.008-12.422l-2.021,12.422H236.12z"/>
	<path d="M251.72,665.063h-2.139l-4.264-12.275l0.278-0.409h3.633v-8.438H244v21.123h-2.036v-22.925h7.676
		c0.479,0,0.869,0.15,1.172,0.454c0.304,0.303,0.454,0.692,0.454,1.172v8.701c0,1.104-0.742,1.654-2.227,1.654
		c-0.146,0-0.361-0.008-0.646-0.021c-0.283-0.017-0.488-0.022-0.615-0.022C249.098,657.729,250.412,661.391,251.72,665.063z"/>
	<path d="M264.333,665.063h-2.241l-5.288-11.016v11.016h-2.036v-22.925h2.036v10.298l4.805-10.298h2.212v0.132l-5.186,10.913
		L264.333,665.063z"/>
	<path d="M275.993,663.437c0,0.479-0.154,0.869-0.461,1.172c-0.308,0.303-0.701,0.454-1.18,0.454h-6.416
		c-0.479,0-0.869-0.151-1.172-0.454s-0.454-0.692-0.454-1.172v-19.673c0-0.479,0.151-0.869,0.454-1.172s0.693-0.454,1.172-0.454
		h6.416c0.479,0,0.872,0.151,1.18,0.454c0.307,0.303,0.461,0.692,0.461,1.172V663.437z M273.957,663.261V643.94h-5.61v19.321
		H273.957z"/>
	<path d="M287.55,643.94h-3.545v21.123h-2.036V643.94h-3.574v-1.802h9.155V643.94L287.55,643.94z"/>
	<path d="M299.152,642.27l-2.782,9.271c-0.353,0.929-0.815,2.477-1.393,4.645v8.877h-2.036v-8.877
		c-0.137-0.742-0.347-1.523-0.63-2.344c-0.469-1.406-0.723-2.173-0.762-2.301l-2.783-9.271c0-0.01,0-0.054,0-0.132h2.065
		l3.148,11.47l3.12-11.47h2.051C299.152,642.207,299.152,642.251,299.152,642.27z"/>
	<path d="M310.827,663.437c0,0.479-0.156,0.869-0.47,1.172c-0.313,0.303-0.708,0.454-1.187,0.454h-5.903
		c-0.479,0-0.869-0.151-1.172-0.454s-0.454-0.692-0.454-1.172v-19.673c0-0.479,0.151-0.869,0.454-1.172s0.693-0.454,1.172-0.454
		h5.903c0.479,0,0.874,0.151,1.187,0.454c0.313,0.303,0.47,0.692,0.47,1.172v5.332h-2.052v-5.156h-5.098v19.321h5.098v-5.641h2.052
		V663.437L310.827,663.437z"/>
	<path d="M322.062,665.063h-8.789v-1.084l6.445-20.039h-5.815v-1.802h8.159v1.055l-6.444,20.068h6.444V665.063z"/>
	<path d="M334.162,665.063h-1.406l-6.123-16.86v16.86h-1.919v-22.925h1.522l6.007,16.566v-16.566h1.919V665.063L334.162,665.063z"/>
	<path d="M347.038,642.27l-2.783,9.271c-0.353,0.929-0.815,2.477-1.393,4.645v8.877h-2.035v-8.877
		c-0.138-0.742-0.348-1.523-0.631-2.344c-0.469-1.406-0.723-2.173-0.762-2.301l-2.783-9.271c0-0.01,0-0.054,0-0.132h2.065
		l3.149,11.47l3.119-11.47h2.052C347.038,642.207,347.038,642.251,347.038,642.27z"/>
	<path d="M364.997,665.063h-2.036v-11.016h-5.522v11.016h-2.036v-22.925h2.036v10.078h5.522v-10.078h2.036V665.063z"/>
	<path d="M377.902,665.063h-2.021l-0.806-5.098h-4.557l-0.806,5.098h-1.963v-0.059l4.087-22.926h2.007L377.902,665.063z
		 M374.811,658.164l-2.007-12.422l-2.021,12.422H374.811z"/>
	<path d="M388.727,663.437c0,0.479-0.15,0.869-0.454,1.172c-0.303,0.303-0.692,0.454-1.172,0.454h-5.332
		c-0.479,0-0.869-0.151-1.172-0.454s-0.454-0.692-0.454-1.172v-5.815h2.036v5.641h4.512v-21.123h2.036V663.437z"/>
</g>
<g>
	<path d="M130.109,672.138l-3.12,22.982h-1.654l-2.49-17.284c-0.01-0.304-0.029-0.752-0.059-1.349c0,0.313-0.021,0.763-0.06,1.349
		l-2.49,17.284h-1.654l-3.12-22.982h2.021l1.948,16.538c0.01,0.371,0.029,0.918,0.059,1.641c-0.01-0.371,0.011-0.918,0.06-1.641
		l2.373-16.538h1.743l2.357,16.538c0.021,0.371,0.039,0.918,0.06,1.641c0-0.371,0.023-0.918,0.072-1.641l1.948-16.538H130.109z"/>
	<path d="M148.156,690.917c0,1.212-0.398,2.205-1.194,2.98c-0.796,0.777-1.799,1.165-3.01,1.165h-5.244v-22.925h5.244
		c1.221,0,2.227,0.389,3.018,1.164c0.791,0.776,1.188,1.771,1.188,2.98L148.156,690.917L148.156,690.917z M146.12,690.713V676.46
		c0-0.753-0.237-1.359-0.71-1.823c-0.474-0.464-1.086-0.696-1.839-0.696h-2.826v19.321h2.71c0.791,0,1.433-0.228,1.926-0.683
		C145.873,692.126,146.12,691.504,146.12,690.713z"/>
	<path d="M161.413,693.437c0,0.479-0.154,0.869-0.461,1.172c-0.308,0.303-0.701,0.454-1.18,0.454h-6.416
		c-0.479,0-0.869-0.151-1.172-0.454s-0.454-0.692-0.454-1.172v-19.673c0-0.479,0.151-0.869,0.454-1.172s0.693-0.454,1.172-0.454
		h6.416c0.479,0,0.872,0.151,1.18,0.454c0.307,0.303,0.461,0.692,0.461,1.172V693.437z M159.376,693.261V673.94h-5.61v19.321
		H159.376z"/>
	<path d="M174.259,693.437c0,0.479-0.151,0.869-0.454,1.172s-0.693,0.454-1.172,0.454h-7.559v-22.925h7.5
		c0.479,0,0.868,0.15,1.172,0.454c0.303,0.303,0.454,0.692,0.454,1.172v6.812c0,0.605-0.273,1.113-0.82,1.523
		c-0.537,0.322-1.074,0.645-1.611,0.967l1.729,1.113c0.508,0.313,0.762,0.801,0.762,1.465L174.259,693.437L174.259,693.437z
		 M172.15,680.84v-6.899h-5.039v8.276h3.003L172.15,680.84z M172.208,693.261v-7.925l-2.065-1.349h-3.032v9.272L172.208,693.261
		L172.208,693.261z"/>
	<path d="M187.501,693.437c0,0.479-0.154,0.869-0.461,1.172c-0.308,0.303-0.701,0.454-1.18,0.454h-6.416
		c-0.479,0-0.868-0.151-1.172-0.454c-0.303-0.303-0.454-0.692-0.454-1.172v-19.673c0-0.479,0.151-0.869,0.454-1.172
		c0.304-0.303,0.693-0.454,1.172-0.454h6.416c0.479,0,0.872,0.151,1.18,0.454c0.307,0.303,0.461,0.692,0.461,1.172V693.437z
		 M185.465,693.261V673.94h-5.61v19.321H185.465z"/>
	<path d="M200.919,695.063h-2.14l-4.263-12.275l0.278-0.409h3.633v-8.438H193.2v21.123h-2.036v-22.925h7.676
		c0.479,0,0.869,0.15,1.172,0.454c0.303,0.303,0.454,0.692,0.454,1.172v8.701c0,1.104-0.742,1.654-2.228,1.654
		c-0.146,0-0.36-0.008-0.645-0.021c-0.283-0.017-0.488-0.022-0.615-0.022C198.297,687.729,199.611,691.391,200.919,695.063z"/>
	<path d="M213.649,693.437c0,0.479-0.153,0.869-0.461,1.172c-0.307,0.303-0.701,0.454-1.179,0.454h-6.416
		c-0.479,0-0.869-0.151-1.172-0.454s-0.454-0.692-0.454-1.172v-19.673c0-0.479,0.151-0.869,0.454-1.172s0.692-0.454,1.172-0.454
		h6.416c0.479,0,0.872,0.151,1.179,0.454c0.308,0.303,0.461,0.692,0.461,1.172V693.437z M211.613,693.261V673.94h-5.609v19.321
		H211.613z"/>
	<path d="M231.022,672.138l-3.12,22.982h-1.654l-2.49-17.284c-0.01-0.304-0.029-0.752-0.059-1.349c0,0.313-0.021,0.763-0.06,1.349
		l-2.49,17.284h-1.654l-3.12-22.982h2.021l1.948,16.538c0.01,0.371,0.029,0.918,0.059,1.641c-0.01-0.371,0.011-0.918,0.06-1.641
		l2.373-16.538h1.743l2.357,16.538c0.021,0.371,0.039,0.918,0.06,1.641c0-0.371,0.023-0.918,0.072-1.641l1.948-16.538H231.022z"/>
	<path d="M242.96,672.27l-2.783,9.271c-0.352,0.929-0.815,2.477-1.392,4.645v8.877h-2.036v-8.877
		c-0.138-0.742-0.348-1.523-0.63-2.344c-0.47-1.406-0.724-2.173-0.763-2.301l-2.782-9.271c0-0.01,0-0.054,0-0.132h2.064l3.149,11.47
		l3.12-11.47h2.051C242.96,672.207,242.96,672.251,242.96,672.27z"/>
	<path d="M256.789,695.063h-1.919v-14.517c0-0.205,0.067-0.807,0.205-1.803l-3.75,14.165h-0.41l-3.75-14.165
		c0.137,1.006,0.205,1.606,0.205,1.803v14.517h-1.919v-22.925h1.89l3.721,14.912c0.021,0.078,0.039,0.298,0.06,0.659
		c0-0.146,0.02-0.366,0.059-0.659l3.721-14.912h1.891v22.925H256.789z"/>
	<path d="M274.22,673.94h-3.545v21.123h-2.036V673.94h-3.574v-1.802h9.155V673.94L274.22,673.94z"/>
	<path d="M286.291,693.437c0,0.479-0.154,0.869-0.461,1.172c-0.308,0.303-0.701,0.454-1.18,0.454h-6.416
		c-0.479,0-0.868-0.151-1.172-0.454c-0.303-0.303-0.454-0.692-0.454-1.172v-19.673c0-0.479,0.151-0.869,0.454-1.172
		c0.304-0.303,0.693-0.454,1.172-0.454h6.416c0.479,0,0.872,0.151,1.18,0.454c0.307,0.303,0.461,0.692,0.461,1.172V693.437z
		 M284.254,693.261V673.94h-5.61v19.321H284.254z"/>
	<path d="M303.664,672.138l-3.12,22.982h-1.655l-2.49-17.284c-0.01-0.304-0.028-0.752-0.059-1.349c0,0.313-0.021,0.763-0.059,1.349
		l-2.49,17.284h-1.655l-3.12-22.982h2.021l1.947,16.538c0.011,0.371,0.029,0.918,0.06,1.641c-0.01-0.371,0.01-0.918,0.059-1.641
		l2.373-16.538h1.743l2.358,16.538c0.02,0.371,0.039,0.918,0.059,1.641c0-0.371,0.024-0.918,0.073-1.641l1.948-16.538H303.664z"/>
	<path d="M315.631,695.063h-2.021l-0.806-5.098h-4.556l-0.807,5.098h-1.963v-0.059l4.087-22.926h2.008L315.631,695.063z
		 M312.541,688.164l-2.007-12.422l-2.021,12.422H312.541z"/>
	<path d="M328.141,695.063h-2.139l-4.264-12.275l0.278-0.409h3.633v-8.438h-5.229v21.123h-2.036v-22.925h7.676
		c0.479,0,0.869,0.15,1.172,0.454c0.304,0.303,0.454,0.692,0.454,1.172v8.701c0,1.104-0.742,1.654-2.227,1.654
		c-0.146,0-0.361-0.008-0.646-0.021c-0.282-0.017-0.487-0.022-0.614-0.022C325.519,687.729,326.833,691.391,328.141,695.063z"/>
	<path d="M338.865,695.063h-8.789v-1.084l6.444-20.039h-5.814v-1.802h8.159v1.055l-6.445,20.068h6.445V695.063z"/>
	<path d="M350.729,672.27l-2.783,9.271c-0.352,0.929-0.814,2.477-1.392,4.645v8.877h-2.036v-8.877
		c-0.137-0.742-0.347-1.523-0.63-2.344c-0.469-1.406-0.723-2.173-0.762-2.301l-2.783-9.271c0-0.01,0-0.054,0-0.132h2.065
		l3.148,11.47l3.12-11.47h2.051C350.729,672.207,350.729,672.251,350.729,672.27z"/>
	<path d="M362.155,693.437c0,0.479-0.148,0.869-0.445,1.172c-0.299,0.303-0.688,0.454-1.165,0.454h-5.771
		c-0.479,0-0.872-0.151-1.179-0.454c-0.309-0.303-0.462-0.692-0.462-1.172v-5.815h2.036v5.641h4.951v-5.464l-6.328-7.646
		c-0.439-0.526-0.659-1.107-0.659-1.743v-4.644c0-0.479,0.153-0.869,0.462-1.172c0.307-0.303,0.7-0.454,1.179-0.454h5.771
		c0.479,0,0.866,0.151,1.165,0.454c0.297,0.303,0.445,0.692,0.445,1.172v5.332h-2.035v-5.156h-4.951v4.834l6.356,7.646
		c0.42,0.508,0.63,1.079,0.63,1.714V693.437z"/>
	<path d="M373.654,673.94h-3.545v21.123h-2.036V673.94h-3.573v-1.802h9.154V673.94L373.654,673.94z"/>
	<path d="M389.752,672.138l-3.12,22.982h-1.655l-2.49-17.284c-0.01-0.304-0.028-0.752-0.059-1.349c0,0.313-0.02,0.763-0.059,1.349
		l-2.49,17.284h-1.655l-3.12-22.982h2.021l1.948,16.538c0.01,0.371,0.028,0.918,0.059,1.641c-0.01-0.371,0.01-0.918,0.059-1.641
		l2.373-16.538h1.743l2.358,16.538c0.02,0.371,0.039,0.918,0.059,1.641c0-0.371,0.024-0.918,0.073-1.641l1.948-16.538H389.752z"/>
	<path d="M394.63,695.063h-2.036v-22.925h2.036V695.063z"/>
	<path d="M405.983,695.063h-7.528v-22.925h7.44v1.802h-5.404v8.555h4.922v1.831h-4.922v8.937h5.492V695.063L405.983,695.063z"/>
</g>
<g>
	<g>
		<defs>
			<rect id="SVGID_3_" x="0" y="0" width="595.276" height="841.891"/>
		</defs>
		<clipPath id="SVGID_4_">
			<use xlink:href="#SVGID_3_"  overflow="visible"/>
		</clipPath>
		<path clip-path="url(#SVGID_4_)" fill="#808EA2" d="M432.816,272.328c-1.085,0.15-4.109-3.291-6.778-5.104
			c-2.668-1.814-5.207-2.492-8.112-3.321c-2.903-0.829-9.012-2.383-11.428-0.048c-2.416,2.334-4.479,6.153-3.825,9.954
			c0.652,3.801,2.372,7.843,4.426,13.076s5.596,7.692,6.867,9.784c1.272,2.093,1.743,3.711,1.073,5.541s0.708,3.597,3.243,3.731
			c2.535,0.136,3.099-0.743,3.836,0.644c0.737,1.388,1.549,2.32,1.577,3.698c0.027,1.379,1.735-0.963,1.157-2.255
			c-0.575-1.292-3.392-3.992-3.908-4.946c-0.519-0.954-0.536-5.462-0.374-5.993c0.162-0.53,0.042,4.176,0.599,5.175
			c0.556,0.999,2.406,2.588,4.46,4.233s9.717,7.23,11.188,10.087c1.469,2.856,3.529,7.383,5.531,11.569
			c2.002,4.188,4.28,6.809,3.417,8.416c-0.862,1.609-1.942,1.534-4.088,5.347c-2.144,3.814-1.646,4.475-1.204,5.883
			c0.444,1.407,1.157,1.958,1.157,1.958s0.123-0.575,0.104-1.494c-0.021-0.919-0.206-1.226,0.501-2.385
			c0.707-1.161,1.105-1.509,1.611-2.183s0.587-0.043,0.44,0.865c-0.147,0.908-0.004,1.251,0.855,0.269
			c0.862-0.982,2.015-0.735,2.977-3.756c0.962-3.02-0.133-3.472-0.229-6.273c-0.096-2.803-2.039-13.202-3.833-16.79
			c-1.793-3.588-2.044-4.774-3.809-6.984c-1.764-2.209-3.01-4.09-3.01-4.09s-0.461-1.159-1.896-1.551
			c-1.433-0.394,1.858,0.88,3.142,1.638c1.28,0.757,4.234,3.259,6.251,1.896c2.014-1.36,3.671-1.786,4.909,0.178
			c1.239,1.964,1.294,2.385,3.007,7.136c1.712,4.751,0.254,9.234,4.132,13.405c3.878,4.172,13.711,7.818,20.075,12.971
			c6.363,5.153,21.04,18.419,22.379,34.854s-0.16,24.4-2.247,32.124c-2.087,7.722-4.257,10.864-11.726,12.832
			c-7.468,1.967-25.736,7.413-33.602,16.01c-7.865,8.596-10.396,18.843-9.313,22.551c1.087,3.707,5.407,0.58,9.236,0.646
			c3.828,0.064,5.568,3.078,5.568,3.078s2.958-6.72,9.411-6.672c6.452,0.047,10.487,4.835,10.733,6.13
			c0.245,1.296,5.403-14.753,13.979-17.18c8.575-2.426,8.734-1.663,9.789-3.344c1.053-1.682,2.512,8.238,4.813,10.889
			c2.304,2.649,4.053,2.638,2.314,7.29c-1.737,4.653,0.134,2.901,0.531,6.83c0.396,3.928,0.163,10.166-5.5,17.1
			c-5.663,6.937-4.96,7.454-4.96,7.454s16.012-10.647,22.468-17.393c6.456-6.744,15.887-16.576,14.16-23.624
			c-1.728-7.047-11.586-18.968-14.943-23.843c-3.358-4.875-9.888-14.41-8.69-25.76c1.198-11.349,5.128-42.547-2.811-57.897
			s-15.648-34.921-23.404-40.373c-7.756-5.451-13.425-5.175-17.337-6.929c-3.912-1.753-9.683-5.787-10.591-9.146
			c-0.909-3.359-2.857-5.312-4.771-6.79c-1.913-1.479-4.615-2.272-4.615-2.272s9.641,2.558,12.763,3.112
			c3.122,0.554,9.142,1.984,13.069,1.586c3.929-0.397,10.987-0.375,12.639,0.077c1.649,0.452,5.158,0.293,6.761-1.478
			c1.604-1.771,2.593-1.499,3.816-1.684c1.224-0.183,1.941-1.813,0.031-1.41c-1.91,0.404-3.579,0.221-3.579,0.221
			s0.424-1.248,1.14-1.87c0.716-0.623,1.92-0.538,3.866-0.471c1.943,0.069,2.609,1.125,2.609,1.125s-1.677-2.941-3.417-3.063
			c-1.738-0.122-2.701-0.794-4.797,1.279c-2.095,2.071-3.225,3.809-7.35,4.126c-4.124,0.316-14.33-3.76-17.614-3.923
			c-3.284-0.161-9.933-0.291-13.41-1.543c-3.477-1.252-10.666-8.075-13.436-6.925C438.057,269.484,435.802,271.915,432.816,272.328"
			/>
	</g>
	<g>
		<defs>
			<rect id="SVGID_5_" x="0" y="0" width="595.276" height="841.891"/>
		</defs>
		<clipPath id="SVGID_6_">
			<use xlink:href="#SVGID_5_"  overflow="visible"/>
		</clipPath>
		<path clip-path="url(#SVGID_6_)" fill="#808EA2" d="M173.785,236.169c0,0-5.135,5.744-7.456,6.601
			c-2.322,0.855-4.277,0.732-4.767,1.711c-0.488,0.978-2.2,2.322-4.034,2.322c-1.833,0-4.766,0.244-5.133,0
			c-0.366-0.244-1.955-0.979-2.078-1.833c-0.122-0.855-0.854-1.467-0.854,0.978s2.078,3.544,3.3,5.866
			c1.222,2.323-2.445,12.467-5.501,17.845c-3.055,5.378-3.67,8.905-4.534,13.086c-0.865,4.181-3.209,9.153-4.254,14.668
			c-1.044,5.515-3.026,9.227-2.594,11.715c0.432,2.486,2.667,5.298,2.811,7.929c0.145,2.632,0.036,3.388-0.721,4.181
			s-1.923,2.019-2.151,2.019c-0.228,0-0.696,0.506-0.407-1.585c0.288-2.092,1.152-2.56,0.071-3.821
			c-1.081-1.261-1.513-1.369-2.307-2.415c-0.793-1.045-2.631-2.487-2.631-4.613c0-2.127,0.865-2.488,1.262-4.578
			s0.938-5.298,1.009-13.083c0.072-7.786,1.081-11.786,3.316-15.823s3.136-8.434,3.857-9.876c0.72-1.441,0.937-1.586,1.404-2.631
			c0.469-1.046-0.611,1.73-3.784,1.982c-3.172,0.252-2.559-1.297-5.153,1.081c-2.597,2.379-3.46,4.253-3.28,10.524
			s2.069,12.909-4.628,24.566c-6.697,11.658-17.756,30.318-21.002,34.425c-3.246,4.107-3.801,4.518,1.407,16.422
			c5.209,11.906,2.729,13.643,10.666,12.898c7.937-0.744,5.291-6.2,20.38,6.201s17.072,22.57,31.459,22.075
			c14.386-0.496,17.858-1.984,21.083-6.448c3.225-4.465-19.099,13.642-27.531,28.275c-8.434,14.635-14.635,25.796-30.261,9.921
			c-15.626-15.873-29.448-22.074-28.242-38.445c1.206-16.37,5.344-17.859-0.073-24.06c-5.418-6.2-14.595-11.657-13.851-18.603
			s2.977-10.417,3.969-29.764c0.992-19.348,2.232-26.293,4.464-38.941c2.233-12.65,5.705-18.107,10.666-21.828
			c4.961-3.72,7.818,0.434,7.523-5.105c-0.285-5.351-2.275-7.067,1.194-11.043c3.132-3.586,8.645-1.462,13.605-9.15
			c4.961-7.689,13.89-18.604,19.099-22.82c5.209-4.216,21.58-11.657,23.316-13.394c1.735-1.736,6.697-5.456,8.929-7.938
			c2.232-2.479,3.668-4.365,4.529-4.875c0.862-0.511,1.628-0.989,0.894,0.319c-0.733,1.307,1.403-1.117,1.754-1.244
			c0.352-0.128,0.192,1.498-0.51,2.231c-0.702,0.734,1.339-1.722,1.658-1.977s0.957,1.052-0.287,2.615
			c-1.244,1.563,0.389,0.83,0.737,0.638c0.348-0.19-0.29,0.543-1.247,2.042s0.095,1.211,0.765,1.148
			c0.67-0.064,0.543-0.191-0.925,1.817c-1.467,2.011-3.891,4.402-7.081,5.359s-5.295,1.244-9.155,4.815
			c-3.858,3.573-11.72,9.309-14.447,10.55c-2.729,1.239-6.697,4.465-8.682,7.937c-1.983,3.473-8.681,11.162-8.309,13.767
			c0.372,2.604,1.859,4.588,4.837,2.852c2.976-1.736,5.705-3.968,6.697-5.084c0.99-1.116,2.728-1.116,2.604-4.093
			s-1.86-8.682,4.837-13.643c6.697-4.96,6.573-6.82,17.486-9.921c10.914-3.101,13.766-2.853,15.998-3.225s2.853,8.558-5.704,10.294
			c-8.558,1.736-9.798,1.364-11.162,5.829c-1.364,4.464,1.116,5.084-1.612,7.688c-2.729,2.604-5.705,2.356-3.473,5.085
			C173.784,229.318,175.275,231.86,173.785,236.169"/>
	</g>
</g>
<polygon points="174.189,639.969 171.992,636.615 169.238,636.615 169.238,636.674 172.841,640.057 174.189,640.057 "/>
<g>
	<path d="M451.181,649.039c0,0.319-0.103,0.581-0.308,0.786s-0.467,0.309-0.786,0.309h-3.604v6.063h-1.357v-15.283h4.961
		c0.319,0,0.581,0.102,0.786,0.304c0.205,0.201,0.308,0.462,0.308,0.78V649.039z M449.824,648.922v-6.808h-3.34v6.808H449.824z"/>
	<path d="M459.492,656.197h-1.349l-0.536-3.397h-3.037l-0.537,3.397h-1.31v-0.039l2.726-15.282h1.338L459.492,656.197z
		 M457.431,651.597l-1.338-8.281l-1.348,8.281H457.431z"/>
	<path d="M470.468,640.914l-2.08,15.322h-1.104l-1.66-11.522c-0.007-0.202-0.021-0.501-0.039-0.898c0,0.208-0.013,0.508-0.039,0.898
		l-1.66,11.522h-1.104l-2.08-15.322h1.348l1.299,11.025c0.008,0.247,0.021,0.612,0.039,1.094c-0.007-0.247,0.007-0.611,0.039-1.094
		l1.582-11.025h1.162l1.572,11.025c0.013,0.247,0.025,0.612,0.039,1.094c0-0.247,0.017-0.611,0.049-1.094l1.299-11.025H470.468z"/>
	<path d="M477.304,656.197h-5.02v-15.283h4.961v1.201h-3.604v5.703h3.281v1.221h-3.281v5.957h3.662L477.304,656.197L477.304,656.197
		z"/>
	<path d="M483.007,649.001l-4.442,3.28v-1.387l4.442-3.271V649.001z M484.306,656.197h-4.883v-15.283h1.357v14.082h3.524
		L484.306,656.197L484.306,656.197z"/>
	<path d="M496.132,649.039c0,0.319-0.103,0.581-0.308,0.786s-0.467,0.309-0.786,0.309h-3.604v6.063h-1.356v-15.283h4.961
		c0.319,0,0.581,0.102,0.786,0.304c0.205,0.201,0.308,0.462,0.308,0.78V649.039z M494.776,648.922v-6.808h-3.341v6.808H494.776z"/>
	<path d="M499.462,656.197h-1.484v-1.719h1.484V656.197z"/>
</g>
<g>
	<path d="M446.563,676.197h-1.357v-15.283h1.357V676.197z"/>
	<path d="M458.985,675.113c0,0.319-0.101,0.579-0.299,0.781c-0.197,0.202-0.457,0.303-0.775,0.303h-3.848
		c-0.319,0-0.581-0.101-0.786-0.303s-0.309-0.462-0.309-0.781v-3.877h1.357v3.76h3.301v-3.643l-4.219-5.098
		c-0.293-0.353-0.439-0.739-0.439-1.162v-3.097c0-0.318,0.104-0.578,0.309-0.78s0.467-0.304,0.786-0.304h3.848
		c0.318,0,0.578,0.102,0.775,0.304c0.198,0.201,0.299,0.462,0.299,0.78v3.556h-1.357v-3.438h-3.301v3.224l4.238,5.098
		c0.279,0.339,0.42,0.72,0.42,1.143V675.113L458.985,675.113z"/>
	<path d="M462.823,676.197h-1.357v-15.283h1.357V676.197z"/>
	<path d="M471.875,676.197h-1.426l-2.842-8.184l0.186-0.273h2.422v-5.625h-3.486v14.082h-1.356v-15.283h5.117
		c0.318,0,0.579,0.102,0.78,0.304c0.202,0.201,0.304,0.462,0.304,0.78v5.802c0,0.734-0.495,1.104-1.484,1.104
		c-0.098,0-0.241-0.005-0.43-0.015c-0.189-0.011-0.325-0.016-0.41-0.016C470.126,671.307,471.002,673.749,471.875,676.197z"/>
	<path d="M478.925,676.197h-5.02v-15.283h4.961v1.201h-3.604v5.703h3.281v1.221h-3.281v5.957h3.662L478.925,676.197L478.925,676.197
		z"/>
	<path d="M487.343,676.197h-0.938l-4.082-11.239v11.239h-1.279v-15.283h1.016l4.005,11.046v-11.046h1.278V676.197z"/>
	<path d="M494.804,676.197h-5.02v-15.283h4.961v1.201h-3.604v5.703h3.281v1.221h-3.281v5.957h3.662L494.804,676.197L494.804,676.197
		z"/>
	<path d="M502.88,675.113c0,0.319-0.1,0.579-0.298,0.781s-0.457,0.303-0.776,0.303h-3.848c-0.319,0-0.581-0.101-0.786-0.303
		s-0.308-0.462-0.308-0.781v-3.877h1.356v3.76h3.301v-3.643l-4.219-5.098c-0.293-0.353-0.438-0.739-0.438-1.162v-3.097
		c0-0.318,0.103-0.578,0.308-0.78s0.467-0.304,0.786-0.304h3.848c0.319,0,0.578,0.102,0.776,0.304
		c0.198,0.201,0.298,0.462,0.298,0.78v3.556h-1.356v-3.438h-3.302v3.224l4.238,5.098c0.28,0.339,0.42,0.72,0.42,1.143V675.113
		L502.88,675.113z"/>
</g>
<g>
	<path d="M451.425,696.197h-0.938l-4.082-11.239v11.239h-1.279v-15.283h1.016l4.005,11.046v-11.046h1.278V696.197z"/>
	<path d="M455.302,696.197h-1.356v-15.283h1.356V696.197z"/>
	<path d="M463.115,682.115h-2.363v14.082h-1.357v-14.082h-2.383v-1.201h6.104L463.115,682.115L463.115,682.115z"/>
	<path d="M471.21,696.197h-1.426l-2.842-8.184l0.186-0.273h2.422v-5.625h-3.485v14.082h-1.357v-15.283h5.117
		c0.318,0,0.579,0.102,0.781,0.304c0.201,0.201,0.303,0.462,0.303,0.78v5.802c0,0.734-0.495,1.104-1.484,1.104
		c-0.098,0-0.241-0.005-0.43-0.015c-0.189-0.011-0.325-0.016-0.41-0.016C469.462,691.307,470.338,693.749,471.21,696.197z"/>
	<path d="M479.698,695.113c0,0.319-0.104,0.579-0.309,0.781s-0.467,0.303-0.786,0.303h-4.276c-0.319,0-0.579-0.101-0.781-0.303
		s-0.303-0.462-0.303-0.781v-13.115c0-0.318,0.101-0.578,0.303-0.78s0.462-0.304,0.781-0.304h4.276c0.319,0,0.581,0.102,0.786,0.304
		c0.205,0.201,0.309,0.462,0.309,0.78V695.113z M478.339,694.996v-12.881h-3.74v12.881H478.339z"/>
	<path d="M488.321,695.113c0,0.319-0.102,0.579-0.304,0.781c-0.201,0.202-0.462,0.303-0.78,0.303h-4.015
		c-0.318,0-0.579-0.101-0.78-0.303c-0.202-0.202-0.304-0.462-0.304-0.781v-13.115c0-0.318,0.102-0.578,0.304-0.78
		c0.201-0.202,0.462-0.304,0.78-0.304h4.015c0.318,0,0.579,0.102,0.78,0.304c0.202,0.201,0.304,0.462,0.304,0.78v3.556h-1.367
		v-3.438h-3.457v12.881h3.457v-5.282h-1.631v-1.173h2.998V695.113L488.321,695.113z"/>
	<path d="M495.761,696.197h-5.02v-15.283h4.961v1.201h-3.604v5.703h3.281v1.221h-3.281v5.957h3.662L495.761,696.197L495.761,696.197
		z"/>
	<path d="M504.179,696.197h-0.938l-4.082-11.239v11.239h-1.279v-15.283h1.017l4.004,11.046v-11.046h1.278V696.197z"/>
	<path d="M508.056,696.197h-1.356v-15.283h1.356V696.197z"/>
	<path d="M516.944,695.113c0,0.319-0.104,0.579-0.309,0.781s-0.467,0.303-0.786,0.303h-4.159c-0.319,0-0.579-0.101-0.781-0.303
		s-0.303-0.462-0.303-0.781v-14.199h1.356v14.082h3.623v-14.082h1.357L516.944,695.113L516.944,695.113z"/>
	<path d="M526.944,696.197h-1.279v-9.678c0-0.137,0.046-0.537,0.137-1.201l-2.5,9.443h-0.272l-2.5-9.443
		c0.091,0.671,0.137,1.071,0.137,1.201v9.678h-1.279v-15.283h1.261l2.479,9.941c0.013,0.052,0.026,0.198,0.039,0.439
		c0-0.099,0.013-0.244,0.039-0.439l2.479-9.941h1.261L526.944,696.197L526.944,696.197z"/>
</g>
</svg>
