<?xml version="1.0" encoding="utf-8"?>
<!-- Generator: Adobe Illustrator 14.0.0, SVG Export Plug-In . SVG Version: 6.00 Build 43363)  -->
<!DOCTYPE svg PUBLIC "-//W3C//DTD SVG 1.1//EN" "http://www.w3.org/Graphics/SVG/1.1/DTD/svg11.dtd">
<svg version="1.1" id="Warstwa_1" xmlns="http://www.w3.org/2000/svg" xmlns:xlink="http://www.w3.org/1999/xlink" x="0px" y="0px"
	 width="595.276px" height="841.891px" viewBox="0 0 595.276 841.891" enable-background="new 0 0 595.276 841.891"
	 xml:space="preserve">
<polygon points="46.847,735.112 168.589,737.618 296.127,742.942 423.68,737.135 544.252,733.924 551.767,613.368 545.678,485.83 
	559.457,358.274 547.613,234.344 423.697,231.8 296.158,225.45 168.6,232.789 36,225.67 43.495,358.26 42.751,485.8 47.673,613.201 
	"/>
<polygon fill="#CFD1D2" points="61.02,721.059 182.762,723.565 310.3,728.889 437.853,723.083 558.426,719.871 565.941,599.315 
	559.851,471.777 573.63,344.222 561.785,220.292 437.869,217.748 310.331,211.397 182.773,218.736 50.173,211.618 57.668,344.208 
	56.924,471.747 61.846,599.148 "/>
<g>
	<g>
		<defs>
			<rect id="SVGID_1_" x="0" y="0" width="595.276" height="841.891"/>
		</defs>
		<clipPath id="SVGID_2_">
			<use xlink:href="#SVGID_1_"  overflow="visible"/>
		</clipPath>
		<path clip-path="url(#SVGID_2_)" fill="#E2001A" d="M263.275,604.44c0.117,3.807-50.051,85.891-1.693,85.891
			c48.356,0,93.948-33.312,81.876-85.192c-12.073-51.881-59.967-118.9-78.628-142.286c-18.264-22.886-61.119-76.405-80.926-116.971
			c-19.257-39.442-30.651-80.607,44.949-87.622c66.558-6.175,125.598,20.178,145.752,36.167
			c22.986,18.237,51.76,47.375,40.703,76.794c-9.443,25.137-50.478,74.479-53.032,72.262c-2.556-2.218,27.349-51.824,36.537-69.78
			c9.827-19.204-0.607-36.431-13.749-51.266c-29.035-32.775-70.913-46.564-104.457-50.688c-23.816-2.927-72.171-7.773-88.935,12.56
			c-18.936,22.965,9.564,68.406,22.856,87.973c29.52,43.454,63.902,87.095,92.856,130.874c38.425,58.1,87.462,152.432-5.396,190.26
			c-18.681,7.61-51.695,13.953-65.373-4.421c-14.104-18.944,4.62-47.857,14.568-64.829
			C255.077,617.527,259.181,610.983,263.275,604.44"/>
	</g>
	<g>
		<defs>
			<rect id="SVGID_3_" x="0" y="0" width="595.276" height="841.891"/>
		</defs>
		<clipPath id="SVGID_4_">
			<use xlink:href="#SVGID_3_"  overflow="visible"/>
		</clipPath>
		<path clip-path="url(#SVGID_4_)" d="M403.987,319.649c8.218,4.393,15.764,26.403,16.122,28.836
			c8.854-5.683,16.827-12.915,15.404-22.87C434.505,318.552,407.293,316.445,403.987,319.649"/>
	</g>
	<g>
		<defs>
			<rect id="SVGID_5_" x="0" y="0" width="595.276" height="841.891"/>
		</defs>
		<clipPath id="SVGID_6_">
			<use xlink:href="#SVGID_5_"  overflow="visible"/>
		</clipPath>
		<path clip-path="url(#SVGID_6_)" d="M392.078,336.2c5.557,6.03,7.586,13.671,8.925,21.2
			C390.64,354.485,392.969,343.912,392.078,336.2"/>
	</g>
	<g>
		<defs>
			<rect id="SVGID_7_" x="0" y="0" width="595.276" height="841.891"/>
		</defs>
		<clipPath id="SVGID_8_">
			<use xlink:href="#SVGID_7_"  overflow="visible"/>
		</clipPath>
		<path clip-path="url(#SVGID_8_)" fill="#FFFFFF" d="M384.16,419.574c2.395-0.105,4.232-1.847,4.106-3.887
			c-0.126-2.041-1.281-4.526-3.675-4.42c-2.396,0.106-5.121,2.765-4.995,4.805C379.723,418.113,381.766,419.68,384.16,419.574"/>
	</g>
	<g>
		<defs>
			<rect id="SVGID_9_" x="0" y="0" width="595.276" height="841.891"/>
		</defs>
		<clipPath id="SVGID_10_">
			<use xlink:href="#SVGID_9_"  overflow="visible"/>
		</clipPath>
		<path clip-path="url(#SVGID_10_)" fill="none" stroke="#FFFFFF" d="M384.16,419.574c2.395-0.105,4.232-1.847,4.106-3.887
			c-0.126-2.041-1.281-4.526-3.675-4.42c-2.396,0.106-5.121,2.765-4.995,4.805C379.723,418.113,381.766,419.68,384.16,419.574z"/>
	</g>
	<g>
		<defs>
			<rect id="SVGID_11_" x="0" y="0" width="595.276" height="841.891"/>
		</defs>
		<clipPath id="SVGID_12_">
			<use xlink:href="#SVGID_11_"  overflow="visible"/>
		</clipPath>
		<path clip-path="url(#SVGID_12_)" d="M384.332,420.228c1.674-0.076,2.959-1.338,2.87-2.819c-0.091-1.48-0.899-3.285-2.574-3.209
			c-1.674,0.077-3.579,2.004-3.49,3.485C381.227,419.166,382.658,420.304,384.332,420.228"/>
	</g>
</g>
<polygon points="228.229,591.585 226.032,588.23 223.278,588.23 223.278,588.289 226.881,591.673 228.229,591.673 "/>
<rect x="230.896" y="480.614" fill="#CFD1D2" width="234.957" height="223.37"/>
<g>
	<defs>
		<rect id="SVGID_13_" x="0" y="0" width="595.276" height="841.891"/>
	</defs>
	<clipPath id="SVGID_14_">
		<use xlink:href="#SVGID_13_"  overflow="visible"/>
	</clipPath>
	<path clip-path="url(#SVGID_14_)" fill="#E2001A" d="M286.059,494.582c0.378,0.063,34.744,60.886,51.678,86.338
		c22.924,34.454,53.085,66.344,94.809,76.007c22.799,5.278,39.289,7.22,69.401,2.055c30.111-5.164,14.595-6.95,0.372-6.516
		c-14.222,0.436-59.935,12.454-109.812-24.881c-31.549-23.615-56.071-70.935-76.215-103.945
		c-11.169-18.304-21.377-37.397-33.038-55.391c-1.533-1.361-5.285-2.904-7.597-2.18c-2.409,0.755-3.014,3.854-3.752,5.9
		C271.906,471.969,282.414,489.199,286.059,494.582"/>
</g>
<g>
	<defs>
		<rect id="SVGID_15_" x="0" y="0" width="595.276" height="841.891"/>
	</defs>
	<clipPath id="SVGID_16_">
		<use xlink:href="#SVGID_15_"  overflow="visible"/>
	</clipPath>
	<path clip-path="url(#SVGID_16_)" d="M338.708,469.16c0.262-1.586,0.814-5.092,0.824-6.482c0.003-0.494-0.061-1.261-0.19-2.124
		c1.289,0.353,2.542,1.249,3.927,3.192c1.322,1.858,2.983,4.783,4.255,7.127c-0.22-0.068-0.427-0.118-0.615-0.144
		C344.504,470.413,341.128,470.205,338.708,469.16 M332.373,464.599c0.001-0.004,1.046-3.713,3.683-4.092
		c0.944-0.136,1.815-0.205,2.659-0.084c0.018,0.398-0.008,0.84-0.087,1.335c-0.438,2.746-0.76,5.397-0.928,6.874
		c-0.098-0.062-0.196-0.119-0.287-0.186C335.586,467.142,333.374,465.683,332.373,464.599 M333.345,456.844
		c1.822,0.104,3.577,0.368,4.563,1.438c-1.005-0.191-1.985-0.066-2.846,0.614c-1.512,1.195-2.788,2.938-3.508,4.03
		c-0.135-0.305-0.308-0.633-0.51-0.96l0.072-1.196C331.119,460.77,330.29,456.671,333.345,456.844 M356.189,479.856
		c0.047-2.313-3.578-6.074-6.605-7.973c-1.895-3.704-5.271-9.754-6.775-10.926c-1.09-0.848-2.467-1.845-3.864-2.378
		c-0.461-1.784-1.201-3.454-2.26-3.707c-1.989-0.474-6.071-0.382-6.496,2.581c-0.166,1.157-0.225,2.238-0.233,3.132
		c-0.338-0.317-0.692-0.557-1.043-0.646c-1.33-0.348-2.521,0.871-3.614,0.04c-1.094-0.832-1.28-4.637-4.72-7.227
		c-3.44-2.59-9.571-1.701-24.493-3.225c-14.922-1.522-13.502,4.655-14.688,8.451c0,0-0.693,2.657-0.375,5.448
		c0.32,2.792,5.353,2.425,5.353,2.425s-1.449,1.871-3.766,3.8c-2.315,1.929-4.508,4.218-13.634,6.969
		c-9.127,2.752-15.777,4.97-20.924,3.604c-5.148-1.366-9.753-1.629-14.897-0.415c-5.143,1.213-13.589,0.102-17.216-1.063
		c-3.627-1.164-3.743,3.633-5.571,8.374c-1.826,4.743-8.42,14.358-15.239,23.084c-6.82,8.727-8.576,15.54-7.411,18.443
		c1.164,2.902,5.28,0.351,9.539-4.587c4.259-4.939,12.738-24.959,15.292-30c2.554-5.04,6.399-6.842,12.387-7.943
		c5.988-1.102,22.24,2.069,24.134,3.35c1.895,1.279,7.984,0.707,14.331,0.685c6.349-0.022,17.138-0.837,17.138-0.837
		s0.941,11.122,0.592,13.775c-0.35,2.654-4.452,1.183-8.865,0.771c-4.414-0.409-14.195,2.084-21.658,2.647
		c-7.464,0.563-6.646-1.733-9.34-3.464c-2.694-1.729-5.654,5.1-14.017,13.793c-8.362,8.694-23.61,13.562-32.611,16.672
		c-9.002,3.111-14.017,7.264-13.315,9.762c0.702,2.499,4.308,3.832,8.192,4.344s35.804-20.031,39.548-23.664
		c3.743-3.632,4.961-2.439,14.479-6.857s12.82-2.093,31.513-0.49c18.692,1.602,18.831-9.895,20.103-16.944
		c1.272-7.05,1.192-7.747,2.521-7.4s1.813,0.582,4.37,0.747c2.557,0.164,2.498-0.703,2.996,0.738
		c0.498,1.439,0.443,3.151,3.77,5.308c3.324,2.156,4.979,1.344,8.952,1.179c3.975-0.164,2.424-5.353,6.011-7.801
		c3.588-2.448,5.917-3.174,5.738-1.822c-0.178,1.353-2.014,13.998-2.642,16.149c-0.627,2.151-2.139,0.577-1.934,1.636
		c0.203,1.058,1.03,3.917,2.716,1.562s4.242-21.782,5.252-24.228c1.01-2.444,3.046-3.552,4.081-3.588
		c1.035-0.034,0.52,1.271,2.154,3.206c1.637,1.934,3.384,3.022,2.067,3.882c-1.316,0.857,0.77,1.99,1.772,3.498
		c1.005,1.507,5.041-1.742,3.529-3.316c-1.511-1.573,0.517-1.307,3.396-2.302C352.788,486.111,356.126,482.941,356.189,479.856"/>
</g>
<g>
	<path d="M111.333,606.141c0,0.479-0.154,0.872-0.461,1.179c-0.309,0.31-0.701,0.462-1.18,0.462h-5.404v9.098h-2.036v-22.926h7.44
		c0.479,0,0.872,0.151,1.18,0.454c0.307,0.304,0.461,0.693,0.461,1.172V606.141z M109.297,605.966v-10.21h-5.01v10.21H109.297z"/>
	<path d="M124.238,615.253c0,0.479-0.153,0.868-0.461,1.172c-0.307,0.303-0.7,0.454-1.179,0.454h-6.416
		c-0.479,0-0.869-0.151-1.172-0.454c-0.303-0.304-0.454-0.693-0.454-1.172V595.58c0-0.479,0.151-0.868,0.454-1.172
		c0.303-0.303,0.693-0.454,1.172-0.454h6.416c0.479,0,0.872,0.151,1.179,0.454c0.308,0.304,0.461,0.693,0.461,1.172V615.253z
		 M122.202,615.077v-19.32h-5.61v19.32H122.202z"/>
	<path d="M137.349,612.733c0,1.211-0.397,2.204-1.194,2.981c-0.796,0.774-1.799,1.164-3.01,1.164H127.9v-22.926h5.244
		c1.222,0,2.228,0.389,3.019,1.165c0.791,0.775,1.187,1.771,1.187,2.98V612.733z M135.313,612.528v-14.253
		c0-0.752-0.236-1.358-0.71-1.824c-0.474-0.463-1.086-0.694-1.838-0.694h-2.827v19.32h2.71c0.791,0,1.434-0.228,1.927-0.681
		C135.066,613.941,135.313,613.319,135.313,612.528z"/>
	<path d="M150.107,615.253c0,0.479-0.15,0.868-0.454,1.172c-0.303,0.303-0.692,0.454-1.172,0.454h-7.559v-22.926h7.5
		c0.479,0,0.869,0.151,1.172,0.454s0.454,0.693,0.454,1.172v6.813c0,0.604-0.273,1.113-0.82,1.522
		c-0.537,0.322-1.074,0.646-1.61,0.968l1.729,1.112c0.508,0.313,0.762,0.802,0.762,1.466L150.107,615.253L150.107,615.253z
		 M147.998,602.655v-6.898h-5.039v8.275h3.003L147.998,602.655z M148.057,615.077v-7.925l-2.064-1.348h-3.032v9.271L148.057,615.077
		L148.057,615.077z"/>
	<path d="M163.174,615.253c0,0.479-0.154,0.868-0.461,1.172c-0.307,0.303-0.701,0.454-1.179,0.454h-6.24
		c-0.479,0-0.869-0.151-1.172-0.454c-0.304-0.304-0.454-0.693-0.454-1.172v-21.3h2.036v21.123h5.435v-21.123h2.036L163.174,615.253
		L163.174,615.253z"/>
	<path d="M176.284,612.733c0,1.211-0.398,2.204-1.194,2.981c-0.796,0.774-1.799,1.164-3.01,1.164h-5.244v-22.926h5.244
		c1.221,0,2.227,0.389,3.018,1.165c0.791,0.775,1.188,1.771,1.188,2.98L176.284,612.733L176.284,612.733z M174.248,612.528v-14.253
		c0-0.752-0.237-1.358-0.71-1.824c-0.475-0.463-1.086-0.694-1.838-0.694h-2.827v19.32h2.71c0.791,0,1.433-0.228,1.926-0.681
		C174.001,613.941,174.248,613.319,174.248,612.528z"/>
	<path d="M189.541,615.253c0,0.479-0.154,0.868-0.461,1.172c-0.308,0.303-0.701,0.454-1.18,0.454h-6.416
		c-0.479,0-0.868-0.151-1.172-0.454c-0.303-0.304-0.454-0.693-0.454-1.172V595.58c0-0.479,0.151-0.868,0.454-1.172
		c0.304-0.303,0.693-0.454,1.172-0.454h6.416c0.479,0,0.872,0.151,1.18,0.454c0.307,0.304,0.461,0.693,0.461,1.172V615.253z
		 M187.505,615.077v-19.32h-5.61v19.32H187.505z"/>
	<path d="M206.914,593.954l-3.12,22.983h-1.655l-2.49-17.285c-0.01-0.303-0.028-0.752-0.059-1.348c0,0.313-0.021,0.762-0.06,1.348
		l-2.489,17.285h-1.655l-3.12-22.983h2.021l1.947,16.538c0.011,0.371,0.029,0.918,0.06,1.642c-0.01-0.371,0.01-0.918,0.059-1.642
		l2.373-16.538h1.743l2.358,16.538c0.02,0.371,0.039,0.918,0.059,1.642c0-0.371,0.024-0.918,0.073-1.642l1.948-16.538H206.914z"/>
	<path d="M218.882,616.879h-2.021l-0.806-5.099h-4.556l-0.807,5.099h-1.963v-0.06l4.087-22.925h2.008L218.882,616.879z
		 M215.791,609.979l-2.007-12.422l-2.021,12.422H215.791z"/>
	<path d="M230.82,615.253c0,0.479-0.155,0.868-0.469,1.172c-0.313,0.303-0.708,0.454-1.187,0.454h-5.903
		c-0.479,0-0.869-0.151-1.172-0.454c-0.303-0.304-0.454-0.693-0.454-1.172V595.58c0-0.479,0.151-0.868,0.454-1.172
		c0.303-0.303,0.693-0.454,1.172-0.454h5.903c0.479,0,0.874,0.151,1.187,0.454c0.313,0.304,0.469,0.693,0.469,1.172v5.332h-2.051
		v-5.155h-5.098v19.32h5.098v-5.64h2.051V615.253z"/>
</g>
<g>
	<path d="M115.962,623.954l-3.12,22.983h-1.655l-2.49-17.285c-0.01-0.303-0.028-0.752-0.059-1.348c0,0.313-0.02,0.762-0.059,1.348
		l-2.49,17.285h-1.655l-3.12-22.983h2.021l1.948,16.538c0.01,0.371,0.028,0.918,0.059,1.642c-0.01-0.371,0.01-0.918,0.059-1.642
		l2.373-16.538h1.743l2.358,16.538c0.02,0.371,0.039,0.918,0.059,1.642c0-0.371,0.024-0.918,0.073-1.642l1.948-16.538H115.962z"/>
	<path d="M124.063,636.083l-6.665,4.923v-2.08l6.665-4.907V636.083z M126.011,646.879h-7.324v-22.926h2.036v21.123h5.288V646.879
		L126.011,646.879z"/>
	<path d="M138.037,646.879h-2.021l-0.806-5.099h-4.557l-0.806,5.099h-1.963v-0.06l4.087-22.925h2.007L138.037,646.879z
		 M134.946,639.979l-2.007-12.422l-2.021,12.422H134.946z"/>
	<path d="M149.727,645.253c0,0.479-0.148,0.868-0.447,1.172c-0.298,0.303-0.686,0.454-1.164,0.454h-5.771
		c-0.479,0-0.872-0.151-1.179-0.454c-0.308-0.304-0.461-0.693-0.461-1.172v-5.815h2.036v5.64h4.95v-5.464l-6.328-7.646
		c-0.438-0.527-0.658-1.108-0.658-1.743v-4.644c0-0.479,0.153-0.869,0.461-1.173c0.307-0.303,0.701-0.454,1.179-0.454h5.771
		c0.479,0,0.866,0.151,1.164,0.454c0.299,0.304,0.447,0.693,0.447,1.173v5.331h-2.036v-5.155h-4.95v4.834l6.356,7.646
		c0.42,0.508,0.63,1.079,0.63,1.714V645.253z"/>
	<path d="M162.778,646.879h-1.405l-6.123-16.86v16.86h-1.919v-22.926h1.522l6.006,16.567v-16.567h1.919V646.879L162.778,646.879z"/>
	<path d="M173.97,646.879h-7.529v-22.926h7.441v1.803h-5.405v8.555h4.922v1.831h-4.922v8.936h5.493V646.879L173.97,646.879z"/>
	<path d="M190.552,646.879h-7.529v-22.926h7.441v1.803h-5.405v8.555h4.922v1.831h-4.922v8.936h5.493V646.879L190.552,646.879z"/>
	<path d="M203.003,645.253c0,0.479-0.151,0.868-0.454,1.172c-0.303,0.303-0.693,0.454-1.172,0.454h-6.021
		c-0.479,0-0.869-0.151-1.172-0.454c-0.303-0.304-0.454-0.693-0.454-1.172V625.58c0-0.479,0.151-0.868,0.454-1.172
		c0.303-0.303,0.693-0.454,1.172-0.454h6.021c0.479,0,0.869,0.151,1.172,0.454c0.303,0.304,0.454,0.693,0.454,1.172v5.332h-2.051
		v-5.155h-5.187v19.32h5.187v-7.925h-2.446v-1.758h4.497V645.253z"/>
	<path d="M216.318,645.253c0,0.479-0.153,0.868-0.461,1.172c-0.307,0.303-0.701,0.454-1.179,0.454h-6.416
		c-0.479,0-0.869-0.151-1.172-0.454c-0.303-0.304-0.454-0.693-0.454-1.172V625.58c0-0.479,0.151-0.868,0.454-1.172
		c0.303-0.303,0.693-0.454,1.172-0.454h6.416c0.479,0,0.872,0.151,1.179,0.454c0.308,0.304,0.461,0.693,0.461,1.172V645.253z
		 M214.282,645.077v-19.32h-5.61v19.32H214.282z"/>
</g>
<g>
	<path d="M107.695,681.354c0,0.319-0.103,0.581-0.308,0.786s-0.467,0.308-0.786,0.308h-3.604v6.064h-1.357v-15.283h4.961
		c0.319,0,0.581,0.101,0.786,0.303s0.308,0.462,0.308,0.781V681.354L107.695,681.354z M106.338,681.237v-6.807h-3.34v6.807H106.338z
		"/>
	<path d="M116.006,688.512h-1.348l-0.537-3.398h-3.037l-0.537,3.398h-1.31v-0.039l2.726-15.283h1.338L116.006,688.512z
		 M113.945,683.913l-1.338-8.28l-1.348,8.28H113.945z"/>
	<path d="M126.982,673.229l-2.08,15.322h-1.104l-1.66-11.523c-0.006-0.202-0.02-0.501-0.039-0.897c0,0.208-0.013,0.508-0.039,0.897
		l-1.66,11.523h-1.104l-2.08-15.322h1.348l1.299,11.025c0.007,0.247,0.021,0.611,0.039,1.094c-0.006-0.247,0.007-0.612,0.039-1.094
		l1.582-11.025h1.162l1.572,11.025c0.013,0.247,0.026,0.611,0.039,1.094c0-0.247,0.016-0.612,0.049-1.094l1.299-11.025H126.982z"/>
	<path d="M133.818,688.512h-5.02v-15.283h4.961v1.201h-3.604v5.703h3.281v1.221h-3.281v5.957h3.662L133.818,688.512L133.818,688.512
		z"/>
	<path d="M139.521,681.315l-4.442,3.281v-1.387l4.442-3.271V681.315z M140.82,688.512h-4.883v-15.283h1.357v14.082h3.524
		L140.82,688.512L140.82,688.512z"/>
	<path d="M152.646,681.354c0,0.319-0.103,0.581-0.308,0.786s-0.467,0.308-0.786,0.308h-3.604v6.064h-1.357v-15.283h4.961
		c0.319,0,0.581,0.101,0.786,0.303s0.308,0.462,0.308,0.781V681.354z M151.289,681.237v-6.807h-3.34v6.807H151.289z"/>
	<path d="M155.977,688.512h-1.483v-1.719h1.483V688.512z"/>
	<path d="M163.467,688.512h-1.357v-15.283h1.357V688.512z"/>
	<path d="M176.094,688.512h-1.348l-0.537-3.398h-3.037l-0.537,3.398h-1.309v-0.039l2.725-15.283h1.338L176.094,688.512z
		 M174.033,683.913l-1.339-8.28l-1.348,8.28H174.033z"/>
	<path d="M184.229,688.512h-0.938l-4.082-11.24v11.24h-1.279v-15.283h1.016l4.005,11.045v-11.045h1.278V688.512z"/>
	<path d="M192.852,687.428c0,0.318-0.101,0.579-0.303,0.781c-0.202,0.201-0.462,0.303-0.781,0.303h-4.014
		c-0.319,0-0.58-0.102-0.781-0.303c-0.201-0.202-0.303-0.463-0.303-0.781v-13.115c0-0.319,0.101-0.579,0.303-0.781
		s0.462-0.303,0.781-0.303h4.014c0.319,0,0.58,0.101,0.781,0.303s0.303,0.462,0.303,0.781v3.555h-1.367v-3.438h-3.457v12.881h3.457
		v-5.283h-1.631v-1.172h2.998V687.428z"/>
	<path d="M201.611,687.428c0,0.318-0.103,0.579-0.308,0.781c-0.205,0.201-0.467,0.303-0.786,0.303h-4.16
		c-0.318,0-0.58-0.102-0.78-0.303c-0.201-0.202-0.304-0.463-0.304-0.781v-14.199h1.357v14.082h3.623v-14.082h1.356L201.611,687.428
		L201.611,687.428z"/>
	<path d="M205.488,688.512h-1.356v-15.283h1.356V688.512z"/>
	<path d="M212.92,688.512h-4.883v-15.283h1.356v14.082h3.525L212.92,688.512L212.92,688.512z"/>
	<path d="M219.658,688.512h-4.884v-15.283h1.357v14.082h3.525L219.658,688.512L219.658,688.512z"/>
	<path d="M227.676,688.512h-1.348l-0.537-3.398h-3.037l-0.537,3.398h-1.309v-0.039l2.725-15.283h1.338L227.676,688.512z
		 M225.615,683.913l-1.339-8.28l-1.348,8.28H225.615z"/>
	<path d="M239.59,688.512h-1.348l-0.537-3.398h-3.037l-0.537,3.398h-1.31v-0.039l2.726-15.283h1.338L239.59,688.512z
		 M237.529,683.913l-1.338-8.28l-1.348,8.28H237.529z"/>
	<path d="M247.725,688.512h-0.938l-4.082-11.24v11.24h-1.279v-15.283h1.016l4.004,11.045v-11.045h1.279V688.512z"/>
	<path d="M256.348,687.428c0,0.318-0.101,0.579-0.303,0.781c-0.202,0.201-0.462,0.303-0.781,0.303h-4.014
		c-0.319,0-0.58-0.102-0.781-0.303c-0.201-0.202-0.303-0.463-0.303-0.781v-13.115c0-0.319,0.101-0.579,0.303-0.781
		s0.462-0.303,0.781-0.303h4.014c0.319,0,0.58,0.101,0.781,0.303s0.303,0.462,0.303,0.781v3.555h-1.367v-3.438h-3.457v12.881h3.457
		v-5.283h-1.631v-1.172h2.998V687.428z"/>
	<path d="M265.107,687.428c0,0.318-0.103,0.579-0.308,0.781c-0.205,0.201-0.467,0.303-0.786,0.303h-4.16
		c-0.318,0-0.58-0.102-0.781-0.303c-0.2-0.202-0.303-0.463-0.303-0.781v-14.199h1.357v14.082h3.623v-14.082h1.356L265.107,687.428
		L265.107,687.428z"/>
	<path d="M268.984,688.512h-1.356v-15.283h1.356V688.512z"/>
	<path d="M276.416,688.512h-4.883v-15.283h1.356v14.082h3.525L276.416,688.512L276.416,688.512z"/>
	<path d="M283.154,688.512h-4.883v-15.283h1.357v14.082h3.524L283.154,688.512L283.154,688.512z"/>
	<path d="M291.172,688.512h-1.348l-0.537-3.398h-3.037l-0.537,3.398h-1.309v-0.039l2.725-15.283h1.338L291.172,688.512z
		 M289.111,683.913l-1.338-8.28l-1.348,8.28H289.111z"/>
</g>
</svg>
