<?xml version="1.0" encoding="utf-8"?>
<!-- Generator: Adobe Illustrator 14.0.0, SVG Export Plug-In . SVG Version: 6.00 Build 43363)  -->
<!DOCTYPE svg PUBLIC "-//W3C//DTD SVG 1.1//EN" "http://www.w3.org/Graphics/SVG/1.1/DTD/svg11.dtd">
<svg version="1.1" id="Warstwa_1" xmlns="http://www.w3.org/2000/svg" xmlns:xlink="http://www.w3.org/1999/xlink" x="0px" y="0px"
	 width="595.276px" height="841.891px" viewBox="0 0 595.276 841.891" enable-background="new 0 0 595.276 841.891"
	 xml:space="preserve">
<polygon points="42.484,738.871 172.008,742.678 298.098,738.899 424.206,727.001 552.073,737.203 544.545,609.349 558.282,483.26 
	559.277,357.153 547.792,233.569 424.221,230.178 298.131,239.454 172.023,235.139 40.458,225.588 50.139,357.14 46.867,483.229 
	36,609.202 "/>
<polygon fill="#CFD1D2" points="56.657,726.922 186.181,730.728 312.271,726.949 438.379,715.052 566.246,725.254 558.719,597.399 
	572.455,471.309 573.449,345.203 561.965,221.619 438.394,218.228 312.304,227.504 186.196,223.189 54.631,213.638 64.312,345.19 
	61.04,471.279 50.173,597.253 "/>
<g>
	<path d="M310.866,566.052c0,0.479-0.153,0.869-0.463,1.172c-0.307,0.303-0.699,0.454-1.179,0.454h-6.24
		c-0.479,0-0.868-0.151-1.172-0.454c-0.303-0.303-0.454-0.693-0.454-1.172v-21.299h2.036v21.122h5.436v-21.122h2.036V566.052
		L310.866,566.052z"/>
	<path d="M323.976,563.533c0,1.211-0.397,2.205-1.192,2.98c-0.798,0.776-1.801,1.165-3.012,1.165h-5.244v-22.925h5.244
		c1.222,0,2.228,0.389,3.019,1.163c0.791,0.777,1.187,1.771,1.187,2.981L323.976,563.533L323.976,563.533z M321.94,563.328v-14.253
		c0-0.752-0.236-1.358-0.71-1.822c-0.475-0.465-1.087-0.696-1.839-0.696h-2.827v19.321h2.71c0.791,0,1.434-0.228,1.928-0.683
		C321.693,564.742,321.94,564.119,321.94,563.328z"/>
	<path d="M336.793,567.678h-2.021l-0.806-5.099h-4.556l-0.807,5.099h-1.963v-0.06l4.087-22.925h2.007L336.793,567.678z
		 M333.703,560.779l-2.008-12.422l-2.021,12.422H333.703z"/>
	<path d="M353.258,544.754l-3.12,22.982h-1.655l-2.489-17.285c-0.011-0.303-0.029-0.752-0.06-1.348c0,0.313-0.02,0.762-0.059,1.348
		l-2.49,17.285h-1.655l-3.12-22.982h2.021l1.948,16.538c0.01,0.37,0.028,0.918,0.059,1.641c-0.01-0.371,0.01-0.918,0.06-1.641
		l2.372-16.538h1.743l2.358,16.538c0.02,0.37,0.039,0.918,0.059,1.641c0-0.371,0.024-0.918,0.073-1.641l1.948-16.538H353.258z"/>
	<path d="M365.226,567.678h-2.021l-0.807-5.099h-4.556l-0.806,5.099h-1.963v-0.06l4.087-22.925h2.007L365.226,567.678z
		 M362.135,560.779l-2.007-12.422l-2.021,12.422H362.135z"/>
	<path d="M377.165,566.052c0,0.479-0.156,0.869-0.47,1.172c-0.313,0.303-0.708,0.454-1.187,0.454h-5.903
		c-0.479,0-0.869-0.151-1.172-0.454s-0.454-0.693-0.454-1.172V546.38c0-0.479,0.151-0.869,0.454-1.172
		c0.303-0.304,0.693-0.454,1.172-0.454h5.903c0.479,0,0.874,0.15,1.188,0.454c0.313,0.303,0.469,0.692,0.469,1.172v5.332h-2.051
		v-5.156h-5.099v19.32h5.099v-5.64h2.051V566.052L377.165,566.052z"/>
	<path d="M394.274,567.678h-8.789v-1.084l6.445-20.039h-5.814v-1.802h8.158v1.055l-6.444,20.067h6.444V567.678z"/>
	<path d="M402.301,556.883l-6.665,4.922v-2.08l6.665-4.907V556.883z M404.25,567.678h-7.324v-22.925h2.036v21.122h5.288V567.678z"/>
	<path d="M416.715,566.052c0,0.479-0.153,0.869-0.462,1.172c-0.308,0.303-0.7,0.454-1.179,0.454h-6.416
		c-0.479,0-0.869-0.151-1.173-0.454c-0.303-0.303-0.453-0.693-0.453-1.172V546.38c0-0.479,0.15-0.869,0.453-1.172
		c0.304-0.304,0.693-0.454,1.173-0.454h6.416c0.479,0,0.871,0.15,1.179,0.454c0.309,0.303,0.462,0.692,0.462,1.172V566.052z
		 M414.679,565.876v-19.32h-5.61v19.32H414.679z"/>
	<path d="M428.274,546.555h-3.546v21.123h-2.035v-21.123h-3.574v-1.802h9.155V546.555L428.274,546.555z"/>
	<path d="M439.905,567.678h-2.021l-0.806-5.099h-4.556l-0.807,5.099h-1.963v-0.06l4.087-22.925h2.007L439.905,567.678z
		 M436.813,560.779l-2.007-12.422l-2.021,12.422H436.813z"/>
	<path d="M458.288,567.678h-2.139l-4.264-12.275l0.278-0.41h3.633v-8.438h-5.229v21.123h-2.036v-22.925h7.676
		c0.479,0,0.869,0.15,1.172,0.453c0.303,0.304,0.454,0.693,0.454,1.173v8.7c0,1.104-0.742,1.655-2.227,1.655
		c-0.146,0-0.361-0.008-0.646-0.021c-0.283-0.017-0.488-0.022-0.615-0.022C455.666,560.344,456.979,564.007,458.288,567.678z"/>
	<path d="M470.548,544.885l-2.783,9.271c-0.352,0.928-0.814,2.477-1.392,4.645v8.877h-2.036v-8.877
		c-0.137-0.742-0.347-1.523-0.63-2.345c-0.469-1.405-0.723-2.173-0.762-2.3l-2.783-9.271c0-0.01,0-0.055,0-0.132h2.064l3.149,11.47
		l3.12-11.47h2.051C470.548,544.822,470.548,544.866,470.548,544.885z"/>
	<path d="M482.223,566.052c0,0.479-0.15,0.869-0.454,1.172c-0.303,0.303-0.692,0.454-1.172,0.454h-7.559v-22.925h7.5
		c0.479,0,0.869,0.15,1.172,0.453c0.303,0.304,0.454,0.693,0.454,1.173v6.812c0,0.605-0.273,1.113-0.82,1.523
		c-0.537,0.321-1.074,0.645-1.61,0.967l1.729,1.112c0.508,0.313,0.762,0.802,0.762,1.466L482.223,566.052L482.223,566.052z
		 M480.115,553.455v-6.898h-5.039v8.276h3.003L480.115,553.455z M480.172,565.876v-7.925l-2.064-1.348h-3.032v9.271L480.172,565.876
		L480.172,565.876z"/>
	<path d="M495.348,567.678h-2.24l-5.288-11.017v11.017h-2.036v-22.925h2.036v10.298l4.805-10.298h2.212v0.132l-5.186,10.913
		L495.348,567.678z"/>
	<path d="M504.856,567.678h-7.529v-22.925h7.44v1.802h-5.404v8.555h4.922v1.831h-4.922v8.937h5.493V567.678L504.856,567.678z"/>
	<path d="M510.099,565.1l-1.289,4.204h-1.405l0.425-4.204H510.099z"/>
</g>
<g>
	<path d="M310.631,596.052c0,0.479-0.151,0.869-0.454,1.172s-0.693,0.454-1.172,0.454h-6.021c-0.479,0-0.868-0.151-1.172-0.454
		c-0.303-0.303-0.454-0.693-0.454-1.172V576.38c0-0.479,0.151-0.869,0.454-1.172c0.304-0.304,0.693-0.454,1.172-0.454h6.021
		c0.479,0,0.869,0.15,1.172,0.454c0.303,0.303,0.454,0.692,0.454,1.172v5.332h-2.051v-5.156h-5.187v19.32h5.187v-7.925h-2.446
		v-1.758h4.497V596.052z"/>
	<path d="M323.712,593.533c0,1.211-0.398,2.205-1.193,2.98c-0.797,0.776-1.8,1.165-3.011,1.165h-5.244v-22.925h5.244
		c1.221,0,2.227,0.389,3.018,1.163c0.791,0.777,1.188,1.771,1.188,2.981L323.712,593.533L323.712,593.533z M321.676,593.328v-14.253
		c0-0.752-0.237-1.358-0.71-1.822c-0.475-0.465-1.087-0.696-1.839-0.696H316.3v19.321h2.71c0.791,0,1.433-0.228,1.927-0.683
		C321.429,594.742,321.676,594.119,321.676,593.328z"/>
	<path d="M336.5,574.885l-2.783,9.271c-0.352,0.928-0.815,2.477-1.392,4.645v8.877h-2.036v-8.877
		c-0.138-0.742-0.348-1.523-0.63-2.345c-0.47-1.405-0.724-2.173-0.763-2.3l-2.782-9.271c0-0.01,0-0.055,0-0.132h2.064l3.149,11.47
		l3.12-11.47h2.051C336.5,574.822,336.5,574.866,336.5,574.885z"/>
	<path d="M354.313,597.678h-1.405l-6.123-16.86v16.86h-1.919v-22.925h1.522l6.006,16.566v-16.566h1.919V597.678L354.313,597.678z"/>
	<path d="M367.218,597.678h-2.021l-0.806-5.099h-4.556l-0.807,5.099h-1.963v-0.06l4.087-22.925h2.008L367.218,597.678z
		 M364.127,590.779l-2.007-12.422l-2.021,12.422H364.127z"/>
	<path d="M377.868,576.555h-3.545v21.123h-2.036v-21.123h-3.574v-1.802h9.155V576.555L377.868,576.555z"/>
	<path d="M390.011,597.678h-2.139l-4.264-12.275l0.278-0.41h3.633v-8.438h-5.229v21.123h-2.036v-22.925h7.676
		c0.479,0,0.869,0.15,1.172,0.453c0.303,0.304,0.454,0.693,0.454,1.173v8.7c0,1.104-0.742,1.655-2.227,1.655
		c-0.146,0-0.361-0.008-0.646-0.021c-0.283-0.017-0.488-0.022-0.615-0.022C387.389,590.344,388.703,594.007,390.011,597.678z"/>
	<path d="M402.301,597.678h-2.021l-0.806-5.099h-4.556l-0.807,5.099h-1.963v-0.06l4.087-22.925h2.008L402.301,597.678z
		 M399.21,590.779l-2.007-12.422l-2.021,12.422H399.21z"/>
	<path d="M412.438,576.555h-5.347v8.701h4.922v1.831h-4.922v10.591h-2.036v-22.925h7.383V576.555z"/>
	<path d="M417.404,597.678h-2.035v-22.925h2.035V597.678z"/>
	<path d="M436.037,596.052c0,0.479-0.149,0.869-0.447,1.172s-0.686,0.454-1.164,0.454h-5.771c-0.479,0-0.871-0.151-1.181-0.454
		c-0.307-0.303-0.461-0.693-0.461-1.172v-5.815h2.036v5.641H434v-5.465l-6.328-7.646c-0.438-0.527-0.659-1.108-0.659-1.743v-4.644
		c0-0.479,0.154-0.869,0.461-1.172c0.31-0.304,0.701-0.454,1.181-0.454h5.771c0.479,0,0.866,0.15,1.164,0.454
		c0.298,0.303,0.447,0.692,0.447,1.172v5.332H434v-5.156h-4.951v4.834l6.357,7.646c0.42,0.509,0.63,1.079,0.63,1.715
		L436.037,596.052L436.037,596.052z"/>
	<path d="M441.793,597.678h-2.036v-22.925h2.036V597.678z"/>
	<path d="M453.147,597.678h-7.529v-22.925h7.44v1.802h-5.404v8.555h4.922v1.831h-4.922v8.937h5.493V597.678L453.147,597.678z"/>
</g>
<g>
	<path d="M310.807,627.678h-1.406l-6.123-16.86v16.86h-1.919v-22.925h1.523l6.006,16.566v-16.566h1.919V627.678L310.807,627.678z"/>
	<path d="M323.712,627.678h-2.021l-0.806-5.099h-4.556l-0.807,5.099h-1.963v-0.06l4.087-22.925h2.007L323.712,627.678z
		 M320.622,620.779l-2.007-12.422l-2.021,12.422H320.622z"/>
	<path d="M341.789,627.678h-1.406l-6.123-16.86v16.86h-1.919v-22.925h1.523l6.006,16.566v-16.566h1.919V627.678L341.789,627.678z"/>
	<path d="M355.133,626.052c0,0.479-0.153,0.869-0.462,1.172c-0.308,0.303-0.7,0.454-1.179,0.454h-6.416
		c-0.479,0-0.869-0.151-1.173-0.454c-0.303-0.303-0.453-0.693-0.453-1.172V606.38c0-0.479,0.15-0.869,0.453-1.172
		c0.304-0.304,0.693-0.454,1.173-0.454h6.416c0.479,0,0.872,0.15,1.179,0.454c0.309,0.303,0.462,0.692,0.462,1.172V626.052z
		 M353.097,625.876v-19.32h-5.61v19.32H353.097z"/>
	<path d="M367.98,626.052c0,0.479-0.155,0.869-0.469,1.172c-0.313,0.303-0.708,0.454-1.187,0.454h-5.903
		c-0.479,0-0.869-0.151-1.172-0.454c-0.304-0.303-0.454-0.693-0.454-1.172V606.38c0-0.479,0.15-0.869,0.454-1.172
		c0.303-0.304,0.692-0.454,1.172-0.454h5.903c0.479,0,0.874,0.15,1.187,0.454c0.313,0.303,0.469,0.692,0.469,1.172v5.332h-2.051
		v-5.156h-5.098v19.32h5.098v-5.64h2.051V626.052L367.98,626.052z"/>
	<path d="M380.988,627.678h-1.405l-6.123-16.86v16.86h-1.919v-22.925h1.522l6.006,16.566v-16.566h1.92L380.988,627.678
		L380.988,627.678z"/>
	<path d="M392.179,627.678h-7.529v-22.925h7.441v1.802h-5.405v8.555h4.922v1.831h-4.922v8.937h5.493V627.678L392.179,627.678z"/>
	<path d="M404.63,626.052c0,0.479-0.151,0.869-0.454,1.172s-0.693,0.454-1.172,0.454h-6.021c-0.479,0-0.868-0.151-1.172-0.454
		c-0.303-0.303-0.454-0.693-0.454-1.172V606.38c0-0.479,0.151-0.869,0.454-1.172c0.304-0.304,0.693-0.454,1.172-0.454h6.021
		c0.479,0,0.869,0.15,1.172,0.454c0.303,0.303,0.454,0.692,0.454,1.172v5.332h-2.051v-5.156h-5.187v19.32h5.187v-7.925h-2.446
		v-1.758h4.497V626.052z"/>
	<path d="M417.946,626.052c0,0.479-0.152,0.869-0.462,1.172c-0.307,0.303-0.699,0.454-1.179,0.454h-6.416
		c-0.479,0-0.869-0.151-1.172-0.454s-0.454-0.693-0.454-1.172V606.38c0-0.479,0.151-0.869,0.454-1.172
		c0.303-0.304,0.693-0.454,1.172-0.454h6.416c0.479,0,0.872,0.15,1.179,0.454c0.31,0.303,0.462,0.692,0.462,1.172V626.052z
		 M415.91,625.876v-19.32h-5.61v19.32H415.91z"/>
	<path d="M441.194,604.754l-3.12,22.982h-1.655l-2.49-17.285c-0.01-0.303-0.028-0.752-0.059-1.348c0,0.313-0.021,0.762-0.06,1.348
		l-2.489,17.285h-1.655l-3.12-22.982h2.021l1.947,16.538c0.011,0.37,0.029,0.918,0.06,1.641c-0.01-0.371,0.01-0.918,0.059-1.641
		l2.373-16.538h1.743l2.358,16.538c0.02,0.37,0.038,0.918,0.059,1.641c0-0.371,0.024-0.918,0.073-1.641l1.947-16.538H441.194z"/>
	<path d="M451.448,627.678h-7.529v-22.925h7.441v1.802h-5.405v8.555h4.922v1.831h-4.922v8.937h5.493V627.678L451.448,627.678z"/>
	<path d="M464.074,623.533c0,1.211-0.398,2.205-1.193,2.98c-0.797,0.776-1.8,1.165-3.011,1.165h-5.244v-22.925h5.244
		c1.221,0,2.227,0.389,3.018,1.163c0.791,0.777,1.188,1.771,1.188,2.981L464.074,623.533L464.074,623.533z M462.038,623.328v-14.253
		c0-0.752-0.237-1.358-0.71-1.822c-0.476-0.465-1.087-0.696-1.839-0.696h-2.827v19.321h2.71c0.791,0,1.433-0.228,1.927-0.683
		C461.791,624.742,462.038,624.119,462.038,623.328z"/>
	<path d="M477.213,627.678h-2.241l-5.288-11.017v11.017h-2.035v-22.925h2.035v10.298l4.806-10.298h2.212v0.132l-5.187,10.913
		L477.213,627.678z"/>
	<path d="M488.434,627.678h-2.021l-0.806-5.099h-4.557l-0.806,5.099h-1.963v-0.06l4.087-22.925h2.007L488.434,627.678z
		 M485.343,620.779l-2.007-12.422l-2.021,12.422H485.343z"/>
	<path d="M500.945,627.678h-2.14l-4.263-12.275l0.278-0.41h3.633v-8.438h-5.229v21.123h-2.036v-22.925h7.677
		c0.479,0,0.869,0.15,1.172,0.453c0.303,0.304,0.454,0.693,0.454,1.173v8.7c0,1.104-0.742,1.655-2.228,1.655
		c-0.146,0-0.36-0.008-0.645-0.021c-0.283-0.017-0.488-0.022-0.615-0.022C498.323,620.344,499.635,624.007,500.945,627.678z"/>
	<path d="M511.667,627.678h-8.789v-1.084l6.445-20.039h-5.815v-1.802h8.159v1.055l-6.445,20.067h6.445V627.678z"/>
	<path d="M523.561,627.678h-2.021l-0.806-5.099h-4.557l-0.806,5.099h-1.963v-0.06l4.087-22.925h2.007L523.561,627.678z
		 M520.47,620.779l-2.007-12.422l-2.021,12.422H520.47z"/>
</g>
<g>
	<g>
		<defs>
			<rect id="SVGID_1_" x="0" y="0" width="595.276" height="841.891"/>
		</defs>
		<clipPath id="SVGID_2_">
			<use xlink:href="#SVGID_1_"  overflow="visible"/>
		</clipPath>
		<path clip-path="url(#SVGID_2_)" d="M421.566,37.272c0.029-0.164,0.06-0.328,0.09-0.491c7.481,0.883,14.798,2.332,21.301,6.573
			C435.826,41.327,428.696,39.299,421.566,37.272 M445.22,44.994c6.116,2.282,11.403,16.399,9.3,25.555
			c-2.257-2.229-2.201-5.439-3.229-8.194c-1.063-2.851-2.031-5.736-3.034-8.61C447.249,50.859,446.251,47.97,445.22,44.994
			 M454.943,71.9c-1.031,8.049-3.356,15.546-5.447,23.1c-0.236,0.007-0.474,0.015-0.711,0.022c-0.17-0.625-0.52-1.26-0.48-1.872
			C448.516,89.652,453.695,72.682,454.943,71.9 M447.853,95.805c0.241,0.025,0.481,0.051,0.724,0.075
			c0,0.718,0.172,1.486-0.028,2.143c-1.243,4.064-2.56,8.107-3.886,12.146c-0.13,0.397-0.535,1.053-0.731,1.024
			c-1.982-0.283-1.816,1.496-2.307,2.469c-0.587,1.171-1.313,2.626-1.074,3.772c0.321,1.551-0.089,2.523-0.715,3.848
			c-0.702,1.486-1.725,2.344-3.018,3.047c-0.538,0.291-1.207,0.339-1.817,0.497c-0.179-0.159-0.357-0.316-0.537-0.477
			c2.717-0.491,3.11-2.055,2.679-4.182c-0.129-0.637,0.323-1.435,0.62-2.11c3.044-6.919,6.105-13.831,9.182-20.737
			C447.18,96.786,447.546,96.309,447.853,95.805 M442.81,120.45c0.567,0.499,0.979,0.861,1.538,1.351
			c-2.031,1.232-2.456,2.858-1.146,5.298C440.424,124.6,442.365,122.676,442.81,120.45 M226.693,448.228
			c-0.201,0.99,0.032,1.893,0.432,1.84c0.045-0.18,182.91-394.096,190.545-410.438c0.142-0.645,0.375-1.27,0.628-2.106
			c4.475,1.274,8.816,2.509,13.157,3.751c3.514,1.005,7.055,1.929,10.515,3.09c0.95,0.319,2.115,1.21,2.407,2.095
			c2.713,8.212,5.286,16.471,7.806,24.745c0.276,0.909,0.146,2.046-0.104,2.997c-1.701,6.479-3.138,13.055-5.333,19.366
			c-2.484,7.141-5.67,14.039-8.56,21.039c-0.771,1.866-1.571,3.719-2.412,5.707c-1.849-1.211-3.41-1.319-4.048,0.837
			c-0.756-0.511-1.271-1.031-1.88-1.192c-0.263-0.069-1.085,0.711-1.022,0.914c0.185,0.605,0.754,1.079,1.034,1.67
			c0.287,0.61,0.44,1.291,0.604,1.952c0.258,1.031,0.304,2.167,0.801,3.055c0.173,0.311,1.462,0.162,2.163-0.043
			c0.593-0.174,1.071-0.732,1.992-1.407c-0.272,1.071-0.243,1.845-0.614,2.264c-1.659,1.87-1.085,3.868-0.642,5.943
			c0.188,0.875,0.19,1.897-0.078,2.738c-0.803,2.512-1.782,4.965-2.692,7.442c-0.21,0.571-0.643,1.172-0.57,1.706
			c0.094,0.705,0.582,1.357,0.9,2.033c0.602-0.309,1.375-0.479,1.761-0.961c0.484-0.605,0.691-1.452,0.949-2.219
			c0.73-2.171,1.427-4.354,2.063-6.307c3.773,1.766,7.454,3.489,11.415,5.343c-1.468,5.292-2.97,10.945-4.622,16.556
			c-0.893,3.03-2.091,5.971-3.011,8.994c-0.114,0.374,0.543,1.323,1.008,1.466c1.145,0.35,2.384,0.385,4.032,0.605
			c-0.469,1.331-0.777,2.605-1.344,3.751c-2.665,5.396-5.656,10.643-8.005,16.167c-1.229,2.893-1.511,6.23-1.915,9.405
			c-0.107,0.846,0.71,2.057,1.448,2.709c1.158,1.021,1.305,2.383,0.678,3.265c-1.994,2.805-0.012,4.651,1.19,6.768
			c0.469,0.825,0.923,1.73,1.078,2.65c0.662,3.938,1.207,7.894,1.801,11.841c0.681,4.521-1.153,7.091-5.68,7.936
			c-1.131,0.211-2.282,0.34-3.396,0.619c-1.808,0.453-2.715,1.745-2.831,3.537c-0.122,1.88,1.235,2.695,2.738,3.018
			c4.211,0.904,8.403,1.284,12.502-0.712c1.577-0.768,2.962-1.584,5.219-0.616c1.591,0.685,4.208-0.786,6.241-1.603
			c0.337-0.135,0.319-1.973-0.021-2.828c-1.325-3.33-1.664-6.771-1.828-10.309c-0.21-4.518-1.103-9.031-0.977-13.527
			c0.091-3.239-0.66-6.147-1.332-9.188c-0.232-1.055-0.828-1.768-1.112-2.521c-0.543-1.436-0.186-3.379,0.287-4.967
			c0.258-0.868,1.511-1.44,2.448-2.264c1.732,2.396,3.322,4.74,5.083,6.948c0.557,0.698,1.547,1.071,2.377,1.522
			c0.458,0.249,1.244,0.199,1.456,0.546c0.899,1.479,2.413,2.31,3.498,3.497c2.355,2.58,4.228,5.602,6.665,8.949
			c-1.592,0-2.864,0.004-4.138,0c-1.633-0.005-2.746,0.662-3.024,2.369c-0.261,1.593-0.022,2.864,1.978,2.997
			c0.536,0.036,1.06,0.292,1.592,0.303c3.95,0.076,7.926-0.438,11.805,0.922c0.876,0.307,2.039,0.058,3-0.202
			c1.586-0.43,2.204-1.804,1.46-3.146c-3.249-5.855-6.373-11.792-9.885-17.489c-2.219-3.602-5.279-6.588-8.844-8.984
			c-0.448-0.301-0.81-0.827-1.047-1.327c-0.573-1.207-1.347-2.425-1.497-3.703c-0.222-1.891,0.059-3.838,0.066-5.761
			c0.013-3.145,2.275-4.988,4.075-7.085c0.245-0.284,0.854-0.289,1.305-0.359c1.954-0.304,3.775-0.682,3.913-3.252
			c0.032-0.613,0.579-1.203,0.901-1.795c1.675-3.07,2.212-6.254,1.804-9.795c-0.218-1.877,0.638-3.913,1.176-5.83
			c0.454-1.621,1.314-3.14,0.051-4.802c-0.219-0.286,0.033-1.01,0.193-1.49c0.599-1.788,1.248-3.558,1.824-5.184
			c1.118-0.107,2.305-0.221,3.416-0.327c-0.074,0.604-0.195,1.579-0.342,2.749c0.563-0.139,0.884-0.149,0.902-0.231
			c0.455-1.938,2.348-3.426,1.487-5.84c-0.352-0.984,0.19-2.366,0.54-3.501c0.497-1.611,1.329-3.124,1.765-4.747
			c0.563-2.094,0.053-2.703-2.053-2.97c-0.87-0.11-1.744-0.188-2.26-0.243c-1.271-1.895-2.383-3.553-3.549-5.291
			c0.896-0.621,0.959-2.618,2.942-2.155c0.105,0.025,0.388-0.355,0.461-0.588c1.314-4.123,0.254-7.606-3.126-10.335
			c-3.36-2.714-7.63-3.187-11.145-0.833c-1.833,1.228-3.61,1.591-5.706,1.429c-1.016-0.078-2.063,0.244-3.095,0.387
			c-0.153,0.277-0.308,0.556-0.46,0.834c1.273,1.038,2.549,2.076,3.342,2.722c-0.101,1.809-0.085,3.178-0.27,4.521
			c-0.522,3.819-0.556,3.814,2.82,5.72c-1.067,0.216-1.853,0.268-2.551,0.541c-1.096,0.428-2.113,1.052-3.202,1.504
			c-1.139,0.474-2.32,0.844-3.626,1.311c-1.028-1.704-1.948-3.339-2.979-4.899c-0.624-0.944-1.507-1.72-2.112-2.673
			c-0.438-0.689-0.83-1.538-0.86-2.33c-0.075-1.946-0.402-3.665-1.746-5.247c-0.544-0.643-0.626-2.047-0.364-2.942
			c2.616-8.96,5.51-17.842,7.994-26.837c1.888-6.832,2.576-13.839,1.531-20.939c-1.648-11.22-7.947-18.574-18.549-22.29
			c-5.722-2.007-11.648-3.047-17.723-3.178c-1.934-0.042-3.147,0.45-3.626,2.757C400.173,73.074,228.318,441.078,226.693,448.228"/>
	</g>
	<g>
		<defs>
			<rect id="SVGID_3_" x="0" y="0" width="595.276" height="841.891"/>
		</defs>
		<clipPath id="SVGID_4_">
			<use xlink:href="#SVGID_3_"  overflow="visible"/>
		</clipPath>
		<path clip-path="url(#SVGID_4_)" d="M212.275,440.427c0,0-6.896-1.801-9.982,0.183c-3.09,1.987-6.792,6.853-4.471,10.025
			l2.324,3.176c0,0-6.503-1.8-6.767-1.258c-0.266,0.54-0.436,3.431-0.754,3.369c-0.319-0.062-1.143-1.68-1.52-1.066
			c-0.375,0.612,0.021,1.137-0.671,1.053c-0.69-0.083-2.434-1.594-2.574-0.228c-0.14,1.363,0.358,1.341-0.335,1.775
			c-0.696,0.434-1.635,1.151-1.537,1.763c0.097,0.604-0.422,0.481-0.584,1.584c-0.161,1.102-0.11,1.584-0.11,1.584
			s-2.439,0.55-4.755,2.211c-2.319,1.658-3.881,6.056-4.806,13.425c-0.924,7.37-3.887,26.521-2.129,28.693
			c1.757,2.173,8.511,3.121,11.019,3.193c2.51,0.074,4.404-0.463,4.647-1.5c0.244-1.04,0.883-1.555,1.31-1.805
			c0.423-0.25,0.193,0.461-0.233,2.337c-0.424,1.876-0.14,3.982,0.394,6.396c0.533,2.414,1.877,5.659,2.018,6.912
			c0.141,1.254-1.257,22.272-3.068,23.509c-1.813,1.234-7.921,1.878-10.989,3.351c-3.067,1.477-7.756,3.93-10.424,5.993
			c-2.668,2.068-3.081,1.729-5.247,1.725c-2.163-0.006-2.402-1.262-3.704-1.361c-1.307-0.101-2.565-1.4-4.723,0.315
			c-2.165,1.721-6.479,5.714-13.531,8.235c-7.048,2.519-19.302-1.783-22.225-2.445c-2.924-0.663-7.249-1.667-8.568-0.523
			c-1.317,1.148-4.557,4.097-3.91,6.129c0.643,2.028,0.402,3.487,1.193,4.556c0.787,1.069,13.828,6.073,19.069,5.154
			c5.238-0.916,7.353-1.805,12.696-3.84c5.342-2.033,11.986-3.97,13.836-4.246c1.853-0.271,2.423,0.388,4.27-0.438
			c1.845-0.826,4.424-1.845,5.273-1.867c0.849-0.02,1.273,2.776,1.997,3.023c0.725,0.248,2.274-3.277,4.958-5.046
			c2.684-1.771,4.149-0.979,6.163-1.918c2.014-0.939,2.844-1.26,2.844-1.26s-2.255,4.934-3.478,7.125
			c-1.223,2.19-2.027,3.729-2.317,4.297c-0.291,0.566-1.95,0.218-4.173,1.485c-2.225,1.27-4.841,4.039-2.93,6.938
			c1.91,2.896,19.105,30.565,21.512,33.186c2.4,2.62,5.62,5.802,6.055,4.27c0.438-1.536,1-3.337-0.825-5.922
			c-1.822-2.583-11.403-13.834-12.336-16.287c-0.928-2.452-4.557-14.118-1.132-19.414c3.428-5.302,9.933-16.404,12.559-18.441
			c2.623-2.037,5.515-1.599,7.661-3.617c2.145-2.016,7.377-14.72,9.837-23.065c2.462-8.344,2.281-9.333,4.602-12.271
			c2.317-2.938,7.838-12.32,7.919-12.747c0.081-0.425,0.978,1.436,3.049,4.836c2.074,3.404,5.14,8.538,5.483,9.044
			c0.347,0.508-0.104,2.108,0.719,3.771c0.826,1.661,3.752,4.236,4.671,5.584s2.572,3.681,4.037,3.114
			c1.465-0.568,2.771-2.999,1.77-4.106c-1.002-1.106-1.888-1.862-2.863-3.115c-0.976-1.247-3.687-6.131-4.732-6.218
			c-1.047-0.088-2.067,0.05-2.067,0.05s-5.634-8.63-7.359-11.345c-1.727-2.711-1.264-3.028-0.849-2.509
			c0.416,0.52,2.393,2.691,2.879,2.051c0.489-0.642,0.414-3.924-0.018-4.74c-0.435-0.815-1.484-1.089-1.655-1.156
			c-0.17-0.068,0.909-1.113,2.064-1.592s4.537,2.4,6.056,1.365c1.518-1.035,2.667-2.248,3.58-2.81
			c0.914-0.563,1.926,0.106,2.902-1.179c0.979-1.28,2.901-3.891,1.562-6.312c-1.34-2.42-7.047-9.705-8.075-11.845
			c-1.023-2.143-1.896-4.688-2.802-7.193c-0.905-2.506-2.63-5.219-1.899-5.594c0.733-0.374,2.469,2.896,3.587,4.444
			c1.117,1.551,2.488,2.838,0.543-0.651c-1.946-3.491-7.178-11.345-7.293-11.515c-0.114-0.169,0.051,0.891-0.671,0.828
			c-0.721-0.064-2.997-3.945-3.582-4.351c-0.584-0.402-0.403-0.776,0.146-1.146c0.547-0.375,0.617-0.361,1.624-0.429
			c1.002-0.066,2.541-0.436,2.902-0.992c0.362-0.557,2.006-0.316,2.138-1.212c0.133-0.892-0.149-3.662-1.008-4.376
			c-0.854-0.711-1.645-0.419-1.825-0.051c-0.179,0.369-0.873,0.163-1.65,0.385c-0.776,0.221-2.29-1.095-2.449-1.419
			c-0.159-0.323,0.826-0.871,0.2-1.246c-0.627-0.376-2.063-1.126-2.489-1.39c-0.428-0.264,0.095-0.313,0.019-0.877
			c-0.077-0.566-2.224-4.166-2.637-4.502c-0.414-0.334-0.665,0.02-1.632,1.049C213.03,440.51,213.191,440.633,212.275,440.427"/>
	</g>
	<g>
		<defs>
			<rect id="SVGID_5_" x="0" y="0" width="595.276" height="841.891"/>
		</defs>
		<clipPath id="SVGID_6_">
			<use xlink:href="#SVGID_5_"  overflow="visible"/>
		</clipPath>
		<path clip-path="url(#SVGID_6_)" fill="#FDC400" d="M211.473,440.268c0,0-6.159-1.643-9.245,0.341
			c-3.089,1.987-6.792,6.853-4.469,10.025l2.324,3.176c0,0-6.504-1.8-6.769-1.258c-0.265,0.54-0.435,3.431-0.754,3.369
			c-0.317-0.062-1.142-1.68-1.519-1.066c-0.375,0.612,0.021,1.137-0.67,1.052c-0.691-0.083-2.436-1.593-2.574-0.227
			c-0.141,1.363,0.356,1.341-0.336,1.775c-0.697,0.434-1.635,1.151-1.537,1.763c0.096,0.603-0.422,0.481-0.584,1.584
			c-0.161,1.101-0.111,1.584-0.111,1.584s-2.438,0.55-4.755,2.211c-2.317,1.658-3.88,6.056-4.804,13.425
			c-0.924,7.37-3.887,26.521-2.129,28.693c1.756,2.173,8.51,3.121,11.017,3.193c2.51,0.074,4.405-0.464,4.649-1.5
			c0.244-1.039,0.883-1.555,1.308-1.805c0.423-0.25,0.194,0.461-0.231,2.337s-0.142,3.982,0.393,6.396
			c0.533,2.414,1.877,5.66,2.017,6.912c0.142,1.254-1.257,22.272-3.067,23.509c-1.814,1.234-7.92,1.878-10.989,3.351
			c-3.068,1.477-7.755,3.932-10.423,5.993c-2.668,2.068-3.082,1.731-5.248,1.725c-2.163-0.006-2.403-1.262-3.704-1.361
			c-1.306-0.102-2.565-1.4-4.722,0.314c-2.166,1.722-6.481,5.715-13.531,8.236c-7.049,2.518-19.303-1.783-22.225-2.445
			c-2.926-0.664-7.25-1.667-8.568-0.523c-1.319,1.148-4.557,4.097-3.911,6.129c0.643,2.03,0.403,3.489,1.194,4.556
			c0.787,1.069,13.828,6.073,19.067,5.154c5.239-0.916,7.354-1.803,12.697-3.84c5.341-2.033,11.987-3.97,13.835-4.246
			c1.854-0.271,2.423,0.388,4.271-0.438c1.844-0.826,4.424-1.845,5.271-1.867c0.85-0.02,1.275,2.776,1.998,3.023
			c0.725,0.248,2.275-3.278,4.958-5.046c2.685-1.77,4.149-0.979,6.163-1.918c2.013-0.94,2.843-1.26,2.843-1.26
			s-2.255,4.934-3.476,7.126c-1.224,2.189-2.029,3.728-2.319,4.296c-0.291,0.565-1.95,0.218-4.172,1.486
			c-2.224,1.269-4.841,4.037-2.929,6.937c1.91,2.895,19.104,30.566,21.51,33.185c2.402,2.621,5.621,5.803,6.055,4.271
			c0.439-1.536,1-3.337-0.824-5.922c-1.822-2.583-11.402-13.834-12.337-16.287c-0.928-2.452-4.556-14.118-1.132-19.414
			c3.43-5.302,9.934-16.404,12.561-18.441c2.623-2.038,5.514-1.599,7.66-3.616c2.145-2.017,7.377-14.721,9.838-23.066
			c2.461-8.344,2.279-9.333,4.601-12.272c2.317-2.938,7.837-12.319,7.918-12.746c0.082-0.425,0.979,1.436,3.049,4.837
			c2.075,3.403,5.142,8.536,5.485,9.044c0.345,0.507-0.105,2.107,0.717,3.77c0.826,1.661,3.752,4.236,4.671,5.584
			c0.919,1.347,2.573,3.68,4.037,3.114c1.465-0.568,2.772-2.999,1.771-4.106c-1.002-1.106-1.889-1.86-2.863-3.114
			c-0.976-1.247-3.688-6.133-4.733-6.219c-1.047-0.088-2.065,0.049-2.065,0.049s-5.635-8.63-7.36-11.344
			c-1.726-2.711-1.263-3.026-0.849-2.509c0.416,0.519,2.392,2.693,2.879,2.051c0.49-0.642,0.414-3.924-0.019-4.741
			c-0.433-0.814-1.483-1.088-1.653-1.155c-0.17-0.068,0.908-1.113,2.063-1.592c1.156-0.479,4.538,2.4,6.057,1.365
			c1.518-1.036,2.668-2.248,3.579-2.81c0.914-0.563,1.927,0.105,2.902-1.177c0.979-1.282,2.903-3.893,1.563-6.313
			c-1.342-2.42-7.049-9.705-8.076-11.845c-1.024-2.144-1.896-4.688-2.801-7.193c-0.906-2.506-2.632-5.219-1.9-5.594
			c0.734-0.374,2.468,2.896,3.587,4.446c1.118,1.549,2.489,2.836,0.543-0.653c-1.947-3.491-7.177-11.345-7.293-11.514
			c-0.115-0.168,0.05,0.89-0.671,0.827c-0.721-0.064-2.92-4.092-3.582-4.351c-11.611-4.536-8.699-15.26-9.498-15.44"/>
	</g>
</g>
<polygon points="374.51,542.397 372.313,539.044 369.559,539.044 369.559,539.101 373.163,542.486 374.51,542.486 "/>
<g>
	<g>
		<defs>
			<rect id="SVGID_7_" x="0" y="0" width="595.276" height="841.891"/>
		</defs>
		<clipPath id="SVGID_8_">
			<use xlink:href="#SVGID_7_"  overflow="visible"/>
		</clipPath>
		<path clip-path="url(#SVGID_8_)" d="M441.662,570.487c0-0.508-0.205-0.901-0.615-1.187c-0.45-0.226-0.894-0.449-1.333-0.673
			v-1.013h-1.566v0.981c0,0.498,0.215,0.889,0.645,1.172c0.43,0.225,0.864,0.445,1.304,0.659v1.567h-2.24v-1.51h-1.538v1.655
			c0,0.781,0.391,1.172,1.172,1.172h3.003c0.781,0,1.172-0.391,1.172-1.172v-1.653H441.662z"/>
	</g>
	<g>
		<defs>
			<rect id="SVGID_9_" x="0" y="0" width="595.276" height="841.891"/>
		</defs>
		<clipPath id="SVGID_10_">
			<use xlink:href="#SVGID_9_"  overflow="visible"/>
		</clipPath>
		<path clip-path="url(#SVGID_10_)" d="M454.086,600.478c0-0.509-0.205-0.903-0.614-1.188c-0.45-0.224-0.895-0.448-1.333-0.673
			v-1.011h-1.567v0.98c0,0.498,0.215,0.89,0.645,1.172c0.431,0.226,0.864,0.443,1.305,0.659v1.567h-2.241v-1.509h-1.538v1.654
			c0,0.78,0.391,1.172,1.172,1.172h3.003c0.781,0,1.172-0.392,1.172-1.172v-1.652H454.086z"/>
	</g>
	<g>
		<defs>
			<rect id="SVGID_11_" x="0" y="0" width="595.276" height="841.891"/>
		</defs>
		<clipPath id="SVGID_12_">
			<use xlink:href="#SVGID_11_"  overflow="visible"/>
		</clipPath>
		<path clip-path="url(#SVGID_12_)" d="M452.518,630.572c0-0.508-0.204-0.901-0.614-1.187c-0.449-0.225-0.895-0.449-1.333-0.673
			V627.7h-1.567v0.981c0,0.498,0.215,0.889,0.646,1.172c0.431,0.226,0.863,0.444,1.305,0.659v1.567h-2.242v-1.51h-1.538v1.655
			c0,0.781,0.392,1.172,1.172,1.172h3.003c0.781,0,1.172-0.391,1.172-1.172v-1.653H452.518z"/>
	</g>
	<g>
		<defs>
			<rect id="SVGID_13_" x="0" y="0" width="595.276" height="841.891"/>
		</defs>
		<clipPath id="SVGID_14_">
			<use xlink:href="#SVGID_13_"  overflow="visible"/>
		</clipPath>
		<path clip-path="url(#SVGID_14_)" d="M505.583,570.62c0-0.508-0.205-0.902-0.614-1.188c-0.45-0.225-0.895-0.448-1.333-0.673
			v-1.011h-1.567v0.979c0,0.498,0.215,0.89,0.645,1.173c0.431,0.225,0.864,0.443,1.305,0.658v1.568h-2.241v-1.51h-1.538v1.655
			c0,0.78,0.391,1.172,1.172,1.172h3.003c0.781,0,1.172-0.392,1.172-1.172v-1.653H505.583z"/>
	</g>
</g>
<rect x="431.638" y="457.263" fill="#FDC400" width="14.688" height="14.687"/>
<g>
	<path d="M459.119,472.565h-1.494l-3.525-7.344v7.344h-1.356v-15.283h1.356v6.865l3.203-6.865h1.476v0.088l-3.457,7.275
		L459.119,472.565z"/>
	<path d="M466.892,471.481c0,0.319-0.103,0.579-0.308,0.781s-0.467,0.303-0.786,0.303h-4.277c-0.318,0-0.578-0.101-0.78-0.303
		s-0.304-0.462-0.304-0.781v-13.115c0-0.318,0.102-0.579,0.304-0.78c0.202-0.202,0.462-0.304,0.78-0.304h4.277
		c0.319,0,0.581,0.102,0.786,0.304c0.205,0.201,0.308,0.462,0.308,0.78V471.481z M465.535,471.364v-12.881h-3.74v12.881H465.535z"/>
	<path d="M474.216,472.565h-4.883v-15.283h1.357v14.082h3.524L474.216,472.565L474.216,472.565z"/>
	<path d="M482.528,471.481c0,0.319-0.104,0.579-0.309,0.781s-0.467,0.303-0.786,0.303h-4.276c-0.319,0-0.579-0.101-0.781-0.303
		s-0.303-0.462-0.303-0.781v-13.115c0-0.318,0.101-0.579,0.303-0.78c0.202-0.202,0.462-0.304,0.781-0.304h4.276
		c0.319,0,0.581,0.102,0.786,0.304c0.205,0.201,0.309,0.462,0.309,0.78V471.481z M481.169,471.364v-12.881h-3.74v12.881H481.169z"/>
	<path d="M491.472,472.565h-1.426l-2.842-8.184l0.186-0.273h2.422v-5.625h-3.485v14.082h-1.357v-15.283h5.117
		c0.319,0,0.579,0.102,0.781,0.304c0.202,0.201,0.303,0.462,0.303,0.78v5.802c0,0.734-0.495,1.104-1.484,1.104
		c-0.098,0-0.24-0.005-0.43-0.015c-0.188-0.011-0.325-0.016-0.41-0.016C489.724,467.676,490.6,470.117,491.472,472.565z"/>
</g>
<g>
	<path d="M458.699,491.481c0,0.319-0.101,0.579-0.298,0.781c-0.198,0.202-0.457,0.303-0.776,0.303h-3.848
		c-0.319,0-0.581-0.101-0.786-0.303s-0.309-0.462-0.309-0.781v-3.877h1.357v3.76h3.301v-3.643l-4.219-5.099
		c-0.293-0.352-0.439-0.738-0.439-1.161v-3.097c0-0.318,0.104-0.579,0.309-0.78c0.205-0.202,0.467-0.304,0.786-0.304h3.848
		c0.319,0,0.578,0.102,0.776,0.304c0.197,0.201,0.298,0.462,0.298,0.78v3.556h-1.357v-3.438h-3.301v3.223l4.238,5.099
		c0.279,0.339,0.42,0.72,0.42,1.143V491.481L458.699,491.481z"/>
	<path d="M466.365,478.483h-2.363v14.082h-1.357v-14.082h-2.383v-1.201h6.104L466.365,478.483L466.365,478.483z"/>
	<path d="M474.119,492.565h-1.348l-0.537-3.398h-3.037l-0.537,3.398h-1.31v-0.039l2.726-15.283h1.338L474.119,492.565z
		 M472.058,487.966l-1.338-8.281l-1.348,8.281H472.058z"/>
	<path d="M482.458,492.565h-1.426l-2.842-8.184l0.186-0.273h2.422v-5.625h-3.485v14.082h-1.357v-15.283h5.117
		c0.318,0,0.579,0.102,0.781,0.304c0.201,0.201,0.303,0.462,0.303,0.78v5.802c0,0.734-0.495,1.104-1.484,1.104
		c-0.098,0-0.241-0.005-0.43-0.015c-0.189-0.011-0.325-0.016-0.41-0.016C480.71,487.676,481.586,490.117,482.458,492.565z"/>
	<path d="M489.509,492.565h-5.02v-15.283h4.961v1.201h-3.604v5.703h3.281v1.221h-3.281v5.957h3.662L489.509,492.565L489.509,492.565
		z"/>
	<path d="M497.81,491.481c0,0.319-0.101,0.579-0.303,0.781s-0.462,0.303-0.781,0.303h-4.014c-0.319,0-0.579-0.101-0.781-0.303
		s-0.303-0.462-0.303-0.781v-13.115c0-0.318,0.101-0.579,0.303-0.78c0.202-0.202,0.462-0.304,0.781-0.304h4.014
		c0.319,0,0.579,0.102,0.781,0.304c0.202,0.201,0.303,0.462,0.303,0.78v3.556h-1.366v-3.438h-3.457v12.881h3.457v-5.283h-1.632
		v-1.172h2.998V491.481L497.81,491.481z"/>
	<path d="M506.688,491.481c0,0.319-0.104,0.579-0.309,0.781s-0.467,0.303-0.786,0.303h-4.276c-0.319,0-0.579-0.101-0.781-0.303
		s-0.303-0.462-0.303-0.781v-13.115c0-0.318,0.101-0.579,0.303-0.78c0.202-0.202,0.462-0.304,0.781-0.304h4.276
		c0.319,0,0.581,0.102,0.786,0.304c0.205,0.201,0.309,0.462,0.309,0.78V491.481z M505.33,491.364v-12.881h-3.74v12.881H505.33z"/>
</g>
<g>
	<path d="M457.86,512.565H452v-0.723l4.297-13.359h-3.877v-1.201h5.439v0.703l-4.298,13.379h4.298V512.565L457.86,512.565z"/>
	<path d="M463.21,505.368l-4.443,3.281v-1.387l4.443-3.271V505.368z M464.509,512.565h-4.883v-15.283h1.357v14.082h3.524
		L464.509,512.565L464.509,512.565z"/>
	<path d="M472.821,511.481c0,0.319-0.104,0.579-0.309,0.781s-0.467,0.303-0.786,0.303h-4.276c-0.319,0-0.579-0.101-0.781-0.303
		s-0.303-0.462-0.303-0.781v-13.115c0-0.318,0.101-0.579,0.303-0.781c0.202-0.201,0.462-0.303,0.781-0.303h4.276
		c0.319,0,0.581,0.102,0.786,0.303c0.205,0.202,0.309,0.463,0.309,0.781V511.481z M471.462,511.364v-12.881h-3.74v12.881H471.462z"
		/>
	<path d="M480.526,498.483h-2.363v14.082h-1.357v-14.082h-2.383v-1.201h6.104L480.526,498.483L480.526,498.483z"/>
	<path d="M488.28,512.565h-1.349l-0.537-3.398h-3.036l-0.537,3.398h-1.31v-0.039l2.726-15.283h1.338L488.28,512.565z
		 M486.218,507.966l-1.338-8.281l-1.348,8.281H486.218z"/>
</g>
<g>
	<path d="M306.803,674.292c0,0.318-0.103,0.58-0.308,0.785s-0.468,0.309-0.786,0.309h-3.604v6.063h-1.356v-15.282h4.961
		c0.318,0,0.581,0.101,0.786,0.303s0.308,0.462,0.308,0.781V674.292z M305.446,674.174v-6.808h-3.34v6.808H305.446z"/>
	<path d="M315.115,681.449h-1.349l-0.537-3.397h-3.037l-0.536,3.397h-1.31v-0.039l2.726-15.282h1.338L315.115,681.449z
		 M313.053,676.849l-1.338-8.281l-1.348,8.281H313.053z"/>
	<path d="M326.09,666.167l-2.08,15.321h-1.104l-1.66-11.522c-0.007-0.202-0.021-0.501-0.039-0.898c0,0.208-0.014,0.508-0.039,0.898
		l-1.66,11.522h-1.104l-2.079-15.321h1.348l1.299,11.024c0.007,0.247,0.021,0.612,0.039,1.094c-0.007-0.247,0.007-0.611,0.039-1.094
		l1.582-11.024h1.162l1.572,11.024c0.013,0.247,0.025,0.612,0.038,1.094c0-0.247,0.018-0.611,0.05-1.094l1.299-11.024H326.09z"/>
	<path d="M332.926,681.449h-5.02v-15.283h4.961v1.201h-3.604v5.703h3.281v1.221h-3.281v5.957h3.662L332.926,681.449L332.926,681.449
		z"/>
	<path d="M338.629,674.251l-4.443,3.281v-1.387l4.443-3.271V674.251z M339.928,681.449h-4.883v-15.283h1.356v14.082h3.525
		L339.928,681.449L339.928,681.449z"/>
	<path d="M351.754,674.292c0,0.318-0.104,0.58-0.309,0.785c-0.204,0.205-0.467,0.309-0.785,0.309h-3.604v6.063H345.7v-15.282h4.961
		c0.318,0,0.581,0.101,0.786,0.303c0.204,0.202,0.308,0.462,0.308,0.781L351.754,674.292L351.754,674.292z M350.397,674.174v-6.808
		h-3.34v6.808H350.397z"/>
	<path d="M355.084,681.449H353.6v-1.719h1.484V681.449z"/>
	<path d="M362.575,681.449h-1.357v-15.283h1.357V681.449z"/>
	<path d="M375.338,681.449H374.4l-4.082-11.239v11.239h-1.278v-15.283h1.016l4.004,11.046v-11.046h1.279V681.449z"/>
	<path d="M384.235,680.365c0,0.319-0.103,0.579-0.308,0.781s-0.467,0.303-0.786,0.303h-4.277c-0.318,0-0.578-0.101-0.78-0.303
		s-0.304-0.462-0.304-0.781v-13.114c0-0.319,0.102-0.579,0.304-0.781s0.462-0.303,0.78-0.303h4.277c0.319,0,0.581,0.101,0.786,0.303
		s0.308,0.462,0.308,0.781V680.365z M382.877,680.248v-12.881h-3.74v12.881H382.877z"/>
	<path d="M392.799,680.365c0,0.319-0.104,0.579-0.313,0.781s-0.472,0.303-0.791,0.303h-3.936c-0.319,0-0.579-0.101-0.781-0.303
		s-0.303-0.462-0.303-0.781v-13.114c0-0.319,0.101-0.579,0.303-0.781s0.462-0.303,0.781-0.303h3.936
		c0.319,0,0.583,0.101,0.791,0.303s0.313,0.462,0.313,0.781v3.555h-1.367v-3.438h-3.397v12.881h3.397v-3.76h1.367V680.365z"/>
	<path d="M400.436,667.367h-2.362v14.082h-1.357v-14.082h-2.383v-1.2h6.104L400.436,667.367L400.436,667.367z"/>
	<path d="M408.366,680.365c0,0.319-0.104,0.579-0.309,0.781s-0.467,0.303-0.786,0.303h-4.16c-0.318,0-0.578-0.101-0.78-0.303
		s-0.304-0.462-0.304-0.781v-14.198h1.357v14.081h3.623v-14.081h1.356v14.198H408.366z"/>
	<path d="M417.311,681.449h-1.426l-2.842-8.184l0.186-0.273h2.422v-5.625h-3.485v14.082h-1.357v-15.283h5.117
		c0.319,0,0.579,0.102,0.781,0.304c0.202,0.201,0.303,0.462,0.303,0.78v5.802c0,0.734-0.495,1.104-1.484,1.104
		c-0.098,0-0.24-0.005-0.43-0.015c-0.188-0.011-0.325-0.016-0.41-0.016C415.563,676.559,416.439,679.001,417.311,681.449z"/>
	<path d="M425.641,681.449h-0.938l-4.082-11.239v11.239h-1.279v-15.283h1.016l4.005,11.046v-11.046h1.278V681.449z"/>
	<path d="M434.245,681.449h-1.348l-0.537-3.397h-3.037l-0.537,3.397h-1.31v-0.039l2.726-15.282h1.338L434.245,681.449z
		 M432.184,676.849l-1.338-8.281l-1.348,8.281H432.184z"/>
	<path d="M440.963,681.449h-4.883v-15.283h1.357v14.082h3.524L440.963,681.449L440.963,681.449z"/>
	<path d="M444.254,681.449h-1.356v-15.283h1.356V681.449z"/>
	<path d="M452.965,681.449h-1.348l-0.537-3.397h-3.037l-0.537,3.397h-1.309v-0.039l2.725-15.282h1.338L452.965,681.449z
		 M450.906,676.849l-1.338-8.281l-1.349,8.281H450.906z"/>
	<path d="M462.116,683.412h-1.183c-1.613-2.624-2.422-5.498-2.422-8.623s0.809-5.999,2.422-8.622h1.183v0.106
		c-0.794,1.438-1.364,2.806-1.709,4.103c-0.353,1.327-0.527,2.8-0.527,4.413c0,1.614,0.176,3.087,0.527,4.414
		c0.345,1.296,0.915,2.663,1.709,4.103V683.412z"/>
	<path d="M470.036,674.292c0,0.318-0.104,0.58-0.309,0.785c-0.204,0.205-0.467,0.309-0.785,0.309h-3.604v6.063h-1.356v-15.282h4.961
		c0.318,0,0.581,0.101,0.785,0.303c0.205,0.202,0.309,0.462,0.309,0.781V674.292z M468.678,674.174v-6.808h-3.34v6.808H468.678z"/>
	<path d="M478.346,681.449h-1.348l-0.537-3.397h-3.037l-0.537,3.397h-1.309v-0.039l2.725-15.282h1.338L478.346,681.449z
		 M476.286,676.849l-1.338-8.281l-1.349,8.281H476.286z"/>
	<path d="M486.686,681.449h-1.426l-2.842-8.184l0.186-0.273h2.423v-5.625h-3.486v14.082h-1.357v-15.283h5.117
		c0.319,0,0.579,0.102,0.781,0.304c0.202,0.201,0.303,0.462,0.303,0.78v5.802c0,0.734-0.495,1.104-1.483,1.104
		c-0.099,0-0.241-0.005-0.431-0.015c-0.188-0.011-0.325-0.016-0.41-0.016C484.938,676.559,485.815,679.001,486.686,681.449z"/>
	<path d="M493.982,667.367h-2.363v14.082h-1.357v-14.082h-2.383v-1.2h6.104L493.982,667.367L493.982,667.367z"/>
	<path d="M501.012,681.449h-1.367v-10.596h-0.596v-0.049l0.859-4.64h1.104V681.449z"/>
	<path d="M506.57,674.789c0,3.125-0.809,5.999-2.422,8.623h-1.152v-0.106c0.794-1.438,1.36-2.807,1.699-4.103
		c0.357-1.327,0.537-2.8,0.537-4.414c0-1.613-0.18-3.086-0.537-4.413c-0.339-1.297-0.905-2.663-1.699-4.103v-0.106h1.152
		C505.761,668.79,506.57,671.664,506.57,674.789z"/>
</g>
</svg>
