<?xml version="1.0" encoding="utf-8"?>
<!-- Generator: Adobe Illustrator 14.0.0, SVG Export Plug-In . SVG Version: 6.00 Build 43363)  -->
<!DOCTYPE svg PUBLIC "-//W3C//DTD SVG 1.1//EN" "http://www.w3.org/Graphics/SVG/1.1/DTD/svg11.dtd">
<svg version="1.1" id="Warstwa_1" xmlns="http://www.w3.org/2000/svg" xmlns:xlink="http://www.w3.org/1999/xlink" x="0px" y="0px"
	 width="595.276px" height="841.891px" viewBox="0 0 595.276 841.891" enable-background="new 0 0 595.276 841.891"
	 xml:space="preserve">
<polygon points="36,604.305 168.538,592.607 295.765,602.734 423.01,600.552 549.74,598.484 546.324,471.767 554.34,344.537 
	559.278,217.293 544.002,96.301 423.028,98.886 295.799,84.232 168.553,81.354 46.406,95.148 40.696,217.28 43.044,344.509 
	44.891,471.827 "/>
<polygon fill="#CFD1D2" points="50.173,589.565 182.711,577.866 309.938,587.993 437.183,585.811 563.913,583.743 560.498,457.027 
	568.513,329.799 573.45,202.553 558.175,81.561 437.2,84.146 309.972,69.492 182.726,66.614 60.579,80.408 54.869,202.54 
	57.217,329.768 59.064,457.088 "/>
<g>
	<path fill="#CFD1D2" d="M95.819,680.826c0,0.479-0.154,0.869-0.469,1.172c-0.313,0.305-0.708,0.454-1.187,0.454H88.26
		c-0.479,0-0.869-0.149-1.172-0.454c-0.303-0.303-0.454-0.691-0.454-1.172v-19.673c0-0.479,0.151-0.869,0.454-1.172
		s0.693-0.454,1.172-0.454h5.903c0.479,0,0.874,0.151,1.187,0.454c0.313,0.303,0.469,0.693,0.469,1.172v5.332h-2.051v-5.156H88.67
		v19.321h5.098v-5.64h2.051V680.826z"/>
	<path fill="#CFD1D2" d="M113.089,659.528l-3.12,22.983h-1.655l-2.488-17.285c-0.012-0.303-0.029-0.752-0.061-1.348
		c0,0.313-0.02,0.762-0.059,1.348l-2.49,17.285h-1.655l-3.12-22.983h2.021l1.948,16.538c0.01,0.371,0.027,0.918,0.059,1.643
		c-0.01-0.371,0.01-0.919,0.059-1.643l2.373-16.538h1.743l2.358,16.538c0.02,0.371,0.039,0.918,0.059,1.643
		c0-0.371,0.024-0.919,0.073-1.643l1.948-16.538H113.089z"/>
	<path fill="#CFD1D2" d="M117.967,682.452h-2.036v-22.925h2.036V682.452z"/>
	<path fill="#CFD1D2" d="M130.975,680.826c0,0.479-0.156,0.869-0.469,1.172c-0.313,0.305-0.708,0.454-1.188,0.454h-5.901
		c-0.479,0-0.869-0.149-1.172-0.454c-0.305-0.303-0.454-0.691-0.454-1.172v-19.673c0-0.479,0.149-0.869,0.454-1.172
		c0.303-0.303,0.691-0.454,1.172-0.454h5.901c0.479,0,0.874,0.151,1.188,0.454c0.313,0.303,0.469,0.693,0.469,1.172v5.332h-2.051
		v-5.156h-5.098v19.321h5.098v-5.64h2.051V680.826z"/>
	<path fill="#CFD1D2" d="M142.21,682.452h-8.789v-1.084l6.445-20.039h-5.815v-1.802h8.159v1.055l-6.445,20.068h6.445V682.452z"/>
	<path fill="#CFD1D2" d="M154.076,659.659l-2.783,9.272c-0.354,0.928-0.815,2.476-1.394,4.644v8.877h-2.034v-8.877
		c-0.139-0.742-0.349-1.521-0.632-2.344c-0.469-1.406-0.723-2.173-0.762-2.3l-2.783-9.272c0-0.01,0-0.054,0-0.132h2.065l3.147,11.47
		l3.12-11.47h2.053C154.076,659.596,154.076,659.64,154.076,659.659z"/>
	<path fill="#CFD1D2" d="M165.75,680.826c0,0.479-0.156,0.869-0.469,1.172c-0.313,0.305-0.708,0.454-1.188,0.454h-5.903
		c-0.479,0-0.869-0.149-1.172-0.454c-0.303-0.303-0.454-0.691-0.454-1.172v-19.673c0-0.479,0.151-0.869,0.454-1.172
		s0.693-0.454,1.172-0.454h5.903c0.479,0,0.874,0.151,1.188,0.454c0.313,0.303,0.469,0.693,0.469,1.172v5.332h-2.05v-5.156h-5.1
		v19.321h5.1v-5.64h2.051L165.75,680.826L165.75,680.826z"/>
	<path fill="#CFD1D2" d="M188.895,659.528l-3.12,22.983h-1.653l-2.49-17.285c-0.01-0.303-0.029-0.752-0.061-1.348
		c0,0.313-0.02,0.762-0.059,1.348l-2.49,17.285h-1.653l-3.12-22.983h2.021l1.948,16.538c0.01,0.371,0.029,0.918,0.059,1.643
		c-0.01-0.371,0.012-0.919,0.061-1.643l2.373-16.538h1.743l2.356,16.538c0.021,0.371,0.039,0.918,0.061,1.643
		c0-0.371,0.022-0.919,0.071-1.643l1.948-16.538H188.895z"/>
	<path fill="#CFD1D2" d="M200.804,680.826c0,0.479-0.156,0.869-0.469,1.172c-0.313,0.305-0.708,0.454-1.188,0.454h-5.901
		c-0.479,0-0.869-0.149-1.172-0.454c-0.305-0.303-0.454-0.691-0.454-1.172v-19.673c0-0.479,0.149-0.869,0.454-1.172
		c0.303-0.303,0.691-0.454,1.172-0.454h5.901c0.479,0,0.874,0.151,1.188,0.454c0.313,0.303,0.469,0.693,0.469,1.172v5.332h-2.051
		v-5.156h-5.1v19.321h5.1v-5.64h2.051V680.826z"/>
	<path fill="#CFD1D2" d="M213.958,682.452h-2.036v-11.016H206.4v11.016h-2.036v-22.925h2.036v10.078h5.522v-10.078h2.036V682.452z"
		/>
	<path fill="#CFD1D2" d="M227.303,680.826c0,0.479-0.154,0.869-0.461,1.172c-0.307,0.305-0.701,0.454-1.179,0.454h-6.416
		c-0.479,0-0.869-0.149-1.172-0.454c-0.305-0.303-0.454-0.691-0.454-1.172v-19.673c0-0.479,0.149-0.869,0.454-1.172
		c0.303-0.303,0.691-0.454,1.172-0.454h6.416c0.479,0,0.872,0.151,1.179,0.454s0.461,0.693,0.461,1.172V680.826z M225.267,680.651
		v-19.321h-5.608v19.321H225.267z"/>
	<path fill="#CFD1D2" d="M240.414,678.307c0,1.211-0.398,2.204-1.194,2.979s-1.799,1.164-3.01,1.164h-5.244v-22.925h5.244
		c1.221,0,2.227,0.388,3.018,1.165c0.791,0.775,1.188,1.771,1.188,2.98L240.414,678.307L240.414,678.307z M238.377,678.102v-14.253
		c0-0.752-0.237-1.359-0.71-1.824c-0.476-0.463-1.086-0.695-1.838-0.695h-2.827v19.321h2.71c0.791,0,1.433-0.228,1.926-0.681
		C238.131,679.515,238.377,678.893,238.377,678.102z"/>
	<path fill="#CFD1D2" d="M251.664,682.452h-8.789v-1.084l6.443-20.039h-5.813v-1.802h8.159v1.055l-6.445,20.068h6.445V682.452z"/>
	<path fill="#CFD1D2" d="M261.844,682.452h-7.529v-22.925h7.441v1.802h-5.405v8.557h4.922v1.831h-4.922v8.936h5.493V682.452z"/>
	<path fill="#CFD1D2" d="M274.471,682.452h-1.406l-6.123-16.858v16.858h-1.919v-22.925h1.523l6.006,16.567v-16.567h1.919V682.452
		L274.471,682.452z"/>
	<path fill="#CFD1D2" d="M280.287,682.452h-2.036v-22.925h2.036V682.452z"/>
	<path fill="#CFD1D2" d="M291.639,682.452h-7.529v-22.925h7.441v1.802h-5.405v8.557h4.922v1.831h-4.922v8.936h5.493V682.452
		L291.639,682.452z"/>
</g>
<g>
	<path fill="#CFD1D2" d="M96.083,708.307c0,1.211-0.398,2.204-1.194,2.979s-1.799,1.164-3.01,1.164h-5.244v-22.925h5.244
		c1.221,0,2.227,0.388,3.018,1.165c0.791,0.775,1.188,1.771,1.188,2.98L96.083,708.307L96.083,708.307z M94.046,708.102v-14.253
		c0-0.752-0.237-1.359-0.71-1.824c-0.476-0.463-1.086-0.695-1.838-0.695H88.67v19.321h2.71c0.791,0,1.433-0.228,1.926-0.681
		C93.8,709.515,94.046,708.893,94.046,708.102z"/>
	<path fill="#CFD1D2" d="M109.339,710.826c0,0.479-0.154,0.869-0.461,1.172c-0.309,0.305-0.701,0.454-1.179,0.454h-6.416
		c-0.479,0-0.869-0.149-1.174-0.454c-0.303-0.303-0.452-0.691-0.452-1.172v-19.673c0-0.479,0.149-0.869,0.452-1.172
		c0.305-0.303,0.693-0.454,1.174-0.454h6.416c0.479,0,0.87,0.151,1.179,0.454c0.307,0.303,0.461,0.693,0.461,1.172V710.826z
		 M107.303,710.651v-19.321h-5.61v19.321H107.303z"/>
	<path fill="#CFD1D2" d="M128.324,708.307c0,1.211-0.398,2.204-1.194,2.979s-1.799,1.164-3.01,1.164h-5.244v-22.925h5.244
		c1.221,0,2.227,0.388,3.018,1.165c0.791,0.775,1.188,1.771,1.188,2.98L128.324,708.307L128.324,708.307z M126.288,708.102v-14.253
		c0-0.752-0.237-1.359-0.71-1.824c-0.476-0.463-1.086-0.695-1.838-0.695h-2.827v19.321h2.71c0.791,0,1.433-0.228,1.926-0.681
		C126.041,709.515,126.288,708.893,126.288,708.102z"/>
	<path fill="#CFD1D2" d="M139.574,712.452h-8.789v-1.084l6.443-20.039h-5.813v-1.802h8.159v1.055l-6.445,20.068h6.445V712.452z"/>
	<path fill="#CFD1D2" d="M144.378,712.452h-2.036v-22.925h2.036V712.452z"/>
	<path fill="#CFD1D2" d="M157.708,710.826c0,0.479-0.154,0.869-0.461,1.172c-0.309,0.305-0.701,0.454-1.181,0.454h-6.238
		c-0.479,0-0.869-0.149-1.174-0.454c-0.303-0.303-0.452-0.691-0.452-1.172v-21.299h2.034v21.123h5.437v-21.123h2.036
		L157.708,710.826L157.708,710.826z"/>
	<path fill="#CFD1D2" d="M171.126,712.452h-2.141l-4.263-12.273l0.278-0.41h3.633v-8.438h-5.229v21.123h-2.034v-22.925h7.676
		c0.479,0,0.869,0.151,1.172,0.454s0.454,0.693,0.454,1.172v8.701c0,1.104-0.742,1.655-2.229,1.655
		c-0.146,0-0.359-0.007-0.645-0.022c-0.283-0.014-0.488-0.021-0.615-0.021C168.504,705.118,169.818,708.781,171.126,712.452z"/>
</g>
<g>
	<path fill="#CFD1D2" d="M183.74,712.452h-2.241l-5.288-11.016v11.016h-2.036v-22.925h2.036v10.298l4.805-10.298h2.212v0.132
		l-5.186,10.913L183.74,712.452z"/>
	<path fill="#CFD1D2" d="M187.871,712.452h-2.036v-22.925h2.036V712.452z"/>
	<path fill="#CFD1D2" d="M211.279,689.528l-3.118,22.983h-1.655l-2.49-17.285c-0.01-0.303-0.029-0.752-0.059-1.348
		c0,0.313-0.021,0.762-0.061,1.348l-2.49,17.285h-1.653l-3.12-22.983h2.021l1.948,16.538c0.01,0.371,0.029,0.918,0.061,1.643
		c-0.012-0.371,0.01-0.919,0.059-1.643l2.373-16.538h1.743l2.356,16.538c0.021,0.371,0.039,0.918,0.061,1.643
		c0-0.371,0.022-0.919,0.073-1.643l1.946-16.538H211.279z"/>
	<path fill="#CFD1D2" d="M233.588,689.528l-3.12,22.983h-1.655l-2.488-17.285c-0.012-0.303-0.029-0.752-0.061-1.348
		c0,0.313-0.02,0.762-0.059,1.348l-2.49,17.285h-1.655l-3.12-22.983h2.021l1.948,16.538c0.01,0.371,0.027,0.918,0.059,1.643
		c-0.01-0.371,0.01-0.919,0.059-1.643l2.373-16.538h1.743l2.358,16.538c0.02,0.371,0.039,0.918,0.059,1.643
		c0-0.371,0.024-0.919,0.073-1.643l1.948-16.538H233.588z"/>
	<path fill="#CFD1D2" d="M245.556,712.452h-2.021l-0.808-5.098h-4.556l-0.806,5.098h-1.965v-0.059l4.089-22.925h2.007
		L245.556,712.452z M242.465,705.553l-2.007-12.422l-2.021,12.422H242.465z"/>
	<path fill="#CFD1D2" d="M258.066,712.452h-2.139l-4.263-12.273l0.276-0.41h3.635v-8.438h-5.229v21.123h-2.036v-22.925h7.676
		c0.479,0,0.869,0.151,1.174,0.454c0.303,0.303,0.452,0.693,0.452,1.172v8.701c0,1.104-0.74,1.655-2.227,1.655
		c-0.146,0-0.361-0.007-0.645-0.022c-0.283-0.014-0.488-0.021-0.615-0.021C255.444,705.118,256.757,708.781,258.066,712.452z"/>
	<path fill="#CFD1D2" d="M270.62,710.826c0,0.479-0.154,0.869-0.461,1.172c-0.309,0.305-0.701,0.454-1.181,0.454h-6.238
		c-0.479,0-0.869-0.149-1.174-0.454c-0.303-0.303-0.453-0.691-0.453-1.172v-21.299h2.035v21.123h5.437v-21.123h2.036L270.62,710.826
		L270.62,710.826z"/>
	<path fill="#CFD1D2" d="M283.73,712.452h-1.404l-6.123-16.858v16.858h-1.919v-22.925h1.521l6.006,16.567v-16.567h1.919V712.452
		L283.73,712.452z"/>
	<path fill="#CFD1D2" d="M296.958,712.452h-2.241l-5.288-11.016v11.016h-2.036v-22.925h2.036v10.298l4.805-10.298h2.212v0.132
		l-5.186,10.913L296.958,712.452z"/>
	<path fill="#CFD1D2" d="M308.178,712.452h-2.021l-0.808-5.098h-4.556l-0.807,5.098h-1.964v-0.059l4.087-22.925h2.009
		L308.178,712.452z M305.087,705.553l-2.007-12.422l-2.021,12.422H305.087z"/>
	<path fill="#CFD1D2" d="M320.117,710.826c0,0.479-0.156,0.869-0.471,1.172c-0.313,0.305-0.708,0.454-1.187,0.454h-5.903
		c-0.479,0-0.869-0.149-1.172-0.454c-0.303-0.303-0.454-0.691-0.454-1.172v-19.673c0-0.479,0.151-0.869,0.454-1.172
		s0.693-0.454,1.172-0.454h5.903c0.479,0,0.874,0.151,1.187,0.454c0.313,0.303,0.471,0.693,0.471,1.172v5.332h-2.053v-5.156h-5.098
		v19.321h5.098v-5.64h2.053V710.826L320.117,710.826z"/>
	<path fill="#CFD1D2" d="M333.271,712.452h-2.036v-11.016h-5.521v11.016h-2.036v-22.925h2.036v10.078h5.521v-10.078h2.036V712.452z"
		/>
</g>
<g>
	<path fill="#CFD1D2" d="M95.716,731.716c0,0.479-0.154,0.872-0.461,1.179c-0.31,0.309-0.701,0.462-1.179,0.462H88.67v9.097h-2.036
		v-22.925h7.441c0.479,0,0.87,0.151,1.179,0.454c0.307,0.303,0.461,0.693,0.461,1.172L95.716,731.716L95.716,731.716z
		 M93.68,731.539v-10.21h-5.01v10.21H93.68z"/>
	<path fill="#CFD1D2" d="M108.622,740.826c0,0.479-0.154,0.869-0.461,1.172c-0.309,0.305-0.701,0.454-1.181,0.454h-6.416
		c-0.479,0-0.869-0.149-1.172-0.454c-0.303-0.303-0.454-0.691-0.454-1.172v-19.673c0-0.479,0.151-0.869,0.454-1.172
		s0.693-0.454,1.172-0.454h6.416c0.479,0,0.872,0.151,1.181,0.454c0.307,0.303,0.461,0.693,0.461,1.172V740.826z M106.585,740.651
		v-19.321h-5.61v19.321H106.585z"/>
	<path fill="#CFD1D2" d="M121.732,738.307c0,1.211-0.396,2.204-1.192,2.979s-1.801,1.164-3.012,1.164h-5.242v-22.925h5.242
		c1.223,0,2.229,0.388,3.02,1.165c0.791,0.775,1.187,1.771,1.187,2.98L121.732,738.307L121.732,738.307z M119.696,738.102v-14.253
		c0-0.752-0.235-1.359-0.71-1.824c-0.474-0.463-1.086-0.695-1.838-0.695h-2.827v19.321h2.712c0.789,0,1.433-0.228,1.926-0.681
		C119.449,739.515,119.696,738.893,119.696,738.102z"/>
	<path fill="#CFD1D2" d="M132.63,742.452h-7.324v-22.925h2.036v21.123h5.288V742.452z"/>
	<path fill="#CFD1D2" d="M145.096,740.826c0,0.479-0.154,0.869-0.461,1.172c-0.307,0.305-0.701,0.454-1.179,0.454h-6.416
		c-0.479,0-0.869-0.149-1.172-0.454c-0.305-0.303-0.454-0.691-0.454-1.172v-19.673c0-0.479,0.149-0.869,0.454-1.172
		c0.303-0.303,0.691-0.454,1.172-0.454h6.416c0.479,0,0.872,0.151,1.179,0.454s0.461,0.693,0.461,1.172V740.826z M143.06,740.651
		v-19.321h-5.608v19.321H143.06z"/>
	<path fill="#CFD1D2" d="M158.207,738.307c0,1.211-0.398,2.204-1.194,2.979s-1.799,1.164-3.01,1.164h-5.244v-22.925h5.244
		c1.221,0,2.227,0.388,3.018,1.165c0.791,0.775,1.188,1.771,1.188,2.98L158.207,738.307L158.207,738.307z M156.17,738.102v-14.253
		c0-0.752-0.237-1.359-0.71-1.824c-0.476-0.463-1.086-0.695-1.838-0.695h-2.827v19.321h2.71c0.791,0,1.433-0.228,1.926-0.681
		C155.924,739.515,156.17,738.893,156.17,738.102z"/>
	<path fill="#CFD1D2" d="M171.463,740.826c0,0.479-0.154,0.869-0.461,1.172c-0.309,0.305-0.701,0.454-1.179,0.454h-6.416
		c-0.479,0-0.869-0.149-1.174-0.454c-0.303-0.303-0.453-0.691-0.453-1.172v-19.673c0-0.479,0.15-0.869,0.453-1.172
		c0.305-0.303,0.693-0.454,1.174-0.454h6.416c0.479,0,0.87,0.151,1.179,0.454c0.307,0.303,0.461,0.693,0.461,1.172V740.826z
		 M169.427,740.651v-19.321h-5.61v19.321H169.427z"/>
	<path fill="#CFD1D2" d="M188.836,719.528l-3.12,22.983h-1.655l-2.49-17.285c-0.01-0.303-0.027-0.752-0.059-1.348
		c0,0.313-0.02,0.762-0.059,1.348l-2.49,17.285h-1.655l-3.12-22.983h2.021l1.948,16.538c0.01,0.371,0.027,0.918,0.059,1.643
		c-0.01-0.371,0.01-0.919,0.059-1.643l2.373-16.538h1.743l2.358,16.538c0.02,0.371,0.039,0.918,0.059,1.643
		c0-0.371,0.024-0.919,0.073-1.643l1.948-16.538H188.836z"/>
	<path fill="#CFD1D2" d="M200.775,719.659l-2.781,9.272c-0.354,0.928-0.815,2.476-1.394,4.644v8.877h-2.036v-8.877
		c-0.137-0.742-0.347-1.521-0.63-2.344c-0.469-1.406-0.723-2.173-0.762-2.3l-2.783-9.272c0-0.01,0-0.054,0-0.132h2.065l3.147,11.47
		l3.12-11.47h2.051C200.775,719.596,200.775,719.64,200.775,719.659z"/>
	<path fill="#CFD1D2" d="M212.45,740.826c0,0.479-0.156,0.869-0.471,1.172c-0.313,0.305-0.708,0.454-1.187,0.454h-5.903
		c-0.479,0-0.869-0.149-1.172-0.454c-0.303-0.303-0.454-0.691-0.454-1.172v-19.673c0-0.479,0.151-0.869,0.454-1.172
		s0.693-0.454,1.172-0.454h5.903c0.479,0,0.874,0.151,1.187,0.454c0.313,0.303,0.471,0.693,0.471,1.172v5.332h-2.053v-5.156H205.3
		v19.321h5.098v-5.64h2.053V740.826z"/>
	<path fill="#CFD1D2" d="M225.604,742.452h-2.036v-11.016h-5.521v11.016h-2.036v-22.925h2.036v10.078h5.521v-10.078h2.036V742.452z"
		/>
</g>
<g>
	<g>
		<g>
			<defs>
				<rect id="SVGID_1_" x="0" y="0" width="595.276" height="841.891"/>
			</defs>
			<clipPath id="SVGID_2_">
				<use xlink:href="#SVGID_1_"  overflow="visible"/>
			</clipPath>
			<path clip-path="url(#SVGID_2_)" d="M462.712,395.356c-27.479-25.625-68.363-26.441-91.319-1.825
				c-22.955,24.617-19.287,65.345,8.191,90.97c27.479,25.624,68.363,26.441,91.318,1.825
				C493.861,461.711,490.194,420.981,462.712,395.356"/>
		</g>
	</g>
	<g>
		<g>
			<defs>
				<rect id="SVGID_3_" x="0" y="0" width="595.276" height="841.891"/>
			</defs>
			<clipPath id="SVGID_4_">
				<use xlink:href="#SVGID_3_"  overflow="visible"/>
			</clipPath>
			<path clip-path="url(#SVGID_4_)" fill="none" stroke="#000000" stroke-width="2" d="M88.774,282.44
				c11.289,20.131,30.351,30.003,53.712,18.093c13.178-6.718,24.446-18.815,28.255-32.613c3.316-12.025-0.863-22.577-6.926-33.019"
				/>
		</g>
	</g>
	<g>
		<g>
			<defs>
				<rect id="SVGID_5_" x="0" y="0" width="595.276" height="841.891"/>
			</defs>
			<clipPath id="SVGID_6_">
				<use xlink:href="#SVGID_5_"  overflow="visible"/>
			</clipPath>
			<path clip-path="url(#SVGID_6_)" fill="none" stroke="#000000" stroke-width="2" d="M207.019,163.804
				c11.289,20.131,30.351,30.003,53.712,18.093c13.178-6.718,24.446-18.815,28.253-32.613c3.318-12.026-0.861-22.577-6.924-33.019"
				/>
		</g>
	</g>
	<g>
		<g>
			<defs>
				<rect id="SVGID_7_" x="0" y="0" width="595.276" height="841.891"/>
			</defs>
			<clipPath id="SVGID_8_">
				<use xlink:href="#SVGID_7_"  overflow="visible"/>
			</clipPath>
			<path clip-path="url(#SVGID_8_)" d="M134.84,278.74c4.458-0.193,7.913-3.965,7.719-8.423c-0.195-4.457-3.966-7.913-8.424-7.719
				c-4.457,0.194-7.913,3.966-7.718,8.424C126.611,275.479,130.382,278.935,134.84,278.74"/>
		</g>
	</g>
	<g>
		<g>
			<defs>
				<rect id="SVGID_9_" x="0" y="0" width="595.276" height="841.891"/>
			</defs>
			<clipPath id="SVGID_10_">
				<use xlink:href="#SVGID_9_"  overflow="visible"/>
			</clipPath>
			<path clip-path="url(#SVGID_10_)" d="M256.347,163.346c4.458-0.194,7.913-3.966,7.719-8.424
				c-0.193-4.457-3.966-7.913-8.424-7.719c-4.457,0.194-7.913,3.966-7.718,8.424C248.118,160.085,251.889,163.542,256.347,163.346"
				/>
		</g>
	</g>
	<g>
		<g>
			<defs>
				<rect id="SVGID_11_" x="0" y="0" width="595.276" height="841.891"/>
			</defs>
			<clipPath id="SVGID_12_">
				<use xlink:href="#SVGID_11_"  overflow="visible"/>
			</clipPath>
			<path clip-path="url(#SVGID_12_)" fill="none" stroke="#000000" stroke-width="2" d="M165.449,320.786
				c25.396-2.074,62.704-0.85,80.25,21.178c4.434,5.565,6.525,12.414,5.945,19.513c-0.767,9.395-4.938,18.143-7.052,27.262
				c-1.978,8.536-2.926,17.301-2.97,26.062c-0.115,22.78,6.291,45.304,17.626,65.009c11.165,19.407,27.045,36.263,45.833,48.455
				c10.709,6.95,22.411,12.354,34.674,15.918c15.764,4.58,32.178,6.114,48.515,6.875c12.739,0.593,52.428-2.605,57.81-7.275"/>
		</g>
	</g>
	<g>
		<g>
			<defs>
				<rect id="SVGID_13_" x="0" y="0" width="595.276" height="841.891"/>
			</defs>
			<clipPath id="SVGID_14_">
				<use xlink:href="#SVGID_13_"  overflow="visible"/>
			</clipPath>
			<path clip-path="url(#SVGID_14_)" fill="none" stroke="#000000" stroke-width="2" d="M307.932,178.941
				c-2.075,25.396-0.85,62.706,21.177,80.25c5.566,4.435,12.414,6.526,19.515,5.947c9.395-0.768,18.143-4.939,27.262-7.053
				c8.536-1.979,17.302-2.926,26.061-2.971c22.783-0.114,45.306,6.291,65.011,17.626c19.407,11.165,36.263,27.045,48.455,45.833
				c6.95,10.71,12.354,22.411,15.918,34.674c4.58,15.765,6.114,32.179,6.875,48.516c0.593,12.739-2.605,52.426-7.275,57.808"/>
		</g>
	</g>
	<g>
		<g>
			<defs>
				<rect id="SVGID_15_" x="0" y="0" width="595.276" height="841.891"/>
			</defs>
			<clipPath id="SVGID_16_">
				<use xlink:href="#SVGID_15_"  overflow="visible"/>
			</clipPath>
			<path clip-path="url(#SVGID_16_)" d="M440.773,370.315c-0.38,2.49,2.935,4.16,5.004,1.248c2.068-2.913,1.463-6.954,3.648-11.394
				c2.188-4.44,3.903-5.967,9.149-15.763c5.246-9.795,7.172-14.712,4.59-15.942c-2.581-1.23-4.647-4.709-7.749-3.537
				c-3.104,1.173-6.155,0.137-8.154,1.335c-1.997,1.194-4.163,6.13-5.13,12.262c-0.968,6.132,1.076,8.319-0.521,9.915
				c-1.601,1.597-4.231,3.851-9.172,8.877c-4.937,5.025-8.56,9.721-14.058,10.094c-5.498,0.371-8.147,1.323-13.301-10.315
				c-5.153-11.644-9.284-18.601-10.013-22.71c-0.726-4.114,0.311-3.974-0.273-9.917c-0.583-5.945-0.113-8.062-0.202-14.827
				c-0.091-6.769-2.202-9.635-1.66-11.866c0.541-2.232,1.317-3.522-0.604-6.438c-1.928-2.916,1.21-19.572-0.313-29.278
				c-1.521-9.705-0.479-19.949-5.062-19.505c-4.584,0.443-7.354-1.862-10.199-0.054c-2.844,1.807-3.927,4.673-7.171,7.68
				c-3.244,3.005-5.598,6.387,0.149,20.23c5.748,13.842,12.158,20.73,12.251,24.303c0.094,3.571,2.696,7.216,4.199,10.034
				c1.502,2.821,0.092,2.773,0.728,4.113c0.634,1.34-2.104,22.393-0.678,27.728c1.432,5.335,1.193,7.591,0.227,16.919
				c-0.968,9.327,2.081,15.955,1.02,23.308c-0.377,2.608-0.827,4.454-1.271,5.605c11.77-0.755,23.599-0.729,35.903-0.225
				c3.353-0.148,6.974-0.836,10.646-1.473c0.104-0.166,0.203-0.324,0.306-0.495C437.858,372.24,441.151,367.824,440.773,370.315"/>
		</g>
	</g>
</g>
<polygon points="167.781,533.594 166.316,531.359 164.48,531.359 164.48,531.398 166.883,533.654 167.781,533.654 "/>
<polygon fill="#CFD1D2" points="93.062,656.3 90.864,652.946 88.11,652.946 88.11,653.004 91.713,656.387 93.062,656.387 "/>
<polygon fill="#CFD1D2" points="163.16,656.456 160.963,653.103 158.209,653.103 158.209,653.16 161.812,656.545 163.16,656.545 "/>
<g>
	<path fill="#CFD1D2" d="M439.795,715.368c0,0.319-0.103,0.581-0.308,0.786s-0.469,0.31-0.786,0.31h-3.604v6.063h-1.355v-15.283
		h4.961c0.317,0,0.581,0.103,0.786,0.305c0.205,0.2,0.308,0.462,0.308,0.779L439.795,715.368L439.795,715.368z M438.438,715.25
		v-6.807h-3.34v6.807H438.438z"/>
	<path fill="#CFD1D2" d="M448.108,722.527h-1.35l-0.537-3.396h-3.037l-0.535,3.396h-1.311v-0.039l2.727-15.283h1.338
		L448.108,722.527z M446.045,717.927l-1.338-8.281l-1.348,8.281H446.045z"/>
	<path fill="#CFD1D2" d="M459.083,707.243l-2.08,15.322h-1.103l-1.66-11.521c-0.007-0.202-0.021-0.501-0.039-0.898
		c0,0.208-0.014,0.508-0.039,0.898l-1.66,11.521h-1.104l-2.08-15.322h1.348l1.299,11.025c0.007,0.247,0.021,0.612,0.039,1.094
		c-0.007-0.247,0.007-0.61,0.039-1.094l1.582-11.025h1.162l1.572,11.025c0.013,0.247,0.024,0.612,0.039,1.094
		c0-0.247,0.017-0.61,0.049-1.094l1.299-11.025H459.083z"/>
	<path fill="#CFD1D2" d="M465.918,722.527h-5.02v-15.283h4.961v1.201h-3.604v5.703h3.281v1.221h-3.281v5.957h3.662L465.918,722.527
		L465.918,722.527z"/>
	<path fill="#CFD1D2" d="M471.622,715.329l-4.443,3.281v-1.387l4.443-3.271V715.329z M472.92,722.527h-4.883v-15.283h1.355v14.082
		h3.525L472.92,722.527L472.92,722.527z"/>
	<path fill="#CFD1D2" d="M484.747,715.368c0,0.319-0.104,0.581-0.308,0.786c-0.205,0.205-0.469,0.31-0.786,0.31h-3.604v6.063h-1.355
		v-15.283h4.961c0.317,0,0.581,0.103,0.786,0.305c0.203,0.2,0.308,0.462,0.308,0.779L484.747,715.368L484.747,715.368z
		 M483.389,715.25v-6.807h-3.34v6.807H483.389z"/>
	<path fill="#CFD1D2" d="M488.077,722.527h-1.484v-1.719h1.484V722.527z"/>
</g>
<g>
	<path fill="#CFD1D2" d="M435.176,742.527h-1.355v-15.283h1.355V742.527z"/>
	<path fill="#CFD1D2" d="M447.942,742.527h-0.938l-4.082-11.24v11.24h-1.279v-15.283h1.018l4.004,11.045v-11.045h1.279
		L447.942,742.527L447.942,742.527z"/>
	<path fill="#CFD1D2" d="M451.819,742.527h-1.357v-15.283h1.357V742.527z"/>
	<path fill="#CFD1D2" d="M460.49,741.443c0,0.319-0.104,0.579-0.313,0.781s-0.472,0.303-0.791,0.303h-3.936
		c-0.319,0-0.579-0.101-0.781-0.303s-0.303-0.462-0.303-0.781v-13.115c0-0.317,0.101-0.579,0.303-0.779
		c0.202-0.202,0.462-0.305,0.781-0.305h3.936c0.319,0,0.583,0.103,0.791,0.305c0.208,0.2,0.313,0.462,0.313,0.779v3.557h-1.367
		v-3.438h-3.398v12.881h3.398v-3.76h1.367V741.443z"/>
	<path fill="#CFD1D2" d="M464.297,742.527h-1.355v-15.283h1.355V742.527z"/>
	<path fill="#CFD1D2" d="M476.924,742.527h-1.348l-0.537-3.396h-3.037l-0.537,3.396h-1.309v-0.039l2.725-15.283h1.338
		L476.924,742.527z M474.865,737.927l-1.338-8.281l-1.35,8.281H474.865z"/>
	<path fill="#CFD1D2" d="M485.264,742.527h-1.426l-2.842-8.184l0.186-0.273h2.422v-5.625h-3.484v14.082h-1.357v-15.283h5.117
		c0.319,0,0.579,0.103,0.781,0.305c0.202,0.2,0.303,0.462,0.303,0.779v5.803c0,0.733-0.495,1.104-1.482,1.104
		c-0.1,0-0.241-0.005-0.432-0.015c-0.188-0.012-0.325-0.017-0.41-0.017C483.516,737.637,484.392,740.078,485.264,742.527z"/>
	<path fill="#CFD1D2" d="M488.733,742.527h-1.357v-15.283h1.357V742.527z"/>
	<path fill="#CFD1D2" d="M497.444,742.527h-1.35l-0.537-3.396h-3.037l-0.535,3.396h-1.311v-0.039l2.727-15.283h1.338
		L497.444,742.527z M495.381,737.927l-1.338-8.281l-1.348,8.281H495.381z"/>
	<path fill="#CFD1D2" d="M505.577,739.763c0,0.808-0.268,1.47-0.796,1.987c-0.53,0.517-1.199,0.774-2.007,0.774h-3.496v-15.283
		h3.496c0.813,0,1.482,0.261,2.012,0.776s0.791,1.18,0.791,1.987V739.763z M504.219,739.625v-9.502c0-0.501-0.158-0.904-0.474-1.216
		c-0.316-0.31-0.727-0.464-1.228-0.464h-1.885v12.881h1.809c0.525,0,0.953-0.149,1.282-0.454
		C504.054,740.568,504.219,740.154,504.219,739.625z"/>
	<path fill="#CFD1D2" d="M514.258,742.527h-0.938l-4.082-11.24v11.24h-1.279v-15.283h1.016l4.004,11.045v-11.045h1.279V742.527z"/>
	<path fill="#CFD1D2" d="M522.842,727.331l-1.854,6.184c-0.234,0.618-0.544,1.648-0.93,3.096v5.918h-1.355v-5.918
		c-0.091-0.495-0.231-1.016-0.42-1.563c-0.313-0.938-0.481-1.448-0.508-1.533l-1.855-6.184c0-0.007,0-0.034,0-0.088h1.377
		l2.102,7.646l2.08-7.646h1.365C522.842,727.289,522.842,727.319,522.842,727.331z"/>
</g>
<g>
	<path d="M110.333,550.056h-1.357v-15.283h1.357V550.056z"/>
	<path d="M123.252,548.972c0,0.317-0.104,0.579-0.31,0.781c-0.205,0.2-0.467,0.303-0.784,0.303h-4.277
		c-0.319,0-0.58-0.103-0.781-0.303c-0.201-0.202-0.303-0.462-0.303-0.781v-13.115c0-0.319,0.101-0.579,0.303-0.781
		s0.462-0.303,0.781-0.303h4.277c0.317,0,0.579,0.101,0.784,0.303s0.31,0.462,0.31,0.781V548.972z M121.895,548.855v-12.881h-3.74
		v12.881H121.895z"/>
	<path d="M131.817,548.972c0,0.317-0.104,0.579-0.313,0.781c-0.209,0.2-0.472,0.303-0.791,0.303h-3.938
		c-0.317,0-0.58-0.103-0.779-0.303c-0.201-0.202-0.305-0.462-0.305-0.781v-13.115c0-0.319,0.103-0.579,0.305-0.781
		s0.462-0.303,0.779-0.303h3.938c0.319,0,0.583,0.101,0.791,0.303s0.313,0.462,0.313,0.781v3.555h-1.365v-3.438h-3.398v12.881h3.398
		v-3.76h1.365V548.972z"/>
	<path d="M139.307,550.056h-5.857v-0.724l4.297-13.358h-3.877v-1.201h5.438v0.703l-4.297,13.379h4.297V550.056z"/>
	<path d="M147.217,534.861l-1.855,6.184c-0.232,0.616-0.543,1.648-0.928,3.096v5.918h-1.355v-5.918
		c-0.093-0.495-0.231-1.017-0.42-1.563c-0.313-0.938-0.482-1.446-0.51-1.531l-1.854-6.184c0-0.007,0-0.036,0-0.088h1.377l2.1,7.646
		l2.08-7.646h1.367C147.217,534.819,147.217,534.848,147.217,534.861z"/>
	<path d="M158.018,534.773l-2.08,15.322h-1.104l-1.66-11.523c-0.006-0.202-0.021-0.501-0.039-0.896c0,0.208-0.013,0.508-0.039,0.896
		l-1.66,11.523h-1.104l-2.08-15.322h1.348l1.299,11.025c0.006,0.247,0.021,0.61,0.039,1.094c-0.006-0.247,0.006-0.612,0.039-1.094
		l1.582-11.025h1.162l1.572,11.025c0.013,0.247,0.024,0.61,0.039,1.094c0-0.247,0.016-0.612,0.049-1.094l1.299-11.025H158.018z"/>
	<path d="M161.27,550.056h-1.355v-15.283h1.355V550.056z"/>
	<path d="M169.776,548.972c0,0.317-0.099,0.579-0.298,0.781c-0.199,0.2-0.458,0.303-0.774,0.303h-3.85
		c-0.317,0-0.581-0.103-0.786-0.303c-0.205-0.202-0.308-0.462-0.308-0.781v-3.877h1.357v3.76h3.301v-3.643l-4.219-5.1
		c-0.295-0.352-0.439-0.739-0.439-1.162v-3.096c0-0.319,0.103-0.579,0.308-0.781s0.469-0.303,0.786-0.303h3.85
		c0.317,0,0.576,0.101,0.774,0.303s0.298,0.462,0.298,0.781v3.555h-1.355v-3.438h-3.301v3.223l4.236,5.1
		c0.28,0.339,0.42,0.72,0.42,1.143V548.972L169.776,548.972z"/>
	<path d="M178.301,548.972c0,0.317-0.104,0.579-0.313,0.781c-0.209,0.2-0.472,0.303-0.791,0.303h-3.936
		c-0.319,0-0.58-0.103-0.781-0.303c-0.201-0.202-0.303-0.462-0.303-0.781v-13.115c0-0.319,0.101-0.579,0.303-0.781
		s0.462-0.303,0.781-0.303h3.936c0.319,0,0.583,0.101,0.791,0.303s0.313,0.462,0.313,0.781v3.555h-1.367v-3.438h-3.396v12.881h3.396
		v-3.76h1.367V548.972z"/>
	<path d="M182.11,550.056h-1.355v-15.283h1.355V550.056z"/>
	<path d="M189.678,550.056h-5.02v-15.283h4.961v1.201h-3.604v5.703h3.281v1.221h-3.281v5.957h3.662L189.678,550.056L189.678,550.056
		z"/>
	<path d="M192.979,550.056h-1.482v-1.719h1.482V550.056z"/>
	<path d="M196.299,550.056h-1.484v-1.719h1.484V550.056z"/>
	<path d="M199.62,550.056h-1.484v-1.719h1.484V550.056z"/>
</g>
</svg>
