<?xml version="1.0" encoding="utf-8"?>
<!-- Generator: Adobe Illustrator 14.0.0, SVG Export Plug-In . SVG Version: 6.00 Build 43363)  -->
<!DOCTYPE svg PUBLIC "-//W3C//DTD SVG 1.1//EN" "http://www.w3.org/Graphics/SVG/1.1/DTD/svg11.dtd">
<svg version="1.1" id="Warstwa_1" xmlns="http://www.w3.org/2000/svg" xmlns:xlink="http://www.w3.org/1999/xlink" x="0px" y="0px"
	 width="595.276px" height="841.891px" viewBox="0 0 595.276 841.891" enable-background="new 0 0 595.276 841.891"
	 xml:space="preserve">
<polygon points="44.741,734.019 169.759,742.677 299.876,733.083 430.015,736.095 559.277,738.187 556.489,610.81 557.961,482.575 
	554.118,354.322 553.977,232.152 430.029,228.377 299.91,218.289 169.773,216.85 42.116,228.515 41.576,354.308 36,482.545 
	46.788,610.656 "/>
<polygon fill="#CFD1D2" points="58.914,723.461 183.932,732.119 314.05,722.524 444.188,725.537 573.449,727.629 570.661,600.251 
	572.135,472.015 568.291,343.763 568.151,221.593 444.201,217.818 314.083,207.729 183.946,206.292 56.289,217.956 55.749,343.749 
	50.173,471.985 60.961,600.096 "/>
<g>
	<g>
		<defs>
			<rect id="SVGID_1_" x="0" y="0" width="595.276" height="841.891"/>
		</defs>
		<clipPath id="SVGID_2_">
			<use xlink:href="#SVGID_1_"  overflow="visible"/>
		</clipPath>
		<path clip-path="url(#SVGID_2_)" d="M394.25,468.751c0,0,5.606-4.402,9.229-3.813c3.626,0.591,8.961,3.574,8.097,7.41l-0.864,3.84
			c0,0,5.245-4.244,5.704-3.853c0.458,0.39,1.767,2.974,2.034,2.788c0.27-0.182,0.379-1.993,0.969-1.583
			c0.588,0.412,0.434,1.052,1.035,0.698c0.601-0.352,1.597-2.433,2.27-1.235c0.674,1.194,0.206,1.374,1.017,1.495
			c0.812,0.119,1.959,0.405,2.11,1.004c0.153,0.592,0.58,0.274,1.168,1.22c0.589,0.945,0.733,1.408,0.733,1.408
			s2.456-0.469,5.242,0.131c2.787,0.597,5.974,4.007,9.76,10.396c3.786,6.392,14.141,22.771,13.396,25.465
			c-0.746,2.694-6.562,6.256-8.831,7.323c-2.272,1.068-4.226,1.332-4.86,0.478c-0.639-0.855-1.43-1.074-1.92-1.134
			c-0.489-0.061,0.005,0.501,1.145,2.052c1.139,1.551,1.718,3.596,2.189,6.021c0.473,2.427,0.536,5.939,0.906,7.145
			c0.371,1.206,10.033,19.924,12.188,20.335c2.156,0.409,8.014-1.437,11.414-1.31c3.401,0.13,8.679,0.513,11.948,1.34
			c3.271,0.832,3.516,0.358,5.5-0.511c1.98-0.868,1.7-2.115,2.854-2.728c1.157-0.61,1.793-2.307,4.456-1.592
			c2.671,0.714,8.223,2.655,15.692,2.155c7.469-0.5,16.991-9.332,19.408-11.104c2.416-1.773,5.98-4.419,7.646-3.897
			c1.667,0.529,5.813,1.939,6.03,4.062c0.22,2.118,1.021,3.36,0.723,4.653c-0.296,1.294-10.26,11.083-15.433,12.331
			c-5.169,1.248-7.462,1.277-13.174,1.541c-5.71,0.266-12.575,1.141-14.381,1.623c-1.81,0.49-2.068,1.321-4.093,1.302
			c-2.021-0.021-4.793,0.072-5.578,0.391c-0.786,0.32-0.063,3.055-0.626,3.568c-0.566,0.517-3.395-2.098-6.56-2.649
			c-3.168-0.552-4.196,0.759-6.418,0.699c-2.221-0.06-3.11-0.021-3.11-0.021s4.036,3.625,6.03,5.147
			c1.995,1.521,3.347,2.609,3.839,3.017c0.493,0.404,1.875-0.578,4.42-0.302c2.545,0.275,6.05,1.773,5.452,5.192
			c-0.597,3.417-5.332,35.65-6.494,39.013c-1.157,3.358-2.842,7.561-3.851,6.327c-1.016-1.232-2.248-2.661-1.605-5.761
			c0.643-3.095,4.941-17.232,4.819-19.854c-0.127-2.618-1.451-14.766-6.704-18.256c-5.257-3.495-15.649-11.083-18.87-11.902
			c-3.218-0.822-5.694,0.731-8.468-0.263c-2.771-0.994-12.635-10.559-18.22-17.231c-5.584-6.67-5.813-7.648-9.112-9.418
			c-3.298-1.771-12.102-8.176-12.346-8.533c-0.243-0.356-0.324,1.705-0.867,5.651c-0.544,3.948-1.31,9.88-1.424,10.479
			c-0.115,0.604,0.938,1.893,0.846,3.743c-0.096,1.853-1.752,5.38-2.059,6.982c-0.305,1.604-0.891,4.401-2.459,4.466
			c-1.57,0.063-3.736-1.646-3.262-3.061c0.479-1.415,0.989-2.46,1.384-3.998c0.397-1.533,0.938-7.092,1.86-7.589
			c0.927-0.499,1.915-0.778,1.915-0.778s1.728-10.161,2.228-13.339c0.502-3.175-0.05-3.28-0.224-2.64
			c-0.174,0.644-1.119,3.424-1.822,3.029c-0.704-0.395-1.943-3.434-1.873-4.354c0.071-0.922,0.926-1.592,1.057-1.724
			c0.128-0.129-1.277-0.656-2.527-0.635c-1.251,0.021-3.204,4.011-5.009,3.667c-1.806-0.344-3.343-0.997-4.404-1.148
			s-1.723,0.865-3.13,0.077c-1.408-0.784-4.213-2.411-3.949-5.166c0.264-2.754,2.592-11.71,2.683-14.083
			c0.085-2.371-0.131-5.054-0.3-7.714c-0.169-2.658,0.332-5.835-0.487-5.886c-0.822-0.052-1.109,3.641-1.518,5.506
			c-0.407,1.866-1.15,3.594-0.759-0.383c0.394-3.977,2.06-13.266,2.098-13.467c0.038-0.199,0.309,0.837,0.944,0.493
			c0.637-0.349,1.177-4.813,1.551-5.419c0.375-0.602,0.062-0.872-0.59-0.992c-0.651-0.125-0.711-0.086-1.66,0.255
			c-0.944,0.339-2.504,0.613-3.058,0.247c-0.554-0.365-1.966,0.508-2.443-0.259c-0.478-0.766-1.323-3.418-0.82-4.415
			c0.499-0.992,1.341-1.04,1.653-0.773c0.312,0.267,0.865-0.199,1.667-0.306c0.801-0.107,1.664-1.918,1.682-2.278
			c0.017-0.359-1.106-0.469-0.682-1.063c0.424-0.596,1.443-1.854,1.729-2.268c0.287-0.413-0.212-0.25-0.368-0.798
			c-0.153-0.55,0.379-4.706,0.624-5.18c0.246-0.472,0.618-0.247,1.915,0.312C393.591,469.127,393.494,469.303,394.25,468.751"/>
	</g>
	<g>
		<defs>
			<rect id="SVGID_3_" x="0" y="0" width="595.276" height="841.891"/>
		</defs>
		<clipPath id="SVGID_4_">
			<use xlink:href="#SVGID_3_"  overflow="visible"/>
		</clipPath>
		<path clip-path="url(#SVGID_4_)" d="M175.62,705.806c0.5,0.257,0.666,0.846,0.823,1.442
			C176.781,707.662,175.563,706.45,175.62,705.806"/>
	</g>
	<g>
		<defs>
			<rect id="SVGID_5_" x="0" y="0" width="595.276" height="841.891"/>
		</defs>
		<clipPath id="SVGID_6_">
			<use xlink:href="#SVGID_5_"  overflow="visible"/>
		</clipPath>
		<path clip-path="url(#SVGID_6_)" d="M500.915,111.4c0.918,1.338,2.522-0.697,2.528-1.896c0.445,0.205,0.817,1.693,1.265,0.633
			c0.461,0.544-0.729,1.229-1.476,1.264c1.084,0.91,2.823-2.195,1.687,0c0.188,0.57,0.508-0.444,0.632-0.632
			c1.438,1.33,1.868,2.823,2.949,4.425c0.62,0.918,2.665,3.1,2.74,4.424c0.113,2.029-3.337,5.718-4.637,7.375
			c-1.496,1.908-3.954,5.713-6.109,5.899c-1.276,0.109-4.189-1.62-4.426-2.107c-0.419-0.866-0.325-3.037-0.421-3.792
			C494.74,119.769,498.856,116.894,500.915,111.4 M473.313,124.042c-1.302,1.089-5.184,2.823-6.318,2.739
			c-1.682-0.125-1.924-1.875-2.94-2.938c-0.002-0.006-0.003-0.013-0.005-0.019c-0.422-1.072-4.712-10.865-4.43-11.792
			c0.104-0.348,1.223-0.727,1.686-1.053c2.999-2.116,7.525-5.853,10.956-6.953c1.964-0.63,0.171,1.243,0.211,2.106
			c0.029,0.649,0.885,1.124,1.266,2.317c0.153,0.487-0.149,1.104,0,1.475c0.363,0.917,1.243,1.559,1.264,2.107
			c0.038,1.036-1.96,2.311-1.687,2.95c0.503,1.17,2.258-0.119,2.317-0.843C477.161,117.006,476.086,121.723,473.313,124.042
			 M524.723,224.754c-1.453-1.96-3.053-6.354-4.214-10.112c-2.426-7.855-3.979-15.245-5.897-23.178
			c-0.94-3.884-2.491-7.475-3.371-11.167c-0.689-2.889-0.937-5.079-1.688-7.374c-2.29-6.994-5.344-13.766-7.585-19.595h-0.084
			c0-0.132-0.024-0.266-0.082-0.394c-0.291-0.654-0.578-1.33-0.854-1.983c-1.017-2.396-2.065-4.871-3.652-7.059
			c-0.329-1.193-2.433-4.708-1.017-6.576c1.193-1.576,4.278,0.308,6.108,0c1.112-0.188,3.25-2.113,4.637-3.371
			c1.62-1.473,2.993-2.751,4.215-4.004c1.72-1.768,6.592-7.196,6.741-9.481c0.241-3.69-2.888-6.137-4.215-8.849l-0.108,0.151
			c-1.67-1.788-2.796-4.138-3.886-6.411c-1.508-3.148-3.067-6.396-6.107-8.338l0.2-0.151c-1.406-1.791,1.868-5.021,4.003-4.003
			c-1.28-0.803,0.079-3.008-0.843-4.003c0.896,0.981,3.476-1.838,4.847,0.421c-0.52-3.872-0.507-8.682,4.213-7.163
			c-1.799-6.64,2.473-9.925,6.743-11.799c-9.859-4.262-15.561,4.66-20.648,7.585c-0.805,0.462-2.619,1.001-2.738,1.264
			c-0.863,1.895,2.969,5.916,1.054,8.217c0.071-2.127-0.813-3.121-1.266-4.425c-1.127-3.254-1.803-5.83-2.948-8.217
			c-0.265-0.546-0.212-1.577-0.422-1.896c-0.057-0.085-1.119-0.705-1.476-1.053c-1.028-1.007-1.581-2.285-2.528-3.161
			c-0.492-0.456-2.656-4.058-5.091-3.309c-0.383,0.118,2.689,3.144,2.143,3.309c-1.913,0.575-5.629-0.438-6.953,0
			c-1.041,0.347-2.5,3.37-3.582,3.161c-0.396-0.077-0.394-3.846-1.152-3.725c-0.89,0.142-1.622,4.716-1.166,5.41
			c-4.742-4.668-10.823-9.122-19.384-9.271c2.723,2.354,7.582,5.073,7.164,10.113c-0.107,1.298-0.819,2.222-1.476,3.371
			c1.328,0.064,3.832,0.919,4.426,1.686c1.528,1.983,1.381,4.441,0.421,6.953c2.495-1.077,6.002,0.195,5.057,4.424
			c1.426-1.468,3.499,0.947,2.95,2.528c-0.458,1.316-3.528,1.149-4.004,2.529l0.055,0.041c-1.751,0.944-3.274,2.176-4.753,3.373
			c-1.921,1.558-3.734,3.028-6.007,3.913c-0.074,0.028-6.747,3.343-7.414,6.578c-0.459,2.222,0.932,4.441,1.686,6.32
			c0.798,1.988,1.756,3.592,2.738,5.479c1.569,3.006,4.161,8.884,6.743,9.48c1.178,0.272,4.431-1.242,5.056-0.422
			c0.125,0.164-0.653,1.971-0.843,2.739c-1.284,5.25-2.593,6.053-1.813,11.396c0.13,0.573,1.59,7.824,1.771,8.646
			c0.784,3.538,4.612,20.134,4.889,23.994c0.13,1.789-0.079,4.66,0,5.688c0.688,8.908,3.917,17.082,6.952,23.598
			c1.083,2.324,2.94,5.583,2.95,7.375c0.002,0.423-0.624,1.22-0.632,2.107c-0.007,0.754,0.902,2.532,1.264,4.635
			c0.354,2.054,0.038,4.69,0.423,6.321c0.137,0.58,1.175,1.424,1.475,2.528c0.246,0.903,0.032,2.088,0.211,2.317
			c0.388,0.497,5.186,1.322,6.532,0.421c0.178-0.118,1.461-3.321,1.475-3.582c0.023-0.47-0.495-2.36-0.633-2.738
			c-0.619-1.702-1.672-2.968-2.106-4.847c-0.429-1.851-0.526-3.923-1.054-6.109c-0.858-3.573-2.673-7.167-3.582-10.745
			c-0.935-3.683-1.442-7.981-2.106-12.221c-0.664-4.245-1.961-8.838-1.896-12.432c0.019-1.005,0.636-3.425,0.632-4.635
			c-0.012-3.752-0.878-9.277-1.264-13.906c-0.21-2.522-0.072-10.69,0.843-11.167c0.101-0.052,2.255,1.33,2.528,1.687
			c0.692,0.904,1.012,2.683,1.686,4.003c2.079,4.076,4.474,6.97,6.742,10.746c1.321,2.197,2.587,4.987,3.792,7.795
			c1.129,2.628,3.204,5.327,4.003,7.585c1.015,2.864,1.069,6.295,1.896,9.271c1.515,5.445,4.188,9.391,6.53,14.538
			c1.615,3.547,3.749,7.485,2.107,10.745c-0.336,0.668-1.042,0.603-1.053,1.264c-0.024,1.384,3.059,4.861,2.738,6.532l0.736-0.597
			l0.738,0.597c0.784-5.838,3.025,2.863,3.159,4.214c0.111,1.128-0.149,2.63,0.212,3.16c0.645,0.947,6.24,1.402,7.796,0.211
			c0.38-0.292,1.688-3.521,1.685-3.582C527.994,226.854,525.532,225.843,524.723,224.754"/>
	</g>
</g>
<g>
	<path d="M95.291,608.598c0,0.318-0.104,0.581-0.309,0.786s-0.467,0.308-0.786,0.308h-3.604v6.064h-1.357v-15.283h4.961
		c0.319,0,0.581,0.101,0.786,0.303s0.309,0.462,0.309,0.781V608.598z M93.934,608.481v-6.807h-3.34v6.807H93.934z"/>
	<path d="M103.602,615.757h-1.348l-0.537-3.398H98.68l-0.537,3.398h-1.309v-0.039l2.725-15.283h1.338L103.602,615.757z
		 M101.541,611.157l-1.338-8.281l-1.349,8.281H101.541z"/>
	<path d="M114.578,600.473l-2.08,15.322h-1.104l-1.66-11.523c-0.006-0.202-0.02-0.501-0.039-0.898c0,0.209-0.013,0.509-0.038,0.898
		l-1.66,11.523h-1.104l-2.08-15.322h1.349l1.299,11.025c0.006,0.246,0.02,0.611,0.039,1.094c-0.006-0.247,0.006-0.612,0.039-1.094
		l1.582-11.025h1.162l1.571,11.025c0.014,0.246,0.026,0.611,0.039,1.094c0-0.247,0.017-0.612,0.049-1.094l1.3-11.025H114.578z"/>
	<path d="M121.414,615.757h-5.021v-15.283h4.961v1.201h-3.604v5.703h3.281v1.221h-3.281v5.957h3.662L121.414,615.757
		L121.414,615.757z"/>
	<path d="M127.117,608.559l-4.443,3.281v-1.388l4.443-3.271V608.559z M128.416,615.757h-4.883v-15.283h1.356v14.082h3.525
		L128.416,615.757L128.416,615.757z"/>
	<path d="M140.242,608.598c0,0.318-0.104,0.581-0.309,0.786s-0.467,0.308-0.786,0.308h-3.604v6.064h-1.357v-15.283h4.961
		c0.319,0,0.581,0.101,0.786,0.303s0.309,0.462,0.309,0.781V608.598z M138.885,608.481v-6.807h-3.34v6.807H138.885z"/>
	<path d="M143.572,615.757h-1.483v-1.72h1.483V615.757z"/>
</g>
<g>
	<path d="M90.672,635.757h-1.357v-15.283h1.357V635.757z"/>
	<path d="M102.254,635.757h-5.859v-0.724l4.297-13.358h-3.877v-1.201h5.439v0.703l-4.297,13.379h4.297V635.757z"/>
	<path d="M110.145,634.673c0,0.318-0.101,0.578-0.303,0.78s-0.462,0.304-0.781,0.304h-5.039v-15.283h5
		c0.319,0,0.58,0.101,0.781,0.303s0.303,0.462,0.303,0.781v4.541c0,0.402-0.182,0.742-0.547,1.016
		c-0.357,0.215-0.716,0.43-1.074,0.646l1.152,0.741c0.338,0.209,0.508,0.534,0.508,0.978V634.673L110.145,634.673z M108.738,626.274
		v-4.6h-3.358v5.518h2.002L108.738,626.274z M108.777,634.555v-5.283l-1.377-0.898h-2.021v6.183L108.777,634.555L108.777,634.555z"
		/>
	<path d="M118.973,634.673c0,0.318-0.103,0.578-0.308,0.78s-0.467,0.304-0.786,0.304h-4.277c-0.318,0-0.58-0.102-0.781-0.304
		c-0.2-0.201-0.303-0.462-0.303-0.78v-13.115c0-0.319,0.102-0.579,0.303-0.781c0.202-0.202,0.463-0.303,0.781-0.303h4.277
		c0.319,0,0.581,0.101,0.786,0.303s0.308,0.462,0.308,0.781V634.673z M117.615,634.555v-12.881h-3.74v12.881H117.615z"/>
	<path d="M127.537,634.673c0,0.318-0.104,0.578-0.313,0.78s-0.472,0.304-0.791,0.304h-3.936c-0.319,0-0.58-0.102-0.781-0.304
		c-0.201-0.201-0.303-0.462-0.303-0.78v-13.115c0-0.319,0.101-0.579,0.303-0.781s0.462-0.303,0.781-0.303h3.936
		c0.319,0,0.583,0.101,0.791,0.303s0.313,0.462,0.313,0.781v3.555h-1.367v-3.438h-3.398v12.881h3.398v-3.76h1.367V634.673z"/>
	<path d="M135.027,635.757h-5.858v-0.724l4.297-13.358h-3.877v-1.201h5.438v0.703l-4.297,13.379h4.297V635.757z"/>
	<path d="M143.25,634.673c0,0.318-0.104,0.578-0.309,0.78s-0.467,0.304-0.785,0.304h-4.277c-0.319,0-0.58-0.102-0.781-0.304
		c-0.201-0.201-0.303-0.462-0.303-0.78v-13.115c0-0.319,0.101-0.579,0.303-0.781s0.462-0.303,0.781-0.303h4.277
		c0.318,0,0.58,0.101,0.785,0.303s0.309,0.462,0.309,0.781V634.673z M141.893,634.555v-12.881h-3.74v12.881H141.893z"/>
	<path d="M151.99,635.757h-0.938l-4.082-11.24v11.24h-1.279v-15.283h1.017l4.004,11.045v-11.045h1.279V635.757z"/>
	<path d="M160.574,620.561l-1.855,6.182c-0.234,0.618-0.543,1.65-0.928,3.097v5.918h-1.357v-5.918
		c-0.091-0.495-0.23-1.017-0.42-1.563c-0.313-0.938-0.481-1.448-0.508-1.533l-1.855-6.182c0-0.007,0-0.036,0-0.088h1.377
		l2.101,7.646l2.08-7.646h1.367C160.574,620.519,160.574,620.549,160.574,620.561z"/>
	<path d="M172.527,635.757h-1.493l-3.525-7.345v7.345h-1.357v-15.283h1.357v6.865l3.203-6.865h1.475v0.088l-3.457,7.275
		L172.527,635.757z"/>
	<path d="M180.184,634.673c0,0.318-0.103,0.578-0.308,0.78s-0.467,0.304-0.786,0.304h-4.16c-0.319,0-0.58-0.102-0.781-0.304
		c-0.2-0.201-0.303-0.462-0.303-0.78v-14.199h1.357v14.082h3.623v-14.082h1.356L180.184,634.673L180.184,634.673z"/>
	<path d="M189.129,635.757h-1.426l-2.843-8.185l0.187-0.272h2.422v-5.625h-3.486v14.082h-1.356v-15.283h5.117
		c0.318,0,0.58,0.101,0.78,0.303c0.201,0.202,0.304,0.462,0.304,0.781v5.801c0,0.735-0.495,1.104-1.484,1.104
		c-0.098,0-0.241-0.005-0.43-0.015c-0.189-0.01-0.326-0.015-0.41-0.015C187.381,630.867,188.256,633.308,189.129,635.757z"/>
	<path d="M197.117,634.673c0,0.318-0.1,0.578-0.299,0.78c-0.198,0.202-0.458,0.304-0.775,0.304h-3.849
		c-0.318,0-0.581-0.102-0.785-0.304c-0.205-0.201-0.309-0.462-0.309-0.78v-3.877h1.357v3.76h3.301v-3.644l-4.219-5.098
		c-0.293-0.352-0.439-0.739-0.439-1.162v-3.096c0-0.319,0.104-0.579,0.309-0.781c0.204-0.202,0.467-0.303,0.785-0.303h3.849
		c0.318,0,0.578,0.101,0.775,0.303c0.198,0.202,0.299,0.462,0.299,0.781v3.555h-1.357v-3.438h-3.301v3.223l4.238,5.098
		c0.279,0.339,0.42,0.721,0.42,1.144V634.673L197.117,634.673z"/>
</g>
<g>
	<path d="M101.185,467.327h-1.919V452.81c0-0.205,0.068-0.806,0.205-1.802l-3.75,14.165h-0.41l-3.75-14.165
		c0.138,1.006,0.205,1.605,0.205,1.802v14.517h-1.919v-22.925h1.89l3.722,14.912c0.02,0.078,0.039,0.298,0.059,0.659
		c0-0.146,0.021-0.366,0.06-0.659l3.721-14.912h1.89v22.925H101.185z"/>
	<path d="M114.529,465.701c0,0.479-0.153,0.869-0.461,1.172c-0.307,0.304-0.7,0.454-1.179,0.454h-6.416
		c-0.479,0-0.869-0.15-1.172-0.454c-0.303-0.303-0.454-0.692-0.454-1.172v-19.673c0-0.479,0.151-0.869,0.454-1.172
		s0.693-0.454,1.172-0.454h6.416c0.479,0,0.872,0.151,1.179,0.454c0.308,0.303,0.461,0.693,0.461,1.172V465.701z M112.493,465.525
		v-19.321h-5.61v19.321H112.493L112.493,465.525z"/>
	<path d="M125.867,467.327h-8.789v-1.084l6.444-20.039h-5.814v-1.802h8.159v1.055l-6.445,20.068h6.445V467.327L125.867,467.327z"/>
	<path d="M137.967,467.327h-1.406l-6.123-16.859v16.859h-1.919v-22.925h1.523l6.006,16.567v-16.567h1.919V467.327L137.967,467.327z"
		/>
	<path d="M150.872,467.327h-2.021l-0.806-5.098h-4.557l-0.806,5.098h-1.963v-0.059l4.087-22.925h2.007L150.872,467.327z
		 M147.781,460.427l-2.008-12.422l-2.021,12.422H147.781z"/>
</g>
<g>
	<path d="M99.295,497.327h-1.406l-6.123-16.859v16.859h-1.919v-22.925h1.523l6.006,16.567v-16.567h1.919V497.327z"/>
	<path d="M112.2,497.327h-2.021l-0.806-5.098h-4.557l-0.806,5.098h-1.963v-0.059l4.087-22.925h2.007L112.2,497.327z
		 M109.109,490.427l-2.007-12.422l-2.021,12.422H109.109z"/>
	<path d="M128.665,474.402l-3.12,22.983h-1.655L121.4,480.1c-0.01-0.303-0.028-0.752-0.059-1.348c0,0.313-0.021,0.762-0.059,1.348
		l-2.49,17.285h-1.655l-3.12-22.983h2.021l1.947,16.538c0.011,0.371,0.029,0.918,0.06,1.641c-0.01-0.37,0.01-0.918,0.059-1.641
		l2.373-16.538h1.743l2.358,16.538c0.02,0.371,0.039,0.918,0.059,1.641c0-0.37,0.024-0.918,0.073-1.641l1.948-16.538H128.665z"/>
	<path d="M133.543,497.327h-2.036v-22.925h2.036V497.327z"/>
	<path d="M146.639,495.701c0,0.479-0.151,0.869-0.454,1.172c-0.303,0.304-0.692,0.454-1.172,0.454h-6.021
		c-0.479,0-0.869-0.15-1.173-0.454c-0.303-0.303-0.453-0.692-0.453-1.172v-19.673c0-0.479,0.15-0.869,0.453-1.172
		c0.304-0.303,0.693-0.454,1.173-0.454h6.021c0.479,0,0.869,0.151,1.172,0.454s0.454,0.693,0.454,1.172v5.332h-2.051v-5.156h-5.187
		v19.321h5.187V487.6h-2.446v-1.758h4.497V495.701z"/>
	<path d="M159.954,495.701c0,0.479-0.154,0.869-0.461,1.172c-0.308,0.304-0.701,0.454-1.18,0.454h-6.416
		c-0.479,0-0.869-0.15-1.172-0.454c-0.303-0.303-0.454-0.692-0.454-1.172v-19.673c0-0.479,0.151-0.869,0.454-1.172
		s0.693-0.454,1.172-0.454h6.416c0.479,0,0.872,0.151,1.18,0.454c0.307,0.303,0.461,0.693,0.461,1.172V495.701z M157.918,495.525
		v-19.321h-5.61v19.321H157.918L157.918,495.525z"/>
	<path d="M177.327,474.402l-3.12,22.983h-1.655l-2.49-17.285c-0.01-0.303-0.028-0.752-0.059-1.348c0,0.313-0.021,0.762-0.06,1.348
		l-2.489,17.285h-1.655l-3.12-22.983h2.021l1.947,16.538c0.011,0.371,0.029,0.918,0.06,1.641c-0.011-0.37,0.01-0.918,0.059-1.641
		l2.373-16.538h1.743l2.358,16.538c0.02,0.371,0.038,0.918,0.059,1.641c0-0.37,0.024-0.918,0.073-1.641l1.947-16.538H177.327z"/>
	<path d="M189.295,497.327h-2.021l-0.806-5.098h-4.556l-0.807,5.098h-1.963v-0.059l4.087-22.925h2.007L189.295,497.327z
		 M186.204,490.427l-2.008-12.422l-2.021,12.422H186.204z"/>
	<path d="M201.233,495.701c0,0.479-0.155,0.869-0.469,1.172c-0.313,0.304-0.708,0.454-1.187,0.454h-5.903
		c-0.479,0-0.869-0.15-1.172-0.454c-0.303-0.303-0.454-0.692-0.454-1.172v-19.673c0-0.479,0.151-0.869,0.454-1.172
		s0.692-0.454,1.172-0.454h5.903c0.479,0,0.874,0.151,1.187,0.454c0.313,0.303,0.469,0.693,0.469,1.172v5.332h-2.051v-5.156h-5.098
		v19.321h5.098v-5.64h2.051V495.701z"/>
</g>
<g>
	<path d="M99.295,527.327h-1.406l-6.123-16.859v16.859h-1.919v-22.925h1.523l6.006,16.567v-16.567h1.919V527.327z"/>
	<path d="M105.11,527.327h-2.035v-22.925h2.035V527.327z"/>
	<path d="M116.463,527.327h-7.529v-22.925h7.441v1.802h-5.405v8.556h4.922v1.831h-4.922v8.936h5.493V527.327z"/>
	<path d="M133.191,527.327h-8.789v-1.084l6.445-20.039h-5.814v-1.802h8.158v1.056l-6.444,20.067h6.444V527.327z"/>
	<path d="M145.291,527.327h-1.406l-6.123-16.859v16.859h-1.919v-22.925h1.523l6.006,16.567v-16.567h1.919V527.327L145.291,527.327z"
		/>
	<path d="M158.196,527.327h-2.021l-0.806-5.098h-4.557l-0.806,5.098h-1.963v-0.059l4.087-22.925h2.007L158.196,527.327z
		 M155.105,520.427l-2.007-12.422l-2.021,12.422H155.105z"/>
	<path d="M169.021,525.701c0,0.479-0.15,0.869-0.454,1.172c-0.303,0.304-0.692,0.454-1.172,0.454h-5.332
		c-0.479,0-0.869-0.15-1.172-0.454c-0.303-0.303-0.454-0.692-0.454-1.172v-5.814h2.036v5.64h4.512v-21.123h2.036V525.701z"/>
	<path d="M182.132,523.181c0,1.211-0.398,2.205-1.194,2.979c-0.796,0.777-1.799,1.165-3.01,1.165h-5.244v-22.925h5.244
		c1.221,0,2.227,0.389,3.018,1.164c0.791,0.777,1.188,1.771,1.188,2.981L182.132,523.181L182.132,523.181z M180.096,522.976v-14.253
		c0-0.752-0.237-1.359-0.71-1.823s-1.086-0.696-1.838-0.696h-2.827v19.321h2.71c0.791,0,1.433-0.227,1.926-0.682
		C179.849,524.39,180.096,523.767,180.096,522.976z"/>
	<path d="M195.213,525.701c0,0.479-0.154,0.869-0.461,1.172c-0.308,0.304-0.701,0.454-1.179,0.454h-6.24
		c-0.479,0-0.869-0.15-1.172-0.454c-0.304-0.303-0.454-0.692-0.454-1.172v-21.299h2.036v21.123h5.435v-21.123h2.036L195.213,525.701
		L195.213,525.701z"/>
	<path d="M206.946,525.701c0,0.479-0.15,0.869-0.453,1.172c-0.304,0.304-0.693,0.454-1.173,0.454h-5.332
		c-0.479,0-0.868-0.15-1.172-0.454c-0.303-0.303-0.454-0.692-0.454-1.172v-5.814h2.036v5.64h4.513v-21.123h2.035V525.701z"/>
	<path d="M219.852,527.327h-2.021l-0.807-5.098h-4.556l-0.806,5.098H209.7v-0.059l4.087-22.925h2.007L219.852,527.327z
		 M216.761,520.427l-2.007-12.422l-2.021,12.422H216.761z"/>
	<path d="M231.79,525.701c0,0.479-0.156,0.869-0.47,1.172c-0.313,0.304-0.708,0.454-1.187,0.454h-5.903
		c-0.479,0-0.869-0.15-1.172-0.454c-0.303-0.303-0.454-0.692-0.454-1.172v-19.673c0-0.479,0.151-0.869,0.454-1.172
		s0.693-0.454,1.172-0.454h5.903c0.479,0,0.874,0.151,1.187,0.454c0.313,0.303,0.47,0.693,0.47,1.172v5.332h-2.052v-5.156h-5.098
		v19.321h5.098v-5.64h2.052V525.701z"/>
</g>
<g>
	<path d="M97.522,557.327h-8.789v-1.084l6.445-20.039h-5.815v-1.802h8.159v1.056l-6.444,20.067h6.444V557.327z"/>
	<path d="M109.417,557.327h-2.021l-0.806-5.098h-4.556l-0.807,5.098h-1.963v-0.059l4.087-22.925h2.007L109.417,557.327z
		 M106.326,550.427l-2.008-12.422l-2.021,12.422H106.326z"/>
	<path d="M121.619,553.181c0,1.211-0.398,2.205-1.194,2.979c-0.796,0.777-1.799,1.165-3.01,1.165h-5.244v-22.925h5.244
		c1.221,0,2.227,0.389,3.018,1.164c0.791,0.777,1.188,1.771,1.188,2.981L121.619,553.181L121.619,553.181z M119.583,552.976v-14.253
		c0-0.752-0.237-1.359-0.71-1.823c-0.474-0.464-1.086-0.696-1.838-0.696h-2.827v19.321h2.71c0.791,0,1.433-0.227,1.926-0.682
		C119.336,554.39,119.583,553.767,119.583,552.976z"/>
	<path d="M134.642,557.327h-1.406l-6.123-16.859v16.859h-1.919v-22.925h1.523l6.006,16.567v-16.567h1.919V557.327z"/>
	<path d="M145.833,557.327h-7.529v-22.925h7.441v1.802h-5.405v8.556h4.922v1.831h-4.922v8.936h5.493V557.327L145.833,557.327z"/>
	<path d="M158.284,555.701c0,0.479-0.151,0.869-0.454,1.172c-0.304,0.304-0.693,0.454-1.172,0.454h-6.021
		c-0.479,0-0.869-0.15-1.172-0.454c-0.303-0.303-0.454-0.692-0.454-1.172v-19.673c0-0.479,0.151-0.869,0.454-1.172
		s0.693-0.454,1.172-0.454h6.021c0.479,0,0.868,0.151,1.172,0.454c0.303,0.303,0.454,0.693,0.454,1.172v5.332h-2.052v-5.156h-5.186
		v19.321h5.186V547.6h-2.445v-1.758h4.497V555.701z"/>
	<path d="M171.6,555.701c0,0.479-0.154,0.869-0.461,1.172c-0.307,0.304-0.701,0.454-1.179,0.454h-6.416
		c-0.479,0-0.869-0.15-1.172-0.454c-0.304-0.303-0.454-0.692-0.454-1.172v-19.673c0-0.479,0.15-0.869,0.454-1.172
		c0.303-0.303,0.692-0.454,1.172-0.454h6.416c0.479,0,0.872,0.151,1.179,0.454s0.461,0.693,0.461,1.172V555.701z M169.563,555.525
		v-19.321h-5.609v19.321H169.563z"/>
	<path d="M190.218,546.59c0,0.479-0.154,0.87-0.461,1.18c-0.308,0.307-0.701,0.461-1.179,0.461h-5.405v9.097h-2.036v-22.925h7.441
		c0.479,0,0.872,0.151,1.179,0.454s0.461,0.693,0.461,1.172V546.59z M188.182,546.414v-10.21h-5.01v10.21H188.182z"/>
	<path d="M202.947,555.701c0,0.479-0.153,0.869-0.461,1.172c-0.307,0.304-0.7,0.454-1.179,0.454h-6.24
		c-0.479,0-0.868-0.15-1.172-0.454c-0.303-0.303-0.454-0.692-0.454-1.172v-21.299h2.036v21.123h5.436v-21.123h2.036v21.299H202.947z
		"/>
	<path d="M216.058,557.327h-1.406l-6.123-16.859v16.859h-1.919v-22.925h1.523l6.006,16.567v-16.567h1.919V557.327L216.058,557.327z"
		/>
	<path d="M229.285,557.327h-2.241l-5.288-11.016v11.016h-2.036v-22.925h2.036V544.7l4.805-10.298h2.212v0.132l-5.186,10.913
		L229.285,557.327z"/>
	<path d="M239.158,536.204h-3.546v21.123h-2.035v-21.123h-3.574v-1.802h9.155V536.204z"/>
	<path d="M251.053,555.701c0,0.479-0.154,0.869-0.461,1.172c-0.307,0.304-0.701,0.454-1.179,0.454h-6.24
		c-0.479,0-0.869-0.15-1.172-0.454c-0.303-0.303-0.454-0.692-0.454-1.172v-21.299h2.036v21.123h5.435v-21.123h2.036L251.053,555.701
		L251.053,555.701z"/>
</g>
<polygon points="197.424,472.661 195.227,469.306 192.473,469.306 192.473,469.365 196.076,472.749 197.424,472.749 "/>
<g>
	<g>
		<defs>
			<rect id="SVGID_7_" x="0" y="0" width="595.276" height="841.891"/>
		</defs>
		<clipPath id="SVGID_8_">
			<use xlink:href="#SVGID_7_"  overflow="visible"/>
		</clipPath>
		<path clip-path="url(#SVGID_8_)" d="M221.567,530.186c0-0.508-0.205-0.902-0.614-1.188c-0.45-0.225-0.895-0.448-1.333-0.673
			v-1.012h-1.568v0.981c0,0.498,0.215,0.889,0.645,1.172c0.431,0.225,0.864,0.443,1.305,0.658v1.568h-2.242v-1.51h-1.538v1.655
			c0,0.78,0.391,1.172,1.172,1.172h3.003c0.781,0,1.172-0.392,1.172-1.172V530.186L221.567,530.186z"/>
	</g>
</g>
<rect x="120.872" y="440.207" width="2.152" height="2.213"/>
<rect x="92.526" y="530.207" width="2.153" height="2.212"/>
<g>
	<g>
		<defs>
			<rect id="SVGID_9_" x="0" y="0" width="595.276" height="841.891"/>
		</defs>
		<clipPath id="SVGID_10_">
			<use xlink:href="#SVGID_9_"  overflow="visible"/>
		</clipPath>
		<path clip-path="url(#SVGID_10_)" fill="none" stroke="#000000" stroke-width="3" d="M274.016,355.583
			c-0.914,0.803,13.722-17.13,5.551-35.905c-18.313-42.081-66.423-110.075-59.598-134.646c9.449-34.016,39.494-36.347,54.492-35.395
			c12.57,0.799,26.144,5.341,27.993,19.53c1.019,7.815-0.928,15.896-2.951,23.394c-2.707,10.031-6.16,19.847-8.948,29.856
			c-5.063,18.18-9.506,40.784,3.13,56.996c14.308,18.358,42.094,19.765,63.271,17.47c26.351-2.855,53.916-12.313,74.522-29.381
			c13.737-11.379,23.566-27.148,21.379-45.511c-1.502-12.6-8.542-23.616-10.362-36.058c-1.577-10.779,4.358-18.955,11.825-26.036
			c2.055-1.95,13.442-11.404,15.569-13.276"/>
	</g>
</g>
<polygon fill="#E2001A" points="253.386,347.423 261.608,390.872 295.638,360.499 "/>
</svg>
