<?xml version="1.0" encoding="utf-8"?>
<!-- Generator: Adobe Illustrator 14.0.0, SVG Export Plug-In . SVG Version: 6.00 Build 43363)  -->
<!DOCTYPE svg PUBLIC "-//W3C//DTD SVG 1.1//EN" "http://www.w3.org/Graphics/SVG/1.1/DTD/svg11.dtd">
<svg version="1.1" id="Warstwa_1" xmlns="http://www.w3.org/2000/svg" xmlns:xlink="http://www.w3.org/1999/xlink" x="0px" y="0px"
	 width="595.276px" height="841.891px" viewBox="0 0 595.276 841.891" enable-background="new 0 0 595.276 841.891"
	 xml:space="preserve">
<rect x="0" y="0" fill="none" width="595.276" height="841.891"/>
<polygon points="46.847,735.112 168.589,737.618 296.127,742.942 423.68,737.135 544.252,733.924 551.767,613.368 545.678,485.83 
	559.457,358.274 547.613,234.344 423.697,231.8 296.158,225.45 168.6,232.789 36,225.67 43.495,358.26 42.751,485.8 47.673,613.201 
	"/>
<polygon fill="#CFD1D2" points="61.02,721.059 182.762,723.565 310.3,728.889 437.853,723.083 558.426,719.871 565.941,599.315 
	559.851,471.777 573.63,344.222 561.785,220.292 437.869,217.748 310.331,211.397 182.773,218.736 50.173,211.618 57.668,344.208 
	56.924,471.747 61.846,599.148 "/>
<g>
	<path fill="#1A171B" d="M172.117,507.355c0,0.479-0.154,0.872-0.461,1.179c-0.308,0.309-0.701,0.462-1.179,0.462h-5.405v9.097
		h-2.036v-22.925h7.441c0.479,0,0.872,0.151,1.179,0.454s0.461,0.693,0.461,1.172V507.355z M170.081,507.179v-10.21h-5.01v10.21
		H170.081z"/>
	<path fill="#1A171B" d="M185.095,518.093h-2.139l-4.263-12.275l0.278-0.41h3.633v-8.438h-5.229v21.123h-2.036v-22.925h7.676
		c0.479,0,0.869,0.151,1.172,0.454s0.454,0.693,0.454,1.172v8.701c0,1.104-0.742,1.655-2.227,1.655
		c-0.146,0-0.361-0.007-0.645-0.022c-0.283-0.014-0.488-0.021-0.615-0.021C182.473,510.759,183.787,514.421,185.095,518.093z"/>
	<path fill="#1A171B" d="M195.818,518.093h-8.789v-1.084l6.445-20.039h-5.815v-1.802h8.159v1.055l-6.445,20.068h6.445V518.093z"/>
	<path fill="#1A171B" d="M207.683,495.3l-2.783,9.272c-0.352,0.928-0.815,2.476-1.392,4.644v8.877h-2.036v-8.877
		c-0.137-0.742-0.347-1.523-0.63-2.344c-0.469-1.406-0.723-2.173-0.762-2.3l-2.783-9.272c0-0.01,0-0.054,0-0.132h2.065l3.149,11.47
		l3.12-11.47h2.051C207.683,495.236,207.683,495.28,207.683,495.3z"/>
	<path fill="#1A171B" d="M219.256,507.355c0,0.479-0.154,0.872-0.461,1.179c-0.308,0.309-0.701,0.462-1.179,0.462h-5.405v9.097
		h-2.036v-22.925h7.441c0.479,0,0.872,0.151,1.179,0.454s0.461,0.693,0.461,1.172V507.355z M217.219,507.179v-10.21h-5.01v10.21
		H217.219z"/>
	<path fill="#1A171B" d="M231.721,518.093H229.7l-0.806-5.098h-4.556l-0.806,5.098h-1.963v-0.059l4.087-22.925h2.007
		L231.721,518.093z M228.631,511.193l-2.007-12.422l-2.021,12.422H228.631z"/>
	<path fill="#1A171B" d="M243.924,513.947c0,1.211-0.398,2.204-1.194,2.981c-0.796,0.775-1.799,1.164-3.01,1.164h-5.244v-22.925
		h5.244c1.221,0,2.227,0.388,3.018,1.165c0.791,0.775,1.187,1.77,1.187,2.98V513.947z M241.887,513.742v-14.253
		c0-0.752-0.237-1.359-0.71-1.824c-0.474-0.463-1.086-0.695-1.838-0.695h-2.827v19.321h2.71c0.791,0,1.433-0.228,1.926-0.681
		C241.641,515.155,241.887,514.533,241.887,513.742z"/>
	<path fill="#1A171B" d="M257.063,518.093h-2.241l-5.288-11.016v11.016h-2.036v-22.925h2.036v10.298l4.805-10.298h2.212v0.132
		l-5.186,10.913L257.063,518.093z"/>
	<path fill="#1A171B" d="M261.194,518.093h-2.036v-22.925h2.036V518.093z"/>
	<path fill="#1A171B" d="M279.973,507.355c0,0.479-0.154,0.872-0.461,1.179c-0.308,0.309-0.701,0.462-1.179,0.462h-5.405v9.097
		h-2.036v-22.925h7.441c0.479,0,0.872,0.151,1.179,0.454s0.461,0.693,0.461,1.172V507.355z M277.937,507.179v-10.21h-5.01v10.21
		H277.937z"/>
	<path fill="#1A171B" d="M292.439,518.093h-2.021l-0.806-5.098h-4.556l-0.806,5.098h-1.963v-0.059l4.087-22.925h2.007
		L292.439,518.093z M289.348,511.193l-2.007-12.422l-2.021,12.422H289.348z"/>
	<path fill="#1A171B" d="M308.904,495.168l-3.119,22.983h-1.656l-2.49-17.285c-0.01-0.303-0.029-0.752-0.059-1.348
		c0,0.313-0.02,0.762-0.059,1.348l-2.49,17.285h-1.655l-3.12-22.983h2.021l1.949,16.538c0.01,0.371,0.029,0.918,0.059,1.641
		c-0.01-0.371,0.01-0.918,0.059-1.641l2.373-16.538h1.742l2.359,16.538c0.02,0.371,0.039,0.918,0.059,1.641
		c0-0.371,0.023-0.918,0.072-1.641l1.949-16.538H308.904z"/>
	<path fill="#1A171B" d="M317.005,507.297l-6.666,4.922v-2.08l6.666-4.907V507.297z M318.952,518.093h-7.324v-22.925h2.037v21.123
		h5.287V518.093z"/>
	<path fill="#1A171B" d="M330.98,518.093h-2.021l-0.806-5.098h-4.556l-0.806,5.098h-1.963v-0.059l4.087-22.925h2.007L330.98,518.093
		z M327.889,511.193l-2.007-12.422l-2.021,12.422H327.889z"/>
	<path fill="#1A171B" d="M348.69,507.355c0,0.479-0.153,0.872-0.462,1.179c-0.307,0.309-0.7,0.462-1.179,0.462h-5.405v9.097h-2.036
		v-22.925h7.441c0.479,0,0.872,0.151,1.179,0.454c0.309,0.303,0.462,0.693,0.462,1.172V507.355z M346.654,507.179v-10.21h-5.01
		v10.21H346.654z"/>
	<path fill="#1A171B" d="M353.685,518.093h-2.227v-2.578h2.227V518.093z"/>
</g>
<g>
	<path fill="#1A171B" d="M168.548,567.009c0,0.319-0.104,0.579-0.313,0.781s-0.472,0.303-0.791,0.303h-3.936
		c-0.319,0-0.58-0.101-0.781-0.303s-0.303-0.462-0.303-0.781v-13.115c0-0.319,0.101-0.579,0.303-0.781s0.462-0.303,0.781-0.303
		h3.936c0.319,0,0.583,0.101,0.791,0.303s0.313,0.462,0.313,0.781v3.555h-1.367v-3.438h-3.398v12.881h3.398v-3.76h1.367V567.009z"/>
	<path fill="#1A171B" d="M176.038,568.093h-5.859v-0.723l4.297-13.359h-3.877v-1.201h5.439v0.703l-4.297,13.379h4.297V568.093z"/>
	<path fill="#1A171B" d="M183.948,552.897l-1.855,6.182c-0.234,0.618-0.543,1.65-0.928,3.096v5.918h-1.357v-5.918
		c-0.091-0.495-0.231-1.016-0.42-1.563c-0.313-0.938-0.482-1.448-0.508-1.533l-1.855-6.182c0-0.007,0-0.036,0-0.088h1.377l2.1,7.646
		l2.08-7.646h1.367C183.948,552.855,183.948,552.885,183.948,552.897z"/>
	<path fill="#1A171B" d="M190.491,568.093h-4.883v-15.283h1.357v14.082h3.525V568.093z"/>
	<path fill="#1A171B" d="M193.782,568.093h-1.357v-15.283h1.357V568.093z"/>
	<path fill="#1A171B" d="M206.751,568.093h-1.426l-2.842-8.184l0.186-0.273h2.422v-5.625h-3.486v14.082h-1.357v-15.283h5.117
		c0.319,0,0.58,0.101,0.781,0.303s0.303,0.462,0.303,0.781v5.801c0,0.735-0.495,1.104-1.484,1.104c-0.098,0-0.241-0.005-0.43-0.015
		s-0.326-0.015-0.41-0.015C205.003,563.203,205.878,565.644,206.751,568.093z"/>
	<path fill="#1A171B" d="M213.899,568.093h-5.859v-0.723l4.297-13.359h-3.877v-1.201h5.439v0.703l-4.297,13.379h4.297V568.093z"/>
	<path fill="#1A171B" d="M220.686,568.093h-5.02v-15.283h4.961v1.201h-3.604v5.703h3.281v1.221h-3.281v5.957h3.662V568.093z"/>
	<path fill="#1A171B" d="M228.928,567.009c0,0.319-0.104,0.579-0.313,0.781s-0.472,0.303-0.791,0.303h-3.936
		c-0.319,0-0.58-0.101-0.781-0.303s-0.303-0.462-0.303-0.781v-13.115c0-0.319,0.101-0.579,0.303-0.781s0.462-0.303,0.781-0.303
		h3.936c0.319,0,0.583,0.101,0.791,0.303s0.313,0.462,0.313,0.781v3.555h-1.367v-3.438h-3.398v12.881h3.398v-3.76h1.367V567.009z"/>
	<path fill="#1A171B" d="M236.419,568.093h-5.859v-0.723l4.297-13.359h-3.877v-1.201h5.439v0.703l-4.297,13.379h4.297V568.093z"/>
	<path fill="#1A171B" d="M248.557,567.009c0,0.319-0.103,0.579-0.308,0.781s-0.467,0.303-0.786,0.303h-4.277
		c-0.319,0-0.58-0.101-0.781-0.303s-0.303-0.462-0.303-0.781v-13.115c0-0.319,0.101-0.579,0.303-0.781s0.462-0.303,0.781-0.303
		h4.277c0.319,0,0.581,0.101,0.786,0.303s0.308,0.462,0.308,0.781V567.009z M247.2,566.891V554.01h-3.74v12.881H247.2z"/>
	<path fill="#1A171B" d="M260.178,554.01h-2.363v14.082h-1.357V554.01h-2.383v-1.201h6.104V554.01z"/>
	<path fill="#1A171B" d="M267.913,552.897l-1.855,6.182c-0.234,0.618-0.543,1.65-0.928,3.096v5.918h-1.357v-5.918
		c-0.091-0.495-0.231-1.016-0.42-1.563c-0.313-0.938-0.482-1.448-0.508-1.533l-1.855-6.182c0-0.007,0-0.036,0-0.088h1.377l2.1,7.646
		l2.08-7.646h1.367C267.913,552.855,267.913,552.885,267.913,552.897z"/>
	<path fill="#1A171B" d="M277.132,568.093h-1.279v-9.678c0-0.137,0.045-0.537,0.137-1.201l-2.5,9.443h-0.273l-2.5-9.443
		c0.091,0.671,0.137,1.071,0.137,1.201v9.678h-1.279v-15.283h1.26l2.48,9.941c0.013,0.052,0.026,0.198,0.039,0.439
		c0-0.098,0.013-0.244,0.039-0.439l2.48-9.941h1.26V568.093z"/>
	<path fill="#1A171B" d="M280.95,566.374l-0.859,2.803h-0.938l0.283-2.803H280.95z"/>
</g>
<g>
</g>
<g>
	<path fill="#1A171B" d="M168.723,585.329c0,0.808-0.265,1.47-0.796,1.987s-1.2,0.776-2.007,0.776h-3.496v-15.283h3.496
		c0.814,0,1.484,0.259,2.012,0.776s0.791,1.18,0.791,1.987V585.329z M167.366,585.192v-9.502c0-0.501-0.158-0.906-0.474-1.216
		s-0.724-0.464-1.226-0.464h-1.885v12.881h1.807c0.527,0,0.956-0.151,1.284-0.454S167.366,585.719,167.366,585.192z"/>
	<path fill="#1A171B" d="M175.989,588.093h-4.883v-15.283h1.357v14.082h3.525V588.093z"/>
	<path fill="#1A171B" d="M184.007,588.093h-1.348l-0.537-3.398h-3.037l-0.537,3.398h-1.309v-0.039l2.725-15.283h1.338
		L184.007,588.093z M181.946,583.493l-1.338-8.281l-1.348,8.281H181.946z"/>
	<path fill="#1A171B" d="M191.966,587.009c0,0.319-0.104,0.579-0.313,0.781s-0.472,0.303-0.791,0.303h-3.936
		c-0.319,0-0.58-0.101-0.781-0.303s-0.303-0.462-0.303-0.781v-13.115c0-0.319,0.101-0.579,0.303-0.781s0.462-0.303,0.781-0.303
		h3.936c0.319,0,0.583,0.101,0.791,0.303s0.313,0.462,0.313,0.781v3.555h-1.367v-3.438H187.2v12.881h3.398v-3.76h1.367V587.009z"/>
	<path fill="#1A171B" d="M199.456,588.093h-5.859v-0.723l4.297-13.359h-3.877v-1.201h5.439v0.703l-4.297,13.379h4.297V588.093z"/>
	<path fill="#1A171B" d="M206.243,588.093h-5.02v-15.283h4.961v1.201h-3.604v5.703h3.281v1.221h-3.281v5.957h3.662V588.093z"/>
	<path fill="#1A171B" d="M214.544,587.009c0,0.319-0.101,0.579-0.303,0.781s-0.462,0.303-0.781,0.303h-4.014
		c-0.319,0-0.58-0.101-0.781-0.303s-0.303-0.462-0.303-0.781v-13.115c0-0.319,0.101-0.579,0.303-0.781s0.462-0.303,0.781-0.303
		h4.014c0.319,0,0.58,0.101,0.781,0.303s0.303,0.462,0.303,0.781v3.555h-1.367v-3.438h-3.457v12.881h3.457v-5.283h-1.631v-1.172
		h2.998V587.009z"/>
	<path fill="#1A171B" d="M223.421,587.009c0,0.319-0.103,0.579-0.308,0.781s-0.467,0.303-0.786,0.303h-4.277
		c-0.319,0-0.58-0.101-0.781-0.303s-0.303-0.462-0.303-0.781v-13.115c0-0.319,0.101-0.579,0.303-0.781s0.462-0.303,0.781-0.303
		h4.277c0.319,0,0.581,0.101,0.786,0.303s0.308,0.462,0.308,0.781V587.009z M222.063,586.891V574.01h-3.74v12.881H222.063z"/>
	<path fill="#1A171B" d="M238.919,572.809l-2.08,15.322h-1.104l-1.66-11.523c-0.006-0.202-0.02-0.501-0.039-0.898
		c0,0.208-0.013,0.508-0.039,0.898l-1.66,11.523h-1.104l-2.08-15.322h1.348l1.299,11.025c0.006,0.247,0.02,0.612,0.039,1.094
		c-0.006-0.247,0.006-0.612,0.039-1.094l1.582-11.025h1.162l1.572,11.025c0.013,0.247,0.026,0.612,0.039,1.094
		c0-0.247,0.016-0.612,0.049-1.094l1.299-11.025H238.919z"/>
	<path fill="#1A171B" d="M246.897,588.093h-1.348l-0.537-3.398h-3.037l-0.537,3.398h-1.309v-0.039l2.725-15.283h1.338
		L246.897,588.093z M244.837,583.493l-1.338-8.281l-1.348,8.281H244.837z"/>
	<path fill="#1A171B" d="M255.237,588.093h-1.426l-2.842-8.184l0.186-0.273h2.422v-5.625h-3.486v14.082h-1.357v-15.283h5.117
		c0.319,0,0.58,0.101,0.781,0.303s0.303,0.462,0.303,0.781v5.801c0,0.735-0.495,1.104-1.484,1.104c-0.098,0-0.241-0.005-0.43-0.015
		s-0.326-0.015-0.41-0.015C253.489,583.203,254.365,585.644,255.237,588.093z"/>
	<path fill="#1A171B" d="M262.532,574.01h-2.363v14.082h-1.357V574.01h-2.383v-1.201h6.104V574.01z"/>
	<path fill="#1A171B" d="M270.579,587.009c0,0.319-0.103,0.579-0.308,0.781s-0.467,0.303-0.786,0.303h-4.277
		c-0.319,0-0.58-0.101-0.781-0.303s-0.303-0.462-0.303-0.781v-13.115c0-0.319,0.101-0.579,0.303-0.781s0.462-0.303,0.781-0.303
		h4.277c0.319,0,0.581,0.101,0.786,0.303s0.308,0.462,0.308,0.781V587.009z M269.221,586.891V574.01h-3.74v12.881H269.221z"/>
	<path fill="#1A171B" d="M283.235,588.093h-0.938l-4.082-11.24v11.24h-1.279v-15.283h1.016l4.004,11.045v-11.045h1.279V588.093z"/>
	<path fill="#1A171B" d="M292.014,587.009c0,0.319-0.103,0.579-0.308,0.781s-0.467,0.303-0.786,0.303h-4.16
		c-0.319,0-0.58-0.101-0.781-0.303s-0.303-0.462-0.303-0.781v-14.199h1.357v14.082h3.623v-14.082h1.357V587.009z"/>
	<path fill="#1A171B" d="M300.96,588.093h-1.426l-2.842-8.184l0.186-0.273h2.422v-5.625h-3.487v14.082h-1.357v-15.283h5.118
		c0.318,0,0.579,0.101,0.781,0.303c0.201,0.202,0.303,0.462,0.303,0.781v5.801c0,0.735-0.495,1.104-1.484,1.104
		c-0.098,0-0.241-0.005-0.43-0.015c-0.189-0.01-0.326-0.015-0.41-0.015C299.212,583.203,300.087,585.644,300.96,588.093z"/>
	<path fill="#1A171B" d="M309.368,588.093h-1.494l-3.525-7.344v7.344h-1.357v-15.283h1.357v6.865l3.203-6.865h1.475v0.088
		l-3.457,7.275L309.368,588.093z"/>
	<path fill="#1A171B" d="M317.142,587.009c0,0.319-0.104,0.579-0.309,0.781s-0.467,0.303-0.785,0.303h-4.277
		c-0.319,0-0.58-0.101-0.781-0.303c-0.202-0.202-0.303-0.462-0.303-0.781v-13.115c0-0.319,0.101-0.579,0.303-0.781
		c0.201-0.202,0.462-0.303,0.781-0.303h4.277c0.318,0,0.58,0.101,0.785,0.303s0.309,0.462,0.309,0.781V587.009z M315.784,586.891
		V574.01h-3.74v12.881H315.784z"/>
	<path fill="#1A171B" d="M328.724,572.809l-2.08,15.322h-1.104l-1.66-11.523c-0.007-0.202-0.02-0.501-0.039-0.898
		c0,0.208-0.014,0.508-0.039,0.898l-1.66,11.523h-1.104l-2.08-15.322h1.348l1.299,11.025c0.006,0.247,0.02,0.612,0.039,1.094
		c-0.007-0.247,0.006-0.612,0.039-1.094l1.582-11.025h1.162l1.572,11.025c0.013,0.247,0.025,0.612,0.039,1.094
		c0-0.247,0.016-0.612,0.049-1.094l1.299-11.025H328.724z"/>
	<path fill="#1A171B" d="M336.702,588.093h-1.348l-0.537-3.398h-3.037l-0.537,3.398h-1.309v-0.039l2.725-15.283h1.338
		L336.702,588.093z M334.642,583.493l-1.338-8.281l-1.348,8.281H334.642z"/>
	<path fill="#1A171B" d="M344.661,587.009c0,0.319-0.104,0.579-0.313,0.781s-0.472,0.303-0.791,0.303h-3.936
		c-0.319,0-0.579-0.101-0.781-0.303s-0.303-0.462-0.303-0.781v-13.115c0-0.319,0.101-0.579,0.303-0.781s0.462-0.303,0.781-0.303
		h3.936c0.319,0,0.583,0.101,0.791,0.303s0.313,0.462,0.313,0.781v3.555h-1.367v-3.438h-3.398v12.881h3.398v-3.76h1.367V587.009z"/>
</g>
<g>
</g>
<g>
	<path fill="#1A171B" d="M171.565,612.809l-2.08,15.322h-1.104l-1.66-11.523c-0.006-0.202-0.02-0.501-0.039-0.898
		c0,0.208-0.013,0.508-0.039,0.898l-1.66,11.523h-1.104l-2.08-15.322h1.348l1.299,11.025c0.006,0.247,0.02,0.612,0.039,1.094
		c-0.006-0.247,0.006-0.612,0.039-1.094l1.582-11.025h1.162l1.572,11.025c0.013,0.247,0.026,0.612,0.039,1.094
		c0-0.247,0.016-0.612,0.049-1.094l1.299-11.025H171.565z"/>
	<path fill="#1A171B" d="M183.46,627.009c0,0.319-0.104,0.579-0.313,0.781s-0.472,0.303-0.791,0.303h-4.023
		c-0.319,0-0.578-0.101-0.776-0.303s-0.298-0.462-0.298-0.781v-4.98c0-0.437,0.166-0.762,0.498-0.977l1.484-0.957l-1.445-0.898
		c-0.332-0.208-0.498-0.537-0.498-0.986v-4.316c0-0.319,0.101-0.579,0.303-0.781s0.462-0.303,0.781-0.303h3.955
		c0.319,0,0.58,0.101,0.781,0.303s0.303,0.462,0.303,0.781v4.316c0,0.449-0.169,0.778-0.508,0.986l-1.436,0.898l1.455,0.957
		c0.352,0.228,0.527,0.554,0.527,0.977V627.009z M182.093,626.891v-5.059l-1.738-1.143l-1.738,1.143v5.059H182.093z
		 M182.053,618.395v-4.385h-3.398v4.385l1.699,1.133L182.053,618.395z"/>
	<path fill="#1A171B" d="M196.292,627.009c0,0.319-0.103,0.579-0.308,0.781s-0.467,0.303-0.786,0.303h-4.277
		c-0.319,0-0.58-0.101-0.781-0.303s-0.303-0.462-0.303-0.781v-13.115c0-0.319,0.101-0.579,0.303-0.781s0.462-0.303,0.781-0.303
		h4.277c0.319,0,0.581,0.101,0.786,0.303s0.308,0.462,0.308,0.781V627.009z M194.934,626.891V614.01h-3.74v12.881H194.934z"/>
	<path fill="#1A171B" d="M205.032,625.329c0,0.808-0.265,1.47-0.796,1.987s-1.2,0.776-2.007,0.776h-3.496v-15.283h3.496
		c0.814,0,1.484,0.259,2.012,0.776s0.791,1.18,0.791,1.987V625.329z M203.675,625.192v-9.502c0-0.501-0.158-0.906-0.474-1.216
		s-0.724-0.464-1.226-0.464h-1.885v12.881h1.807c0.527,0,0.956-0.151,1.284-0.454S203.675,625.719,203.675,625.192z"/>
	<path fill="#1A171B" d="M213.372,627.009c0,0.319-0.099,0.579-0.298,0.781s-0.458,0.303-0.776,0.303h-3.848
		c-0.319,0-0.581-0.101-0.786-0.303s-0.308-0.462-0.308-0.781v-3.877h1.357v3.76h3.301v-3.643l-4.219-5.098
		c-0.293-0.352-0.439-0.739-0.439-1.162v-3.096c0-0.319,0.103-0.579,0.308-0.781s0.467-0.303,0.786-0.303h3.848
		c0.319,0,0.578,0.101,0.776,0.303s0.298,0.462,0.298,0.781v3.555h-1.357v-3.438h-3.301v3.223l4.238,5.098
		c0.28,0.339,0.42,0.72,0.42,1.143V627.009z"/>
	<path fill="#1A171B" d="M219.358,620.895l-4.443,3.281v-1.387l4.443-3.271V620.895z M220.657,628.093h-4.883v-15.283h1.357v14.082
		h3.525V628.093z"/>
	<path fill="#1A171B" d="M228.968,627.009c0,0.319-0.103,0.579-0.308,0.781s-0.467,0.303-0.786,0.303h-4.277
		c-0.319,0-0.58-0.101-0.781-0.303s-0.303-0.462-0.303-0.781v-13.115c0-0.319,0.101-0.579,0.303-0.781s0.462-0.303,0.781-0.303
		h4.277c0.319,0,0.581,0.101,0.786,0.303s0.308,0.462,0.308,0.781V627.009z M227.61,626.891V614.01h-3.74v12.881H227.61z"/>
	<path fill="#1A171B" d="M237.708,628.093h-0.938l-4.082-11.24v11.24h-1.279v-15.283h1.016l4.004,11.045v-11.045h1.279V628.093z"/>
	<path fill="#1A171B" d="M246.311,628.093h-1.348l-0.537-3.398h-3.037l-0.537,3.398h-1.309v-0.039l2.725-15.283h1.338
		L246.311,628.093z M244.251,623.493l-1.338-8.281l-1.348,8.281H244.251z"/>
	<path fill="#1A171B" d="M254.27,627.009c0,0.319-0.104,0.579-0.313,0.781s-0.472,0.303-0.791,0.303h-3.936
		c-0.319,0-0.58-0.101-0.781-0.303s-0.303-0.462-0.303-0.781v-13.115c0-0.319,0.101-0.579,0.303-0.781s0.462-0.303,0.781-0.303
		h3.936c0.319,0,0.583,0.101,0.791,0.303s0.313,0.462,0.313,0.781v3.555h-1.367v-3.438h-3.398v12.881h3.398v-3.76h1.367V627.009z"/>
	<path fill="#1A171B" d="M263.04,628.093h-1.357v-7.344h-3.682v7.344h-1.357v-15.283h1.357v6.719h3.682v-6.719h1.357V628.093z"/>
</g>
<polygon fill="#1A171B" points="343.062,571.828 341.596,569.592 339.76,569.592 339.76,569.631 342.163,571.886 343.062,571.886 
	"/>
</svg>
