<?xml version="1.0" encoding="utf-8"?>
<!-- Generator: Adobe Illustrator 14.0.0, SVG Export Plug-In . SVG Version: 6.00 Build 43363)  -->
<!DOCTYPE svg PUBLIC "-//W3C//DTD SVG 1.1//EN" "http://www.w3.org/Graphics/SVG/1.1/DTD/svg11.dtd">
<svg version="1.1" id="Warstwa_1" xmlns="http://www.w3.org/2000/svg" xmlns:xlink="http://www.w3.org/1999/xlink" x="0px" y="0px"
	 width="255.118px" height="141.732px" viewBox="0 0 255.118 141.732" enable-background="new 0 0 255.118 141.732"
	 xml:space="preserve">
<rect y="0" fill="#FFFFFF" width="255.118" height="141.732"/>
<rect y="24" fill="#87888A" width="255.118" height="96.378"/>
<g>
	<defs>
		<rect id="SVGID_1_" y="0" width="255.118" height="141.732"/>
	</defs>
	<clipPath id="SVGID_2_">
		<use xlink:href="#SVGID_1_"  overflow="visible"/>
	</clipPath>
	<path clip-path="url(#SVGID_2_)" d="M229.477,82.801l-0.81,3.243c0,0-0.504-2.035-0.672-2.38c-0.168-0.343-0.142-0.643-0.142-0.643
		L229.477,82.801z M306.609,107.409l-0.81-0.031c-0.81-0.032-5.451-1.221-5.451-1.221s-9.03-21.151-9.466-21.949
		c-0.436-0.8-0.759-1.416-1.178-1.784s-1.581-4.899-1.91-6.331c-0.328-1.434-1.203-2.008-1.503-2.208
		c-0.299-0.2-11.836-2.965-11.836-2.965s-6.801-1.764-7.916-2.137c-1.115-0.374-7.874-4.337-7.874-4.337l-3.017-0.697l0.082-0.524
		l-9.087-13.685l-10.428-6.709l-4.93-1.139l-2.324-1.854l-8.095-1.869l-0.113,0.323l-1.251-0.289l-0.328,1.087l3.346,5.152
		l-10.233,12.597l2.555,3.031c0,0,8.86-6.48,9.729-7.055c0.869-0.574,1.545-0.651,2.168-0.662c0.623-0.011,1.268-0.289,1.268-0.289
		s3.379,3.997,4.325,5.107c0.945,1.109,0.662,2.168,0.662,2.168l-1.784,7.727c0,0-0.666,3.722-0.533,4.993
		c0.134,1.271,1.396,1.678,1.396,1.678l-1.129,4.391c0,0-3.525,1.271-4.186,1.696c-1.249,0.809-2.054,1.393-2.218,1.913
		c-0.069,0.22,0.671,5.438,0.9,6.126c0.228,0.69,0.574,3.893,0.574,3.893l-1.622,2.493c0,0-4.845,8.222-5.155,8.731
		c-0.313,0.509,0.82,0.81,0.82,0.81s9.817-12.499,11.277-14.604c1.46-2.104,6.898-6.546,6.898-6.546s22.1,5.839,23.011,6.088
		s2.188-0.58,3.535-0.54c1.348,0.039,2.641,0.145,2.641,0.145s3.646,5.53,4.5,7.2c0.854,1.671,1.29,3.98,1.29,3.98
		s-4.194,2.054-5.803,2.807c-1.607,0.753-7.526,4.231-8.619,4.6c-1.092,0.368-3.934,2.269-3.934,2.269s0.774,0.334,1.438,0.487
		c0.662,0.153,2.539-0.421,3.143-0.515c0.602-0.094,16.229-5.671,16.229-5.671l2.216-4.564l1.6,2.307c0,0-1.598,3.895-2.375,5.923
		c-0.779,2.03-4.756,10.025-4.756,10.025l1.239,0.17c0,0,3.246-2.815,4.758-4.662c1.512-1.846,4.759-6.008,4.759-6.008l0.356-3.56
		c0,0-0.281-4.484,0.176-5.968c0.459-1.482,2.831-6.051,2.831-6.051s0.508,0.66,1.592,4.359c1.083,3.7,3.877,6.205,5.597,8.151
		c1.721,1.948,5.35,4.026,6.006,4.371c0.657,0.346,1.778,0.527,2.513,0.696C302.912,108.648,306.609,107.409,306.609,107.409"/>
	<path clip-path="url(#SVGID_2_)" fill="#9C9E9F" d="M273.976,70.799c0,0-6.329-1.645-7.444-2.019s-7.871-4.336-7.871-4.336
		L241.688,80.89l22.877-0.792l4.582-6.553L273.976,70.799z"/>
	<path clip-path="url(#SVGID_2_)" fill="#9C9E9F" d="M231.21,66.865c0,0-0.665,3.722-0.533,4.993
		c0.133,1.271,1.396,1.678,1.396,1.678l9.528,6.432l14.047-16.219L231.21,66.865z"/>
	<path clip-path="url(#SVGID_2_)" fill="#9C9E9F" d="M233.71,76.977l-2.768,0.95l-4.184,1.696c0,0-3.239,1.272-3.403,1.794
		c-0.07,0.219,1.855,5.557,2.084,6.245c0.128,0.688,1.008,6.851,1.008,6.851l0.354-1.831l-1.355-10.753l16.113-1.047L233.71,76.977z
		"/>
	<polygon clip-path="url(#SVGID_2_)" fill="#FFDD00" points="231.363,66.019 250.211,61.781 235.122,49.527 	"/>
	<path clip-path="url(#SVGID_2_)" fill="#9C9E9F" d="M227.305,43.579l6.652,5.26l-1.82,5.41c0,0-1.846-2.649-2.15-3.711
		C229.683,49.477,227.305,43.579,227.305,43.579"/>
	<polygon clip-path="url(#SVGID_2_)" fill="#9C9E9F" points="255.731,63.225 246.644,49.539 236.216,42.83 231.287,41.692 
		228.286,42.7 234.474,47.33 236.11,43.394 235.556,48.111 	"/>
	<polygon clip-path="url(#SVGID_2_)" fill="#9C9E9F" points="222.473,44.23 212.288,56.838 213.644,58.43 227.235,48.298 
		225.854,43.701 	"/>
	<polygon clip-path="url(#SVGID_2_)" fill="#9C9E9F" points="225.591,42.563 219.175,39.089 222.521,44.241 	"/>
	<polygon clip-path="url(#SVGID_2_)" fill="#9C9E9F" points="226.658,41.628 228.962,39.837 220.869,37.969 220.753,38.282 	"/>
</g>
<g>
	<defs>
		<rect id="SVGID_3_" x="18.234" y="94.43" width="37.926" height="9.674"/>
	</defs>
	<clipPath id="SVGID_4_">
		<use xlink:href="#SVGID_3_"  overflow="visible"/>
	</clipPath>
	<rect x="18.234" y="94.43" clip-path="url(#SVGID_4_)" fill="#87888A" width="37.926" height="9.674"/>
	<g clip-path="url(#SVGID_4_)">
		<path fill="#666465" d="M18.234,102.451c0.364-0.127,0.406-0.238,0.406-0.925v-4.805c-0.014-0.393-0.098-0.519-0.406-0.645v-1.484
			h4.09c1.485,0,2.899,0.476,2.899,2.997v0.322c0,2.689-1.176,3.25-3.053,3.25h-1.009v0.435c0,0.546,0.042,0.7,0.476,0.854v1.484
			h-3.404V102.451z M21.162,99.397h0.574c0.672-0.015,0.953-0.295,0.953-1.051v-0.953c0-0.714-0.266-1.036-0.938-1.036h-0.588
			V99.397z"/>
		<path fill="#666465" d="M26.004,102.451c0.351-0.127,0.406-0.267,0.406-0.925v-4.749c0-0.462-0.084-0.588-0.406-0.7v-1.484h6.752
			v2.997h-2.367v-0.392c0-0.616-0.182-0.841-0.729-0.841h-0.729v1.891h1.989v1.709h-1.989v2.214h0.561
			c0.756,0,0.896-0.154,0.896-0.925v-0.574h2.367v3.264h-6.752V102.451z"/>
		<path fill="#666465" d="M40.456,97.8h-2.451v-0.77c0-0.547-0.252-0.841-0.7-0.841c-0.546,0-0.813,0.406-0.813,1.162v3.544
			c0,1.037,0.21,1.443,0.84,1.443c0.462,0,0.714-0.252,0.714-0.896v-0.953h-0.714v-1.751h3.138v4.427
			c-0.756,0.631-1.779,0.938-3.18,0.938c-2.802,0-3.348-1.331-3.348-3.151v-3.432c0-1.835,0.644-3.096,3.235-3.096
			c1.289,0,2.41,0.308,3.278,0.91V97.8z"/>
		<path fill="#666465" d="M46.825,94.593l1.485,6.892c0.14,0.658,0.266,0.868,0.504,0.967v1.484h-3.278v-1.484
			c0.238-0.112,0.308-0.28,0.308-0.505c0-0.14-0.084-0.42-0.112-0.561h-1.681c-0.014,0.112-0.098,0.393-0.098,0.589
			c0,0.224,0.098,0.406,0.35,0.477v1.484h-2.899v-1.484c0.238-0.169,0.308-0.322,0.406-0.869l1.429-6.989H46.825z M45.453,99.846
			l-0.378-1.947c-0.07-0.336-0.14-0.673-0.21-1.247h-0.042c-0.028,0.393-0.098,0.813-0.168,1.232l-0.35,1.962H45.453z"/>
		<path fill="#666465" d="M49.468,102.437l3.558-6.079h-0.714c-0.729,0-0.896,0.183-0.896,0.868v0.938h-1.849v-3.571h6.527v1.442
			l-3.53,6.107h0.771c0.896,0,0.953-0.224,0.953-1.177v-0.714h1.891v3.684h-6.71V102.437z"/>
	</g>
</g>
<g>
	<defs>
		<rect id="SVGID_5_" x="59.98" y="99.936" width="24.28" height="5.407"/>
	</defs>
	<clipPath id="SVGID_6_">
		<use xlink:href="#SVGID_5_"  overflow="visible"/>
	</clipPath>
	<rect x="59.98" y="99.936" clip-path="url(#SVGID_6_)" fill="#87888A" width="24.279" height="5.408"/>
	<g clip-path="url(#SVGID_6_)">
		<path fill="#6F7072" d="M62.282,100.993h-0.368v-0.439c0-0.2-0.256-0.272-0.696-0.272c-0.616,0-0.872,0.28-0.872,0.664
			c0,0.416,0.2,0.535,1,0.8c0.76,0.247,1.023,0.56,1.023,1.127c0,0.615-0.344,1.144-1.271,1.144c-0.4,0-0.792-0.104-1.111-0.32
			v-0.871h0.368v0.512c0,0.264,0.416,0.344,0.728,0.344c0.608,0,0.912-0.319,0.912-0.783c0-0.393-0.136-0.616-0.84-0.824
			c-0.799-0.239-1.175-0.495-1.175-1.095c0-0.664,0.472-1.032,1.248-1.032c0.408,0,0.839,0.089,1.055,0.208V100.993z"/>
		<path fill="#6F7072" d="M63.036,105.007c0.24,0,0.264-0.056,0.264-0.279v-4.094c0-0.225-0.024-0.28-0.264-0.28v-0.336h0.631v0.344
			c0.312-0.248,0.68-0.399,1.032-0.399c1.023,0,1.359,0.615,1.359,1.615v0.848c0,0.983-0.384,1.574-1.319,1.574
			c-0.496,0-0.864-0.231-1.072-0.399v1.128c0,0.224,0.016,0.279,0.264,0.279v0.336h-0.896V105.007z M63.667,103.216
			c0.24,0.264,0.64,0.448,1.04,0.448c0.848,0,0.983-0.584,0.983-1.407v-0.552c0-1.224-0.432-1.407-0.983-1.407
			c-0.4,0-0.744,0.151-1.04,0.447V103.216z"/>
		<path fill="#6F7072" d="M67.155,103.336c0.176,0,0.328,0.136,0.328,0.319c0,0.185-0.152,0.32-0.328,0.32s-0.32-0.136-0.32-0.32
			C66.835,103.472,66.979,103.336,67.155,103.336z"/>
		<path fill="#6F7072" d="M72.466,100.321l-2.271,3.278h1.607c0.384,0,0.408,0,0.408-0.312v-0.616h0.368v1.264h-2.854v-0.304
			l2.263-3.278h-1.503c-0.264,0-0.28,0.032-0.28,0.24v0.703h-0.368v-1.279h2.631V100.321z"/>
		<path fill="#6F7072" d="M74.916,101.617c0-0.904,0.231-1.68,1.423-1.68c1.127,0,1.432,0.672,1.432,1.728v0.632
			c0,1.007-0.256,1.719-1.423,1.719c-1.12,0-1.431-0.655-1.431-1.719V101.617z M77.402,101.608c0-0.943-0.312-1.335-1.063-1.335
			c-0.64,0-1.055,0.248-1.055,1.375v0.648c0,1.055,0.352,1.383,1.055,1.383c0.752,0,1.063-0.368,1.063-1.352V101.608z"/>
		<path fill="#6F7072" d="M78.867,103.336c0.176,0,0.328,0.136,0.328,0.319c0,0.185-0.152,0.32-0.328,0.32s-0.32-0.136-0.32-0.32
			C78.547,103.472,78.691,103.336,78.867,103.336z"/>
		<path fill="#6F7072" d="M79.979,101.617c0-0.904,0.232-1.68,1.423-1.68c1.127,0,1.431,0.672,1.431,1.728v0.632
			c0,1.007-0.256,1.719-1.423,1.719c-1.12,0-1.431-0.655-1.431-1.719V101.617z M82.466,101.608c0-0.943-0.312-1.335-1.063-1.335
			c-0.64,0-1.055,0.248-1.055,1.375v0.648c0,1.055,0.352,1.383,1.055,1.383c0.752,0,1.063-0.368,1.063-1.352V101.608z"/>
		<path fill="#6F7072" d="M83.931,103.336c0.176,0,0.328,0.136,0.328,0.319c0,0.185-0.152,0.32-0.328,0.32s-0.32-0.136-0.32-0.32
			C83.611,103.472,83.755,103.336,83.931,103.336z"/>
	</g>
</g>
</svg>
