<?xml version="1.0" encoding="utf-8"?>
<!-- Generator: Adobe Illustrator 14.0.0, SVG Export Plug-In . SVG Version: 6.00 Build 43363)  -->
<!DOCTYPE svg PUBLIC "-//W3C//DTD SVG 1.1//EN" "http://www.w3.org/Graphics/SVG/1.1/DTD/svg11.dtd">
<svg version="1.1" id="Warstwa_1" xmlns="http://www.w3.org/2000/svg" xmlns:xlink="http://www.w3.org/1999/xlink" x="0px" y="0px"
	 width="255.118px" height="141.732px" viewBox="0 0 255.118 141.732" enable-background="new 0 0 255.118 141.732"
	 xml:space="preserve">
<rect y="0" fill="#FFFFFF" width="255.118" height="141.732"/>
<rect x="24.378" y="24" fill="#87888A" width="90.425" height="96.378"/>
<polygon points="86.801,65.901 93.985,69.741 109.412,66.124 219.118,17.008 167.706,27.479 182.281,17.237 161.739,28.686 
	135.45,34.036 145.225,24.937 130.083,35.171 115.245,38.198 119.034,31.758 110.829,39.102 99.016,41.512 101.032,33.279 
	94.395,42.455 83.351,44.709 "/>
<g>
	<defs>
		<rect id="SVGID_1_" y="0" width="255.118" height="141.732"/>
	</defs>
	<clipPath id="SVGID_2_">
		<use xlink:href="#SVGID_1_"  overflow="visible"/>
	</clipPath>
	<path clip-path="url(#SVGID_2_)" d="M57.555,82.801l-0.809,3.243c0,0-0.504-2.035-0.672-2.38c-0.168-0.343-0.142-0.643-0.142-0.643
		L57.555,82.801z M134.687,107.409l-0.809-0.031c-0.81-0.032-5.452-1.221-5.452-1.221s-9.03-21.151-9.465-21.949
		c-0.436-0.8-0.759-1.416-1.178-1.784c-0.419-0.368-1.581-4.899-1.91-6.331c-0.328-1.434-1.203-2.008-1.503-2.208
		c-0.299-0.2-11.836-2.965-11.836-2.965s-6.801-1.764-7.916-2.137c-1.115-0.374-7.874-4.337-7.874-4.337l-3.017-0.697l0.082-0.524
		L74.722,49.54l-10.427-6.709l-4.93-1.139l-2.324-1.854l-8.095-1.869l-0.113,0.323l-1.251-0.289l-0.328,1.087l3.345,5.152
		L40.366,56.838l2.555,3.031c0,0,8.86-6.48,9.729-7.055c0.869-0.574,1.545-0.651,2.168-0.662c0.623-0.011,1.268-0.289,1.268-0.289
		s3.379,3.997,4.325,5.107c0.945,1.109,0.662,2.168,0.662,2.168l-1.784,7.727c0,0-0.666,3.722-0.533,4.993
		c0.133,1.271,1.395,1.678,1.395,1.678l-1.129,4.391c0,0-3.525,1.271-4.185,1.696c-1.249,0.809-2.054,1.393-2.218,1.913
		c-0.07,0.22,0.671,5.438,0.9,6.126c0.228,0.69,0.574,3.893,0.574,3.893l-1.622,2.493c0,0-4.844,8.222-5.155,8.731
		c-0.312,0.509,0.82,0.81,0.82,0.81s9.818-12.499,11.278-14.604c1.46-2.104,6.898-6.546,6.898-6.546s22.1,5.839,23.011,6.088
		c0.911,0.249,2.188-0.58,3.535-0.54c1.348,0.039,2.641,0.145,2.641,0.145s3.645,5.53,4.5,7.2c0.854,1.671,1.29,3.98,1.29,3.98
		s-4.195,2.054-5.803,2.807c-1.607,0.753-7.526,4.231-8.619,4.6c-1.092,0.368-3.934,2.269-3.934,2.269s0.775,0.334,1.438,0.487
		c0.662,0.153,2.539-0.421,3.142-0.515c0.602-0.094,16.23-5.671,16.23-5.671l2.216-4.564l1.599,2.307c0,0-1.597,3.895-2.375,5.923
		c-0.779,2.03-4.756,10.025-4.756,10.025l1.24,0.17c0,0,3.246-2.815,4.758-4.662c1.511-1.846,4.758-6.008,4.758-6.008l0.357-3.56
		c0,0-0.282-4.484,0.176-5.968c0.459-1.482,2.831-6.051,2.831-6.051s0.507,0.66,1.591,4.359c1.083,3.7,3.877,6.205,5.597,8.151
		c1.721,1.948,5.35,4.026,6.006,4.371c0.657,0.346,1.778,0.527,2.514,0.696C130.991,108.648,134.687,107.409,134.687,107.409"/>
	<path clip-path="url(#SVGID_2_)" fill="#9C9E9F" d="M118.224,87.861c0,0,1.31,6.119,2.394,9.818c1.084,3.698,6.6,8.781,7.257,9.126
		c0.657,0.345,1.945,0.538,2.699,0.584c0.86,0.053,4.113,0.021,4.113,0.021l-0.81-0.032c-0.809-0.031-5.45-1.219-5.45-1.219
		s-9.031-21.148-9.467-21.946c-0.436-0.799-1.177-1.783-1.177-1.783L118.224,87.861z"/>
	<path clip-path="url(#SVGID_2_)" fill="#9C9E9F" d="M95.9,80.085l2.581,4.229l11.243,16.685c0,0,1.534-2.563,1.993-4.047
		c0.459-1.482,2.831-6.051,2.831-6.051l1.565-2.08c0,0,2.09-6.028,1.671-6.396c-0.419-0.368-1.582-4.899-1.91-6.331
		c-0.328-1.434-1.203-2.008-1.503-2.208c-0.3-0.2-11.836-2.965-11.836-2.965l-4.32,3.014L95.9,80.085z"/>
	<path clip-path="url(#SVGID_2_)" fill="#9C9E9F" d="M110.319,103.517l-2.8-2.449c0,0-1.585,3.979-2.359,5.988
		c-0.774,2.009-4.732,9.923-4.732,9.923l1.239,0.171l9.86-14.191l-0.056-3.396L110.319,103.517z"/>
	<path clip-path="url(#SVGID_2_)" fill="#9C9E9F" d="M102.055,70.799c0,0-6.329-1.645-7.444-2.019
		c-1.115-0.374-7.871-4.336-7.871-4.336L69.767,80.89l22.877-0.792l4.582-6.553L102.055,70.799z"/>
	<path clip-path="url(#SVGID_2_)" fill="#9C9E9F" d="M59.289,66.865c0,0-0.665,3.722-0.533,4.993
		c0.133,1.271,1.396,1.678,1.396,1.678l9.529,6.432l14.046-16.219L59.289,66.865z"/>
	<path clip-path="url(#SVGID_2_)" fill="#9C9E9F" d="M61.79,76.977l-2.768,0.95l-4.184,1.696c0,0-3.239,1.272-3.403,1.794
		c-0.07,0.219,1.856,5.557,2.084,6.245c0.128,0.688,1.008,6.851,1.008,6.851l0.353-1.831l-1.355-10.753l16.113-1.047L61.79,76.977z"
		/>
	<polygon clip-path="url(#SVGID_2_)" fill="#FFDD00" points="59.442,66.019 78.29,61.781 63.2,49.527 	"/>
	<path clip-path="url(#SVGID_2_)" fill="#9C9E9F" d="M55.384,43.579l6.652,5.26l-1.82,5.41c0,0-1.846-2.649-2.15-3.711
		C57.762,49.477,55.384,43.579,55.384,43.579"/>
	<polygon clip-path="url(#SVGID_2_)" fill="#9C9E9F" points="83.81,63.225 74.722,49.539 64.295,42.83 59.365,41.692 56.364,42.7 
		62.553,47.33 64.188,43.394 63.635,48.111 	"/>
	<polygon clip-path="url(#SVGID_2_)" fill="#9C9E9F" points="50.552,44.23 40.366,56.838 41.723,58.43 55.313,48.298 53.933,43.701 
			"/>
	<polygon clip-path="url(#SVGID_2_)" fill="#9C9E9F" points="53.67,42.563 47.254,39.089 50.6,44.241 	"/>
	<polygon clip-path="url(#SVGID_2_)" fill="#9C9E9F" points="54.736,41.628 57.041,39.837 48.947,37.969 48.832,38.282 	"/>
	<polygon clip-path="url(#SVGID_2_)" fill="#9C9E9F" points="94.957,67.46 96.183,68.106 216.252,17.849 164.439,32.233 	"/>
	<polygon clip-path="url(#SVGID_2_)" fill="#9C9E9F" points="92.608,66.116 93.898,66.833 146.89,38.282 182.265,17.206 
		135.005,36.77 	"/>
	<polygon clip-path="url(#SVGID_2_)" fill="#9C9E9F" points="90.694,65.074 91.621,65.578 145.309,24.861 113.695,40.982 	"/>
	<polygon clip-path="url(#SVGID_2_)" fill="#9C9E9F" points="88.99,64.113 90.021,64.663 119.115,31.623 99.828,43.674 	"/>
	<polygon clip-path="url(#SVGID_2_)" fill="#9C9E9F" points="87.447,63.332 88.338,63.782 101.029,33.141 88.792,46.246 	"/>
</g>
<g>
	<path d="M157.614,90.521c0.364-0.127,0.406-0.238,0.406-0.925v-4.805c-0.015-0.393-0.099-0.519-0.406-0.645v-1.484h4.09
		c1.485,0,2.899,0.476,2.899,2.997v0.322c0,2.689-1.177,3.25-3.054,3.25h-1.008v0.435c0,0.546,0.042,0.7,0.476,0.854v1.484h-3.403
		V90.521z M160.542,87.467h0.574c0.672-0.015,0.952-0.295,0.952-1.051v-0.953c0-0.714-0.267-1.036-0.938-1.036h-0.588V87.467z"/>
	<path d="M165.383,90.521c0.35-0.127,0.406-0.267,0.406-0.925v-4.749c0-0.462-0.084-0.588-0.406-0.7v-1.484h6.751v2.997h-2.367
		v-0.392c0-0.616-0.182-0.841-0.729-0.841h-0.728v1.891h1.988v1.709h-1.988v2.214h0.56c0.757,0,0.896-0.154,0.896-0.925v-0.574
		h2.367v3.264h-6.751V90.521z"/>
	<path d="M179.835,85.869h-2.452V85.1c0-0.547-0.252-0.841-0.7-0.841c-0.546,0-0.813,0.406-0.813,1.162v3.544
		c0,1.037,0.211,1.443,0.841,1.443c0.462,0,0.715-0.252,0.715-0.896v-0.953h-0.715v-1.751h3.138v4.427
		c-0.757,0.631-1.779,0.938-3.18,0.938c-2.802,0-3.348-1.331-3.348-3.151V85.59c0-1.835,0.645-3.096,3.235-3.096
		c1.289,0,2.409,0.308,3.278,0.91V85.869z"/>
	<path d="M186.205,82.662l1.484,6.892c0.14,0.658,0.267,0.868,0.504,0.967v1.484h-3.277v-1.484c0.238-0.112,0.308-0.28,0.308-0.505
		c0-0.14-0.084-0.42-0.111-0.561h-1.682c-0.014,0.112-0.098,0.393-0.098,0.589c0,0.224,0.098,0.406,0.351,0.477v1.484h-2.899v-1.484
		c0.237-0.169,0.308-0.322,0.405-0.869l1.43-6.989H186.205z M184.832,87.915l-0.378-1.947c-0.07-0.336-0.141-0.673-0.211-1.247
		h-0.042c-0.027,0.393-0.098,0.813-0.168,1.233l-0.35,1.961H184.832z"/>
	<path d="M188.847,90.506l3.558-6.079h-0.715c-0.728,0-0.896,0.182-0.896,0.868v0.938h-1.849v-3.571h6.527v1.442l-3.529,6.107h0.771
		c0.896,0,0.952-0.225,0.952-1.177v-0.714h1.891v3.684h-6.709V90.506z"/>
</g>
<g>
</g>
<g>
	<path d="M201.661,89.063h-0.367v-0.439c0-0.2-0.256-0.272-0.696-0.272c-0.615,0-0.871,0.28-0.871,0.664
		c0,0.416,0.199,0.535,0.999,0.8c0.76,0.247,1.023,0.56,1.023,1.127c0,0.616-0.344,1.144-1.271,1.144
		c-0.399,0-0.791-0.104-1.111-0.32v-0.871h0.368v0.512c0,0.264,0.416,0.344,0.728,0.344c0.607,0,0.911-0.32,0.911-0.783
		c0-0.393-0.136-0.616-0.839-0.824c-0.8-0.239-1.176-0.495-1.176-1.095c0-0.664,0.472-1.032,1.247-1.032
		c0.408,0,0.84,0.088,1.056,0.208V89.063z"/>
	<path d="M202.414,93.076c0.24,0,0.265-0.056,0.265-0.279v-4.094c0-0.225-0.024-0.28-0.265-0.28v-0.336h0.632v0.344
		c0.313-0.248,0.68-0.399,1.031-0.399c1.023,0,1.359,0.615,1.359,1.615v0.848c0,0.983-0.384,1.575-1.319,1.575
		c-0.495,0-0.863-0.232-1.071-0.4v1.128c0,0.224,0.017,0.279,0.264,0.279v0.336h-0.896V93.076z M203.045,91.285
		c0.24,0.264,0.64,0.448,1.04,0.448c0.847,0,0.983-0.584,0.983-1.407v-0.552c0-1.224-0.432-1.407-0.983-1.407
		c-0.4,0-0.744,0.151-1.04,0.447V91.285z"/>
	<path d="M206.535,91.405c0.176,0,0.327,0.136,0.327,0.319c0,0.185-0.151,0.32-0.327,0.32c-0.177,0-0.32-0.136-0.32-0.32
		C206.214,91.541,206.358,91.405,206.535,91.405z"/>
	<path d="M211.844,88.391l-2.271,3.278h1.607c0.384,0,0.407,0,0.407-0.312v-0.616h0.368v1.264h-2.854v-0.304l2.263-3.278h-1.503
		c-0.264,0-0.28,0.032-0.28,0.24v0.703h-0.367v-1.279h2.63V88.391z"/>
	<path d="M214.293,89.687c0-0.904,0.232-1.68,1.424-1.68c1.127,0,1.431,0.672,1.431,1.728v0.632c0,1.007-0.256,1.719-1.423,1.719
		c-1.119,0-1.432-0.656-1.432-1.719V89.687z M216.781,89.678c0-0.943-0.313-1.335-1.063-1.335c-0.64,0-1.056,0.248-1.056,1.375
		v0.648c0,1.055,0.352,1.383,1.056,1.383c0.751,0,1.063-0.368,1.063-1.352V89.678z"/>
	<path d="M218.246,91.405c0.176,0,0.327,0.136,0.327,0.319c0,0.185-0.151,0.32-0.327,0.32c-0.177,0-0.32-0.136-0.32-0.32
		C217.925,91.541,218.069,91.405,218.246,91.405z"/>
	<path d="M219.357,89.687c0-0.904,0.232-1.68,1.424-1.68c1.127,0,1.431,0.672,1.431,1.728v0.632c0,1.007-0.256,1.719-1.423,1.719
		c-1.119,0-1.432-0.656-1.432-1.719V89.687z M221.844,89.678c0-0.943-0.313-1.335-1.063-1.335c-0.64,0-1.056,0.248-1.056,1.375
		v0.648c0,1.055,0.352,1.383,1.056,1.383c0.751,0,1.063-0.368,1.063-1.352V89.678z"/>
	<path d="M223.31,91.405c0.176,0,0.327,0.136,0.327,0.319c0,0.185-0.151,0.32-0.327,0.32c-0.177,0-0.32-0.136-0.32-0.32
		C222.99,91.541,223.133,91.405,223.31,91.405z"/>
</g>
<g>
	<path d="M158.045,105.999h0.672v0.336h-0.672v2.702c0,0.416,0.216,0.544,0.584,0.544h0.12v0.336h-0.192
		c-0.543,0-0.879-0.271-0.879-0.84v-2.742h-0.368v-0.336h0.368v-1.111l0.367-0.072V105.999z"/>
	<path d="M159.694,107.974v0.488c0,0.76,0.319,1.199,1.096,1.199c0.56,0,0.863-0.128,0.863-0.392v-0.479h0.367v0.903
		c-0.327,0.184-0.688,0.304-1.223,0.304c-1.176,0-1.472-0.712-1.472-1.551v-0.936c0-1.111,0.544-1.592,1.392-1.592
		c0.88,0,1.359,0.528,1.359,1.487v0.567H159.694z M161.708,107.639v-0.256c-0.016-0.704-0.296-1.128-0.983-1.128
		c-0.703,0-1.031,0.472-1.031,1.224v0.16H161.708z"/>
	<path d="M162.797,109.581c0.24,0,0.265-0.056,0.265-0.279v-4.103c0-0.224-0.024-0.279-0.265-0.279v-0.336h0.632v4.718
		c0,0.224,0.017,0.279,0.265,0.279v0.336h-0.896V109.581z"/>
	<path d="M164.734,109.317c0.176,0,0.327,0.136,0.327,0.319c0,0.185-0.151,0.32-0.327,0.32c-0.177,0-0.32-0.136-0.32-0.32
		C164.414,109.453,164.557,109.317,164.734,109.317z"/>
	<path d="M166.07,106.295c0.176,0,0.327,0.136,0.327,0.32c0,0.184-0.151,0.319-0.327,0.319c-0.177,0-0.32-0.136-0.32-0.319
		C165.75,106.431,165.893,106.295,166.07,106.295z M166.07,109.317c0.176,0,0.327,0.136,0.327,0.319c0,0.185-0.151,0.32-0.327,0.32
		c-0.177,0-0.32-0.136-0.32-0.32C165.75,109.453,165.893,109.317,166.07,109.317z"/>
	<path d="M177.26,110.74c-0.896-0.815-1.559-2.078-1.559-3.518c0-1.367,0.663-2.646,1.559-3.462l0.216,0.144
		c-1.015,1.111-1.391,2.087-1.391,3.271c0,1.327,0.376,2.311,1.391,3.438L177.26,110.74z"/>
	<path d="M180.931,108.229c0,1.184-0.392,1.791-1.455,1.791c-1.079,0-1.455-0.575-1.455-1.791v-1.942
		c0-1.159,0.376-1.799,1.455-1.799c1.159,0.008,1.455,0.671,1.455,1.799V108.229z M178.405,108.238c0,1.007,0.28,1.438,1.071,1.438
		c0.792,0,1.071-0.447,1.071-1.447v-1.959c0-0.999-0.256-1.438-1.071-1.438c-0.791,0-1.071,0.447-1.071,1.455V108.238z"/>
	<path d="M184.236,107.926h0.68v0.36h-0.68v1.016c0,0.224,0.017,0.279,0.264,0.279v0.336h-0.896v-0.336
		c0.24,0,0.264-0.056,0.264-0.279v-1.016h-2.143v-0.256l2.143-3.446h0.368V107.926z M183.868,105.224l-1.694,2.702h1.694V105.224z"
		/>
	<path d="M185.614,105.791c0-0.896,0.552-1.303,1.423-1.303c0.823,0,1.375,0.392,1.375,1.311c0,0.64-0.287,1.104-0.783,1.216
		c0.552,0.152,0.888,0.527,0.888,1.415c0,1.079-0.48,1.591-1.487,1.591c-1.104,0-1.512-0.583-1.52-1.623
		c-0.008-0.855,0.336-1.23,0.88-1.383C185.901,106.902,185.614,106.447,185.614,105.791z M188.132,108.422
		c0-0.76-0.28-1.216-1.12-1.216c-0.815,0-1.119,0.408-1.119,1.208v0.08c0,0.688,0.272,1.183,1.119,1.183
		c0.776,0,1.12-0.407,1.12-1.151V108.422z M188.028,105.735c0-0.567-0.359-0.903-0.983-0.903c-0.688,0-1.047,0.312-1.047,0.919
		v0.072c0,0.655,0.376,1.039,1.023,1.039c0.623,0,1.007-0.375,1.007-1.031V105.735z"/>
	<path d="M189.198,103.761c0.896,0.815,1.559,2.095,1.559,3.462c0,1.439-0.663,2.702-1.559,3.518l-0.216-0.128
		c1.015-1.127,1.391-2.11,1.391-3.438c0-1.184-0.376-2.159-1.391-3.271L189.198,103.761z"/>
	<path d="M197.292,105.879h-0.385v-0.632c0-0.271-0.432-0.415-0.927-0.415c-0.983,0-1.136,0.632-1.136,1.455v0.607
		c0.24-0.319,0.607-0.487,1.119-0.487c1.151,0,1.407,0.831,1.407,1.743v0.159c0,0.936-0.256,1.711-1.455,1.711
		c-1.127,0-1.455-0.64-1.455-1.791v-1.942c0-1.031,0.264-1.799,1.503-1.799c0.584,0,1.072,0.199,1.328,0.407V105.879z
		 M194.844,108.278c0,1.039,0.312,1.398,1.071,1.398c0.928,0,1.088-0.631,1.088-1.367v-0.224c0-0.911-0.32-1.335-1.096-1.335
		c-0.688,0-1.063,0.376-1.063,1.199V108.278z"/>
	<path d="M201.067,108.229c0,1.184-0.392,1.791-1.455,1.791c-1.079,0-1.455-0.575-1.455-1.791v-1.942
		c0-1.159,0.376-1.799,1.455-1.799c1.159,0.008,1.455,0.671,1.455,1.799V108.229z M198.541,108.238c0,1.007,0.28,1.438,1.071,1.438
		c0.792,0,1.071-0.447,1.071-1.447v-1.959c0-0.999-0.256-1.438-1.071-1.438c-0.791,0-1.071,0.447-1.071,1.455V108.238z"/>
	<path d="M204.851,108.229c0,1.184-0.392,1.791-1.455,1.791c-1.079,0-1.455-0.575-1.455-1.791v-1.942
		c0-1.159,0.376-1.799,1.455-1.799c1.159,0.008,1.455,0.671,1.455,1.799V108.229z M202.325,108.238c0,1.007,0.28,1.438,1.071,1.438
		c0.792,0,1.071-0.447,1.071-1.447v-1.959c0-0.999-0.256-1.438-1.071-1.438c-0.791,0-1.071,0.447-1.071,1.455V108.238z"/>
	<path d="M205.661,108.054v-0.392h1.703v0.392H205.661z"/>
	<path d="M208.252,104.896c0.248-0.208,0.752-0.407,1.327-0.407c0.968,0,1.407,0.447,1.407,1.303c0,0.656-0.256,1.151-0.991,1.239
		c0.735,0.024,1.096,0.552,1.096,1.399c0,0.968-0.416,1.591-1.535,1.591c-0.704,0-1.088-0.231-1.344-0.455v-1.088h0.384v0.696
		c0,0.352,0.528,0.503,0.992,0.503c0.823,0,1.111-0.567,1.111-1.223c0-0.712-0.256-1.239-1.224-1.239h-0.328v-0.344h0.256
		c0.92,0,1.199-0.504,1.199-1.08c0-0.535-0.239-0.959-1.039-0.959c-0.399,0-0.928,0.128-0.928,0.399v0.647h-0.384V104.896z"/>
	<path d="M214.859,108.229c0,1.184-0.392,1.791-1.455,1.791c-1.079,0-1.455-0.575-1.455-1.791v-1.942
		c0-1.159,0.376-1.799,1.455-1.799c1.159,0.008,1.455,0.671,1.455,1.799V108.229z M212.333,108.238c0,1.007,0.28,1.438,1.071,1.438
		c0.792,0,1.071-0.447,1.071-1.447v-1.959c0-0.999-0.256-1.438-1.071-1.438c-0.791,0-1.071,0.447-1.071,1.455V108.238z"/>
	<path d="M218.642,108.229c0,1.184-0.392,1.791-1.455,1.791c-1.079,0-1.455-0.575-1.455-1.791v-1.942
		c0-1.159,0.376-1.799,1.455-1.799c1.159,0.008,1.455,0.671,1.455,1.799V108.229z M216.116,108.238c0,1.007,0.28,1.438,1.071,1.438
		c0.792,0,1.071-0.447,1.071-1.447v-1.959c0-0.999-0.256-1.438-1.071-1.438c-0.791,0-1.071,0.447-1.071,1.455V108.238z"/>
	<path d="M219.453,108.054v-0.392h1.703v0.392H219.453z"/>
	<path d="M222.044,104.896c0.248-0.208,0.752-0.407,1.327-0.407c0.968,0,1.407,0.447,1.407,1.303c0,0.656-0.256,1.151-0.991,1.239
		c0.735,0.024,1.096,0.552,1.096,1.399c0,0.968-0.416,1.591-1.535,1.591c-0.704,0-1.088-0.231-1.344-0.455v-1.088h0.384v0.696
		c0,0.352,0.528,0.503,0.991,0.503c0.824,0,1.112-0.567,1.112-1.223c0-0.712-0.256-1.239-1.224-1.239h-0.328v-0.344h0.256
		c0.92,0,1.199-0.504,1.199-1.08c0-0.535-0.239-0.959-1.039-0.959c-0.399,0-0.928,0.128-0.928,0.399v0.647h-0.384V104.896z"/>
	<path d="M228.65,108.229c0,1.184-0.392,1.791-1.455,1.791c-1.079,0-1.455-0.575-1.455-1.791v-1.942
		c0-1.159,0.376-1.799,1.455-1.799c1.159,0.008,1.455,0.671,1.455,1.799V108.229z M226.124,108.238c0,1.007,0.28,1.438,1.071,1.438
		c0.792,0,1.071-0.447,1.071-1.447v-1.959c0-0.999-0.256-1.438-1.071-1.438c-0.791,0-1.071,0.447-1.071,1.455V108.238z"/>
	<path d="M232.434,108.229c0,1.184-0.392,1.791-1.455,1.791c-1.079,0-1.455-0.575-1.455-1.791v-1.942
		c0-1.159,0.376-1.799,1.455-1.799c1.159,0.008,1.455,0.671,1.455,1.799V108.229z M229.908,108.238c0,1.007,0.28,1.438,1.071,1.438
		c0.792,0,1.071-0.447,1.071-1.447v-1.959c0-0.999-0.256-1.438-1.071-1.438c-0.791,0-1.071,0.447-1.071,1.455V108.238z"/>
</g>
<g>
	<path d="M157.802,117.813v0.428c0,0.665,0.28,1.05,0.96,1.05c0.49,0,0.756-0.111,0.756-0.343v-0.42h0.322v0.791
		c-0.287,0.161-0.602,0.267-1.071,0.267c-1.029,0-1.289-0.624-1.289-1.359v-0.819c0-0.974,0.477-1.394,1.219-1.394
		c0.771,0,1.191,0.462,1.191,1.303v0.497H157.802z M159.568,117.519v-0.224c-0.015-0.617-0.26-0.988-0.861-0.988
		c-0.617,0-0.904,0.413-0.904,1.072v0.14H159.568z"/>
	<path d="M160.588,119.221c0.21,0,0.23-0.049,0.23-0.245v-2.36c0-0.189-0.021-0.238-0.23-0.238v-0.294h0.553v0.357
		c0.183-0.211,0.47-0.406,0.883-0.406c0.477,0,0.729,0.188,0.854,0.504c0.168-0.267,0.497-0.497,0.967-0.504
		c0.756-0.008,0.938,0.469,0.938,1.078v1.912c0,0.196,0.021,0.196,0.224,0.196v0.294h-0.519c-0.021-0.245-0.027-0.315-0.027-0.588
		v-1.801c0-0.574-0.196-0.798-0.659-0.798c-0.371,0-0.735,0.259-0.84,0.581v2.066c0,0.196,0.021,0.245,0.224,0.245v0.294h-0.518
		c-0.021-0.196-0.028-0.385-0.028-0.561v-1.828c0-0.574-0.196-0.798-0.658-0.798c-0.378,0-0.722,0.308-0.841,0.511v2.137
		c0,0.196,0.015,0.245,0.231,0.245v0.294h-0.784V119.221z"/>
	<path d="M165.874,116.229c0.294-0.111,0.574-0.217,1.071-0.217c0.693,0,1.002,0.252,1.002,1.086v1.877
		c0,0.196,0.021,0.245,0.224,0.245v0.294h-0.546v-0.42c-0.225,0.245-0.623,0.49-1.037,0.49c-0.608,0-0.875-0.371-0.875-0.861
		c0-0.638,0.525-0.876,1.128-1.093l0.784-0.287v-0.252c0-0.477-0.112-0.785-0.673-0.785c-0.553,0-0.756,0.077-0.756,0.28v0.441
		h-0.322V116.229z M167.169,117.813c-0.813,0.302-1.121,0.505-1.121,0.938c0,0.344,0.238,0.539,0.603,0.539
		c0.413,0,0.784-0.336,0.974-0.56v-1.086L167.169,117.813z"/>
	<path d="M168.792,119.221c0.21,0,0.23-0.049,0.23-0.245v-2.354c0-0.196-0.021-0.245-0.23-0.245v-0.294h0.553v2.893
		c0,0.196,0.015,0.245,0.231,0.245v0.294h-0.784V119.221z M169.135,115.313c-0.14,0-0.252-0.091-0.252-0.252
		c0-0.147,0.112-0.245,0.252-0.245c0.147,0,0.245,0.098,0.245,0.245C169.38,115.214,169.275,115.313,169.135,115.313z"/>
	<path d="M170.185,119.221c0.21,0,0.231-0.049,0.231-0.245v-3.593c0-0.196-0.021-0.245-0.231-0.245v-0.295h0.553v4.133
		c0,0.196,0.015,0.245,0.231,0.245v0.294h-0.784V119.221z"/>
	<path d="M171.879,116.342c0.154,0,0.287,0.119,0.287,0.28s-0.133,0.28-0.287,0.28s-0.28-0.119-0.28-0.28
		S171.725,116.342,171.879,116.342z M171.879,118.989c0.154,0,0.287,0.119,0.287,0.28s-0.133,0.28-0.287,0.28s-0.28-0.119-0.28-0.28
		S171.725,118.989,171.879,118.989z"/>
</g>
<g>
	<path d="M176.199,120.586c0.24,0,0.265-0.056,0.265-0.279v-4.094c0-0.225-0.024-0.28-0.265-0.28v-0.336h0.632v0.344
		c0.313-0.248,0.68-0.399,1.031-0.399c1.023,0,1.359,0.615,1.359,1.615v0.848c0,0.983-0.384,1.575-1.319,1.575
		c-0.495,0-0.863-0.232-1.071-0.4v1.128c0,0.224,0.017,0.279,0.264,0.279v0.336h-0.896V120.586z M176.831,118.795
		c0.24,0.264,0.64,0.448,1.04,0.448c0.847,0,0.983-0.584,0.983-1.407v-0.552c0-1.224-0.432-1.407-0.983-1.407
		c-0.4,0-0.744,0.151-1.04,0.447V118.795z"/>
	<path d="M180.462,117.571v0.488c0,0.76,0.319,1.199,1.096,1.199c0.56,0,0.863-0.128,0.863-0.392v-0.479h0.368v0.903
		c-0.328,0.184-0.688,0.304-1.224,0.304c-1.176,0-1.472-0.712-1.472-1.551v-0.936c0-1.111,0.544-1.592,1.392-1.592
		c0.88,0,1.359,0.528,1.359,1.487v0.567H180.462z M182.477,117.236v-0.256c-0.016-0.704-0.296-1.128-0.983-1.128
		c-0.703,0-1.031,0.472-1.031,1.224v0.16H182.477z"/>
	<path d="M186.708,115.597v0.336c-0.239,0-0.264,0.056-0.264,0.271v3.303c0,0.879-0.288,1.519-1.367,1.519
		c-0.536,0-0.911-0.136-1.255-0.279v-0.792h0.367v0.336c0,0.313,0.456,0.4,0.888,0.4c0.695,0,0.999-0.368,0.999-1.111v-0.408
		c-0.312,0.2-0.68,0.319-1.031,0.319c-1.023,0-1.359-0.583-1.359-1.543v-0.791c0-1.008,0.376-1.615,1.264-1.615
		c0.56,0,0.936,0.248,1.127,0.479v-0.424H186.708z M185.005,115.877c-0.783,0-0.951,0.575-0.951,1.407v0.68
		c0,0.927,0.376,1.191,0.983,1.191c0.399,0,0.743-0.128,1.039-0.368v-2.343C185.853,116.156,185.446,115.877,185.005,115.877z"/>
	<path d="M187.598,115.765c0.336-0.128,0.656-0.248,1.224-0.248c0.791,0,1.144,0.288,1.144,1.239v2.144
		c0,0.224,0.023,0.279,0.256,0.279v0.336h-0.624v-0.479c-0.256,0.279-0.712,0.56-1.184,0.56c-0.695,0-0.999-0.424-0.999-0.983
		c0-0.728,0.6-1,1.287-1.247l0.896-0.328v-0.288c0-0.544-0.128-0.896-0.768-0.896c-0.632,0-0.863,0.088-0.863,0.32v0.503h-0.368
		V115.765z M189.078,117.571c-0.928,0.344-1.279,0.576-1.279,1.072c0,0.392,0.271,0.615,0.688,0.615c0.472,0,0.896-0.384,1.111-0.64
		v-1.239L189.078,117.571z"/>
	<path d="M193.493,115.9l-2.271,3.278h1.607c0.384,0,0.407,0,0.407-0.312v-0.616h0.368v1.264h-2.854v-0.304l2.263-3.278h-1.503
		c-0.264,0-0.28,0.032-0.28,0.24v0.703h-0.367v-1.279h2.63V115.9z"/>
	<path d="M198.668,119.227c-0.28,0-0.72-0.128-0.664-0.927c-0.224,0.527-0.632,0.927-1.136,0.927c-0.52,0-0.903-0.384-0.903-1.167
		c0-1.207,0.72-2.343,1.688-2.343c0.304,0,0.552,0.168,0.695,0.416l0.072-0.36h0.344l-0.328,1.688
		c-0.056,0.288-0.12,0.655-0.12,0.863c0,0.376,0.128,0.584,0.384,0.584c0.576,0,1.231-0.903,1.231-2.119
		c0-1.167-0.76-2.271-2.198-2.271c-1.799,0-2.975,1.679-2.975,3.39c0,1.447,0.983,2.495,2.391,2.495
		c0.592,0,1.104-0.128,1.423-0.288c0.057,0.088,0.104,0.16,0.16,0.248c-0.384,0.191-0.919,0.376-1.647,0.376
		c-1.662,0-2.71-1.231-2.71-2.799c0-2.095,1.423-3.758,3.414-3.758c1.535,0,2.526,1.191,2.526,2.574
		C200.315,118.26,199.444,119.227,198.668,119.227z M198.092,117.38l0.176-0.871c-0.128-0.272-0.327-0.456-0.68-0.456
		c-0.623,0-1.231,0.8-1.231,1.967c0,0.52,0.2,0.871,0.584,0.871C197.453,118.891,197.909,118.3,198.092,117.38z"/>
	<path d="M201.27,119.179c0.24,0,0.265-0.056,0.265-0.279v-2.687c0-0.225-0.024-0.28-0.265-0.28v-0.336h0.632v0.584
		c0.088-0.256,0.352-0.664,0.823-0.664c0.04,0,0.104,0,0.16,0.017v0.367c-0.048-0.008-0.08-0.016-0.168-0.016
		c-0.352,0-0.815,0.399-0.815,1.392v1.623c0,0.224,0.017,0.279,0.264,0.279v0.336h-0.896V119.179z"/>
	<path d="M206.1,115.9l-2.271,3.278h1.607c0.384,0,0.407,0,0.407-0.312v-0.616h0.368v1.264h-2.854v-0.304l2.263-3.278h-1.503
		c-0.264,0-0.28,0.032-0.28,0.24v0.703h-0.367v-1.279h2.63V115.9z"/>
	<path d="M207.238,117.571v0.488c0,0.76,0.319,1.199,1.096,1.199c0.56,0,0.863-0.128,0.863-0.392v-0.479h0.368v0.903
		c-0.328,0.184-0.688,0.304-1.224,0.304c-1.176,0-1.472-0.712-1.472-1.551v-0.936c0-1.111,0.544-1.592,1.392-1.592
		c0.88,0,1.359,0.528,1.359,1.487v0.567H207.238z M209.252,117.236v-0.256c-0.016-0.704-0.296-1.128-0.983-1.128
		c-0.703,0-1.031,0.472-1.031,1.224v0.16H209.252z"/>
	<path d="M212.756,116.572h-0.367v-0.439c0-0.2-0.256-0.272-0.696-0.272c-0.615,0-0.871,0.28-0.871,0.664
		c0,0.416,0.199,0.535,0.999,0.8c0.76,0.247,1.023,0.56,1.023,1.127c0,0.616-0.344,1.144-1.271,1.144
		c-0.399,0-0.791-0.104-1.111-0.32v-0.871h0.368v0.512c0,0.264,0.416,0.344,0.728,0.344c0.607,0,0.911-0.32,0.911-0.783
		c0-0.393-0.136-0.616-0.839-0.824c-0.8-0.239-1.176-0.495-1.176-1.095c0-0.664,0.472-1.032,1.247-1.032
		c0.408,0,0.84,0.088,1.056,0.208V116.572z"/>
	<path d="M216.044,115.9l-2.271,3.278h1.607c0.384,0,0.407,0,0.407-0.312v-0.616h0.368v1.264h-2.854v-0.304l2.263-3.278h-1.503
		c-0.264,0-0.28,0.032-0.28,0.24v0.703h-0.367v-1.279h2.63V115.9z"/>
	<path d="M216.814,117.196c0-0.904,0.232-1.68,1.424-1.68c1.127,0,1.431,0.672,1.431,1.728v0.632c0,1.007-0.256,1.719-1.423,1.719
		c-1.119,0-1.432-0.656-1.432-1.719V117.196z M219.301,117.188c0-0.943-0.313-1.335-1.063-1.335c-0.64,0-1.056,0.248-1.056,1.375
		v0.648c0,1.055,0.352,1.383,1.056,1.383c0.751,0,1.063-0.368,1.063-1.352V117.188z"/>
	<path d="M223.228,119.515l-0.711-2.839c-0.032-0.128-0.08-0.312-0.097-0.455c-0.023,0.159-0.063,0.327-0.096,0.464l-0.703,2.83
		h-0.313l-0.871-3.406c-0.04-0.151-0.104-0.176-0.24-0.176v-0.336h0.815v0.336c-0.136,0-0.191,0.056-0.191,0.144
		c0,0.057,0.016,0.12,0.032,0.192l0.503,1.942c0.04,0.16,0.089,0.464,0.12,0.656c0.024-0.216,0.08-0.496,0.12-0.656l0.655-2.614
		h0.368l0.664,2.679c0.04,0.151,0.088,0.399,0.119,0.592c0.024-0.168,0.08-0.44,0.12-0.592l0.512-2.063
		c0.008-0.04,0.017-0.089,0.017-0.137c0-0.071-0.057-0.144-0.185-0.144v-0.336h0.784v0.336c-0.152,0.008-0.208,0.04-0.248,0.191
		l-0.863,3.391H223.228z"/>
	<path d="M224.934,118.915c0.176,0,0.327,0.136,0.327,0.319c0,0.185-0.151,0.32-0.327,0.32c-0.177,0-0.32-0.136-0.32-0.32
		C224.614,119.051,224.757,118.915,224.934,118.915z"/>
	<path d="M226.005,120.586c0.24,0,0.265-0.056,0.265-0.279v-4.094c0-0.225-0.024-0.28-0.265-0.28v-0.336h0.632v0.344
		c0.313-0.248,0.68-0.399,1.031-0.399c1.023,0,1.359,0.615,1.359,1.615v0.848c0,0.983-0.384,1.575-1.319,1.575
		c-0.495,0-0.863-0.232-1.071-0.4v1.128c0,0.224,0.017,0.279,0.264,0.279v0.336h-0.896V120.586z M226.637,118.795
		c0.24,0.264,0.64,0.448,1.04,0.448c0.847,0,0.983-0.584,0.983-1.407v-0.552c0-1.224-0.432-1.407-0.983-1.407
		c-0.4,0-0.744,0.151-1.04,0.447V118.795z"/>
	<path d="M229.782,119.179c0.24,0,0.265-0.056,0.265-0.279v-4.103c0-0.224-0.024-0.279-0.265-0.279v-0.336h0.632v4.718
		c0,0.224,0.017,0.279,0.265,0.279v0.336h-0.896V119.179z"/>
</g>
</svg>
