<?xml version="1.0" encoding="utf-8"?>
<!-- Generator: Adobe Illustrator 14.0.0, SVG Export Plug-In . SVG Version: 6.00 Build 43363)  -->
<!DOCTYPE svg PUBLIC "-//W3C//DTD SVG 1.1//EN" "http://www.w3.org/Graphics/SVG/1.1/DTD/svg11.dtd">
<svg version="1.1" id="Warstwa_1" xmlns="http://www.w3.org/2000/svg" xmlns:xlink="http://www.w3.org/1999/xlink" x="0px" y="0px"
	 width="255.118px" height="141.732px" viewBox="0 0 255.118 141.732" enable-background="new 0 0 255.118 141.732"
	 xml:space="preserve">
<rect x="0" y="0" fill="#FFFFFF" width="255.118" height="141.732"/>
<g>
	<g>
		<defs>
			<rect id="SVGID_1_" x="0" y="0" width="255.118" height="141.732"/>
		</defs>
		<clipPath id="SVGID_2_">
			<use xlink:href="#SVGID_1_"  overflow="visible"/>
		</clipPath>
		<path clip-path="url(#SVGID_2_)" d="M187.652,115.117h4.229v-13.879h0.056l4.151,13.879h5.355V94.975h-4.396v13.09h-0.057
			l-3.896-13.09h-5.443L187.652,115.117L187.652,115.117z M185.166,105.046c0-5.588-0.366-10.466-7.08-10.466
			c-6.233,0-7.079,4.061-7.079,10.466c0,6.406,0.846,10.467,7.079,10.467C184.799,115.512,185.166,110.634,185.166,105.046
			 M175.912,105.046c0-5.53,0.281-7.309,2.146-7.309c1.92,0,2.202,1.777,2.202,7.309c0,5.532-0.282,7.311-2.202,7.311
			C176.194,112.355,175.912,110.578,175.912,105.046 M155.263,115.117h4.735v-8.323h1.808c1.497,0,1.978,0.733,1.978,4.233
			c0,2.286,0.142,3.415,0.508,4.09h5.104v-0.25c-0.677-0.283-0.817-0.679-0.901-4.658c-0.058-2.71-0.227-4.6-3.243-5.021v-0.057
			c2.2-0.535,3.385-1.974,3.385-4.909c0-2.766-1.383-5.246-5.415-5.246h-7.955v20.142H155.263z M159.999,98.301h1.439
			c1.893,0,2.457,1.018,2.457,2.541c0,1.187-0.508,2.627-2.429,2.627h-1.469L159.999,98.301L159.999,98.301z M144.654,115.117h4.736
			V98.809h4.232v-3.834h-13.2v3.834h4.23L144.654,115.117L144.654,115.117z M130.769,98.471h1.214c1.921,0,2.43,1.179,2.43,2.724
			c0,1.348-0.452,2.527-2.345,2.527h-1.299V98.471L130.769,98.471z M126.032,115.117h4.736v-7.9h2.09
			c4.739,0,6.459-2.536,6.459-6.135c0-2.499-0.959-6.106-5.95-6.106h-7.335V115.117L126.032,115.117z M111.925,115.117h11.96v-3.834
			h-7.223v-4.603h6.488v-3.834h-6.488v-4.038h6.912v-3.834h-11.649V115.117z M109.778,101.97v-0.848c0-4.739-2.283-6.543-6.46-6.543
			c-6.713,0-6.994,5.161-6.994,10.325c0,6.067,0.479,10.606,6.544,10.606c5.867,0,7.079-3.241,7.079-7.588v-0.705h-4.566
			c-0.029,3.133-0.227,5.137-1.978,5.137c-1.977,0-2.174-1.553-2.174-7.536c0-5.276,0.169-7.082,2.062-7.082
			c1.581,0,1.92,1.298,1.92,4.232L109.778,101.97L109.778,101.97z M80.579,115.117h4.736v-8.323h1.808
			c1.497,0,1.977,0.733,1.977,4.233c0,2.286,0.142,3.415,0.508,4.09h5.104v-0.25c-0.677-0.283-0.818-0.679-0.902-4.658
			c-0.057-2.71-0.226-4.6-3.243-5.021v-0.057c2.199-0.535,3.385-1.974,3.385-4.909c0-2.766-1.383-5.246-5.415-5.246h-7.956V115.117
			L80.579,115.117z M85.316,98.301h1.44c1.892,0,2.457,1.018,2.457,2.541c0,1.187-0.508,2.627-2.428,2.627h-1.47V98.301z
			 M66.472,115.117h11.959v-3.834h-7.222v-4.603h6.489v-3.834h-6.489v-4.038h6.912v-3.834H66.472V115.117z M55.521,98.471h1.215
			c1.921,0,2.43,1.179,2.43,2.724c0,1.348-0.452,2.527-2.345,2.527h-1.3V98.471z M50.785,115.117h4.735v-7.9h2.09
			c4.74,0,6.459-2.536,6.459-6.135c0-2.499-0.958-6.106-5.949-6.106h-7.335V115.117z"/>
	</g>
	<g>
		<defs>
			<rect id="SVGID_3_" x="0" y="0" width="255.118" height="141.732"/>
		</defs>
		<clipPath id="SVGID_4_">
			<use xlink:href="#SVGID_3_"  overflow="visible"/>
		</clipPath>
		<path clip-path="url(#SVGID_4_)" d="M85.205,15.191c0,0,5.16,24.078,7.911,25.798c2.752,1.72,6.191,6.535,8.342,6.019
			c2.148-0.516,7.652-4.814,7.652-4.814s1.376,3.697,0.976,7.395c-0.402,3.698-2.695,15.536-4.415,17.142s-3.095-8.37-6.879-12.153
			C95.008,50.792,79.701,37.55,74.37,34.109c-5.332-3.439-12.005-7.327-6.261-7.218s7.98-0.492,7.98-0.492L59.751,15.02h25.454"/>
	</g>
	<g>
		<defs>
			<rect id="SVGID_5_" x="0" y="0" width="255.118" height="141.732"/>
		</defs>
		<clipPath id="SVGID_6_">
			<use xlink:href="#SVGID_5_"  overflow="visible"/>
		</clipPath>
		<path clip-path="url(#SVGID_6_)" d="M166.97,15.191c0,0-5.16,24.078-7.911,25.798c-2.752,1.72-6.191,6.535-8.342,6.019
			c-2.149-0.516-7.653-4.814-7.653-4.814s-1.376,3.697-0.975,7.395c0.401,3.698,2.694,15.536,4.415,17.142
			c1.72,1.605,3.095-8.37,6.879-12.153c3.783-3.784,19.091-17.027,24.422-20.467c5.332-3.439,12.005-7.327,6.26-7.218
			c-5.744,0.109-7.979-0.492-7.979-0.492l16.339-11.38H166.97"/>
	</g>
	<g>
		<defs>
			<rect id="SVGID_7_" x="0" y="0" width="255.118" height="141.732"/>
		</defs>
		<clipPath id="SVGID_8_">
			<use xlink:href="#SVGID_7_"  overflow="visible"/>
		</clipPath>
		<path clip-path="url(#SVGID_8_)" d="M51.095,46.184c0,0,0.762,6.474,7.986,12.641c7.223,6.167,20.346,12.642,22.754,13.122
			c2.407,0.482,5.658,2.142,5.658,2.142l5.538,6.422c0,0-1.699,4.387-9.698,3.598s-19.115-5.658-23.008-8.789
			c-3.894-3.13-8.963-9.524-8.963-9.524L51.095,46.184z"/>
	</g>
	<g>
		<defs>
			<rect id="SVGID_9_" x="0" y="0" width="255.118" height="141.732"/>
		</defs>
		<clipPath id="SVGID_10_">
			<use xlink:href="#SVGID_9_"  overflow="visible"/>
		</clipPath>
		<path clip-path="url(#SVGID_10_)" d="M201.081,46.184c0,0-0.763,6.474-7.986,12.641c-7.223,6.167-20.346,12.642-22.754,13.122
			c-2.406,0.482-5.658,2.142-5.658,2.142l-5.537,6.422c0,0,1.698,4.387,9.697,3.598s19.115-5.658,23.008-8.789
			c3.895-3.13,8.963-9.524,8.963-9.524L201.081,46.184z"/>
	</g>
	<g>
		<defs>
			<rect id="SVGID_11_" x="0" y="0" width="255.118" height="141.732"/>
		</defs>
		<clipPath id="SVGID_12_">
			<use xlink:href="#SVGID_11_"  overflow="visible"/>
		</clipPath>
		<path clip-path="url(#SVGID_12_)" d="M138.702,87.022c0,0-10.233-15.677-10.233-43.855c0-9.443,10.835-28.285,10.835-28.285
			h-26.488c0,0,10.835,18.842,10.835,28.285c0,28.179-10.232,43.855-10.232,43.855H138.702z"/>
	</g>
	<g>
		<defs>
			<rect id="SVGID_13_" x="0" y="0" width="255.118" height="141.732"/>
		</defs>
		<clipPath id="SVGID_14_">
			<use xlink:href="#SVGID_13_"  overflow="visible"/>
		</clipPath>
		<path clip-path="url(#SVGID_14_)" d="M96.843,14.962c0,0,10.514,6.581,13.042,18.941s3.411,22.393,0.803,28.212
			s-3.411,9.671-7.424,15.049c-4.013,5.377-17.577,9.631-20.467,9.831c-2.889,0.201-18.861-6.22-24.078-10.032
			c-5.216-3.812-7.464-8.829-7.464-8.829v18.861h55.42c0,0,8.026-23.927,8.628-30.298c0.566-5.993,0-17.456-0.201-20.667
			c-0.2-3.21-3.411-20.867-3.411-20.867L96.843,14.962z"/>
	</g>
	<g>
		<defs>
			<rect id="SVGID_15_" x="0" y="0" width="255.118" height="141.732"/>
		</defs>
		<clipPath id="SVGID_16_">
			<use xlink:href="#SVGID_15_"  overflow="visible"/>
		</clipPath>
		<path clip-path="url(#SVGID_16_)" d="M155.432,14.962c0,0-10.514,6.581-13.042,18.941c-2.527,12.36-3.41,22.393-0.803,28.212
			c2.608,5.819,3.411,9.671,7.424,15.049c4.014,5.377,17.577,9.631,20.468,9.831c2.89,0.201,18.86-6.22,24.077-10.032
			c5.217-3.812,7.465-8.829,7.465-8.829v18.861h-55.42c0,0-8.025-23.927-8.629-30.298c-0.564-5.993,0-17.456,0.201-20.667
			c0.2-3.21,3.411-20.867,3.411-20.867L155.432,14.962z"/>
	</g>
	<g>
		<defs>
			<rect id="SVGID_17_" x="0" y="0" width="255.118" height="141.732"/>
		</defs>
		<clipPath id="SVGID_18_">
			<use xlink:href="#SVGID_17_"  overflow="visible"/>
		</clipPath>
		<path clip-path="url(#SVGID_18_)" d="M97.901,80.675c0,0,5.802-10.133,2.408-16.653C96.916,57.5,88.926,45.023,80.39,41.411
			c-8.537-3.611-14.547-5.089-17.857-7.441c-3.312-2.354-5.893-5.363-5.893-5.363s6.313-4.394,11.47-3.838
			c5.157,0.555-16.723-7.9-16.723-7.9v22.683c0,0,2.736-0.328,3.174,0.767c0.438,1.094,5.581,13.243,9.084,15.76
			c3.502,2.518,9.321,6.74,14.237,7.442c4.915,0.703,8.427-0.574,10.935,1.97c2.509,2.545,1.643,8.045,1.095,8.565
			C89.364,74.573,97.901,80.675,97.901,80.675"/>
	</g>
	<g>
		<defs>
			<rect id="SVGID_19_" x="0" y="0" width="255.118" height="141.732"/>
		</defs>
		<clipPath id="SVGID_20_">
			<use xlink:href="#SVGID_19_"  overflow="visible"/>
		</clipPath>
		<path clip-path="url(#SVGID_20_)" d="M154.274,80.675c0,0-5.801-10.133-2.406-16.653c3.393-6.521,11.383-18.998,19.919-22.61
			c8.537-3.611,14.547-5.089,17.856-7.441c3.313-2.354,5.894-5.363,5.894-5.363s-6.313-4.394-11.472-3.838
			c-5.155,0.555,16.725-7.9,16.725-7.9v22.683c0,0-2.736-0.328-3.174,0.767c-0.438,1.094-5.581,13.243-9.084,15.76
			c-3.504,2.518-9.321,6.74-14.237,7.442c-4.916,0.703-8.427-0.574-10.937,1.97c-2.508,2.545-1.642,8.045-1.094,8.565
			C162.811,74.573,154.274,80.675,154.274,80.675"/>
	</g>
	<g>
		<defs>
			<rect id="SVGID_21_" x="0" y="0" width="255.118" height="141.732"/>
		</defs>
		<clipPath id="SVGID_22_">
			<use xlink:href="#SVGID_21_"  overflow="visible"/>
		</clipPath>
		<path clip-path="url(#SVGID_22_)" fill="#FFFFFF" d="M69.313,54.724c5.916,3.852,17.112,7.363,19.103,4.414
			c2.293-3.399-6.092-12.137-12.039-15.57c-5.947-3.435-14.206-8.541-14.206-2.167C62.17,45.745,63.559,50.977,69.313,54.724"/>
	</g>
	<g>
		<defs>
			<rect id="SVGID_23_" x="0" y="0" width="255.118" height="141.732"/>
		</defs>
		<clipPath id="SVGID_24_">
			<use xlink:href="#SVGID_23_"  overflow="visible"/>
		</clipPath>
		<path clip-path="url(#SVGID_24_)" fill="#FFFFFF" d="M182.862,54.724c-5.916,3.852-17.111,7.363-19.103,4.414
			c-2.293-3.399,6.092-12.137,12.039-15.57c5.947-3.435,14.206-8.541,14.206-2.167C190.004,45.745,188.617,50.977,182.862,54.724"/>
	</g>
	<g>
		<defs>
			<rect id="SVGID_25_" x="0" y="0" width="255.118" height="141.732"/>
		</defs>
		<clipPath id="SVGID_26_">
			<use xlink:href="#SVGID_25_"  overflow="visible"/>
		</clipPath>
		<path clip-path="url(#SVGID_26_)" d="M74.397,52.574c1.91,1.104,4.254,0.618,5.236-1.084c0.983-1.701,0.231-3.974-1.679-5.076
			s-6.595-2.988-6.595,0.252C71.36,48.629,72.487,51.471,74.397,52.574"/>
	</g>
	<g>
		<defs>
			<rect id="SVGID_27_" x="0" y="0" width="255.118" height="141.732"/>
		</defs>
		<clipPath id="SVGID_28_">
			<use xlink:href="#SVGID_27_"  overflow="visible"/>
		</clipPath>
		<path clip-path="url(#SVGID_28_)" d="M177.778,52.574c-1.909,1.104-4.254,0.618-5.235-1.084c-0.982-1.701-0.23-3.974,1.679-5.076
			c1.91-1.103,6.595-2.988,6.595,0.252C180.815,48.629,179.688,51.471,177.778,52.574"/>
	</g>
</g>
<g>
	<path fill="#58585A" d="M53.071,124.553h-2.117c0.008,0.334,0.098,0.592,0.27,0.772s0.408,0.272,0.709,0.272
		c0.338,0,0.648-0.111,0.932-0.334v0.45c-0.264,0.191-0.611,0.287-1.046,0.287c-0.424,0-0.757-0.137-0.999-0.407
		c-0.241-0.273-0.362-0.656-0.362-1.15c0-0.467,0.132-0.847,0.396-1.141c0.266-0.295,0.593-0.441,0.986-0.441
		c0.393,0,0.696,0.127,0.911,0.381s0.321,0.606,0.321,1.058L53.071,124.553L53.071,124.553z M52.579,124.146
		c-0.002-0.277-0.069-0.493-0.201-0.647c-0.132-0.153-0.315-0.23-0.549-0.23c-0.228,0-0.419,0.081-0.577,0.243
		c-0.158,0.161-0.256,0.374-0.293,0.636L52.579,124.146L52.579,124.146z"/>
	<path fill="#58585A" d="M58.057,125.933h-0.479v-1.724c0-0.332-0.052-0.571-0.154-0.721c-0.104-0.149-0.275-0.223-0.517-0.223
		c-0.205,0-0.38,0.094-0.523,0.28c-0.144,0.188-0.215,0.412-0.215,0.675v1.711h-0.48v-1.781c0-0.59-0.228-0.885-0.683-0.885
		c-0.211,0-0.385,0.089-0.521,0.266c-0.136,0.177-0.205,0.406-0.205,0.689v1.711h-0.479v-3h0.479v0.475h0.013
		c0.213-0.363,0.522-0.545,0.932-0.545c0.205,0,0.384,0.057,0.536,0.172c0.152,0.113,0.257,0.264,0.313,0.449
		c0.224-0.414,0.556-0.621,0.996-0.621c0.66,0,0.99,0.407,0.99,1.222L58.057,125.933L58.057,125.933z"/>
	<path fill="#58585A" d="M61.113,125.933h-0.479v-0.47h-0.012c-0.209,0.359-0.518,0.539-0.923,0.539c-0.3,0-0.533-0.079-0.702-0.236
		c-0.169-0.158-0.253-0.368-0.253-0.63c0-0.562,0.33-0.888,0.989-0.979l0.899-0.126c0-0.51-0.206-0.765-0.618-0.765
		c-0.361,0-0.688,0.123-0.979,0.369v-0.492c0.295-0.188,0.635-0.281,1.02-0.281c0.705,0,1.058,0.373,1.058,1.119V125.933z
		 M60.632,124.415l-0.724,0.101c-0.224,0.03-0.392,0.086-0.505,0.166c-0.112,0.077-0.17,0.219-0.17,0.42
		c0,0.146,0.053,0.267,0.157,0.358c0.105,0.093,0.244,0.14,0.417,0.14c0.238,0,0.436-0.084,0.59-0.25
		c0.155-0.168,0.233-0.379,0.233-0.636L60.632,124.415L60.632,124.415z"/>
	<path fill="#58585A" d="M62.264,122.171c-0.086,0-0.159-0.028-0.22-0.088c-0.062-0.059-0.091-0.133-0.091-0.223
		s0.029-0.164,0.091-0.225c0.061-0.06,0.134-0.09,0.22-0.09c0.088,0,0.163,0.03,0.224,0.09c0.063,0.061,0.093,0.135,0.093,0.225
		c0,0.086-0.031,0.159-0.093,0.22C62.427,122.141,62.352,122.171,62.264,122.171z M62.499,125.933h-0.48v-3h0.48V125.933z"/>
	<path fill="#58585A" d="M63.952,125.933h-0.48v-4.441h0.48V125.933z"/>
	<path fill="#58585A" d="M65.091,123.519c-0.09,0-0.167-0.032-0.23-0.098c-0.063-0.064-0.095-0.142-0.095-0.23
		s0.032-0.166,0.095-0.229c0.063-0.063,0.141-0.094,0.23-0.094c0.092,0,0.17,0.031,0.234,0.094c0.063,0.063,0.097,0.14,0.097,0.229
		s-0.032,0.167-0.097,0.23C65.26,123.486,65.183,123.519,65.091,123.519z M65.091,125.997c-0.09,0-0.167-0.032-0.23-0.097
		c-0.063-0.065-0.095-0.143-0.095-0.231s0.032-0.167,0.095-0.231c0.063-0.065,0.141-0.1,0.23-0.1c0.092,0,0.17,0.033,0.234,0.1
		c0.063,0.065,0.097,0.143,0.097,0.231s-0.032,0.167-0.097,0.231C65.26,125.964,65.183,125.997,65.091,125.997z"/>
</g>
<g>
	<path d="M68.963,125.399h-0.015v2.229h-0.591v-5.385h0.591v0.648h0.015c0.291-0.49,0.716-0.735,1.274-0.735
		c0.476,0,0.847,0.165,1.113,0.496c0.268,0.33,0.4,0.771,0.4,1.327c0,0.617-0.15,1.11-0.45,1.481s-0.711,0.558-1.232,0.558
		C69.591,126.02,69.222,125.813,68.963,125.399z M68.948,123.912v0.516c0,0.305,0.099,0.563,0.297,0.775
		c0.197,0.213,0.449,0.318,0.755,0.318c0.356,0,0.638-0.138,0.841-0.41c0.203-0.273,0.305-0.654,0.305-1.142
		c0-0.411-0.095-0.732-0.285-0.967c-0.189-0.231-0.446-0.35-0.771-0.35c-0.343,0-0.62,0.12-0.829,0.358
		C69.053,123.252,68.948,123.552,68.948,123.912z"/>
	<path d="M75.659,124.236h-2.604c0.01,0.41,0.12,0.728,0.332,0.95c0.211,0.224,0.502,0.335,0.872,0.335
		c0.416,0,0.797-0.138,1.146-0.41v0.555c-0.323,0.235-0.753,0.354-1.285,0.354c-0.521,0-0.932-0.168-1.229-0.503
		s-0.447-0.808-0.447-1.414c0-0.574,0.163-1.041,0.488-1.403c0.325-0.361,0.729-0.542,1.212-0.542c0.483,0,0.856,0.156,1.121,0.469
		c0.264,0.313,0.396,0.745,0.396,1.301L75.659,124.236L75.659,124.236z M75.054,123.735c-0.002-0.341-0.085-0.606-0.247-0.796
		c-0.162-0.19-0.387-0.285-0.675-0.285c-0.278,0-0.515,0.1-0.709,0.3c-0.195,0.199-0.315,0.459-0.36,0.781H75.054z"/>
	<path d="M78.476,122.842c-0.103-0.078-0.252-0.118-0.447-0.118c-0.252,0-0.463,0.118-0.632,0.356
		c-0.169,0.237-0.254,0.563-0.254,0.974v1.88h-0.59v-3.688h0.59v0.76h0.016c0.084-0.259,0.212-0.462,0.385-0.605
		c0.173-0.146,0.366-0.219,0.58-0.219c0.153,0,0.271,0.018,0.353,0.051V122.842z"/>
	<path d="M81.536,125.764c-0.283,0.17-0.62,0.256-1.01,0.256c-0.525,0-0.949-0.172-1.272-0.515s-0.484-0.785-0.484-1.331
		c0-0.606,0.174-1.096,0.522-1.464c0.348-0.369,0.813-0.554,1.394-0.554c0.324,0,0.61,0.061,0.857,0.181v0.604
		c-0.274-0.191-0.567-0.288-0.879-0.288c-0.377,0-0.688,0.136-0.929,0.405c-0.24,0.271-0.361,0.625-0.361,1.063
		c0,0.434,0.112,0.773,0.34,1.023c0.227,0.25,0.531,0.374,0.913,0.374c0.322,0,0.625-0.106,0.908-0.32L81.536,125.764
		L81.536,125.764z"/>
	<path d="M85.394,124.236H82.79c0.01,0.41,0.12,0.728,0.332,0.95c0.211,0.224,0.502,0.335,0.872,0.335
		c0.416,0,0.797-0.138,1.146-0.41v0.555c-0.324,0.235-0.753,0.354-1.286,0.354c-0.521,0-0.931-0.168-1.229-0.503
		s-0.447-0.808-0.447-1.414c0-0.574,0.163-1.041,0.488-1.403c0.325-0.361,0.729-0.542,1.212-0.542c0.482,0,0.855,0.156,1.121,0.469
		c0.264,0.313,0.396,0.745,0.396,1.301L85.394,124.236L85.394,124.236z M84.789,123.735c-0.002-0.341-0.085-0.606-0.247-0.796
		c-0.162-0.19-0.388-0.285-0.675-0.285c-0.278,0-0.516,0.1-0.709,0.3c-0.195,0.199-0.315,0.459-0.36,0.781H84.789z"/>
	<path d="M86.892,125.399h-0.015v2.229h-0.59v-5.385h0.59v0.648h0.015c0.291-0.49,0.716-0.735,1.275-0.735
		c0.475,0,0.846,0.165,1.112,0.496c0.268,0.33,0.4,0.771,0.4,1.327c0,0.617-0.15,1.11-0.45,1.481s-0.711,0.558-1.231,0.558
		C87.52,126.02,87.151,125.813,86.892,125.399z M86.877,123.912v0.516c0,0.305,0.099,0.563,0.297,0.775s0.45,0.318,0.755,0.318
		c0.357,0,0.638-0.138,0.841-0.41c0.203-0.273,0.306-0.654,0.306-1.142c0-0.411-0.096-0.732-0.285-0.967
		c-0.19-0.231-0.447-0.35-0.771-0.35c-0.343,0-0.62,0.12-0.829,0.358C86.982,123.252,86.877,123.552,86.877,123.912z"/>
	<path d="M92.335,125.896c-0.141,0.077-0.323,0.115-0.551,0.115c-0.646,0-0.97-0.36-0.97-1.08v-2.185h-0.634v-0.504h0.634v-0.899
		l0.59-0.191v1.092h0.931v0.504h-0.931v2.079c0,0.247,0.042,0.424,0.126,0.529c0.085,0.104,0.224,0.158,0.418,0.158
		c0.148,0,0.276-0.041,0.386-0.122L92.335,125.896L92.335,125.896z"/>
	<path d="M95.047,122.842c-0.104-0.078-0.252-0.118-0.447-0.118c-0.252,0-0.463,0.118-0.632,0.356
		c-0.169,0.237-0.254,0.563-0.254,0.974v1.88h-0.59v-3.688h0.59v0.76h0.015c0.084-0.259,0.212-0.462,0.385-0.605
		c0.174-0.146,0.366-0.219,0.58-0.219c0.154,0,0.271,0.018,0.354,0.051V122.842z"/>
	<path d="M97.134,126.02c-0.545,0-0.98-0.173-1.306-0.519c-0.326-0.345-0.488-0.802-0.488-1.37c0-0.619,0.169-1.104,0.508-1.451
		c0.339-0.349,0.796-0.522,1.373-0.522c0.55,0,0.979,0.17,1.288,0.508c0.309,0.339,0.463,0.81,0.463,1.409
		c0,0.588-0.166,1.06-0.499,1.413S97.694,126.02,97.134,126.02z M97.178,122.654c-0.38,0-0.68,0.13-0.901,0.388
		c-0.221,0.258-0.331,0.614-0.331,1.068c0,0.437,0.111,0.781,0.336,1.033c0.223,0.252,0.521,0.378,0.896,0.378
		c0.382,0,0.675-0.123,0.88-0.37c0.206-0.248,0.309-0.601,0.309-1.056c0-0.462-0.104-0.816-0.309-1.066
		S97.56,122.654,97.178,122.654z"/>
	<path d="M102.977,125.933h-0.591v-2.104c0-0.783-0.286-1.175-0.857-1.175c-0.295,0-0.54,0.111-0.732,0.334
		c-0.193,0.222-0.29,0.502-0.29,0.841v2.104h-0.59v-3.688h0.59v0.612h0.015c0.278-0.466,0.683-0.699,1.21-0.699
		c0.403,0,0.712,0.131,0.927,0.392c0.213,0.261,0.319,0.638,0.319,1.13V125.933z"/>
	<path d="M107.685,124.42h-0.018c-0.175,0.571-0.521,0.857-1.034,0.857c-0.329,0-0.594-0.121-0.794-0.364
		c-0.2-0.242-0.301-0.568-0.301-0.979c0-0.543,0.139-0.994,0.416-1.354c0.276-0.358,0.642-0.539,1.093-0.539
		c0.173,0,0.327,0.045,0.463,0.135c0.136,0.089,0.223,0.199,0.261,0.335h0.016c0.004-0.067,0.017-0.205,0.035-0.414h0.451
		c-0.112,1.322-0.169,1.996-0.169,2.021c0,0.497,0.144,0.745,0.43,0.745c0.259,0,0.475-0.14,0.646-0.421s0.257-0.646,0.257-1.092
		c0-0.66-0.208-1.199-0.626-1.617s-0.997-0.627-1.735-0.627c-0.714,0-1.304,0.25-1.77,0.75c-0.466,0.499-0.699,1.123-0.699,1.873
		c0,0.736,0.222,1.332,0.665,1.784s1.04,0.68,1.792,0.68c0.594,0,1.101-0.099,1.521-0.296v0.447
		c-0.416,0.177-0.935,0.266-1.557,0.266c-0.874,0-1.577-0.263-2.112-0.79c-0.534-0.527-0.802-1.217-0.802-2.069
		c0-0.879,0.28-1.607,0.842-2.187c0.561-0.579,1.276-0.868,2.148-0.868c0.816,0,1.493,0.242,2.028,0.728
		c0.536,0.485,0.803,1.118,0.803,1.898c0,0.571-0.141,1.04-0.423,1.406s-0.626,0.55-1.032,0.55
		C107.951,125.277,107.687,124.991,107.685,124.42z M107.04,122.46c-0.298,0-0.539,0.143-0.724,0.426
		c-0.184,0.283-0.274,0.636-0.274,1.056c0,0.283,0.062,0.507,0.186,0.67c0.124,0.164,0.289,0.245,0.495,0.245
		c0.298,0,0.534-0.148,0.708-0.444c0.174-0.297,0.261-0.689,0.261-1.18C107.692,122.717,107.475,122.46,107.04,122.46z"/>
	<path d="M114.284,125.638c0,1.354-0.648,2.03-1.945,2.03c-0.457,0-0.855-0.087-1.196-0.26v-0.591
		c0.416,0.229,0.813,0.347,1.189,0.347c0.908,0,1.36-0.482,1.36-1.448v-0.402h-0.014c-0.281,0.471-0.704,0.706-1.268,0.706
		c-0.458,0-0.828-0.164-1.107-0.492s-0.42-0.768-0.42-1.32c0-0.627,0.151-1.125,0.452-1.495c0.301-0.368,0.714-0.555,1.237-0.555
		c0.496,0,0.865,0.199,1.105,0.599h0.014v-0.512h0.592V125.638L114.284,125.638z M113.693,124.265v-0.544
		c0-0.293-0.099-0.544-0.297-0.753c-0.197-0.21-0.444-0.313-0.739-0.313c-0.365,0-0.651,0.133-0.857,0.398
		c-0.206,0.265-0.31,0.637-0.31,1.114c0,0.41,0.099,0.738,0.297,0.984c0.197,0.247,0.46,0.369,0.787,0.369
		c0.331,0,0.601-0.117,0.809-0.354C113.589,124.934,113.693,124.632,113.693,124.265z"/>
	<path d="M120.717,125.933h-0.591v-2.118c0-0.408-0.063-0.703-0.189-0.886c-0.126-0.184-0.338-0.274-0.636-0.274
		c-0.252,0-0.467,0.115-0.643,0.346c-0.177,0.231-0.266,0.507-0.266,0.829v2.104h-0.591v-2.19c0-0.725-0.28-1.088-0.839-1.088
		c-0.259,0-0.473,0.109-0.642,0.326c-0.168,0.218-0.252,0.5-0.252,0.849v2.104h-0.59v-3.688h0.59v0.583h0.016
		c0.262-0.446,0.644-0.67,1.146-0.67c0.252,0,0.473,0.07,0.659,0.211c0.188,0.142,0.316,0.325,0.385,0.553
		c0.274-0.509,0.683-0.764,1.226-0.764c0.812,0,1.217,0.501,1.217,1.502V125.933z"/>
	<path d="M124.474,125.933h-0.591v-0.576h-0.014c-0.258,0.44-0.636,0.663-1.136,0.663c-0.367,0-0.654-0.099-0.862-0.292
		c-0.208-0.194-0.313-0.453-0.313-0.774c0-0.688,0.406-1.091,1.217-1.203l1.106-0.154c0-0.627-0.253-0.94-0.76-0.94
		c-0.444,0-0.847,0.151-1.203,0.454v-0.605c0.362-0.229,0.78-0.346,1.253-0.346c0.867,0,1.3,0.459,1.3,1.376v2.398H124.474z
		 M123.883,124.066l-0.89,0.123c-0.274,0.038-0.48,0.105-0.62,0.203s-0.209,0.27-0.209,0.517c0,0.181,0.063,0.328,0.192,0.441
		c0.128,0.113,0.3,0.171,0.514,0.171c0.293,0,0.534-0.104,0.726-0.309s0.286-0.465,0.286-0.778L123.883,124.066L123.883,124.066z"/>
	<path d="M125.89,121.308c-0.104,0-0.196-0.036-0.27-0.108c-0.074-0.072-0.112-0.163-0.112-0.272c0-0.11,0.038-0.202,0.112-0.275
		c0.073-0.073,0.165-0.11,0.27-0.11c0.108,0,0.2,0.037,0.276,0.11s0.112,0.165,0.112,0.275c0,0.104-0.037,0.194-0.112,0.27
		C126.09,121.271,125.998,121.308,125.89,121.308z M126.178,125.933h-0.59v-3.688h0.59V125.933z"/>
	<path d="M127.965,125.933h-0.59v-5.461h0.59V125.933z"/>
	<path d="M129.367,126.012c-0.111,0-0.205-0.039-0.283-0.119c-0.078-0.079-0.117-0.174-0.117-0.284s0.039-0.206,0.117-0.286
		c0.078-0.081,0.172-0.121,0.283-0.121s0.208,0.04,0.287,0.121c0.079,0.08,0.118,0.176,0.118,0.286s-0.039,0.205-0.118,0.284
		C129.575,125.973,129.479,126.012,129.367,126.012z"/>
	<path d="M131.366,125.399h-0.016v2.229h-0.591v-5.385h0.591v0.648h0.016c0.291-0.49,0.716-0.735,1.274-0.735
		c0.477,0,0.847,0.165,1.113,0.496c0.266,0.33,0.398,0.771,0.398,1.327c0,0.617-0.149,1.11-0.449,1.481
		c-0.302,0.371-0.711,0.558-1.232,0.558C131.994,126.02,131.625,125.813,131.366,125.399z M131.351,123.912v0.516
		c0,0.305,0.101,0.563,0.298,0.775s0.449,0.318,0.754,0.318c0.358,0,0.64-0.138,0.843-0.41c0.201-0.273,0.304-0.654,0.304-1.142
		c0-0.411-0.095-0.732-0.284-0.967c-0.188-0.231-0.447-0.35-0.771-0.35c-0.345,0-0.62,0.12-0.829,0.358
		C131.456,123.252,131.351,123.552,131.351,123.912z"/>
	<path d="M135.688,125.933h-0.591v-5.461h0.591V125.933z"/>
</g>
<g>
	<path fill="#58585A" d="M153.879,125.903c-0.113,0.063-0.263,0.094-0.448,0.094c-0.524,0-0.788-0.293-0.788-0.879v-1.774h-0.516
		v-0.41h0.516V122.2l0.48-0.155v0.889h0.756v0.41h-0.756v1.689c0,0.201,0.034,0.345,0.103,0.431c0.069,0.086,0.183,0.13,0.34,0.13
		c0.121,0,0.227-0.033,0.313-0.101V125.903z"/>
	<path fill="#58585A" d="M156.89,124.553h-2.118c0.008,0.334,0.099,0.592,0.271,0.772s0.408,0.272,0.709,0.272
		c0.338,0,0.647-0.111,0.932-0.334v0.45c-0.264,0.191-0.612,0.287-1.046,0.287c-0.424,0-0.757-0.137-0.999-0.407
		c-0.242-0.273-0.363-0.656-0.363-1.15c0-0.467,0.133-0.847,0.396-1.141c0.264-0.295,0.594-0.441,0.986-0.441
		c0.392,0,0.695,0.127,0.91,0.381c0.216,0.254,0.322,0.606,0.322,1.058V124.553z M156.398,124.146
		c-0.002-0.277-0.068-0.493-0.199-0.647c-0.134-0.153-0.315-0.23-0.551-0.23c-0.227,0-0.419,0.081-0.577,0.243
		c-0.157,0.161-0.256,0.374-0.293,0.636L156.398,124.146L156.398,124.146z"/>
	<path fill="#58585A" d="M158.097,125.933h-0.479v-4.441h0.479V125.933z"/>
	<path fill="#58585A" d="M159.237,123.519c-0.09,0-0.167-0.032-0.229-0.098c-0.063-0.064-0.095-0.142-0.095-0.23
		s0.03-0.166,0.095-0.229c0.063-0.063,0.141-0.094,0.229-0.094c0.093,0,0.171,0.031,0.234,0.094c0.064,0.063,0.097,0.14,0.097,0.229
		s-0.031,0.167-0.097,0.23C159.406,123.486,159.329,123.519,159.237,123.519z M159.237,125.997c-0.09,0-0.167-0.032-0.229-0.097
		c-0.063-0.065-0.095-0.143-0.095-0.231s0.03-0.167,0.095-0.231c0.063-0.065,0.141-0.1,0.229-0.1c0.093,0,0.171,0.033,0.234,0.1
		c0.064,0.065,0.097,0.143,0.097,0.231s-0.031,0.167-0.097,0.231C159.406,125.964,159.329,125.997,159.237,125.997z"/>
</g>
<g>
	<path d="M165.264,120.828v0.56c-0.267-0.138-0.548-0.205-0.843-0.205c-0.459,0-0.825,0.204-1.102,0.611
		c-0.273,0.408-0.411,0.954-0.411,1.64h0.015c0.239-0.487,0.634-0.731,1.181-0.731c0.452,0,0.812,0.146,1.077,0.436
		c0.266,0.288,0.4,0.677,0.4,1.16c0,0.508-0.152,0.922-0.458,1.241c-0.306,0.32-0.692,0.481-1.163,0.481
		c-0.52,0-0.926-0.207-1.223-0.62c-0.295-0.413-0.441-0.993-0.441-1.74c0-0.905,0.192-1.628,0.58-2.168
		c0.387-0.54,0.896-0.811,1.53-0.811C164.767,120.681,165.053,120.729,165.264,120.828z M163.975,123.202
		c-0.306,0-0.553,0.104-0.742,0.311c-0.189,0.207-0.284,0.449-0.284,0.73c0,0.354,0.095,0.654,0.282,0.904
		c0.188,0.25,0.438,0.374,0.751,0.374c0.298,0,0.538-0.108,0.722-0.325c0.183-0.218,0.272-0.493,0.272-0.827
		c0-0.365-0.088-0.649-0.263-0.856C164.538,123.306,164.292,123.202,163.975,123.202z"/>
	<path d="M167.815,126.02c-0.511,0-0.91-0.221-1.196-0.659c-0.287-0.439-0.432-1.075-0.432-1.906c0-0.912,0.149-1.603,0.448-2.071
		c0.3-0.468,0.731-0.701,1.296-0.701c1.08,0,1.62,0.883,1.62,2.646c0,0.874-0.152,1.541-0.457,2.001S168.363,126.02,167.815,126.02z
		 M167.898,121.182c-0.736,0-1.104,0.748-1.104,2.243c0,1.397,0.36,2.097,1.084,2.097c0.714,0,1.069-0.71,1.069-2.132
		C168.947,121.917,168.597,121.182,167.898,121.182z"/>
	<path d="M171.792,126.02c-0.511,0-0.91-0.221-1.197-0.659c-0.287-0.439-0.431-1.075-0.431-1.906c0-0.912,0.148-1.603,0.447-2.071
		c0.301-0.468,0.731-0.701,1.297-0.701c1.079,0,1.619,0.883,1.619,2.646c0,0.874-0.151,1.541-0.457,2.001
		C172.766,125.79,172.339,126.02,171.792,126.02z M171.875,121.182c-0.737,0-1.105,0.748-1.105,2.243
		c0,1.397,0.361,2.097,1.084,2.097c0.714,0,1.07-0.71,1.07-2.132C172.923,121.917,172.574,121.182,171.875,121.182z"/>
	<path d="M176.47,125.846v-0.568c0.289,0.163,0.594,0.244,0.915,0.244c0.469,0,0.833-0.188,1.094-0.565
		c0.262-0.377,0.392-0.912,0.392-1.605c-0.005,0.003-0.011,0.003-0.016,0c-0.221,0.443-0.604,0.667-1.151,0.667
		c-0.442,0-0.806-0.15-1.088-0.45c-0.283-0.301-0.426-0.688-0.426-1.16c0-0.505,0.155-0.918,0.467-1.241
		c0.312-0.322,0.709-0.483,1.193-0.483c0.509,0,0.906,0.2,1.19,0.604c0.285,0.402,0.427,0.987,0.427,1.756
		c0,0.953-0.185,1.688-0.555,2.204c-0.369,0.518-0.885,0.775-1.541,0.775C177.025,126.02,176.725,125.962,176.47,125.846z
		 M177.796,121.182c-0.286,0-0.524,0.106-0.715,0.321c-0.191,0.216-0.287,0.488-0.287,0.819c0,0.362,0.094,0.647,0.281,0.855
		c0.187,0.208,0.439,0.312,0.76,0.312c0.279,0,0.515-0.095,0.708-0.284c0.192-0.188,0.29-0.422,0.29-0.694
		c0-0.393-0.097-0.712-0.288-0.958C178.353,121.305,178.104,121.182,177.796,121.182z"/>
	<path d="M181.765,126.02c-0.511,0-0.91-0.221-1.197-0.659c-0.287-0.439-0.431-1.075-0.431-1.906c0-0.912,0.149-1.603,0.448-2.071
		c0.3-0.468,0.73-0.701,1.296-0.701c1.08,0,1.62,0.883,1.62,2.646c0,0.874-0.152,1.541-0.457,2.001
		C182.739,125.79,182.313,126.02,181.765,126.02z M181.848,121.182c-0.737,0-1.104,0.748-1.104,2.243
		c0,1.397,0.36,2.097,1.084,2.097c0.714,0,1.069-0.71,1.069-2.132C182.897,121.917,182.547,121.182,181.848,121.182z"/>
	<path d="M185.743,126.02c-0.512,0-0.91-0.221-1.197-0.659c-0.287-0.439-0.431-1.075-0.431-1.906c0-0.912,0.148-1.603,0.447-2.071
		c0.3-0.468,0.731-0.701,1.296-0.701c1.08,0,1.62,0.883,1.62,2.646c0,0.874-0.151,1.541-0.457,2.001
		C186.717,125.79,186.291,126.02,185.743,126.02z M185.826,121.182c-0.737,0-1.105,0.748-1.105,2.243
		c0,1.397,0.361,2.097,1.084,2.097c0.714,0,1.07-0.71,1.07-2.132C186.875,121.917,186.525,121.182,185.826,121.182z"/>
	<path d="M190.274,125.742v-0.638c0.354,0.277,0.752,0.417,1.196,0.417c0.36,0,0.647-0.09,0.862-0.271s0.321-0.423,0.321-0.728
		c0-0.675-0.479-1.013-1.437-1.013h-0.429v-0.5h0.405c0.854,0,1.279-0.317,1.279-0.951c0-0.586-0.325-0.879-0.977-0.879
		c-0.362,0-0.704,0.123-1.026,0.371v-0.577c0.331-0.196,0.723-0.295,1.175-0.295c0.436,0,0.782,0.114,1.042,0.346
		c0.262,0.229,0.393,0.526,0.393,0.887c0,0.679-0.347,1.116-1.038,1.312v0.015c0.372,0.036,0.669,0.166,0.889,0.391
		c0.22,0.226,0.329,0.505,0.329,0.842c0,0.464-0.166,0.838-0.499,1.121c-0.332,0.285-0.771,0.429-1.316,0.429
		C190.955,126.02,190.565,125.927,190.274,125.742z"/>
	<path d="M197.143,120.828v0.56c-0.267-0.138-0.548-0.205-0.843-0.205c-0.459,0-0.825,0.204-1.101,0.611
		c-0.274,0.408-0.412,0.954-0.412,1.64h0.015c0.239-0.487,0.634-0.731,1.181-0.731c0.452,0,0.812,0.146,1.077,0.436
		c0.267,0.288,0.4,0.677,0.4,1.16c0,0.508-0.152,0.922-0.458,1.241c-0.306,0.32-0.692,0.481-1.163,0.481
		c-0.52,0-0.926-0.207-1.222-0.62s-0.442-0.993-0.442-1.74c0-0.905,0.193-1.628,0.58-2.168s0.896-0.811,1.53-0.811
		C196.646,120.681,196.932,120.729,197.143,120.828z M195.854,123.202c-0.306,0-0.553,0.104-0.742,0.311
		c-0.189,0.207-0.284,0.449-0.284,0.73c0,0.354,0.095,0.654,0.282,0.904c0.188,0.25,0.438,0.374,0.751,0.374
		c0.299,0,0.538-0.108,0.722-0.325c0.183-0.218,0.272-0.493,0.272-0.827c0-0.365-0.088-0.649-0.263-0.856
		C196.417,123.306,196.17,123.202,195.854,123.202z"/>
	<path d="M201.214,125.933h-3.112v-0.526l1.506-1.509c0.385-0.384,0.658-0.704,0.823-0.96c0.164-0.256,0.246-0.529,0.246-0.819
		c0-0.298-0.085-0.528-0.255-0.69c-0.171-0.164-0.413-0.245-0.729-0.245c-0.461,0-0.901,0.195-1.324,0.591v-0.62
		c0.402-0.314,0.873-0.472,1.407-0.472c0.461,0,0.824,0.125,1.088,0.375c0.266,0.249,0.396,0.584,0.396,1.005
		c0,0.331-0.091,0.654-0.273,0.971c-0.182,0.316-0.511,0.708-0.982,1.176l-1.192,1.179v0.015h2.402V125.933L201.214,125.933z"/>
</g>
</svg>
