<?xml version="1.0" encoding="utf-8"?>
<!-- Generator: Adobe Illustrator 16.0.3, SVG Export Plug-In . SVG Version: 6.00 Build 0)  -->
<!DOCTYPE svg PUBLIC "-//W3C//DTD SVG 1.1//EN" "http://www.w3.org/Graphics/SVG/1.1/DTD/svg11.dtd">
<svg version="1.1" id="Layer_1" xmlns="http://www.w3.org/2000/svg" xmlns:xlink="http://www.w3.org/1999/xlink" x="0px" y="0px"
	 width="537.627px" height="531.547px" viewBox="51.257 57.727 537.627 531.547"
	 enable-background="new 51.257 57.727 537.627 531.547" xml:space="preserve">
<polygon points="62.375,581.441 184.115,583.947 311.653,589.273 439.205,583.463 559.779,580.252 567.292,459.697 561.203,332.16 
	574.984,204.604 563.138,80.673 439.222,78.129 311.684,71.78 184.127,79.12 51.528,72 59.023,204.589 58.279,332.127 
	63.199,459.529 "/>
<polygon fill="#EFEFEF" points="76.548,567.387 198.288,569.895 325.826,575.217 453.378,569.412 573.951,566.201 581.468,445.645 
	575.376,318.106 589.155,190.551 577.312,66.622 453.396,64.078 325.859,57.727 198.3,65.065 65.699,57.948 73.196,190.538 
	72.45,318.076 77.374,445.477 "/>
<g>
	<path fill="#C20E1A" d="M278.8,450.77c0.117,3.809-50.051,85.893-1.694,85.893s93.948-33.313,81.875-85.193
		s-59.967-118.896-78.627-142.286c-18.263-22.885-61.119-76.403-80.925-116.97c-19.256-39.439-30.651-80.606,44.949-87.621
		c66.558-6.175,125.598,20.177,145.752,36.167c22.984,18.237,51.76,47.374,40.703,76.792c-9.445,25.139-50.479,74.479-53.033,72.263
		c-2.553-2.218,27.35-51.824,36.537-69.78c9.828-19.204-0.607-36.433-13.748-51.268c-29.035-32.773-70.914-46.563-104.457-50.687
		c-23.815-2.927-72.17-7.774-88.935,12.56c-18.935,22.965,9.565,68.404,22.857,87.972c29.519,43.454,63.902,87.095,92.855,130.875
		c38.426,58.098,87.463,152.432-5.396,190.26c-18.68,7.609-51.695,13.953-65.373-4.422c-14.103-18.945,4.621-47.857,14.569-64.828
		C270.604,463.855,274.708,457.314,278.8,450.77"/>
</g>
<g>
	<path d="M419.513,165.979c8.219,4.393,15.764,26.4,16.123,28.836c8.854-5.685,16.824-12.915,15.4-22.87
		C450.031,164.881,422.82,162.774,419.513,165.979"/>
</g>
<g>
	<path d="M407.605,182.53c5.557,6.03,7.586,13.671,8.924,21.2C406.167,200.815,408.494,190.243,407.605,182.53"/>
</g>
<g>
	<path fill="#FFFFFF" d="M399.687,265.904c2.396-0.106,4.231-1.849,4.104-3.887c-0.125-2.041-1.279-4.526-3.675-4.422
		c-2.396,0.107-5.121,2.767-4.996,4.807C395.25,264.443,397.292,266.009,399.687,265.904"/>
</g>
<g>
	<path fill="none" stroke="#FFFFFF" d="M399.687,265.904c2.396-0.106,4.231-1.849,4.104-3.887c-0.125-2.041-1.279-4.526-3.675-4.422
		c-2.396,0.107-5.121,2.767-4.996,4.807C395.25,264.443,397.292,266.009,399.687,265.904z"/>
</g>
<g>
	<path d="M399.859,266.557c1.674-0.074,2.959-1.338,2.869-2.817c-0.091-1.481-0.898-3.285-2.572-3.209
		c-1.676,0.077-3.58,2.004-3.489,3.483C396.755,265.495,398.184,266.633,399.859,266.557"/>
</g>
<rect x="246.423" y="326.945" fill="#EFEFEF" width="234.957" height="223.367"/>
<path fill="#C20E1A" d="M301.585,340.91c0.379,0.063,34.742,60.885,51.678,86.338c22.926,34.455,53.086,66.344,94.811,76.006
	c22.799,5.279,39.287,7.221,69.4,2.059c30.109-5.164,14.594-6.951,0.371-6.52c-14.223,0.439-59.938,12.455-109.813-24.881
	c-31.549-23.615-56.068-70.936-76.215-103.944c-11.168-18.303-21.376-37.396-33.039-55.389c-1.533-1.363-5.285-2.906-7.597-2.18
	c-2.409,0.754-3.013,3.852-3.751,5.896C287.432,318.297,297.94,335.527,301.585,340.91"/>
<path d="M354.234,315.49c0.265-1.586,0.813-5.092,0.824-6.482c0.002-0.494-0.06-1.262-0.189-2.125
	c1.289,0.354,2.541,1.25,3.929,3.193c1.319,1.856,2.981,4.783,4.254,7.127c-0.219-0.068-0.426-0.119-0.614-0.145
	C360.031,316.744,356.654,316.535,354.234,315.49 M347.9,310.928c0.002-0.004,1.047-3.713,3.685-4.092
	c0.942-0.135,1.813-0.205,2.657-0.084c0.019,0.398-0.008,0.84-0.086,1.334c-0.438,2.746-0.763,5.398-0.931,6.875
	c-0.098-0.061-0.194-0.119-0.286-0.186C351.113,313.471,348.902,312.012,347.9,310.928 M348.871,303.172
	c1.822,0.105,3.578,0.369,4.563,1.439c-1.005-0.193-1.983-0.068-2.847,0.612c-1.512,1.195-2.787,2.938-3.506,4.029
	c-0.137-0.303-0.309-0.633-0.512-0.959l0.07-1.197C346.646,307.098,345.818,302.998,348.871,303.172 M371.714,326.188
	c0.047-2.313-3.578-6.074-6.604-7.977c-1.896-3.703-5.271-9.754-6.774-10.924c-1.091-0.848-2.468-1.846-3.865-2.379
	c-0.461-1.785-1.2-3.455-2.258-3.707c-1.99-0.473-6.072-0.381-6.498,2.582c-0.166,1.156-0.226,2.238-0.233,3.131
	c-0.338-0.318-0.688-0.557-1.043-0.646c-1.328-0.349-2.521,0.87-3.613,0.041c-1.094-0.832-1.276-4.64-4.721-7.229
	c-3.438-2.588-9.57-1.701-24.493-3.223c-14.922-1.523-13.502,4.653-14.688,8.45c0,0-0.693,2.656-0.375,5.447
	s5.352,2.424,5.352,2.424s-1.449,1.871-3.766,3.802c-2.314,1.931-4.507,4.22-13.633,6.97c-9.127,2.752-15.777,4.969-20.924,3.604
	c-5.148-1.364-9.753-1.629-14.897-0.413c-5.143,1.213-13.589,0.104-17.216-1.063s-3.743,3.631-5.571,8.372
	c-1.827,4.744-8.42,14.355-15.24,23.084c-6.82,8.728-8.576,15.541-7.411,18.441c1.164,2.902,5.28,0.354,9.539-4.588
	c4.259-4.938,12.738-24.959,15.292-30c2.554-5.039,6.4-6.842,12.387-7.939c5.988-1.104,22.24,2.066,24.134,3.349
	c1.894,1.28,7.983,0.707,14.331,0.687c6.348-0.021,17.137-0.836,17.137-0.836s0.941,11.121,0.592,13.772
	c-0.35,2.655-4.451,1.185-8.865,0.772c-4.413-0.41-14.194,2.084-21.657,2.646c-7.464,0.563-6.646-1.731-9.34-3.465
	c-2.694-1.729-5.654,5.102-14.017,13.793c-8.362,8.694-23.61,13.562-32.611,16.671c-9.002,3.111-14.017,7.268-13.315,9.764
	c0.702,2.498,4.307,3.832,8.192,4.346c3.885,0.512,35.804-20.031,39.548-23.663c3.743-3.633,4.961-2.44,14.478-6.858
	c9.518-4.418,12.821-2.092,31.513-0.487c18.691,1.601,18.83-9.896,20.103-16.944c1.272-7.049,1.192-7.748,2.521-7.399
	c1.33,0.349,1.813,0.582,4.371,0.746c2.558,0.164,2.498-0.703,2.996,0.737c0.498,1.439,0.441,3.152,3.771,5.31
	c3.322,2.156,4.979,1.345,8.953,1.181c3.973-0.164,2.422-5.354,6.01-7.803c3.588-2.447,5.916-3.175,5.737-1.82
	c-0.179,1.354-2.015,13.998-2.644,16.147c-0.627,2.151-2.139,0.576-1.934,1.637c0.203,1.059,1.027,3.916,2.715,1.563
	c1.688-2.355,4.242-21.783,5.252-24.229c1.012-2.444,3.047-3.554,4.082-3.59c1.035-0.033,0.521,1.271,2.154,3.206
	c1.635,1.935,3.383,3.022,2.064,3.884c-1.313,0.854,0.771,1.987,1.771,3.496c1.006,1.508,5.041-1.74,3.529-3.313
	s0.518-1.308,3.396-2.304C368.314,332.439,371.652,329.271,371.714,326.188"/>
<text transform="matrix(1 0 0 1 253.9492 463.2061)" font-family="'ArialMT'" font-size="30"> </text>
</svg>
