<?xml version="1.0" encoding="utf-8"?>
<!-- Generator: Adobe Illustrator 16.0.3, SVG Export Plug-In . SVG Version: 6.00 Build 0)  -->
<!DOCTYPE svg PUBLIC "-//W3C//DTD SVG 1.1//EN" "http://www.w3.org/Graphics/SVG/1.1/DTD/svg11.dtd">
<svg version="1.1" id="Layer_1" xmlns="http://www.w3.org/2000/svg" xmlns:xlink="http://www.w3.org/1999/xlink" x="0px" y="0px"
	 width="820.121px" height="1010px" viewBox="0 0 820.121 1010" enable-background="new 0 0 820.121 1010" xml:space="preserve">
<rect x="2.304" y="0.071" fill="#BFBFBF" width="820.08" height="1009.89"/>
<path d="M455.542,136.223c0,0,14.827,18.531-7.873,20.386c-22.704,1.854-46.797-2.776-64.863,46.333
	c-18.073,49.113-26.875,120.931-19,145.486c7.879,24.559,20.165,42.805,66.577,54.065c46.418,11.269,15.537,3.688,15.537,3.688
	s-14.117,1.751-35.313-5.438c-21.196-7.188-85.288-42.144-106.654-92.638c-21.362-50.498-31.265-72.439-21.943-125.07
	c9.322-52.636,37.096-76.907,64.862-82.539c27.775-5.637,51.741-10.928,79.751,0.597c28.011,11.521,50.933,27.043,61.238,41.595
	c10.312,14.556,11.396,14.672,15.154,21.949c3.765,7.274,0.488-3.639-8.729-7.156c-9.217-3.515-20.496,0.976-32.136-14.792
	c-11.646-15.765-13.226-17.344-13.226-17.344S452.214,130.645,455.542,136.223"/>
<path d="M510.126,187.234c0,0,0.416,2.791,0.584,4.001c0.155,1.211,0,1.854,0,1.854s-1.896-2.345-9.77-2.927
	c-7.868-0.584-34.697-1.532-50.962-1.241c-16.271,0.289-45.332,0.939-54.086,1.241c-8.765,0.3-35.607,0.686-51.776,2.029
	c-16.169,1.351-46.676,4.042-55.047,5.002c-8.376,0.968-8.878,0.935-8.878,0.935l0.731-6.2c0,0,37.188-3.139,57.146-4.167
	c19.959-1.032,80.354-2.705,89.751-2.833c9.397-0.129,50.604-0.645,58.075,0C493.366,185.572,505.896,186.064,510.126,187.234"/>
<path d="M514.068,215.622c0,0-2.813-1.188-3.623-0.813c-0.806,0.373-4.931-0.249-5.359-0.937c-0.438-0.688-1.003,0.747-3.248,0.873
	c-2.247,0.125-3.684-1.996-5.488-1.873c-1.813,0.125-2.686,1.997-4.557,1.997s-0.313-2.063-2.493-2.313
	c-2.188-0.249-2.872,1.812-3.743,1.527c-0.874-0.28-0.688-2.09-2.438-2.09c-1.747,0-3.06,2.06-4.302,1.813
	c-1.253-0.251-1.253-1.375-3.563-1.563c-2.313-0.188-3.309,1.937-4.558,1.563c-1.249-0.375-0.75-1.313-2.745-1.313
	s-2.379,1.747-3.563,1.685c-1.188-0.063-2.497-1.874-4.177-1.874c-1.688,0-3.001,2.937-4.932,2.438
	c-1.938-0.498-1.063-1.997-2.813-2.062c-1.747-0.063-3.367,2.244-4.434,2.188c-1.063-0.063-1.495-1.688-3.367-1.688
	s-3.438,2.312-4.368,2.063c-0.938-0.25-0.504-3.186-3.246-2.62c-2.747,0.562-3.808,2.622-5.362,2.558
	c-1.563-0.062-3.247-1.996-4.617-1.747c-1.375,0.25-2.621,1.688-3.938,1.747c-1.31,0.063-1.685-1.743-3.931-1.369
	c-2.245,0.37-2.933,2.366-3.995,2.366c-1.061,0-3.994-2.121-4.865-2.089c-0.87,0.03-2.809,2.521-4.24,2.521
	c-1.438,0-3.499-0.996-5.118-0.808c-1.622,0.188-1.314,3.12-4.681,3.682c-3.37,0.563-2.438-1.31-3.438-0.812
	c-0.997,0.499-0.87,2.995-2.616,3.244c-1.75,0.249-2.001-0.938-3.622,0c-1.62,0.938-2.988,2.06-3.306,2.06
	c-0.313,0-0.753-0.625-1.937,0c-1.188,0.625-1.063,1.813-2.06,2.247c-1,0.438-4.104,0.789-5.076,1.261
	c-0.976,0.477-10.151,5.859-11.046,9.756c-0.887,3.896,6.343,2.566,9.327,0.646c2.984-1.925,4.945,1.379,6.433-2.683
	c1.104-3.019,0.454-3.171,1.32-4.036c0.866-0.866,2.791-0.098,4.428-0.771c1.64-0.672-0.283-2.596,2.021-3.65
	c2.313-1.063,2.115,0.479,3.75,0.188c1.638-0.289,1.449-1.729,4.62-3.178c3.175-1.442,2.216,0.385,3.946-0.383
	c1.729-0.771,0.96-2.021,2.503-2.503c1.54-0.479,2.98,0.573,4.717,0.284c1.729-0.284,1.059-1.825,4.424-2.021
	c3.371-0.192,0.771,1.445,3.755,0.964c2.985-0.479,3.18-2.215,4.909-2.119c1.734,0.101,0.388,1.83,3.083,1.731
	c2.689-0.099,3.463-1.635,4.521-1.635c1.063,0,1.063,1.44,4.426,1.346c3.367-0.096,3.183-1.538,4.909-1.732
	c1.731-0.188,2.021,1.542,4.521,1.156c2.498-0.385,1.059-1.729,2.889-1.729c1.829,0,3.079,1.538,4.425,1.438
	c1.354-0.096,2.313-2.212,3.66-2.212c1.342,0,3.172,2.116,6.154,2.021c2.98-0.1,1.44-1.441,3.466-1.729
	c2.021-0.289,2.313,0.768,3.754,0.961c1.442,0.193,2.695-1.155,3.854-1.155c1.146,0,0.479,1.734,2.79,1.54
	c2.313-0.188,2.79-2.213,4.616-2.118c1.827,0.101,1.444,2.021,3.465,2.021c2.021,0,0.862-1.731,2.79-1.827
	c1.927-0.099,1.927,2.117,3.468,2.021c1.537-0.102,2.399-1.443,3.754-0.965c1.348,0.479,1.059,1.928,3.561,1.827
	c2.504-0.097,2.021-2.02,4.043-1.827c2.021,0.19,2.405,2.215,4.044,2.021c1.643-0.192,1.15-2.021,3.37-1.732
	c2.212,0.287,2.112,2.313,3.562,2.313c1.442,0,1.445-1.537,2.979-1.346c1.539,0.188,0.194,0.961,1.927,1.439
	C515.131,220.295,514.354,217.109,514.068,215.622"/>
<path fill="none" stroke="#000000" stroke-width="0.5107" stroke-linecap="round" stroke-miterlimit="10" d="M507.969,244.124
	c0,0,0,6.475-2.06,8.604c-2.054,2.129-8.479,3.749-12.021,2.813c-3.539-0.938-6.422-2.729-8.725-3.321
	c-2.307-0.595-4.279,0.721-4.612-0.789 M391.618,251.427c0,0,7.213,2.082,9.688,3.716c2.474,1.635,6.657,5.972,15.73,5.479
	c9.063-0.499,12.983-4.979,15.665-5.267c2.682-0.285,4.672,0.497,6.047-0.143c1.37-0.645,0-2.135,0-2.135"/>
<path d="M418.248,244.66c0,0-3.921,5.499-1.713,9.33c2.208,3.827,4.371,4.864,7.89,4.554c3.52-0.315,6.222-4.417,6.133-7.708
	c-0.091-3.291-1.852-6.236-4.104-6.926C424.194,243.217,420.411,242.947,418.248,244.66"/>
<path d="M496.281,242.232c0,0-2.34,4.146-0.579,7.364c1.761,3.218,4.404,4.833,6.271,4.716c1.872-0.121,5.52-3.339,5.677-7.599
	c0.156-4.257-1.676-5.698-5.235-5.938C498.855,240.54,497.063,241.14,496.281,242.232"/>
<path d="M484.753,291.295c0,0,6.697,15.559,7.088,17.92c0.396,2.358,0.046,6.942-5.514,7.68c-5.876,0.773-10.236-3.545-13.979-3.545
	c-3.737,0-6.498,2.167-10.829,2.362c-4.335,0.193-8.402,0.591-9.424-3.546c-1.018-4.138-1.402-5.905-1.402-5.905
	s-3.932,10.688,0,12.775c3.918,2.094,9.213,0.401,13.343-0.666c4.138-1.063,9.915,0.122,10.229,1.661
	c0.313,1.54-0.092,2.161,4.67,1.539c4.752-0.623,11.969-3.021,13.027-6.001c1.063-2.979,0.839-4.979,0.396-6.487
	C491.908,307.571,484.753,291.295,484.753,291.295"/>
<path d="M469.51,345.608c1.06-0.144,4.854-2.782,6.521-2.938c1.666-0.158,5.001,1.747,6.913,1.471
	c1.901-0.278,3.568-2.104,3.568-2.104s-2.225,2.62-5.083,3.575c-2.858,0.953-5.247,0.396-6.833,1.434
	c-1.589,1.026-4.29,3.336-7.464,2.856c-3.182-0.478-6.997-1.302-10.892,0.063c-3.894,1.364-8.26,2.318-10.242,2.082
	c-1.989-0.236-4.053-0.799-4.053-0.799s7.464,0.081,10.325-1.029c2.856-1.11,8.5-4.13,9.931-4.771
	C463.637,344.813,465.94,346.084,469.51,345.608"/>
<path d="M312.934,328.772c0,0,6.289,8.676,8.455,11.276c2.173,2.604,3.47,3.897,4.341,10.403c0.862,6.509,0,39.688,0,39.688
	s0,40.334-2.604,42.938c-2.603,2.604-6.509,3.251-10.188,6.289c-3.688,3.037-6.729-24.724-5.423-30.688
	c1.297-5.962,2.422-6.828-0.311-15.068c-2.729-8.24-4.024-12.794-1.208-17.998c2.813-5.205,4.771-13.442,4.55-21.468
	C310.331,346.117,308.595,333.762,312.934,328.772"/>
<path d="M399.068,456.089c0-3.021,2.502-5.473,5.591-5.473c3.088,0,5.593,2.446,5.593,5.473c0,3.021-2.505,5.466-5.593,5.466
	C401.569,461.555,399.068,459.109,399.068,456.089"/>
<path d="M410.975,447.948c0-3.021,2.506-5.472,5.592-5.472c3.084,0,5.59,2.449,5.59,5.472c0,3.021-2.504,5.466-5.59,5.466
	C413.479,453.41,410.975,450.97,410.975,447.948"/>
<path d="M421.098,439.856c0-3.021,2.502-5.469,5.593-5.469c3.085,0,5.59,2.447,5.59,5.469c0,3.021-2.505,5.469-5.59,5.469
	C423.6,445.323,421.098,442.879,421.098,439.856"/>
<path d="M430.379,431.924c0-2.889,2.162-5.229,4.834-5.229c2.67,0,4.837,2.34,4.837,5.229c0,2.886-2.167,5.227-4.837,5.227
	C432.541,437.149,430.379,434.809,430.379,431.924"/>
<path d="M436.18,422.902c0-2.887,2.162-5.227,4.842-5.227c2.67,0,4.83,2.34,4.83,5.227c0,2.884-2.16,5.229-4.83,5.229
	C438.344,428.129,436.18,425.782,436.18,422.902"/>
<path d="M438.814,417.933c0-2.886,2.159-5.229,4.838-5.229c2.67,0,4.831,2.344,4.831,5.229c0,2.886-2.161,5.225-4.831,5.225
	C440.975,423.156,438.814,420.82,438.814,417.933"/>
<path d="M441.95,411.366c0-2.886,2.163-5.225,4.832-5.225c2.671,0,4.838,2.337,4.838,5.225c0,2.892-2.167,5.229-4.838,5.229
	C444.113,416.596,441.95,414.259,441.95,411.366"/>
<path d="M449.24,411.858c0-2.888,2.163-5.228,4.831-5.228c2.675,0,4.838,2.34,4.838,5.228c0,2.886-2.163,5.224-4.838,5.224
	C451.403,417.077,449.24,414.74,449.24,411.858"/>
<path d="M448.486,417.933c0-2.886,2.168-5.229,4.838-5.229c2.667,0,4.835,2.344,4.835,5.229c0,2.886-2.168,5.225-4.835,5.225
	C450.654,423.156,448.486,420.82,448.486,417.933"/>
<path d="M446.782,427.049c0-2.891,2.17-5.229,4.838-5.229c2.67,0,4.839,2.339,4.839,5.229c0,2.884-2.169,5.225-4.839,5.225
	C448.952,432.272,446.782,429.932,446.782,427.049"/>
<path d="M443.653,437.49c0-2.887,2.163-5.225,4.833-5.225c2.674,0,4.838,2.338,4.838,5.225c0,2.891-2.164,5.229-4.838,5.229
	C445.816,442.72,443.653,440.383,443.653,437.49"/>
<path d="M441.014,447.948c0-2.888,2.158-5.227,4.837-5.227c2.673,0,4.832,2.339,4.832,5.227c0,2.89-2.159,5.229-4.832,5.229
	C443.177,453.173,441.014,450.827,441.014,447.948"/>
<path d="M437.112,459.49c0-2.887,2.163-5.226,4.838-5.226c2.669,0,4.832,2.339,4.832,5.226c0,2.889-2.163,5.229-4.832,5.229
	C439.275,464.717,437.112,462.378,437.112,459.49"/>
<path d="M433.339,472.009c0-2.891,2.165-5.229,4.836-5.229s4.837,2.339,4.837,5.229c0,2.885-2.166,5.224-4.837,5.224
	C435.503,477.23,433.339,474.893,433.339,472.009"/>
<path d="M429.565,484.459c0-3.066,2.297-5.552,5.138-5.552c2.834,0,5.132,2.48,5.132,5.552c0,3.063-2.298,5.547-5.132,5.547
	C431.862,490.005,429.565,487.522,429.565,484.459"/>
<path d="M425.523,499.032c0-3.063,2.303-5.547,5.135-5.547c2.834,0,5.134,2.482,5.134,5.547c0,3.065-2.3,5.552-5.134,5.552
	C427.825,504.584,425.523,502.102,425.523,499.032"/>
<path d="M422.613,513.041c0-3.063,2.298-5.554,5.131-5.554c2.839,0,5.135,2.484,5.135,5.554c0,3.063-2.296,5.549-5.135,5.549
	C424.911,518.589,422.613,516.106,422.613,513.041"/>
<path d="M417.477,527.141c0-3.064,2.299-5.548,5.138-5.548c2.833,0,5.131,2.479,5.131,5.548c0,3.063-2.299,5.547-5.131,5.547
	C419.775,532.686,417.477,530.201,417.477,527.141"/>
<path d="M412.341,539.988c0-3.063,2.304-5.552,5.14-5.552s5.137,2.487,5.137,5.552s-2.301,5.548-5.137,5.548
	C414.641,545.531,412.341,543.053,412.341,539.988"/>
<path d="M407.208,554.036c0-3.063,2.296-5.55,5.134-5.55c2.842,0,5.139,2.484,5.139,5.55c0,3.063-2.297,5.553-5.139,5.553
	C409.505,559.588,407.208,557.101,407.208,554.036"/>
<path d="M386.383,461.555c0-3.063,2.307-5.545,5.143-5.545c2.833,0,5.134,2.479,5.134,5.545c0,3.063-2.301,5.549-5.134,5.549
	C388.686,467.104,386.383,464.616,386.383,461.555"/>
<path d="M372.959,465.74c0-3.063,2.298-5.547,5.14-5.547c2.836,0,5.135,2.482,5.135,5.547c0,3.065-2.298,5.547-5.135,5.547
	C375.257,471.285,372.959,468.807,372.959,465.74"/>
<path d="M359.831,467.763c0-3.063,2.298-5.547,5.134-5.547c2.833,0,5.143,2.479,5.143,5.547c0,3.063-2.31,5.547-5.143,5.547
	C362.129,473.31,359.831,470.825,359.831,467.763"/>
<path d="M347.993,466.781c0-3.063,2.298-5.547,5.134-5.547c2.838,0,5.138,2.482,5.138,5.547c0,3.063-2.299,5.55-5.138,5.55
	C350.291,472.328,347.993,469.845,347.993,466.781"/>
<path d="M338.754,461.555c0-3.063,2.302-5.545,5.136-5.545c2.84,0,5.139,2.479,5.139,5.545c0,3.063-2.298,5.549-5.139,5.549
	C341.052,467.104,338.754,464.616,338.754,461.555"/>
<path d="M330.234,454.266c0-3.063,2.302-5.547,5.137-5.547c2.833,0,5.136,2.479,5.136,5.547c0,3.063-2.302,5.547-5.136,5.547
	C332.536,459.813,330.234,457.328,330.234,454.266"/>
<path d="M325.101,445.892c0-3.063,2.298-5.547,5.134-5.547c2.837,0,5.138,2.479,5.138,5.547c0,3.063-2.3,5.55-5.138,5.55
	C327.399,451.442,325.101,448.959,325.101,445.892"/>
<path d="M312.817,438.713c0-3.063,2.299-5.552,5.134-5.552c2.837,0,5.138,2.485,5.138,5.552c0,3.063-2.3,5.55-5.138,5.55
	C315.116,444.261,312.817,441.778,312.817,438.713"/>
<path d="M311.943,445.892c0-3.063,2.298-5.547,5.138-5.547c2.833,0,5.131,2.479,5.131,5.547c0,3.063-2.298,5.55-5.131,5.55
	C314.241,451.442,311.943,448.952,311.943,445.892"/>
<path d="M310.129,454.266c0-3.063,2.304-5.547,5.143-5.547c2.833,0,5.131,2.479,5.131,5.547c0,3.063-2.298,5.547-5.131,5.547
	C312.429,459.813,310.129,457.328,310.129,454.266"/>
<path d="M309.698,463.36c0-3.063,2.298-5.548,5.134-5.548c2.837,0,5.136,2.483,5.136,5.548c0,3.063-2.298,5.547-5.136,5.547
	C311.995,468.906,309.698,466.425,309.698,463.36"/>
<path d="M307.683,472.009c0-3.063,2.3-5.548,5.133-5.548c2.84,0,5.134,2.48,5.134,5.548c0,3.063-2.294,5.547-5.134,5.547
	C309.981,477.555,307.683,475.071,307.683,472.009"/>
<path d="M305.951,479.515c0-3.064,2.298-5.549,5.133-5.549c2.84,0,5.143,2.479,5.143,5.549c0,3.063-2.303,5.549-5.143,5.549
	C308.249,485.063,305.951,482.573,305.951,479.515"/>
<path d="M303.783,489.184c0-3.063,2.302-5.545,5.138-5.545s5.138,2.479,5.138,5.545c0,3.063-2.303,5.549-5.138,5.549
	S303.783,492.25,303.783,489.184"/>
<path d="M302.547,499.032c0-3.063,2.302-5.547,5.14-5.547c2.835,0,5.133,2.482,5.133,5.547c0,3.065-2.298,5.552-5.133,5.552
	C304.845,504.584,302.547,502.102,302.547,499.032"/>
<path d="M299.857,509.26c0-3.063,2.301-5.547,5.138-5.547c2.835,0,5.134,2.482,5.134,5.547c0,3.063-2.298,5.551-5.134,5.551
	C302.157,514.81,299.857,512.323,299.857,509.26"/>
<path d="M298.651,520.355c0-3.063,2.298-5.547,5.132-5.547c2.835,0,5.138,2.479,5.138,5.547c0,3.066-2.302,5.55-5.138,5.55
	C300.949,525.905,298.651,523.424,298.651,520.355"/>
<path d="M297.413,531.448c0-3.063,2.298-5.546,5.134-5.546c2.837,0,5.14,2.483,5.14,5.546c0,3.063-2.302,5.557-5.14,5.557
	C299.711,537.003,297.413,534.514,297.413,531.448"/>
<path d="M294.724,543.948c0-3.063,2.298-5.548,5.132-5.548c2.839,0,5.138,2.484,5.138,5.548c0,3.064-2.298,5.549-5.138,5.549
	C297.023,549.493,294.724,547.013,294.724,543.948"/>
<path d="M292.28,555.532c0-3.063,2.294-5.547,5.133-5.547c2.835,0,5.134,2.483,5.134,5.547c0,3.063-2.298,5.552-5.134,5.552
	C294.574,561.086,292.28,558.599,292.28,555.532"/>
<path d="M290.574,567.119c0-3.063,2.298-5.546,5.133-5.546c2.838,0,5.141,2.481,5.141,5.546s-2.303,5.555-5.141,5.555
	C292.872,572.674,290.574,570.189,290.574,567.119"/>
<path d="M289.587,579.657c0-3.063,2.307-5.545,5.142-5.545c2.833,0,5.134,2.482,5.134,5.545c0,3.064-2.3,5.555-5.134,5.555
	C291.889,585.212,289.587,582.726,289.587,579.657"/>
<path d="M287.142,591.362c0-3.062,2.298-5.548,5.138-5.548c2.835,0,5.133,2.486,5.133,5.548c0,3.063-2.298,5.551-5.133,5.551
	C289.44,596.908,287.142,594.427,287.142,591.362"/>
<path d="M284.458,604.429c0-3.063,2.294-5.55,5.129-5.55c2.839,0,5.142,2.481,5.142,5.55c0,3.063-2.303,5.547-5.142,5.547
	C286.752,609.975,284.458,607.49,284.458,604.429"/>
<path d="M282.006,617.033c0-3.063,2.306-5.546,5.141-5.546s5.136,2.481,5.136,5.546c0,3.065-2.301,5.554-5.136,5.554
	S282.006,620.104,282.006,617.033"/>
<path d="M322.213,437.49c0-3.063,2.302-5.547,5.139-5.547c2.839,0,5.138,2.483,5.138,5.547c0,3.064-2.298,5.547-5.138,5.547
	C324.513,443.044,322.213,440.56,322.213,437.49"/>
<path d="M319.967,431c0-3.064,2.306-5.551,5.138-5.551c2.84,0,5.134,2.481,5.134,5.551c0,3.063-2.294,5.546-5.134,5.546
	C322.268,436.547,319.967,434.064,319.967,431"/>
<path d="M275.417,472.009c0,0-15.733,31.896-20.77,70.284c-5.031,38.394-6.922,63.254-4.091,64.822
	c2.832,1.572,52.282,5.979,61.387,8.497c9.104,2.52,40.257,6.924,55.047,10.068c14.787,3.146,97.233,26.435,101.014,14.475
	c3.773-11.959,10.383-45.313,18.88-62.937c8.498-17.625,19.516-34.669,31.47-51.32c11.959-16.646,18.258-23.791,19.197-28.405
	c0.944-4.604,0-7.488,0-7.488s42.644,29.02,59.575,53.938c16.938,24.926,34.646,35.703,37.348,106.147
	c2.69,70.445,5.771,86.611,5.771,103.938s-16.17,153.979-26.945,172.848c-10.771,18.859-58.808,69.678-64.58,73.121
	c-30.021,0-334.036-0.005-334.036-0.005s4.042-40.979,13.279-51.37c9.239-10.395,2.313-12.129,2.313-12.129
	s-20.211-10.395-31.76-17.318c-11.554-6.932-41.578-31.759-45.619-30.604c-4.042,1.154-8.662,14.438-8.662,20.212
	c0,5.775-10.968,27.144-22.521,28.871c-11.549,1.731-23.098-1.729-24.831,5.196c-1.729,6.932,2.313,28.872,9.24,30.028
	c6.931,1.15,10.973,8.224,5.196,10.754c-5.775,2.522-9.239,16.359-9.239,16.359H10v-172.05c0,0,16.436-26.563,19.319-35.226
	c2.887-8.661,32.916-34.065,42.155-38.688c9.235-4.622,15.591-25.399,27.713-27.713c12.127-2.313,16.169-17.324,18.479-27.144
	c2.313-9.815,11.55-11.55,20.789-27.723c9.236-16.168,30.604-72.177,31.179-83.146c0.578-10.971,9.817-41.668,27.144-62.407
	c17.324-20.741,38.688-33.766,54.854-42.267C267.798,475.135,275.417,472.009,275.417,472.009"/>
<path d="M397.024,249.979c0,0,9.794-4.479,13.061-5.688c4.953-1.833,11.502-3.201,15.247-3.017c3.753,0.19,7.938,3.952,8.688,5.643
	c0.757,1.688,1.315,2.563,1.815,3.063c0.498,0.497-5.489-5.889-10.563-6.146c-4.939-0.25-11.874,1.581-15.688,2.579
	C405.772,247.415,397.024,249.979,397.024,249.979"/>
<path d="M501.347,239.107c2.904,0,6.419,3.419,6.516,4.097c0.1,0.673,0,1.243,0,1.243s-2.108-3.651-6.516-3.556
	c-4.401,0.095-8.979,1.189-12.3,3.556c-3.315,2.361-6.732,5.014-6.732,5.014s5.726-5.582,7.409-6.834
	c1.685-1.25,4.957-3.082,7.411-3.416C499.588,238.87,501.347,239.107,501.347,239.107"/>
<path d="M482.313,241.26c0,0,8.153-12.216,12.729-15.378c4.576-3.167,10.688-2.979,11.831-2.979c1.15,0-5.347,3.821-10.12,7.068
	C491.973,233.223,483.923,239.749,482.313,241.26"/>
<path d="M450.286,235.514c0,0-2.866-8.594-15.284-11.65c-12.413-3.056-13.563-2.861-13.563-2.861s10.061,4.005,16.202,7.254
	C443.792,231.505,447.991,232.839,450.286,235.514"/>
<path d="M410.884,579.49c0,0,24.917-3.63,29.574-3.362c4.661,0.264,25.087,7.313,25.087,7.313s-13.297-52.456-32.549-57.279
	C413.749,521.346,408.237,557.56,410.884,579.49"/>
<path fill="#EFEFEF" d="M332.141,644.067c0,0,14.605,8.211,16.438,9.659c1.836,1.449,12.776-23.682,19.077-34.262
	c6.296-10.576,11.313-13.729,15.738-18.453c4.429-4.732,6.884-14.867,5.202-15.422c-1.688-0.561,3.521-5.403,10.91-7.263
	c7.391-1.854,39.437-8.377,59.115,1.959s27.89,24.104,32.479,28.137c4.596,4.028,12.74,9.003,13.288,13.188
	c0.555,4.183,1.521,18.353,0.645,22.838c-0.876,4.496-2.057,16.955,1.188,24.681c3.249,7.729,11.864,31.478-0.007,33.969
	c-11.873,2.484-17.039-8.543-21.093-6.857c-4.053,1.688-12.551,22.088-23.896,24.773c-11.346,2.687-19.354-3.382-20.94-3.61
	c-1.582-0.232-5.456,14.555,0.396,20.446c5.851,5.889,5.696,14.391,4.32,20.326c-1.377,5.938,1.502,6.961-0.422,15.761
	c-1.927,8.803-3.854,8.202,0.362,28.563c4.227,20.365,7.435,63.122-0.034,73.698c-7.465,10.575-8.389,15.313-17.744,22.69
	c-9.354,7.387-101.141,44.228-117.887,30.425c-16.747-13.801-65.104,4.829-74.123,2.92c-11.896-2.528-42.129-23.876-49.64-30.417
	c-7-6.104,26.483-27.455,27.484-36.214c1.001-8.76,0.313-17.722-2.331-28.097c-2.633-10.377-2.771-32.313,15.581-58.843
	c18.354-26.521,46.81-68.868,55.356-81.3c8.551-12.428,19.43-22.146,28.79-27.175C319.763,665.157,322.355,649.226,332.141,644.067"
	/>
<path fill="none" stroke="#000000" stroke-width="0.9447" stroke-miterlimit="10" d="M332.141,644.067
	c0,0,14.605,8.211,16.438,9.659c1.836,1.449,12.776-23.682,19.077-34.262c6.296-10.576,11.313-13.729,15.738-18.453
	c4.429-4.732,6.884-14.867,5.202-15.422c-1.688-0.561,3.521-5.403,10.91-7.263c7.391-1.854,39.437-8.377,59.115,1.959
	s27.89,24.104,32.479,28.137c4.596,4.028,12.74,9.003,13.288,13.188c0.555,4.183,1.521,18.353,0.645,22.838
	c-0.876,4.496-2.057,16.955,1.188,24.681c3.249,7.729,11.864,31.478-0.007,33.969c-11.873,2.484-17.039-8.543-21.093-6.857
	c-4.053,1.688-12.551,22.088-23.896,24.773c-11.346,2.687-19.354-3.382-20.94-3.61c-1.582-0.232-5.456,14.555,0.396,20.446
	c5.851,5.889,5.696,14.391,4.32,20.326c-1.377,5.938,1.502,6.961-0.422,15.761c-1.927,8.803-3.854,8.202,0.362,28.563
	c4.227,20.365,7.435,63.122-0.034,73.698c-7.465,10.575-8.389,15.313-17.744,22.69c-9.354,7.387-101.141,44.228-117.887,30.425
	c-16.747-13.801-65.104,4.829-74.123,2.92c-11.896-2.528-42.129-23.876-49.64-30.417c-7-6.104,26.483-27.455,27.484-36.214
	c1.001-8.76,0.313-17.722-2.331-28.097c-2.633-10.377-2.771-32.313,15.581-58.843c18.354-26.521,46.81-68.868,55.356-81.3
	c8.551-12.428,19.43-22.146,28.79-27.175C319.763,665.157,322.355,649.226,332.141,644.067z"/>
<path d="M263.2,839.615c0.683,0.128,15.523-3.503,17.151,5.13c1.627,8.631,7.396,20.199,4.601,30.987
	c-2.795,10.787-4.08,13.996-2.343,19.499c1.735,5.497-1.534,23.337-12.806,10.88c-11.269-12.46-8.521-4.13-15.602-19.642
	c-7.08-15.502-11.31-6.479-9.138-20.438C247.245,852.068,257.931,838.656,263.2,839.615"/>
<path d="M313.466,536.157c11.111-7.979,41.359,9.182,57.968,27.579c16.6,18.398,23.218,20.729,23.218,20.729
	s0.686,9.896-7.942,17.621c-8.631,7.721-16.502,18.521-21.132,28.521c-4.635,10-14.804,25.311-14.804,25.311
	s-16.9-8.867-20.948-12.965c-4.038-4.098-7.746-23.696-14.903-43.766C307.755,579.134,294.094,550.073,313.466,536.157"/>
<path d="M424.587,643.921c7.548,0.114,14.017,10.767,14.017,10.767s-7.443,6.761-14.028,8.163
	c-6.587,1.408-15.493-7.479-16.566-9.81C406.929,650.713,413.17,643.731,424.587,643.921"/>
<path d="M498.688,632.74c0,0-0.9-9.973,4.3-13.504c5.188-3.533,9.565-2.188,10.329-0.905c0.76,1.287,3.633,15.956-1.579,17.52
	C506.523,637.406,502.024,636.291,498.688,632.74"/>
<g>
	<path fill="#FFFFFF" d="M820.171,1009.961H0.091V0.071h820.08V1009.961z M9.981,1000.07h800.298V9.96H9.981V1000.07z"/>
</g>
<path fill="#B91B22" d="M426.995,733.078c0-5.305,4.999-9.604,11.166-9.604c4.181,0,5.497,6.19,5.497,7.897
	c0,5.304,0.671,11.312-5.497,11.312C431.994,742.683,426.995,738.382,426.995,733.078z"/>
<path fill="#B91B22" d="M444.865,726.786c0,0,0.131,5.63,0.053,7.53c-0.08,1.896-0.975,7.023-0.975,7.023
	s8.428,19.223,12.939,15.999c4.514-3.22,0-14.725,0-19.175c0-4.449,10.154-17.027,6.057-18.828
	C458.278,717.291,462.318,715.714,444.865,726.786z"/>
<path fill="#B91B22" d="M427.004,728.078c0,0-1.541,4.745-1.544,6.313c-0.002,1.567,1.807,5.715,1.807,5.715
	s-23.458,14.771-27.377,11.93c-3.918-2.845,0.569-12.134,0.741-15.798c0.171-3.664-8.441-14.452-4.699-15.764
	C400.187,718.983,411.791,718.226,427.004,728.078z"/>
<path fill="#BFBFBF" d="M164.001,729.072c0,0-9.247,20.65-4.931,34.83c4.313,14.181,17.324,41.553,38.529,36.063
	c4.454-1.152,6.471-4.623,6.471-4.623s8.633-14.482,11.407-15.412c2.771-0.926,17.879,10.479,25.892,12.329
	c8.013,1.849,40.996,2.155,60.411,5.234c19.42,3.084,44.696,7.493,61.648,3.137c16.948-4.36,31.313-12.688,30.759-14.229
	c-0.557-1.542-18.434-0.93-18.434-0.93s23.43-2.153,32.365-5.546c8.938-3.396,17.259-11.381,12.327-14.166
	c-4.934-2.788-21.271,4.021-45.313,0c-24.039-4.021-53.017-13.271-53.017-16.041c0-2.773,1.542-4.01,13.87-4.01
	c12.329,0,25.359,4.628,34.104,5.239c8.732,0.614,28.772,1.54,38.639,4.006c9.864,2.47,30.188,3.591,34.431,2.979
	c5.688-0.83,6.255-12.227,2.559-14.691c-3.695-2.464-18.803-3.395-35.445-7.242c-16.646-3.85-17.875-6.62-32.979-9.704
	c-15.103-3.082-47.774-4.938-49.627-8.633c-1.849-3.695-0.615-10.479,7.706-10.17c8.324,0.312,14.187-4.01,18.492-4.01
	c4.321,0,18.495,3.396,34.524,8.014c16.025,4.623,26.195,8.018,32.979,5.857c6.78-2.158,8.017-10.532-1.979-15.554
	c-9.997-5.021-19.479-8.022-25.207-9.906c-5.729-1.882-22.179-7.764-25.854-9.283c-3.678-1.521-13.784-2.633-18.106-2.487
	c-4.337,0.146-22.521,4.042-27.865,4.479c-5.34,0.432-18.771,0.284-26.275-2.312c-7.503-2.604-19.479-1.446-28.438,1.729
	c-8.946,3.173-21.073,4.905-24.827,6.354c-3.753,1.438-18.771,6.491-25.839,6.772C209.91,697.446,172.66,711.902,164.001,729.072"/>
<path fill="#828282" d="M472.082,649.211c4.67-1.333,26.129,0.073,32.238,8.533c6.104,8.467,24.152,43.744,7.487,48.334
	c-16.658,4.59-16.724-8.34-21.729-6.991c-5.003,1.342-7.99,22.083-22.66,24.777c-14.665,2.694-30.253-0.022-29.587-25.026
	C438.497,673.827,444.385,657.113,472.082,649.211"/>
<path d="M484.177,660.185c6.148-2.221,17.688-0.367,16.632,7.52c-1.046,7.896-8.026,7.328-11.748,8.819
	c-3.722,1.489-15.464,0.21-16.332-3.952c-0.862-4.164,1.104-10.467,9.569-11.848"/>
</svg>
